# This file uses centimeters as units for non-parametric coordinates.

mtllib SM_cigs_03.mtl
g default
v 3.618562 115.181152 23.218704
v 4.392549 115.322495 22.350851
v 3.508004 114.049797 22.935839
v 4.281989 114.191132 22.067986
v 11.816342 109.628326 30.655815
v 13.599079 109.953888 28.656879
v 13.853724 112.559761 29.308395
v 12.070989 112.234192 31.307327
v 12.112144 109.197533 32.263233
v 15.278991 109.775871 28.712330
v 15.533638 112.381737 29.363844
v 12.366789 111.803391 32.914749
v 14.769710 108.378609 34.499985
v 17.936554 108.956924 30.949078
v 18.191200 111.562798 31.600590
v 15.024354 110.984474 35.151497
v 16.400148 108.136459 34.831177
v 18.506260 108.521080 32.469643
v 18.760906 111.126953 33.121159
v 16.654793 110.742332 35.482697
v 12.648948 107.661018 30.515793
v 13.881309 107.886070 29.133972
v 15.042593 107.763000 29.172300
v 12.853426 107.363205 31.626955
v 16.879707 107.196892 30.718517
v 14.690544 106.797112 33.173172
v 17.273531 106.895599 31.769646
v 15.817625 106.629723 33.402119
v 12.364175 115.234367 32.057434
v 14.146910 115.559944 30.058502
v 12.659976 114.803589 33.664856
v 15.826821 115.381912 30.113949
v 15.317539 113.984650 35.901604
v 18.484388 114.562988 32.350700
v 16.947979 113.742516 36.232803
v 19.054092 114.127136 33.871265
v 5.989492 114.076546 25.494417
v 9.883884 111.996323 29.111570
v 7.097448 114.278870 24.252090
v 11.464487 112.284966 27.339283
v 6.245418 115.715935 26.002842
v 10.218913 114.191261 29.779350
v 7.366275 115.920639 24.746061
v 11.810775 114.481949 27.994432
vt 0.607198 0.483615
vt 0.512812 0.527929
vt 0.473516 0.529498
vt 0.467081 0.468826
vt 0.716622 0.852360
vt 0.655252 0.881574
vt 0.676789 0.874675
vt 0.697732 0.865079
vt 0.591577 0.596959
vt 0.565229 0.606269
vt 0.553333 0.594873
vt 0.597298 0.576155
vt 0.554345 0.644985
vt 0.495711 0.679527
vt 0.487240 0.641566
vt 0.531863 0.623825
vt 0.415076 0.650546
vt 0.735068 0.616773
vt 0.735079 0.580967
vt 0.427893 0.629801
vt 0.458570 0.725068
vt 0.613004 0.623206
vt 0.626355 0.587058
vt 0.672285 0.586318
vt 0.543689 0.555200
vt 0.586667 0.529646
vt 0.476135 0.565486
vt 0.513478 0.560253
vt 0.730354 0.503386
vt 0.428270 0.568907
vt 0.618876 0.514182
vt 0.669397 0.509102
vt 0.543361 0.536156
vt 0.570807 0.511427
vt 0.396376 0.497001
vt 0.429873 0.541407
vt 0.672219 0.795755
vt 0.629887 0.685463
vt 0.676723 0.675099
vt 0.581566 0.847717
vt 0.640286 0.810593
vt 0.577502 0.706438
vt 0.607380 0.825152
vt 0.539850 0.735025
vt 0.502804 0.765266
vt 0.666335 0.622358
vt 0.704371 0.779433
vt 0.361170 0.516167
vt 0.725821 0.468774
vt 0.663129 0.474523
vt 0.331987 0.596244
vt 0.394767 0.696411
vt 0.532542 0.474020
vt 0.352633 0.632751
vt 0.638146 0.898501
vt 0.686301 0.896436
vt 0.707752 0.886727
vn 0.446191 -0.435535 0.781807
vn 0.891460 -0.354220 0.282539
vn 0.927743 -0.173303 0.330543
vn 0.468944 -0.257088 0.844984
vn -0.720386 0.583856 0.374375
vn 0.182029 0.748654 -0.637482
vn 0.304614 -0.654835 -0.691665
vn -0.534098 -0.807996 0.248761
vn -0.705192 -0.579942 -0.407886
vn -0.396326 -0.523537 -0.754211
vn 0.200407 -0.719925 -0.664488
vn -0.510326 -0.849722 0.132441
vn -0.184142 -0.310664 -0.932513
vn 0.151680 0.522817 -0.838842
vn 0.490306 0.166002 -0.855596
vn 0.461299 0.017567 -0.887071
vn -0.370528 0.703236 -0.606769
vn -0.753183 0.633353 -0.177709
vn -0.418406 0.718853 0.555145
vn 0.375794 0.863889 -0.335373
vn -0.885362 0.333432 0.323971
vn -0.886775 -0.438978 -0.144668
vn -0.812735 -0.215097 0.541475
vn -0.801909 -0.069981 0.593334
vn 0.325806 -0.768396 -0.550835
vn -0.375422 -0.896453 0.235436
vn 0.769512 0.083114 -0.633201
vn 0.751732 -0.065123 -0.656246
vn -0.246163 0.679023 0.691615
vn 0.537604 0.822154 -0.187201
vn -0.536721 -0.300418 0.788466
vn -0.535541 -0.155213 0.830123
vn 0.567048 -0.822534 0.043524
vn 0.245704 -0.881217 0.403839
vn 0.452163 0.267413 0.850905
vn 0.847780 0.339661 0.407307
vn -0.597561 -0.727136 0.337926
vn -0.720845 -0.659345 0.213651
vn -0.285162 0.603743 0.744431
vn -0.454005 0.657177 0.601662
vn 0.370965 -0.550265 -0.748059
vn 0.222849 -0.487007 -0.844489
vn 0.426654 0.818002 -0.385797
vn 0.596368 0.764726 -0.244007
s 1
g SM_cigs_03 chara_props
usemtl aiStandardSurface4SG
f 17/53/1 18/2/2 19/3/3 20/4/4
f 1/57/5 2/56/6 4/7/7 3/8/8
f 21/9/9 22/10/10 23/11/11 24/12/12
f 6/13/13 7/14/14 11/15/15 10/16/16
f 30/17/17 29/54/18 31/51/19 32/20/20
f 8/46/21 5/22/22 9/23/23 12/24/24
f 24/12/12 23/11/11 25/25/25 26/26/26
f 10/16/16 11/15/15 15/27/27 14/28/28
f 32/20/20 31/51/19 33/48/29 34/30/30
f 12/24/24 9/23/23 13/31/31 16/32/32
f 26/26/26 25/25/25 27/33/33 28/34/34
f 14/28/28 15/27/27 19/3/3 18/2/2
f 34/30/30 33/48/29 35/35/35 36/36/36
f 16/32/32 13/31/31 17/1/1 20/50/4
f 5/22/22 6/13/13 22/10/10 21/9/9
f 6/13/13 10/16/16 23/11/11 22/10/10
f 9/23/23 5/22/22 21/9/9 24/12/12
f 10/16/16 14/28/28 25/25/25 23/11/11
f 13/31/31 9/23/23 24/12/12 26/26/26
f 14/28/28 18/2/2 27/33/33 25/25/25
f 18/2/2 17/53/1 28/34/34 27/33/33
f 17/1/1 13/31/31 26/26/26 28/34/34
f 7/14/14 8/21/21 29/52/18 30/17/17
f 8/46/21 12/24/24 31/19/19 29/18/18
f 11/15/15 7/14/14 30/17/17 32/20/20
f 12/24/24 16/32/32 33/29/29 31/19/19
f 15/27/27 11/15/15 32/20/20 34/30/30
f 16/32/32 20/50/4 35/49/35 33/29/29
f 20/4/4 19/3/3 36/36/36 35/35/35
f 19/3/3 15/27/27 34/30/30 36/36/36
f 37/37/37 38/38/38 42/39/39 41/47/40
f 38/38/38 37/37/37 39/41/41 40/42/42
f 40/42/42 39/41/41 43/43/43 44/44/44
f 41/40/40 42/45/39 44/44/44 43/43/43
f 41/40/40 43/43/43 2/6/6 1/55/5
f 3/8/8 4/7/7 39/41/41 37/37/37
f 39/41/41 4/7/7 2/6/6 43/43/43
f 3/8/8 37/37/37 41/47/40 1/5/5
f 38/38/38 40/42/42 6/13/13 5/22/22
f 40/42/42 44/44/44 7/14/14 6/13/13
f 44/44/44 42/45/39 8/21/21 7/14/14
f 42/39/39 38/38/38 5/22/22 8/46/21
