# This file uses centimeters as units for non-parametric coordinates.

mtllib SM_cigs_01.mtl
g default
v 10.763312 111.566292 44.877472
v 8.830354 111.159004 41.914127
v 12.947200 111.683952 44.034439
v 12.422284 111.352509 40.527554
v 10.748912 113.892494 45.164806
v 8.806667 114.984985 42.386711
v 12.932798 114.010139 44.321770
v 12.398601 115.178490 41.000137
v 2.471611 116.939171 26.248413
v 1.946696 116.607735 22.741529
v 4.130584 116.725388 21.898491
v 6.063541 117.132683 24.861839
v 1.961096 114.281548 22.454199
v 2.495296 113.113197 25.775827
v 4.144985 114.399200 21.611162
v 6.087227 113.306702 24.389254
v 1.551018 113.703690 22.785738
v 1.884798 114.993935 26.243216
v 4.263630 117.673584 25.633892
v 4.702241 117.253410 21.978569
v 3.008336 117.002869 22.288443
v 6.674038 115.251945 24.394451
v 4.723157 113.874573 21.561213
v 4.417059 115.587585 21.564075
v 3.026792 114.021507 21.920183
v 4.295208 112.572273 25.003777
v 9.300573 116.233879 32.913185
v 5.568713 116.032837 34.353779
v 9.325182 112.258850 32.422188
v 5.593319 112.057800 33.862778
v 10.191655 111.038277 44.797398
v 10.630266 110.618103 41.142071
v 13.363792 111.209167 43.572872
v 11.885559 111.288818 44.487518
v 10.476836 112.704094 45.211891
v 10.170738 114.417114 45.214756
v 8.219855 113.039734 42.381512
v 13.009096 113.297752 40.532745
v 13.342876 114.587997 43.990227
v 13.275825 112.854897 44.131409
v 11.867103 114.270180 44.855782
v 10.598686 115.719391 41.772186
v 1.530102 117.082512 23.203089
v 1.618069 115.436798 22.644554
v 11.781211 110.560570 44.115578
v 9.652506 112.699219 45.210163
v 13.882026 112.927063 43.577461
v 11.753322 115.065689 44.672050
v 1.011870 115.364616 23.198500
v 3.112686 117.731094 22.660387
v 5.241387 115.592468 21.565802
v 3.140574 113.225983 22.103912
v 11.912686 112.768288 44.764263
v 7.430542 116.795860 33.715313
v 2.981209 115.523407 22.011700
v 7.463352 111.495827 33.060650
v 9.934855 114.279869 32.427586
v 4.959040 114.011826 34.348377
vt 0.105222 0.068408
vt 0.118729 0.075590
vt 0.089894 0.096363
vt 0.085004 0.080986
vt 0.127809 0.157746
vt 0.088698 0.158183
vt 0.049516 0.158299
vt 0.053625 0.095631
vt 0.060971 0.082006
vt 0.119806 0.039866
vt 0.166903 0.155994
vt 0.104316 0.044601
vt 0.091700 0.024368
vt 0.098883 0.010861
vt 0.205980 0.154196
vt 0.309728 0.080381
vt 0.048432 0.061718
vt 0.009801 0.156881
vt 0.284335 0.147801
vt 0.274677 0.085844
vt 0.047587 0.037868
vt 0.063119 0.009766
vt 0.245103 0.151169
vt 0.067854 0.025254
vt 0.221311 0.491320
vt 0.222345 0.553539
vt 0.201216 0.582022
vt 0.182230 0.493069
vt 0.229514 0.567095
vt 0.216613 0.587058
vt 0.215316 0.610850
vt 0.201671 0.617766
vt 0.143156 0.494865
vt 0.258911 0.552848
vt 0.253635 0.568325
vt 0.260384 0.490893
vt 0.299580 0.490760
vt 0.295517 0.553366
vt 0.273587 0.581333
vt 0.039413 0.568680
vt 0.272198 0.605158
vt 0.339300 0.492174
vt 0.064801 0.501260
vt 0.074465 0.563216
vt 0.259177 0.625162
vt 0.230307 0.639224
vt 0.104033 0.497892
vt 0.235344 0.623831
vt 0.076391 0.053147
vt 0.256908 0.320831
vt 0.215724 0.322706
vt 0.298124 0.318956
vt 0.244431 0.596098
vt 0.092211 0.328232
vt 0.133396 0.326357
vt 0.050995 0.330107
vt 0.339354 0.317074
vt 0.174561 0.324532
vt 0.025689 0.506185
vt 0.009766 0.331988
vt 0.323447 0.142876
vt 0.330950 0.555725
vt 0.018181 0.093286
vt 0.266094 0.638807
vt 0.110841 0.559422
vt 0.147795 0.556943
vt 0.287592 0.610194
vt 0.287232 0.574416
vt 0.185029 0.554681
vt 0.034080 0.030685
vt 0.238305 0.089637
vt 0.201363 0.092114
vt 0.032941 0.066454
vt 0.164155 0.094370
vt 0.126897 0.095500
vn 0.204499 -0.276979 0.938863
vn -0.558772 -0.743854 0.366682
vn 0.086755 -0.992491 0.086233
vn 0.357333 -0.303372 0.883334
vn -0.641839 -0.740618 0.198816
vn 0.017775 -0.995518 -0.092888
vn 0.675071 -0.669673 -0.309544
vn 0.726726 -0.674600 -0.129553
vn 0.504606 -0.260810 0.823014
vn -0.827620 -0.073850 0.556409
vn -0.919616 -0.053758 0.389122
vn 0.174455 -0.119647 0.977369
vn 0.202517 0.042684 0.978348
vn -0.567248 0.625408 0.535812
vn -0.650522 0.662101 0.372080
vn 0.989153 0.024022 -0.144910
vn 0.537815 -0.100070 0.837103
vn 0.942884 0.046580 -0.329849
vn 0.666387 0.733046 -0.136279
vn 0.718249 0.694659 0.039582
vn 0.502624 0.058852 0.862499
vn 0.074778 0.942662 0.325264
vn 0.005494 0.988341 0.152160
vn 0.354935 0.083660 0.931140
vn -0.675071 0.669674 0.309543
vn -0.726725 0.674602 0.129551
vn -0.989153 -0.024023 0.144910
vn -0.942884 -0.046580 0.329849
vn -0.504605 0.260813 -0.823013
vn -0.537813 0.100070 -0.837104
vn -0.502627 -0.058853 -0.862498
vn -0.718251 -0.694657 -0.039580
vn -0.666389 -0.733044 0.136281
vn -0.086758 0.992490 -0.086234
vn -0.357333 0.303377 -0.883332
vn -0.017775 0.995518 0.092886
vn 0.641839 0.740618 -0.198816
vn 0.558772 0.743854 -0.366681
vn -0.204493 0.276980 -0.938863
vn 0.827620 0.073851 -0.556409
vn -0.174452 0.119645 -0.977370
vn 0.919616 0.053758 -0.389122
vn 0.650523 -0.662099 -0.372081
vn 0.567248 -0.625403 -0.535817
vn -0.202516 -0.042683 -0.978348
vn -0.074779 -0.942661 -0.325267
vn -0.005493 -0.988341 -0.152160
vn -0.354938 -0.083660 -0.931139
vn 0.363103 -0.112008 0.924992
vn -0.006144 0.992439 0.122586
vn -0.663175 0.666269 0.341006
vn 0.654487 0.737253 -0.167644
vn -0.363105 0.112008 -0.924991
vn 0.006144 -0.992439 -0.122586
vn -0.654488 -0.737253 0.167645
vn 0.663176 -0.666267 -0.341006
vn 0.931728 0.050195 -0.359670
vn -0.931728 -0.050194 0.359671
s 1
g SM_cigs_01 chara_props
usemtl aiStandardSurface4SG
f 1/1/1 31/2/2 45/3/3 34/4/4
f 31/75/2 2/5/5 32/6/6 45/3/3
f 45/3/3 32/6/6 4/7/7 33/8/8
f 34/4/4 45/3/3 33/8/8 3/9/9
f 2/5/5 31/75/2 46/74/10 37/11/11
f 31/2/2 1/1/1 35/12/12 46/10/10
f 46/10/10 35/12/12 5/13/13 36/14/14
f 37/11/11 46/74/10 36/72/14 6/15/15
f 3/9/9 33/8/8 47/73/16 40/17/17
f 33/8/8 4/7/7 38/18/18 47/63/16
f 47/16/16 38/61/18 8/19/19 39/20/20
f 40/17/17 47/73/16 39/70/20 7/21/21
f 6/15/15 36/72/14 48/71/22 42/23/23
f 36/14/14 5/13/13 41/24/24 48/22/22
f 48/22/22 41/24/24 7/21/21 39/70/20
f 42/23/23 48/71/22 39/20/20 8/19/19
f 9/25/25 43/26/26 49/69/27 18/28/28
f 43/26/26 10/29/29 44/30/30 49/27/27
f 49/27/27 44/30/30 13/31/31 17/32/32
f 18/28/28 49/69/27 17/66/32 14/33/33
f 10/29/29 43/26/26 50/34/34 21/35/35
f 43/26/26 9/25/25 19/36/36 50/34/34
f 50/34/34 19/36/36 12/37/37 20/38/38
f 21/35/35 50/34/34 20/68/38 11/39/39
f 11/39/39 20/68/38 51/67/40 24/41/41
f 20/38/38 12/37/37 22/42/42 51/62/40
f 51/40/40 22/59/42 16/43/43 23/44/44
f 24/41/41 51/67/40 23/64/44 15/45/45
f 14/33/33 17/66/32 52/65/46 26/47/47
f 17/32/32 13/31/31 25/48/48 52/46/46
f 52/46/46 25/48/48 15/45/45 23/64/44
f 26/47/47 52/65/46 23/44/44 16/43/43
f 1/1/1 34/4/4 53/49/49 35/12/12
f 34/4/4 3/9/9 40/17/17 53/49/49
f 53/49/49 40/17/17 7/21/21 41/24/24
f 35/12/12 53/49/49 41/24/24 5/13/13
f 6/15/15 42/23/23 54/50/50 28/51/51
f 42/23/23 8/19/19 27/52/52 54/50/50
f 54/50/50 27/52/52 12/37/37 19/36/36
f 28/51/51 54/50/50 19/36/36 9/25/25
f 10/29/29 21/35/35 55/53/53 44/30/30
f 21/35/35 11/39/39 24/41/41 55/53/53
f 55/53/53 24/41/41 15/45/45 25/48/48
f 44/30/30 55/53/53 25/48/48 13/31/31
f 14/33/33 26/47/47 56/54/54 30/55/55
f 26/47/47 16/43/43 29/56/56 56/54/54
f 56/54/54 29/56/56 4/7/7 32/6/6
f 30/55/55 56/54/54 32/6/6 2/5/5
f 4/7/7 29/56/56 57/60/57 38/18/18
f 29/56/56 16/43/43 22/59/42 57/60/57
f 57/57/57 22/42/42 12/37/37 27/52/52
f 38/61/18 57/57/57 27/52/52 8/19/19
f 14/33/33 30/55/55 58/58/58 18/28/28
f 30/55/55 2/5/5 37/11/11 58/58/58
f 58/58/58 37/11/11 6/15/15 28/51/51
f 18/28/28 58/58/58 28/51/51 9/25/25
