# This file uses centimeters as units for non-parametric coordinates.

mtllib SM_cigs_04.mtl
g default
v 8.847750 110.298988 27.582941
v 8.833805 111.251236 28.909878
v 10.051115 112.141991 28.283451
v 10.065073 111.189751 26.956511
v 18.909164 101.741814 34.194473
v 17.394798 102.614693 33.212425
v 17.381187 103.543144 34.506187
v 18.900276 102.348450 35.039799
v 18.568100 104.411629 33.895420
v 19.675797 102.915894 34.640724
v 18.581696 103.483185 32.601662
v 19.684662 102.309258 33.795410
v 18.772705 104.092155 33.146744
v 13.712811 105.904152 30.787952
v 13.698872 106.856422 32.114887
v 8.637873 110.626648 28.350811
v 14.916191 107.747169 31.488472
v 9.440121 111.855324 28.817820
v 14.930161 106.794930 30.161526
v 10.260998 111.814323 27.515572
v 9.458752 110.585663 27.048565
v 18.710632 101.535912 34.075798
v 17.990509 102.894203 32.691410
v 19.806244 102.337601 33.512009
v 19.312401 101.919327 33.873997
v 18.799355 101.944939 34.687908
v 18.698059 102.392960 35.270069
v 17.190178 102.934174 33.961098
v 19.300766 102.712891 34.979794
v 19.793686 103.194641 34.706268
v 17.972366 104.132118 34.416443
v 19.813812 102.687256 34.165886
v 19.260544 101.793930 33.594864
v 18.521751 101.830818 34.766899
v 19.243774 102.936638 35.187210
v 19.982567 102.899757 34.015182
v 13.502945 106.231827 31.555822
v 14.305206 107.460495 32.022831
v 15.126064 107.419502 30.720604
v 14.323814 106.190834 30.253584
v 19.324738 102.299721 34.438850
v 13.283819 114.239967 23.668903
v 11.086046 119.324631 19.996883
v 5.097206 121.635284 18.275700
v -1.174507 119.818390 19.513603
v -4.055195 114.938255 22.985428
v -1.857388 109.853584 26.657440
v 4.131437 107.542938 28.378622
v 10.403128 109.359825 27.140715
v 13.254135 116.265068 26.490829
v 11.056349 121.349731 22.818817
v 5.067528 123.660393 21.097633
v -1.204170 121.843491 22.335531
v -4.084877 116.963356 25.807364
v -1.887070 111.878685 29.479378
v 4.101757 109.568039 31.200556
v 10.373461 111.384926 29.962652
v 7.632115 114.467567 23.446125
v 6.867075 116.237511 22.167915
v 4.782401 117.041840 21.568789
v 2.599266 116.409393 21.999695
v 1.596517 114.710640 23.208216
v 2.361557 112.940697 24.486412
v 4.446227 112.136368 25.085545
v 6.629378 112.768829 24.654644
v 7.602444 116.492676 26.268055
v 6.837411 118.262619 24.989826
v 4.752723 119.066940 24.390697
v 2.569588 118.434479 24.821619
v 1.566847 116.735748 26.030146
v 2.331883 114.965805 27.308344
v 4.416553 114.161484 27.907486
v 6.599696 114.793938 27.476583
v 11.399927 114.315842 23.594643
v 9.679729 118.295586 20.720554
v 4.992270 120.104141 19.373398
v 0.083420 118.682053 20.342302
v -2.171297 114.862381 23.059687
v -0.451089 110.882629 25.933769
v 4.236366 109.074089 27.280928
v 9.145208 110.496155 26.312038
v 9.516031 114.391708 23.520382
v 8.273421 117.266556 21.444233
v 4.887333 118.572998 20.471088
v 1.341337 117.545731 21.170988
v -0.287400 114.786507 23.133945
v 0.955229 111.911674 25.210089
v 4.341287 110.605232 26.183239
v 7.887301 111.632500 25.483347
v 11.370249 116.340942 26.416569
v 9.115530 112.521255 29.133966
v 4.206676 111.099190 30.102871
v -0.480756 112.907730 28.755692
v -2.200962 116.887482 25.881618
v 0.053741 120.707153 23.164225
v 4.962591 122.129242 22.195328
v 9.650031 120.320694 23.542496
v 9.486352 116.416817 26.342316
v 7.857603 113.657593 28.305269
v 4.311616 112.630325 29.005169
v 0.925547 113.936768 28.032024
v -0.317075 116.811615 25.955879
v 1.311666 119.570831 23.992928
v 4.857655 120.598076 23.293011
v 8.243728 119.291656 24.266167
v 7.628648 114.704880 23.776798
v 6.863607 116.474823 22.498589
v 4.610830 114.826416 23.657841
v 4.778928 117.279137 21.899450
v 2.595789 116.646698 22.330353
v 1.593017 114.947952 23.538881
v 2.358059 113.178009 24.817102
v 4.442757 112.373672 25.416214
v 6.625905 113.006134 24.985327
v 7.605921 116.255371 25.937386
v 6.840879 118.025322 24.659172
v 4.588110 116.376907 25.818428
v 4.756209 118.829643 24.060047
v 2.573065 118.197189 24.490965
v 1.570311 116.498428 25.699467
v 2.335337 114.728500 26.977671
v 4.420030 113.924179 27.576809
v 6.603171 114.556610 27.145891
v 11.396447 114.553131 23.925316
v 9.676250 118.532890 21.051243
v 9.512547 114.629021 23.851059
v 8.269916 117.503860 21.774914
v 4.988796 120.341446 19.704075
v 4.883850 118.810287 20.801762
v 0.079933 118.919373 20.672970
v 1.337864 117.783020 21.501665
v -2.174765 115.099678 23.390362
v -0.290875 115.023819 23.464624
v -0.454569 111.119934 26.264441
v 0.951746 112.148972 25.540766
v 4.232883 109.311386 27.611614
v 4.337811 110.842529 26.513910
v 9.141724 110.733467 26.642708
v 7.883819 111.869789 25.814018
v 11.373726 116.103630 26.085892
v 9.118998 112.283966 28.803291
v 9.489832 116.179504 26.011627
v 7.861086 113.420296 27.974592
v 4.210155 110.861870 29.772182
v 4.315097 112.393028 28.674484
v -0.477279 112.670425 28.425022
v 0.929025 113.699463 27.701340
v -2.197495 116.650177 25.550970
v -0.313585 116.574303 25.625208
v 0.057238 120.469856 22.833551
v 1.315144 119.333527 23.662249
v 4.966063 121.891937 21.864655
v 4.861128 120.360794 22.962349
v 9.653522 120.083382 23.211830
v 8.247201 119.054359 23.935493
vt 0.824079 0.015412
vt 0.821892 0.009766
vt 0.883005 0.049836
vt 0.834645 0.016723
vt 0.898563 0.087181
vt 0.882316 0.086923
vt 0.866069 0.086581
vt 0.867491 0.049415
vt 0.842732 0.023645
vt 0.811590 0.021045
vt 0.914826 0.087150
vt 0.817156 0.023503
vt 0.815847 0.034073
vt 0.810200 0.036260
vt 0.931119 0.087014
vt 0.821494 0.046579
vt 0.817143 0.084166
vt 0.823940 0.041000
vt 0.834487 0.042294
vt 0.836662 0.047927
vt 0.833507 0.085205
vt 0.846984 0.036668
vt 0.849803 0.085947
vt 0.841417 0.034210
vt 0.894396 0.336904
vt 0.897123 0.194364
vt 0.913967 0.194598
vt 0.911251 0.337215
vt 0.930808 0.194789
vt 0.928099 0.337517
vt 0.812966 0.192363
vt 0.810167 0.335204
vt 0.829782 0.192852
vt 0.826994 0.335553
vt 0.846610 0.193304
vt 0.843835 0.335903
vt 0.863443 0.193716
vt 0.860684 0.336248
vt 0.880282 0.194066
vt 0.877539 0.336581
vt 0.829289 0.028858
vt 0.411790 0.164155
vt 0.410407 0.299805
vt 0.249861 0.990234
vt 0.349326 0.890788
vt 0.505340 0.396689
vt 0.109210 0.990219
vt 0.640916 0.398026
vt 0.009766 0.890754
vt 0.737706 0.303158
vt 0.009780 0.750104
vt 0.739103 0.167659
vt 0.109245 0.650660
vt 0.644299 0.070825
vt 0.249894 0.650673
vt 0.508749 0.069354
vt 0.349339 0.750138
vt 0.526717 0.252930
vt 0.527164 0.213360
vt 0.574732 0.233703
vt 0.554398 0.281256
vt 0.593981 0.281719
vt 0.622295 0.254063
vt 0.622760 0.214488
vt 0.595099 0.186171
vt 0.555503 0.185699
vt 0.228772 0.840919
vt 0.199880 0.869726
vt 0.179553 0.820447
vt 0.159081 0.869666
vt 0.130274 0.840774
vt 0.130335 0.799975
vt 0.159226 0.771169
vt 0.200025 0.771229
vt 0.228831 0.800120
vt 0.444741 0.178332
vt 0.443706 0.286501
vt 0.519451 0.363729
vt 0.627583 0.364739
vt 0.704746 0.289032
vt 0.705799 0.180953
vt 0.630128 0.103764
vt 0.522010 0.102670
vt 0.235674 0.955637
vt 0.314831 0.876357
vt 0.123642 0.955724
vt 0.044363 0.876567
vt 0.044276 0.764536
vt 0.123432 0.685257
vt 0.235462 0.685169
vt 0.314742 0.764325
vt 0.450575 0.283735
vt 0.451562 0.181219
vt 0.483496 0.194887
vt 0.482844 0.270842
vt 0.522313 0.356901
vt 0.535955 0.324952
vt 0.624771 0.357889
vt 0.611820 0.325652
vt 0.697914 0.286175
vt 0.665967 0.272525
vt 0.698947 0.183761
vt 0.666698 0.196680
vt 0.627268 0.110594
vt 0.613584 0.142522
vt 0.524816 0.109521
vt 0.537712 0.141770
vt 0.489430 0.268073
vt 0.490090 0.197652
vt 0.520837 0.210748
vt 0.520409 0.255576
vt 0.538706 0.318346
vt 0.551795 0.287587
vt 0.609094 0.319041
vt 0.596612 0.288038
vt 0.659365 0.269779
vt 0.628623 0.256672
vt 0.660088 0.199405
vt 0.629078 0.211859
vt 0.610836 0.149122
vt 0.597708 0.179846
vt 0.540431 0.148380
vt 0.552877 0.179381
vt 0.307653 0.767319
vt 0.307701 0.873461
vt 0.274257 0.859595
vt 0.274200 0.781163
vt 0.232566 0.692299
vt 0.218701 0.725744
vt 0.126426 0.692346
vt 0.140269 0.725800
vt 0.051405 0.767432
vt 0.084850 0.781298
vt 0.051452 0.873574
vt 0.084905 0.859730
vt 0.126538 0.948594
vt 0.140404 0.915150
vt 0.232681 0.948548
vt 0.218836 0.915095
vt 0.267379 0.784056
vt 0.267387 0.856818
vt 0.235322 0.843546
vt 0.235321 0.797346
vt 0.215923 0.732613
vt 0.202652 0.764678
vt 0.143163 0.732621
vt 0.156452 0.764679
vt 0.091719 0.784076
vt 0.123784 0.797348
vt 0.091727 0.856837
vt 0.123785 0.843548
vt 0.143182 0.908281
vt 0.156454 0.876216
vt 0.215943 0.908273
vt 0.202654 0.876216
vt 0.482218 0.009766
vt 0.350874 0.140892
vt 0.667648 0.009917
vt 0.798659 0.141045
vt 0.798659 0.326390
vt 0.667632 0.457528
vt 0.482173 0.457650
vt 0.350903 0.326498
vt 0.947470 0.086594
vt 0.947648 0.194937
vt 0.944936 0.337818
vt 0.848379 0.021458
vt 0.852036 0.048826
vt 0.944559 0.048898
vt 0.929377 0.049651
vt 0.913986 0.049976
vt 0.898522 0.049990
vt 0.837103 0.011157
vn 0.582559 -0.713291 0.389668
vn -0.426462 -0.871703 -0.241381
vn 0.100502 -0.660569 -0.744008
vn 0.662329 -0.671527 0.332221
vn -0.510853 -0.806878 -0.296611
vn 0.018052 -0.591539 -0.806074
vn 0.543056 -0.035705 -0.838937
vn 0.617966 -0.107467 -0.778825
vn 0.737980 -0.599565 0.309689
vn -0.646137 -0.623283 0.440484
vn -0.735729 -0.553890 0.389755
vn 0.566389 -0.666731 0.484430
vn 0.580780 -0.591707 0.559087
vn -0.438443 -0.054714 0.897092
vn -0.522937 0.017533 0.852191
vn 0.083582 0.494294 0.865268
vn 0.000962 0.574367 0.818598
vn 0.660150 -0.523124 0.539020
vn 0.736191 -0.477992 0.479111
vn 0.605988 0.709528 0.359651
vn 0.530967 0.788707 0.309864
vn 0.830210 0.456998 -0.319225
vn 0.754740 0.536719 -0.377228
vn 0.756100 -0.527918 0.386801
vn -0.520967 -0.797881 -0.303282
vn -0.519475 -0.799227 -0.302295
vn -0.743901 -0.546626 0.384462
vn -0.745309 -0.545357 0.383537
vn -0.531560 0.025277 0.846644
vn -0.533051 0.026626 0.845664
vn -0.007139 0.581741 0.813343
vn -0.008544 0.583014 0.812417
vn 0.522459 0.796533 0.304255
vn 0.520968 0.797883 0.303275
vn 0.746716 0.544092 -0.382595
vn 0.745310 0.545366 -0.383521
vn 0.534548 -0.027969 -0.844675
vn 0.533056 -0.026622 -0.845661
vn 0.009954 -0.584280 -0.811491
vn 0.008547 -0.583008 -0.812421
vn 0.666661 -0.602223 0.439193
vn 0.941368 -0.236799 -0.240317
vn 0.703464 0.313602 -0.637802
vn 0.697629 0.711614 -0.083181
vn 0.935534 0.161213 0.314304
vn 0.055187 0.563723 -0.824118
vn 0.049354 0.961736 -0.269494
vn -0.623707 0.367049 -0.690119
vn -0.629539 0.765063 -0.135496
vn -0.935535 -0.161213 -0.314301
vn -0.941367 0.236799 0.240321
vn -0.697629 -0.711614 0.083182
vn -0.703462 -0.313602 0.637805
vn -0.049354 -0.961736 0.269495
vn -0.055187 -0.563724 0.824117
vn 0.629540 -0.765062 0.135497
vn 0.623708 -0.367050 0.690118
vn -0.243847 -0.733022 -0.634994
vn -0.329392 -0.535122 -0.777911
vn 0.008545 -0.583014 -0.812417
vn -0.010754 -0.822957 -0.568003
vn 0.233346 -0.752242 -0.616183
vn 0.345476 -0.562300 -0.751309
vn 0.259933 -0.364392 -0.894233
vn 0.026835 -0.274450 -0.961227
vn -0.217267 -0.345176 -0.913043
vn -0.345473 0.562298 0.751312
vn -0.259923 0.364405 0.894231
vn -0.008544 0.583011 0.812420
vn -0.026833 0.274475 0.961220
vn 0.217266 0.345181 0.913042
vn 0.329388 0.535119 0.777915
vn 0.243851 0.733022 0.634993
vn 0.010755 0.822961 0.567996
vn -0.233352 0.752242 0.616181
vn -0.141140 -0.570409 -0.809143
vn -0.103217 -0.658144 -0.745783
vn 0.000116 -0.698013 -0.716085
vn 0.108332 -0.666662 -0.737446
vn 0.158034 -0.582457 -0.797351
vn 0.120115 -0.494723 -0.860710
vn 0.016779 -0.454852 -0.890409
vn -0.091436 -0.486204 -0.869049
vn -0.120112 0.494723 0.860710
vn -0.158035 0.582456 0.797352
vn -0.016780 0.454856 0.890407
vn 0.091434 0.486206 0.869048
vn 0.141138 0.570407 0.809145
vn 0.103217 0.658143 0.745784
vn -0.000115 0.698013 0.716085
vn -0.108328 0.666660 0.737448
vn -0.227998 -0.725750 -0.649079
vn -0.308174 -0.540250 -0.783045
vn 0.151489 -0.582759 -0.798400
vn 0.115230 -0.498868 -0.858984
vn -0.009514 -0.810045 -0.586290
vn 0.016423 -0.460746 -0.887380
vn 0.219286 -0.743758 -0.631456
vn -0.087053 -0.490724 -0.866956
vn 0.324384 -0.565724 -0.758111
vn -0.134577 -0.571239 -0.809676
vn 0.244205 -0.380230 -0.892070
vn -0.098315 -0.655128 -0.749094
vn 0.025722 -0.295937 -0.954861
vn 0.000489 -0.693252 -0.720695
vn -0.203081 -0.362217 -0.909701
vn 0.103961 -0.663276 -0.741119
vn 0.258037 -0.366324 -0.893993
vn 0.342932 -0.562729 -0.752153
vn -0.121718 -0.572795 -0.810612
vn -0.088715 -0.649150 -0.755469
vn 0.026703 -0.277071 -0.960478
vn 0.001219 -0.683847 -0.729624
vn -0.215553 -0.347253 -0.912662
vn 0.095403 -0.656563 -0.748214
vn -0.326828 -0.535755 -0.778557
vn 0.138666 -0.583277 -0.800350
vn -0.241939 -0.732160 -0.636716
vn 0.105659 -0.506922 -0.855492
vn -0.010604 -0.821416 -0.570230
vn 0.015725 -0.472228 -0.881336
vn 0.231659 -0.751235 -0.618046
vn -0.078456 -0.499511 -0.862747
vn -0.219292 0.743765 0.631447
vn -0.324382 0.565726 0.758110
vn 0.134578 0.571240 0.809675
vn 0.087050 0.490726 0.866955
vn 0.009512 0.810050 0.586284
vn -0.016424 0.460747 0.887379
vn 0.227994 0.725752 0.649079
vn -0.115226 0.498870 0.858983
vn 0.308170 0.540255 0.783042
vn -0.151487 0.582760 0.798400
vn 0.203076 0.362217 0.909703
vn -0.103962 0.663276 0.741118
vn -0.025721 0.295933 0.954862
vn -0.000491 0.693249 0.720698
vn -0.244206 0.380229 0.892070
vn 0.098317 0.655127 0.749095
vn 0.215561 0.347240 0.912665
vn 0.326833 0.535754 0.778555
vn -0.138662 0.583281 0.800348
vn -0.095403 0.656565 0.748212
vn -0.026703 0.277060 0.960481
vn -0.001220 0.683848 0.729623
vn -0.258037 0.366316 0.893996
vn 0.088714 0.649149 0.755470
vn -0.342928 0.562726 0.752156
vn 0.121719 0.572791 0.810614
vn -0.231652 0.751233 0.618051
vn 0.078461 0.499511 0.862747
vn 0.010604 0.821411 0.570238
vn -0.015720 0.472230 0.881335
vn 0.241931 0.732157 0.636722
vn -0.105657 0.506928 0.855489
s 1
g SM_cigs_04 chara_props
usemtl aiStandardSurface4SG
f 5/1/1 22/2/2 33/173/3 25/4/4
f 22/172/2 6/5/5 23/6/6 33/3/3
f 33/3/3 23/6/6 11/7/7 24/8/8
f 25/4/4 33/173/3 24/167/8 12/9/9
f 6/5/5 22/172/2 34/171/10 28/11/11
f 22/2/2 5/1/1 26/12/12 34/10/10
f 34/10/10 26/12/12 8/13/13 27/14/14
f 28/11/11 34/171/10 27/170/14 7/15/15
f 7/15/15 27/170/14 35/169/16 31/164/17
f 27/14/14 8/13/13 29/18/18 35/16/16
f 35/16/16 29/18/18 10/19/19 30/20/20
f 31/17/17 35/16/16 30/20/20 9/21/21
f 9/21/21 30/20/20 36/168/22 13/23/23
f 30/20/20 10/19/19 32/24/24 36/22/22
f 36/22/22 32/24/24 12/9/9 24/167/8
f 13/23/23 36/168/22 24/8/8 11/7/7
f 1/25/25 14/26/26 37/27/27 16/28/28
f 14/26/26 6/5/5 28/11/11 37/27/27
f 37/27/27 28/11/11 7/15/15 15/29/29
f 16/28/28 37/27/27 15/29/29 2/30/30
f 2/30/30 15/29/29 38/165/31 18/166/32
f 15/29/29 7/15/15 31/164/17 38/165/31
f 38/31/31 31/17/17 9/21/21 17/33/33
f 18/32/32 38/31/31 17/33/33 3/34/34
f 3/34/34 17/33/33 39/35/35 20/36/36
f 17/33/33 9/21/21 13/23/23 39/35/35
f 39/35/35 13/23/23 11/7/7 19/37/37
f 20/36/36 39/35/35 19/37/37 4/38/38
f 4/38/38 19/37/37 40/39/39 21/40/40
f 19/37/37 11/7/7 23/6/6 40/39/39
f 40/39/39 23/6/6 6/5/5 14/26/26
f 21/40/40 40/39/39 14/26/26 1/25/25
f 5/1/1 25/4/4 41/41/41 26/12/12
f 25/4/4 12/9/9 32/24/24 41/41/41
f 41/41/41 32/24/24 10/19/19 29/18/18
f 26/12/12 41/41/41 29/18/18 8/13/13
s 3
f 42/42/42 43/43/43 51/163/44 50/157/45
f 43/43/43 44/46/46 52/162/47 51/163/44
f 44/46/46 45/48/48 53/161/49 52/162/47
f 45/48/48 46/50/50 54/160/51 53/161/49
f 46/50/50 47/52/52 55/159/53 54/160/51
f 47/52/52 48/54/54 56/158/55 55/159/53
f 48/54/54 49/56/56 57/156/57 56/158/55
f 49/56/56 42/42/42 50/157/45 57/156/57
f 107/58/58 106/59/59 108/60/60
f 109/61/61 107/58/58 108/60/60
f 110/62/62 109/61/61 108/60/60
f 111/63/63 110/62/62 108/60/60
f 112/64/64 111/63/63 108/60/60
f 113/65/65 112/64/64 108/60/60
f 114/66/66 113/65/65 108/60/60
f 106/59/59 114/66/66 108/60/60
f 115/67/67 116/68/68 117/69/69
f 116/68/68 118/70/70 117/69/69
f 118/70/70 119/71/71 117/69/69
f 119/71/71 120/72/72 117/69/69
f 120/72/72 121/73/73 117/69/69
f 121/73/73 122/74/74 117/69/69
f 122/74/74 123/75/75 117/69/69
f 123/75/75 115/67/67 117/69/69
f 43/43/43 42/42/42 74/76/76 75/77/77
f 44/46/46 43/43/43 75/77/77 76/78/78
f 45/48/48 44/46/46 76/78/78 77/79/79
f 46/50/50 45/48/48 77/79/79 78/80/80
f 47/52/52 46/50/50 78/80/80 79/81/81
f 48/54/54 47/52/52 79/81/81 80/82/82
f 49/56/56 48/54/54 80/82/82 81/83/83
f 42/42/42 49/56/56 81/83/83 74/76/76
f 50/45/45 51/44/44 97/84/84 90/85/85
f 51/44/44 52/47/47 96/86/86 97/84/84
f 52/47/47 53/49/49 95/87/87 96/86/86
f 53/49/49 54/51/51 94/88/88 95/87/87
f 54/51/51 55/53/53 93/89/89 94/88/88
f 55/53/53 56/55/55 92/90/90 93/89/89
f 56/55/55 57/57/57 91/91/91 92/90/90
f 57/57/57 50/45/45 90/85/85 91/91/91
f 125/92/92 124/93/93 126/94/94 127/95/95
f 128/96/96 125/92/92 127/95/95 129/97/97
f 130/98/98 128/96/96 129/97/97 131/99/99
f 132/100/100 130/98/98 131/99/99 133/101/101
f 134/102/102 132/100/100 133/101/101 135/103/103
f 136/104/104 134/102/102 135/103/103 137/105/105
f 138/106/106 136/104/104 137/105/105 139/107/107
f 124/93/93 138/106/106 139/107/107 126/94/94
f 83/108/108 82/109/109 58/110/110 59/111/111
f 84/112/112 83/108/108 59/111/111 60/113/113
f 85/114/114 84/112/112 60/113/113 61/115/115
f 86/116/116 85/114/114 61/115/115 62/117/117
f 87/118/118 86/116/116 62/117/117 63/119/119
f 88/120/120 87/118/118 63/119/119 64/121/121
f 89/122/122 88/120/120 64/121/121 65/123/123
f 82/109/109 89/122/122 65/123/123 58/110/110
f 141/124/124 140/125/125 142/126/126 143/127/127
f 144/128/128 141/124/124 143/127/127 145/129/129
f 146/130/130 144/128/128 145/129/129 147/131/131
f 148/132/132 146/130/130 147/131/131 149/133/133
f 150/134/134 148/132/132 149/133/133 151/135/135
f 152/136/136 150/134/134 151/135/135 153/137/137
f 154/138/138 152/136/136 153/137/137 155/139/139
f 140/125/125 154/138/138 155/139/139 142/126/126
f 99/140/140 98/141/141 66/142/142 73/143/143
f 100/144/144 99/140/140 73/143/143 72/145/145
f 101/146/146 100/144/144 72/145/145 71/147/147
f 102/148/148 101/146/146 71/147/147 70/149/149
f 103/150/150 102/148/148 70/149/149 69/151/151
f 104/152/152 103/150/150 69/151/151 68/153/153
f 105/154/154 104/152/152 68/153/153 67/155/155
f 98/141/141 105/154/154 67/155/155 66/142/142
f 59/111/111 58/110/110 106/59/59 107/58/58
f 60/113/113 59/111/111 107/58/58 109/61/61
f 61/115/115 60/113/113 109/61/61 110/62/62
f 62/117/117 61/115/115 110/62/62 111/63/63
f 63/119/119 62/117/117 111/63/63 112/64/64
f 64/121/121 63/119/119 112/64/64 113/65/65
f 65/123/123 64/121/121 113/65/65 114/66/66
f 58/110/110 65/123/123 114/66/66 106/59/59
f 66/142/142 67/155/155 116/68/68 115/67/67
f 67/155/155 68/153/153 118/70/70 116/68/68
f 68/153/153 69/151/151 119/71/71 118/70/70
f 69/151/151 70/149/149 120/72/72 119/71/71
f 70/149/149 71/147/147 121/73/73 120/72/72
f 71/147/147 72/145/145 122/74/74 121/73/73
f 72/145/145 73/143/143 123/75/75 122/74/74
f 73/143/143 66/142/142 115/67/67 123/75/75
f 75/77/77 74/76/76 124/93/93 125/92/92
f 82/109/109 83/108/108 127/95/95 126/94/94
f 76/78/78 75/77/77 125/92/92 128/96/96
f 83/108/108 84/112/112 129/97/97 127/95/95
f 77/79/79 76/78/78 128/96/96 130/98/98
f 84/112/112 85/114/114 131/99/99 129/97/97
f 78/80/80 77/79/79 130/98/98 132/100/100
f 85/114/114 86/116/116 133/101/101 131/99/99
f 79/81/81 78/80/80 132/100/100 134/102/102
f 86/116/116 87/118/118 135/103/103 133/101/101
f 80/82/82 79/81/81 134/102/102 136/104/104
f 87/118/118 88/120/120 137/105/105 135/103/103
f 81/83/83 80/82/82 136/104/104 138/106/106
f 88/120/120 89/122/122 139/107/107 137/105/105
f 74/76/76 81/83/83 138/106/106 124/93/93
f 89/122/122 82/109/109 126/94/94 139/107/107
f 91/91/91 90/85/85 140/125/125 141/124/124
f 98/141/141 99/140/140 143/127/127 142/126/126
f 92/90/90 91/91/91 141/124/124 144/128/128
f 99/140/140 100/144/144 145/129/129 143/127/127
f 93/89/89 92/90/90 144/128/128 146/130/130
f 100/144/144 101/146/146 147/131/131 145/129/129
f 94/88/88 93/89/89 146/130/130 148/132/132
f 101/146/146 102/148/148 149/133/133 147/131/131
f 95/87/87 94/88/88 148/132/132 150/134/134
f 102/148/148 103/150/150 151/135/135 149/133/133
f 96/86/86 95/87/87 150/134/134 152/136/136
f 103/150/150 104/152/152 153/137/137 151/135/135
f 97/84/84 96/86/86 152/136/136 154/138/138
f 104/152/152 105/154/154 155/139/139 153/137/137
f 90/85/85 97/84/84 154/138/138 140/125/125
f 105/154/154 98/141/141 142/126/126 155/139/139
