# This file uses centimeters as units for non-parametric coordinates.

mtllib SM_beard_04.mtl
g default
v 0.003073 118.454811 24.520479
v 0.032354 115.363899 24.278553
v -6.929407 114.215797 23.853802
v 6.926550 114.236458 23.864822
v -6.724346 112.658035 23.493183
v 6.773110 112.654953 23.479149
v -4.281643 93.548851 14.478105
v -4.272728 96.333893 17.105368
v 0.000942 87.782944 13.783198
v 0.002275 93.925308 17.237438
v 4.273177 93.574684 14.480338
v 4.281993 96.358391 17.107849
v 0.010710 116.949799 25.757362
v -5.458063 113.642410 25.129911
v -0.006679 118.611565 26.389017
v -5.554194 114.645943 25.479837
v 5.488249 113.628166 25.113153
v 5.545337 114.642929 25.472952
v 6.908501 98.634201 13.587599
v 7.493847 101.328796 18.822529
v -3.420484 113.501610 24.043095
v 0.024108 116.000015 24.895458
v -6.344914 113.078674 24.326685
v -3.580129 115.851288 24.479223
v -6.513836 114.467613 24.740520
v 0.011522 118.737480 25.527275
v -8.757398 112.922363 23.081726
v 3.480060 113.452003 24.030464
v 6.387297 113.074036 24.314857
v 8.799474 112.923805 23.066624
v 6.502469 114.478645 24.749561
v 3.555435 115.876411 24.495348
v -4.365469 94.531288 15.763775
v -2.751993 90.241371 14.114574
v -0.000256 87.421257 15.361855
v -2.309827 94.920013 17.251612
v 2.743333 90.255905 14.117186
v 4.362561 94.560539 15.766610
v 2.305661 94.928345 17.254532
v -3.034448 114.890289 25.483778
v -0.004589 117.909805 26.364172
v -3.125173 116.132744 25.933804
v -5.941151 114.101044 25.364847
v 3.080728 114.837006 25.468458
v 5.954605 114.092621 25.347460
v 3.121871 116.125793 25.928965
v -6.906752 98.625122 13.584318
v -7.494216 101.328529 18.822168
v 0.002117 95.123894 11.635674
v -0.000121 100.271988 19.645273
v -2.302683 90.448212 15.623329
v 2.289403 90.469437 15.627244
v -3.102595 115.588608 25.946886
v 3.130692 115.553368 25.933434
v -8.431915 100.204018 16.189127
v -3.636944 96.566681 12.178039
v -4.224732 100.936333 19.666906
v 3.640032 96.577713 12.181746
v 8.428696 100.210014 16.190626
v 4.224374 100.936737 19.667276
v -3.283868 114.020439 24.673836
v -3.433274 116.058823 25.229956
v -8.019920 113.564468 24.341755
v 3.340691 113.966728 24.660181
v 8.053384 113.566833 24.334026
v 3.409460 116.078583 25.243366
vt 0.792097 0.717654
vt 0.794227 0.661335
vt 0.739793 0.720518
vt 0.844036 0.724460
vt 0.745391 0.667274
vt 0.842475 0.670945
vt 0.754170 0.578144
vt 0.757341 0.607149
vt 0.797786 0.567191
vt 0.796235 0.608205
vt 0.840451 0.581406
vt 0.835099 0.610089
vt 0.793891 0.670227
vt 0.755096 0.677872
vt 0.792314 0.711915
vt 0.752564 0.707964
vt 0.831998 0.680780
vt 0.832250 0.710977
vt 0.770531 0.589780
vt 0.823258 0.591773
vt 0.767877 0.691695
vt 0.818209 0.693598
vt 0.743935 0.594941
vt 0.768797 0.563102
vt 0.772266 0.616458
vt 0.827002 0.565302
vt 0.849388 0.598927
vt 0.819513 0.618244
vt 0.769809 0.664304
vt 0.765945 0.719086
vt 0.742592 0.693896
vt 0.818351 0.666140
vt 0.843256 0.697702
vt 0.818066 0.721057
vt 0.750584 0.593650
vt 0.769230 0.569771
vt 0.797011 0.587698
vt 0.771832 0.609788
vt 0.826066 0.571920
vt 0.842856 0.597139
vt 0.820450 0.611626
vt 0.769326 0.671152
vt 0.793103 0.691071
vt 0.766428 0.712238
vt 0.748913 0.693346
vt 0.818315 0.673005
vt 0.836994 0.696676
vt 0.818102 0.714192
vt 0.747884 0.574359
vt 0.753284 0.612942
vt 0.798045 0.560355
vt 0.795977 0.615040
vt 0.847005 0.578106
vt 0.838707 0.616172
vt 0.769809 0.664304
vt 0.794154 0.663279
vt 0.750796 0.673187
vt 0.765945 0.719086
vt 0.747031 0.713504
vt 0.792051 0.718863
vt 0.742592 0.693896
vt 0.818351 0.666140
vt 0.836639 0.676433
vt 0.843256 0.697703
vt 0.837348 0.716920
vt 0.818066 0.721057
vn -0.479736 -0.493692 0.725342
vn -0.761449 -0.513491 0.395629
vn -0.475594 -0.438593 0.762526
vn -0.218467 -0.374777 0.901008
vn -0.811530 -0.457407 -0.363590
vn -0.514398 -0.416891 -0.749398
vn 0.001422 -0.564977 -0.825106
vn 0.000983 -0.682764 0.730638
vn 0.000202 -0.339446 0.940625
vn 0.477953 -0.438065 0.761354
vn 0.219473 -0.375465 0.900476
vn 0.517264 -0.416961 -0.747383
vn 0.812276 -0.458839 -0.360104
vn 0.760901 -0.514613 0.395226
vn 0.480358 -0.495010 0.724031
vn 0.112813 -0.702010 0.703175
vn 0.278866 -0.618448 0.734681
vn 0.109730 -0.368488 0.923134
vn -0.228916 -0.318126 0.919996
vn -0.002123 -0.602333 0.798243
vn 0.001398 -0.235037 0.971985
vn -0.011325 0.833960 0.551709
vn -0.521949 0.588324 0.617612
vn -0.462693 0.570746 0.678354
vn -0.280505 -0.620289 0.732502
vn -0.111991 -0.372818 0.921121
vn -0.103325 -0.700878 0.705758
vn 0.229841 -0.313398 0.921387
vn 0.456694 0.553645 0.696353
vn 0.513661 0.571750 0.639730
vn -0.719522 -0.558933 0.412168
vn -0.838346 -0.510276 -0.191819
vn -0.492833 -0.514102 0.702007
vn -0.495758 -0.337716 -0.800108
vn 0.001257 -0.305297 -0.952256
vn -0.211562 -0.422648 0.881255
vn -0.000030 -0.375593 0.926785
vn 0.498207 -0.338771 -0.798138
vn 0.837762 -0.512182 -0.189276
vn 0.719483 -0.560415 0.410218
vn 0.493280 -0.515381 0.700756
vn 0.212249 -0.423244 0.880804
vn -0.088803 -0.845061 0.527244
vn 0.243752 -0.805139 0.540680
vn 0.301470 -0.752055 0.586113
vn -0.006618 -0.811127 0.584832
vn -0.007103 -0.755432 0.655188
vn -0.004779 -0.721083 0.692832
vn -0.006600 0.977501 -0.210826
vn -0.506554 0.851665 -0.134423
vn -0.560687 0.827925 0.013083
vn 0.002007 0.999879 -0.015450
vn -0.495670 0.864865 -0.079502
vn -0.518414 0.841019 0.154707
vn -0.574292 -0.532993 0.621376
vn -0.748719 -0.121491 0.651659
vn -0.239829 -0.807716 0.538589
vn -0.301385 -0.754085 0.583544
vn 0.095783 -0.844348 0.527165
vn 0.015177 -0.809920 0.586343
vn 0.580073 -0.523858 0.623769
vn 0.753160 -0.099605 0.650253
vn 0.493922 0.866454 -0.072797
vn 0.517365 0.839205 0.167538
vn 0.507742 0.851586 -0.130381
vn 0.562885 0.826217 0.022932
s 1
g SM_beard_04
usemtl initialShadingGroup
f 8/8/1 33/35/2 51/19/3 36/38/4
f 33/35/2 7/7/5 34/36/6 51/19/3
f 51/19/3 34/36/6 9/9/7 35/37/8
f 36/38/4 51/19/3 35/37/8 10/10/9
f 10/10/9 35/37/8 52/20/10 39/41/11
f 35/37/8 9/9/7 37/39/12 52/20/10
f 52/20/10 37/39/12 11/11/13 38/40/14
f 39/41/11 52/20/10 38/40/14 12/12/15
s 2
f 14/14/16 40/42/17 53/21/18 43/45/19
f 40/42/17 13/13/20 41/43/21 53/21/18
f 53/21/18 41/43/21 15/15/22 42/44/23
f 43/45/19 53/21/18 42/44/23 16/16/24
f 13/13/20 44/46/25 54/22/26 41/43/21
f 44/46/25 17/17/27 45/47/28 54/22/26
f 54/22/26 45/47/28 18/18/29 46/48/30
f 41/43/21 54/22/26 46/48/30 15/15/22
s 1
f 55/23/31 47/49/32 7/7/5 33/35/2
f 48/50/33 55/23/31 33/35/2 8/8/1
f 56/24/34 49/51/35 9/9/7 34/36/6
f 47/49/32 56/24/34 34/36/6 7/7/5
f 57/25/36 48/50/33 8/8/1 36/38/4
f 50/52/37 57/25/36 36/38/4 10/10/9
f 58/26/38 19/53/39 11/11/13 37/39/12
f 49/51/35 58/26/38 37/39/12 9/9/7
f 59/27/40 20/54/41 12/12/15 38/40/14
f 19/53/39 59/27/40 38/40/14 11/11/13
f 60/28/42 50/52/37 10/10/9 39/41/11
f 20/54/41 60/28/42 39/41/11 12/12/15
s 2
f 5/5/43 21/55/44 61/29/45 23/57/46
f 21/55/44 2/2/47 22/56/48 61/29/45
f 61/29/45 22/56/48 13/13/20 40/42/17
f 23/57/46 61/29/45 40/42/17 14/14/16
f 1/1/49 24/58/50 62/30/51 26/60/52
f 24/58/50 3/3/53 25/59/54 62/30/51
f 62/30/51 25/59/54 16/16/24 42/44/23
f 26/60/52 62/30/51 42/44/23 15/15/22
f 3/3/53 27/61/55 63/31/56 25/59/54
f 27/61/55 5/5/43 23/57/46 63/31/56
f 63/31/56 23/57/46 14/14/16 43/45/19
f 25/59/54 63/31/56 43/45/19 16/16/24
f 2/2/47 28/62/57 64/32/58 22/56/48
f 28/62/57 6/6/59 29/63/60 64/32/58
f 64/32/58 29/63/60 17/17/27 44/46/25
f 22/56/48 64/32/58 44/46/25 13/13/20
f 6/6/59 30/64/61 65/33/62 29/63/60
f 30/64/61 4/4/63 31/65/64 65/33/62
f 65/33/62 31/65/64 18/18/29 45/47/28
f 29/63/60 65/33/62 45/47/28 17/17/27
f 4/4/63 32/66/65 66/34/66 31/65/64
f 32/66/65 1/1/49 26/60/52 66/34/66
f 66/34/66 26/60/52 15/15/22 46/48/30
f 31/65/64 66/34/66 46/48/30 18/18/29
