# This file uses centimeters as units for non-parametric coordinates.

mtllib SM_beard_01.mtl
g default
v 19.299952 111.747047 18.208321
v 20.989164 108.674332 13.760917
v 24.846102 117.637810 13.160376
v 23.095409 117.990166 16.540838
v -24.846102 117.637810 13.160376
v -23.095407 117.990158 16.540840
v -20.989164 108.674332 13.760916
v -19.299952 111.747047 18.208323
v -10.523898 94.363991 14.727026
v -11.008599 103.847816 20.936155
v 0.000002 85.305092 15.966493
v 0.000001 102.457596 25.381178
v 10.523898 94.363991 14.727027
v 11.008601 103.847809 20.936159
v 20.534883 113.766296 9.110175
v 25.143185 124.483154 8.833644
v 22.090553 124.540916 14.510250
v 17.732309 118.658188 16.444542
v -22.090549 124.540916 14.510252
v -25.143181 124.483154 8.833644
v -20.534882 113.766296 9.110173
v -17.732309 118.658188 16.444540
v -12.134747 102.163162 10.466555
v -11.601794 113.471230 18.125755
v 0.000002 96.955956 10.502107
v 0.000002 112.915398 21.157598
v 12.134750 102.163162 10.466557
v 11.601796 113.471230 18.125757
v -24.233807 125.725479 11.518533
v -25.424612 120.686333 11.224931
v -23.565517 119.872147 8.404401
v -20.961567 110.591919 11.365245
v -18.491310 115.017662 17.858519
v -19.966568 121.871262 15.859985
v -17.000429 107.887543 9.822763
v -11.441624 96.911011 12.320795
v -11.346691 108.981857 20.319401
v -15.229184 115.797707 17.136665
v -5.839045 97.080566 10.955807
v 0.000002 88.237434 13.034886
v 0.000001 109.455475 24.714630
v -6.189137 112.563599 19.889265
v 5.839047 97.080566 10.955807
v 11.441625 96.911011 12.320798
v 11.346692 108.981857 20.319403
v 6.189141 112.563599 19.889265
v 17.000433 107.887543 9.822764
v 15.229185 115.797707 17.136667
v 20.275608 109.331787 16.440689
v 23.895353 114.157234 13.299817
v 24.490772 117.889709 15.161224
v 21.795862 115.317665 17.624065
v -24.490767 117.889709 15.161223
v -23.895348 114.157234 13.299816
v -20.275606 109.331779 16.440689
v -21.795860 115.317673 17.624065
v -16.684101 101.956329 14.241879
v -9.357094 97.567230 18.272959
v -15.761742 107.556595 19.234282
v -5.932980 87.962868 15.519184
v -0.000001 90.453346 20.525232
v -4.796367 102.688927 23.906273
v 5.932981 87.962868 15.519184
v 9.357100 97.567230 18.272961
v 4.796371 102.688927 23.906275
v 16.684105 101.956329 14.241881
v 15.761745 107.556595 19.234283
v 20.961571 110.591919 11.365247
v 23.565521 119.872147 8.404402
v 25.424618 120.686333 11.224931
v 24.233810 125.725479 11.518532
v 22.795586 120.740944 16.115747
v 19.966570 121.871262 15.859985
v 18.491312 115.017662 17.858519
v -22.795578 120.740944 16.115749
v 22.998425 113.859718 15.937418
v -22.998425 113.859711 15.937418
v -16.206890 103.644386 17.183516
v -3.445949 92.441803 19.716305
v 3.445947 92.441803 19.716305
v 16.206890 103.644371 17.183517
v 23.942116 116.502014 10.814032
v 24.684055 121.827599 13.548564
v 20.829367 118.236473 17.256586
v -24.684055 121.827599 13.548565
v -23.942116 116.502007 10.814032
v -20.829367 118.236473 17.256586
v -16.952234 104.010597 11.900871
v -15.458043 111.678864 18.804003
v -5.862832 90.789688 12.767519
v -5.973698 108.795486 23.064005
v 5.862832 90.789688 12.767519
v 5.973701 108.795486 23.064005
v 16.952236 104.010597 11.900871
v 15.458046 111.678864 18.804003
v 11.565375 117.611618 27.505518
v 11.565375 117.611618 28.981417
v 11.565375 119.087524 27.505518
v 11.565375 119.087524 28.981417
v -11.565375 117.611618 27.505518
v -11.565375 117.611618 28.981417
v -11.565375 119.087524 28.981417
v -11.565375 119.087524 27.505518
v 12.667246 118.791397 28.243467
v 12.667246 117.998337 29.036539
v -12.667246 117.205261 28.243467
v -12.667246 117.998337 29.036539
v -12.667246 118.791397 28.243467
v -12.667246 117.998337 27.450396
v 12.667246 117.205261 28.243467
v 12.667246 117.998337 27.450396
v 14.083937 117.546745 28.243467
v -14.083937 117.546745 28.243467
v 1.156422 119.177681 30.173811
v 0.000000 119.263916 30.239468
v -1.156422 119.177681 30.173811
v 1.156422 121.102623 30.815197
v 0.000000 121.254959 30.902483
v -1.156422 121.102623 30.815197
v -1.156422 123.038383 30.173811
v 0.000000 123.249840 30.237629
v 1.156422 123.038383 30.173811
v 1.156422 123.674370 28.243467
v 0.000000 123.909508 28.243467
v -1.156422 123.674370 28.243467
v -1.156422 123.038383 26.313122
v 0.000000 123.249840 26.249298
v 1.156422 123.038383 26.313122
v 1.156422 121.102623 25.671732
v 0.000000 121.254959 25.584446
v -1.156422 121.102623 25.671732
v -1.156422 119.177681 26.313122
v 0.000000 119.263916 26.247467
v 1.156422 119.177681 26.313122
v 1.156422 118.530891 28.243467
v 0.000000 118.597252 28.243467
v -1.156422 118.530891 28.243467
vt 0.102397 0.779235
vt 0.143415 0.785279
vt 0.111940 0.837279
vt 0.082620 0.827552
vt 0.175754 0.805431
vt 0.133227 0.864287
vt 0.105729 0.896295
vt 0.086613 0.880358
vt 0.070506 0.862717
vt 0.142966 0.133016
vt 0.162228 0.118892
vt 0.178574 0.166117
vt 0.147920 0.169880
vt 0.184104 0.107030
vt 0.204756 0.143826
vt 0.234854 0.209899
vt 0.199192 0.223298
vt 0.157797 0.221150
vt 0.227331 0.298432
vt 0.170032 0.286549
vt 0.273872 0.295184
vt 0.314369 0.397127
vt 0.249498 0.394207
vt 0.174368 0.358812
vt 0.255432 0.470885
vt 0.150223 0.439765
vt 0.322795 0.467303
vt 0.317669 0.518804
vt 0.256566 0.512758
vt 0.139409 0.501131
vt 0.247235 0.553592
vt 0.137953 0.563424
vt 0.312592 0.570309
vt 0.290552 0.637467
vt 0.226357 0.627605
vt 0.145722 0.647540
vt 0.185794 0.717152
vt 0.127262 0.717530
vt 0.230802 0.729478
vt 0.139069 0.904915
vt 0.095153 0.938204
vt 0.190024 0.840567
vt 0.197380 0.888432
vt 0.135900 0.956774
vt 0.079505 0.990234
vt 0.063662 0.924488
vt 0.046203 0.885437
vt 0.041350 0.973854
vt 0.015195 0.927311
vt 0.048663 0.842178
vt 0.061244 0.791360
vt 0.009784 0.874959
vt 0.016471 0.817131
vt 0.148418 0.071105
vt 0.181990 0.063859
vt 0.123614 0.105953
vt 0.101459 0.058791
vt 0.136264 0.018311
vt 0.176895 0.009766
vt 0.218483 0.105141
vt 0.255758 0.178254
vt 0.225591 0.053675
vt 0.272396 0.132773
vt 0.117511 0.148850
vt 0.119844 0.201153
vt 0.081023 0.167058
vt 0.085848 0.109049
vt 0.294960 0.265023
vt 0.337977 0.368753
vt 0.310753 0.215045
vt 0.357186 0.306146
vt 0.124285 0.261407
vt 0.118857 0.329966
vt 0.071236 0.290723
vt 0.081062 0.224190
vt 0.357779 0.455809
vt 0.353633 0.522360
vt 0.410354 0.424731
vt 0.442605 0.531139
vt 0.088580 0.409168
vt 0.067535 0.493978
vt 0.009766 0.488217
vt 0.039355 0.380360
vt 0.344644 0.588429
vt 0.308133 0.669911
vt 0.390112 0.629178
vt 0.314678 0.735058
vt 0.071496 0.581273
vt 0.085615 0.664885
vt 0.031204 0.693958
vt 0.017566 0.599794
vt 0.245556 0.763190
vt 0.251206 0.815297
vt 0.077455 0.733166
vt 0.027753 0.761122
vt 0.276288 0.034806
vt 0.258906 0.036689
vt 0.239767 0.037061
vt 0.266968 0.024372
vt 0.268206 0.051494
vt 0.254241 0.050651
vt 0.260623 0.068230
vt 0.244533 0.061921
vt 0.284717 0.018479
vt 0.521562 0.174190
vt 0.538944 0.172306
vt 0.558083 0.171934
vt 0.530883 0.184623
vt 0.529644 0.157501
vt 0.543609 0.158344
vt 0.537227 0.140765
vt 0.553317 0.147074
vt 0.513134 0.190517
vt 0.431688 0.066795
vt 0.420673 0.059591
vt 0.431318 0.037611
vt 0.442423 0.044902
vt 0.408190 0.055415
vt 0.418711 0.033419
vt 0.372371 0.199231
vt 0.441827 0.015911
vt 0.366533 0.171386
vt 0.379139 0.175578
vt 0.425480 0.009766
vt 0.355427 0.164095
vt 0.389659 0.153581
vt 0.377177 0.149406
vt 0.387956 0.127147
vt 0.400880 0.132351
vt 0.366161 0.142202
vt 0.375860 0.120234
vt 0.396969 0.076645
vt 0.385992 0.098235
vt 0.411858 0.110761
vt 0.421990 0.088762
vt 0.409893 0.081849
vt 0.398925 0.104498
vt 0.456784 0.024926
vt 0.528060 0.199228
vt 0.269790 0.009767
vt 0.341066 0.184071
vt 0.356024 0.193087
vt 0.550520 0.187552
vt 0.247331 0.021442
vn 0.419835 -0.125336 0.898905
vn 0.730596 -0.411847 0.544620
vn 0.802335 -0.342984 0.488488
vn 0.431131 -0.054710 0.900629
vn 0.853718 -0.520588 -0.012421
vn 0.903461 -0.421132 -0.080035
vn 0.979525 -0.195440 0.048307
vn 0.882996 -0.040451 0.467635
vn 0.600382 0.095515 0.793989
vn -0.600382 0.095515 0.793989
vn -0.882996 -0.040450 0.467635
vn -0.802335 -0.342984 0.488489
vn -0.431131 -0.054710 0.900629
vn -0.979525 -0.195440 0.048307
vn -0.903462 -0.421132 -0.080034
vn -0.853718 -0.520588 -0.012421
vn -0.730596 -0.411847 0.544621
vn -0.419835 -0.125336 0.898905
vn -0.630866 -0.463584 0.622172
vn -0.454298 -0.184760 0.871480
vn -0.779238 -0.606280 0.158782
vn -0.747645 -0.593793 0.297384
vn -0.552546 -0.440044 0.707852
vn -0.485899 -0.252085 0.836873
vn -0.443504 -0.431888 0.785351
vn -0.405014 -0.221109 0.887172
vn -0.610971 -0.743479 0.271945
vn 0.000000 -0.966372 0.257147
vn -0.000000 -0.508383 0.861131
vn -0.000000 -0.198564 0.980088
vn 0.443504 -0.431888 0.785351
vn 0.405014 -0.221109 0.887172
vn 0.610971 -0.743479 0.271944
vn 0.747645 -0.593793 0.297384
vn 0.552546 -0.440044 0.707852
vn 0.485899 -0.252086 0.836872
vn 0.630866 -0.463585 0.622171
vn 0.454299 -0.184760 0.871479
vn 0.779239 -0.606280 0.158782
vn 0.779390 -0.366224 -0.508360
vn 0.985466 -0.080396 -0.149646
vn 0.692846 -0.445053 -0.567355
vn 0.621742 -0.396580 -0.675397
vn 0.790406 -0.290987 -0.539060
vn 0.997763 0.049869 -0.044512
vn 0.847751 0.262295 0.460998
vn 0.431571 0.346250 0.832981
vn 0.871594 0.295809 0.390924
vn 0.540850 0.413037 0.732722
vn 0.006899 0.273763 0.961772
vn -0.026176 0.241023 0.970166
vn -0.007741 0.368308 0.929672
vn -0.176520 0.326001 0.928743
vn -0.847751 0.262296 0.460997
vn -0.985466 -0.080396 -0.149646
vn -0.431571 0.346250 0.832981
vn -0.540850 0.413038 0.732721
vn -0.871594 0.295809 0.390923
vn -0.997763 0.049870 -0.044513
vn -0.779390 -0.366224 -0.508361
vn -0.692846 -0.445053 -0.567355
vn -0.790406 -0.290986 -0.539060
vn -0.621742 -0.396580 -0.675397
vn -0.006898 0.273764 0.961772
vn 0.026177 0.241023 0.970166
vn 0.176521 0.326001 0.928743
vn 0.007742 0.368309 0.929671
vn -0.600970 -0.479088 -0.639773
vn -0.462495 -0.460881 -0.757422
vn -0.516700 -0.407092 -0.753191
vn -0.344755 -0.367097 -0.863935
vn -0.106443 0.253254 0.961526
vn -0.312256 0.251833 0.916011
vn -0.148342 0.460189 0.875340
vn 0.065300 0.374905 0.924761
vn -0.282915 -0.445560 -0.849373
vn -0.000000 -0.486667 -0.873588
vn -0.150645 -0.293323 -0.944070
vn -0.000000 -0.277923 -0.960603
vn -0.332367 0.305540 0.892288
vn -0.000000 0.374208 0.927345
vn -0.000000 0.677813 0.735234
vn -0.260660 0.581307 0.770804
vn 0.282915 -0.445560 -0.849373
vn 0.462495 -0.460881 -0.757421
vn 0.150645 -0.293323 -0.944070
vn 0.344755 -0.367097 -0.863935
vn 0.332367 0.305540 0.892288
vn 0.312256 0.251833 0.916011
vn 0.148343 0.460189 0.875341
vn 0.260660 0.581306 0.770805
vn 0.600971 -0.479089 -0.639772
vn 0.516700 -0.407093 -0.753191
vn 0.106443 0.253254 0.961526
vn -0.065300 0.374905 0.924761
vn -0.023218 -0.708519 0.705310
vn -0.031731 -0.999496 -0.000000
vn 0.993580 -0.113133 0.000001
vn 0.238782 -0.011765 0.971002
vn -0.023217 -0.708519 -0.705310
vn 0.238783 -0.011762 -0.971002
vn 0.336540 0.663485 -0.668228
vn 0.466758 0.884385 0.000000
vn 0.336540 0.663485 0.668228
vn 0.023217 -0.708520 -0.705309
vn 0.031730 -0.999496 0.000000
vn -0.993580 -0.113133 -0.000001
vn -0.238783 -0.011765 -0.971002
vn 0.023218 -0.708519 0.705310
vn -0.238783 -0.011762 0.971002
vn -0.336540 0.663484 0.668229
vn -0.466758 0.884385 0.000000
vn -0.336540 0.663485 -0.668228
vn -0.151649 0.040856 0.987590
vn 0.000000 0.026868 0.999639
vn 0.000000 0.725992 0.687703
vn -0.316573 0.700726 0.639347
vn 0.151648 0.040856 0.987590
vn 0.316573 0.700727 0.639346
vn -0.360416 0.932792 0.000000
vn 0.000000 1.000000 -0.000000
vn 0.000000 0.725992 -0.687703
vn -0.316573 0.700728 -0.639346
vn 0.360416 0.932792 -0.000000
vn 0.316573 0.700727 -0.639346
vn -0.151649 0.040856 -0.987590
vn 0.000000 0.026867 -0.999639
vn 0.000000 -0.688407 -0.725325
vn 0.016587 -0.677511 -0.735326
vn 0.151649 0.040856 -0.987590
vn -0.016587 -0.677511 -0.735326
vn -0.016587 -0.677510 0.735326
vn -0.104891 -0.994484 0.000000
vn 0.104890 -0.994484 0.000000
vn 0.016587 -0.677510 0.735327
vn 0.000000 -0.688405 0.725326
vn 0.000000 -1.000000 0.000000
s 1
g SM_beard_01
usemtl initialShadingGroup
f 1/1/1 49/2/2 76/3/3 52/4/4
f 49/2/2 2/5/5 50/6/6 76/3/3
f 76/3/3 50/6/6 3/7/7 51/8/8
f 52/4/4 76/3/3 51/8/8 4/9/9
f 6/10/10 53/11/11 77/12/12 56/13/13
f 53/11/11 5/14/14 54/15/15 77/12/12
f 77/12/12 54/15/15 7/16/16 55/17/17
f 56/13/13 77/12/12 55/17/17 8/18/18
f 8/18/18 55/17/17 78/19/19 59/20/20
f 55/17/17 7/16/16 57/21/21 78/19/19
f 78/19/19 57/21/21 9/22/22 58/23/23
f 59/20/20 78/19/19 58/23/23 10/24/24
f 10/24/24 58/23/23 79/25/25 62/26/26
f 58/23/23 9/22/22 60/27/27 79/25/25
f 79/25/25 60/27/27 11/28/28 61/29/29
f 62/26/26 79/25/25 61/29/29 12/30/30
f 12/30/30 61/29/29 80/31/31 65/32/32
f 61/29/29 11/28/28 63/33/33 80/31/31
f 80/31/31 63/33/33 13/34/34 64/35/35
f 65/32/32 80/31/31 64/35/35 14/36/36
f 14/36/36 64/35/35 81/37/37 67/38/38
f 64/35/35 13/34/34 66/39/39 81/37/37
f 81/37/37 66/39/39 2/5/5 49/2/2
f 67/38/38 81/37/37 49/2/2 1/1/1
f 3/7/7 50/6/6 82/40/40 70/41/41
f 50/6/6 2/5/5 68/42/42 82/40/40
f 82/40/40 68/42/42 15/43/43 69/44/44
f 70/41/41 82/40/40 69/44/44 16/45/45
f 4/9/9 51/8/8 83/46/46 72/47/47
f 51/8/8 3/7/7 70/41/41 83/46/46
f 83/46/46 70/41/41 16/45/45 71/48/48
f 72/47/47 83/46/46 71/48/48 17/49/49
f 1/1/1 52/4/4 84/50/50 74/51/51
f 52/4/4 4/9/9 72/47/47 84/50/50
f 84/50/50 72/47/47 17/49/49 73/52/52
f 74/51/51 84/50/50 73/52/52 18/53/53
f 5/14/14 53/11/11 85/54/54 30/55/55
f 53/11/11 6/10/10 75/56/56 85/54/54
f 85/54/54 75/56/56 19/57/57 29/58/58
f 30/55/55 85/54/54 29/58/58 20/59/59
f 7/16/16 54/15/15 86/60/60 32/61/61
f 54/15/15 5/14/14 30/55/55 86/60/60
f 86/60/60 30/55/55 20/59/59 31/62/62
f 32/61/61 86/60/60 31/62/62 21/63/63
f 6/10/10 56/13/13 87/64/64 75/56/56
f 56/13/13 8/18/18 33/65/65 87/64/64
f 87/64/64 33/65/65 22/66/66 34/67/67
f 75/56/56 87/64/64 34/67/67 19/57/57
f 9/22/22 57/21/21 88/68/68 36/69/69
f 57/21/21 7/16/16 32/61/61 88/68/68
f 88/68/68 32/61/61 21/63/63 35/70/70
f 36/69/69 88/68/68 35/70/70 23/71/71
f 8/18/18 59/20/20 89/72/72 33/65/65
f 59/20/20 10/24/24 37/73/73 89/72/72
f 89/72/72 37/73/73 24/74/74 38/75/75
f 33/65/65 89/72/72 38/75/75 22/66/66
f 11/28/28 60/27/27 90/76/76 40/77/77
f 60/27/27 9/22/22 36/69/69 90/76/76
f 90/76/76 36/69/69 23/71/71 39/78/78
f 40/77/77 90/76/76 39/78/78 25/79/79
f 10/24/24 62/26/26 91/80/80 37/73/73
f 62/26/26 12/30/30 41/81/81 91/80/80
f 91/80/80 41/81/81 26/82/82 42/83/83
f 37/73/73 91/80/80 42/83/83 24/74/74
f 13/34/34 63/33/33 92/84/84 44/85/85
f 63/33/33 11/28/28 40/77/77 92/84/84
f 92/84/84 40/77/77 25/79/79 43/86/86
f 44/85/85 92/84/84 43/86/86 27/87/87
f 12/30/30 65/32/32 93/88/88 41/81/81
f 65/32/32 14/36/36 45/89/89 93/88/88
f 93/88/88 45/89/89 28/90/90 46/91/91
f 41/81/81 93/88/88 46/91/91 26/82/82
f 2/5/5 66/39/39 94/92/92 68/42/42
f 66/39/39 13/34/34 44/85/85 94/92/92
f 94/92/92 44/85/85 27/87/87 47/93/93
f 68/42/42 94/92/92 47/93/93 15/43/43
f 14/36/36 67/38/38 95/94/94 45/89/89
f 67/38/38 1/1/1 74/51/51 95/94/94
f 95/94/94 74/51/51 18/53/53 48/95/95
f 45/89/89 95/94/94 48/95/95 28/90/90
s 3
f 97/96/96 110/97/97 112/144/98 105/99/99
f 110/97/97 96/100/100 111/101/101 112/98/98
f 112/98/98 111/101/101 98/102/102 104/103/103
f 105/99/99 112/144/98 104/140/103 99/104/104
f 100/105/105 106/106/106 113/143/107 109/108/108
f 106/106/106 101/109/109 107/110/110 113/107/107
f 113/107/107 107/110/110 102/111/111 108/112/112
f 109/108/108 113/143/107 108/139/112 103/113/113
f 119/114/114 118/115/115 121/116/116 120/117/117
f 118/115/115 117/118/118 122/119/119 121/116/116
f 125/120/120 124/142/121 127/122/122 126/123/123
f 124/142/121 123/141/124 128/125/125 127/122/122
f 131/126/126 130/127/127 133/128/128 132/129/129
f 130/127/127 129/130/130 134/131/131 133/128/128
f 117/118/118 114/132/132 97/96/96 105/99/99
f 99/104/104 122/119/119 117/118/118 105/99/99
f 123/124/124 122/119/119 99/104/104 104/140/103
f 98/102/102 128/125/125 123/141/124 104/103/103
f 129/130/130 128/125/125 98/102/102 111/101/101
f 96/100/100 134/131/131 129/130/130 111/101/101
f 135/133/133 134/131/131 96/100/100 110/97/97
f 114/132/132 135/133/133 110/97/97 97/96/96
f 132/129/129 137/134/134 106/106/106 100/105/105
f 137/134/134 116/135/135 101/109/109 106/106/106
f 101/109/109 116/135/135 119/114/114 107/110/110
f 119/114/114 120/117/117 102/111/111 107/110/110
f 102/111/111 120/117/117 125/138/120 108/112/112
f 125/120/120 126/123/123 103/113/113 108/139/112
f 103/113/113 126/123/123 131/126/126 109/108/108
f 131/126/126 132/129/129 100/105/105 109/108/108
f 114/132/132 115/136/136 136/137/137 135/133/133
f 115/136/136 116/135/135 137/134/134 136/137/137
f 116/135/135 115/136/136 118/115/115 119/114/114
f 115/136/136 114/132/132 117/118/118 118/115/115
f 120/117/117 121/116/116 124/121/121 125/138/120
f 121/116/116 122/119/119 123/124/124 124/121/121
f 126/123/123 127/122/122 130/127/127 131/126/126
f 127/122/122 128/125/125 129/130/130 130/127/127
f 132/129/129 133/128/128 136/137/137 137/134/134
f 133/128/128 134/131/131 135/133/133 136/137/137
