# This file uses centimeters as units for non-parametric coordinates.

mtllib SM_beard_02.mtl
g default
v -0.000946 117.150238 26.230053
v -12.703947 114.238098 25.597500
v 12.704716 114.233765 25.596453
v 12.525421 117.147964 25.814062
v -0.000936 122.584206 26.390720
v -12.512179 117.140083 25.810753
v 0.001029 118.307274 29.389128
v -12.645565 114.463493 27.821663
v 0.000245 122.175934 29.602137
v -12.325216 116.875366 27.911707
v 12.640621 114.463905 27.816114
v 12.348639 116.872589 27.917273
v -18.409193 119.556709 25.917345
v -18.785112 118.245003 25.872759
v -18.891068 118.169937 26.888304
v -18.516468 119.372742 26.936985
v 18.414440 119.571053 25.920990
v 18.770149 118.229691 25.871290
v 18.527689 119.384262 26.942677
v 18.880690 118.130424 26.881931
v 18.844641 119.166458 25.811958
v 18.620251 119.837486 26.439898
v 18.920286 118.998276 26.971645
v 19.006948 118.324966 26.376535
v 5.984883 119.812759 26.007296
v 12.217294 117.456001 26.956608
v -14.403324 115.588760 25.378832
v -16.906128 116.277184 25.733278
v -16.516796 118.079155 25.830099
v -16.962479 116.267563 27.197250
v -16.554165 117.887161 27.257366
v 14.421471 115.575539 25.369740
v 16.526304 118.098694 25.837666
v 16.883892 116.278748 25.730122
v 16.569204 117.903870 27.265842
v 16.949432 116.247864 27.190567
v -6.379205 115.300903 28.848616
v 0.000704 120.276321 29.988348
v -6.215755 118.724541 28.996063
v -12.554255 115.663849 28.235363
v 6.385443 115.274406 28.843464
v 12.558953 115.656715 28.233864
v 6.220999 118.704910 28.994320
v -6.178776 114.851578 25.806860
v 0.000586 117.437599 27.927988
v -12.581585 113.957489 26.767691
v -5.985553 119.806900 26.003899
v -12.193330 117.442192 26.944269
v -0.000455 122.811768 28.184818
v -18.851580 119.169632 25.810276
v -19.024771 118.364845 26.381176
v -18.908014 119.010368 26.971786
v -18.602495 119.801964 26.434437
v 6.180444 114.830223 25.805813
v 12.586210 113.951134 26.762859
v -6.338333 116.944992 29.398640
v 6.343058 116.919373 29.394304
v -6.296882 114.701523 27.445986
v -6.083128 119.568962 27.654531
v -19.317383 119.694130 26.380327
v 6.303133 114.676590 27.441763
v 19.325836 119.686745 26.379375
v 6.083357 119.577316 27.659962
v -17.096973 117.253975 25.531183
v -16.955303 116.037941 26.482265
v -16.847132 117.111244 27.471153
v -16.419004 118.317917 26.580204
v 17.105747 117.273216 25.529282
v 16.439331 118.354866 26.592346
v 16.853411 117.099327 27.471096
v 16.964588 116.015991 26.472658
vt 0.796785 0.664467
vt 0.768940 0.664254
vt 0.824364 0.667731
vt 0.823824 0.677863
vt 0.795445 0.685178
vt 0.768345 0.674308
vt 0.796333 0.671437
vt 0.772325 0.667102
vt 0.795857 0.678891
vt 0.772693 0.671723
vt 0.820688 0.670154
vt 0.819801 0.674698
vt 0.768281 0.670347
vt 0.768596 0.668802
vt 0.769977 0.669095
vt 0.769634 0.670502
vt 0.824203 0.674051
vt 0.824338 0.672463
vt 0.822857 0.673756
vt 0.822979 0.672331
vt 0.783845 0.671057
vt 0.808786 0.672632
vt 0.783214 0.664616
vt 0.783511 0.677874
vt 0.769087 0.669742
vt 0.810218 0.666332
vt 0.823464 0.673309
vt 0.808232 0.679463
vt 0.767537 0.669437
vt 0.769068 0.668124
vt 0.770677 0.670042
vt 0.768858 0.671481
vt 0.825194 0.673160
vt 0.823536 0.674960
vt 0.822015 0.673155
vt 0.823928 0.671574
vt 0.783395 0.667645
vt 0.796084 0.675370
vt 0.784056 0.674687
vt 0.772979 0.669353
vt 0.809660 0.669307
vt 0.819786 0.672300
vt 0.808125 0.676214
vt 0.783228 0.661395
vt 0.796554 0.667955
vt 0.771058 0.665378
vt 0.782344 0.680948
vt 0.771280 0.673565
vt 0.795670 0.681775
vt 0.768200 0.669530
vt 0.769333 0.668982
vt 0.770052 0.669940
vt 0.768927 0.670410
vt 0.810602 0.663141
vt 0.822155 0.668599
vt 0.824471 0.673311
vt 0.823545 0.673983
vt 0.822553 0.673068
vt 0.823620 0.672444
vt 0.808989 0.682669
vt 0.820981 0.676721
vt 0.766924 0.667707
vt 0.767873 0.668814
vt 0.767716 0.670751
vt 0.770168 0.668756
vt 0.770055 0.671150
vt 0.825927 0.671425
vt 0.824821 0.674402
vt 0.824972 0.672481
vt 0.822420 0.674395
vt 0.822737 0.672001
vn -0.144210 -0.689583 0.709704
vn 0.113638 -0.652869 0.748898
vn -0.098974 -0.068695 0.992716
vn -0.175324 -0.072472 0.981840
vn -0.000772 -0.546350 0.837557
vn 0.000373 0.032076 0.999485
vn 0.000349 0.654223 0.756302
vn -0.322625 0.521861 0.789667
vn -0.204594 0.537763 0.817895
vn -0.114117 -0.653734 0.748070
vn 0.098135 -0.070711 0.992658
vn 0.144604 -0.689034 0.710156
vn 0.175937 -0.075945 0.981468
vn 0.202082 0.528509 0.824525
vn 0.320357 0.516800 0.793908
vn -0.095281 -0.973309 -0.208784
vn 0.262543 -0.964198 -0.037330
vn 0.241089 -0.951105 0.193066
vn -0.068736 -0.993309 0.092809
vn -0.001546 -0.998483 0.055032
vn -0.001786 -0.957052 0.289909
vn -0.000629 0.999934 -0.011495
vn -0.407808 0.913063 -0.002854
vn -0.421582 0.880705 0.215932
vn -0.000164 0.975483 0.220076
vn -0.102110 0.923351 -0.370131
vn -0.228033 0.949946 0.213549
vn 0.329817 0.612485 -0.718389
vn -0.260689 0.145187 -0.954443
vn -0.894758 0.445708 -0.027419
vn 0.352164 0.925861 0.136977
vn -0.622578 -0.439582 -0.647429
vn -0.858813 -0.506106 -0.079350
vn -0.654637 -0.442238 0.613087
vn -0.391078 0.088574 0.916085
vn 0.196270 0.556639 0.807237
vn -0.263587 -0.963892 -0.037867
vn -0.241314 -0.951075 0.192934
vn 0.095598 -0.971714 -0.215949
vn 0.071020 -0.993296 0.091212
vn 0.612787 -0.430293 -0.662827
vn 0.259514 0.143574 -0.955007
vn 0.903369 0.427662 -0.032093
vn 0.855255 -0.509225 -0.096072
vn -0.329408 0.615687 -0.715835
vn -0.337590 0.930674 0.140992
vn -0.180082 0.544967 0.818891
vn 0.404015 0.074634 0.911703
vn 0.653393 -0.444101 0.613068
vn 0.100264 0.921361 -0.375556
vn 0.406399 0.913681 -0.005223
vn 0.420784 0.880111 0.219875
vn 0.225460 0.949318 0.219008
vn -0.054508 -0.001999 -0.998511
vn -0.043911 0.073471 -0.996330
vn 0.189166 0.543640 -0.817723
vn -0.455512 -0.700010 -0.549995
vn -0.515207 -0.856803 0.021209
vn -0.436180 -0.590375 0.679121
vn -0.194546 -0.009136 0.980851
vn 0.063245 0.551029 0.832086
vn 0.302797 0.944276 0.129061
vn 0.056398 -0.001514 -0.998407
vn 0.041803 0.079408 -0.995965
vn 0.451964 -0.697561 -0.556002
vn -0.190490 0.545629 -0.816090
vn -0.306137 0.942481 0.134197
vn -0.058441 0.538453 0.840627
vn 0.198109 -0.016258 0.980045
vn 0.432789 -0.592351 0.679569
vn 0.515442 -0.856824 0.013102
s 1
g SM_beard_02
usemtl initialShadingGroup
f 8/8/1 37/37/2 56/21/3 40/40/4
f 37/37/2 7/7/5 38/38/6 56/21/3
f 56/21/3 38/38/6 9/9/7 39/39/8
f 40/40/4 56/21/3 39/39/8 10/10/9
f 7/7/5 41/41/10 57/22/11 38/38/6
f 41/41/10 11/11/12 42/42/13 57/22/11
f 57/22/11 42/42/13 12/12/14 43/43/15
f 38/38/6 57/22/11 43/43/15 9/9/7
f 2/2/16 44/44/17 58/23/18 46/46/19
f 44/44/17 1/1/20 45/45/21 58/23/18
f 58/23/18 45/45/21 7/7/5 37/37/2
f 46/46/19 58/23/18 37/37/2 8/8/1
f 5/5/22 47/47/23 59/24/24 49/49/25
f 47/47/23 6/6/26 48/48/27 59/24/24
f 59/24/24 48/48/27 10/10/9 39/39/8
f 49/49/25 59/24/24 39/39/8 9/9/7
f 13/13/28 50/50/29 60/25/30 53/53/31
f 50/50/29 14/14/32 51/51/33 60/25/30
f 60/25/30 51/51/33 15/15/34 52/52/35
f 53/53/31 60/25/30 52/52/35 16/16/36
f 1/1/20 54/54/37 61/26/38 45/45/21
f 54/54/37 3/3/39 55/55/40 61/26/38
f 61/26/38 55/55/40 11/11/12 41/41/10
f 45/45/21 61/26/38 41/41/10 7/7/5
f 18/18/41 21/56/42 62/27/43 24/59/44
f 21/56/42 17/17/45 22/57/46 62/27/43
f 62/27/43 22/57/46 19/19/47 23/58/48
f 24/59/44 62/27/43 23/58/48 20/20/49
f 4/4/50 25/60/51 63/28/52 26/61/53
f 25/60/51 5/5/22 49/49/25 63/28/52
f 63/28/52 49/49/25 9/9/7 43/43/15
f 26/61/53 63/28/52 43/43/15 12/12/14
f 6/6/26 27/62/54 64/29/55 29/64/56
f 27/62/54 2/2/16 28/63/57 64/29/55
f 64/29/55 28/63/57 14/14/32 50/50/29
f 29/64/56 64/29/55 50/50/29 13/13/28
f 2/2/16 46/46/19 65/30/58 28/63/57
f 46/46/19 8/8/1 30/65/59 65/30/58
f 65/30/58 30/65/59 15/15/34 51/51/33
f 28/63/57 65/30/58 51/51/33 14/14/32
f 8/8/1 40/40/4 66/31/60 30/65/59
f 40/40/4 10/10/9 31/66/61 66/31/60
f 66/31/60 31/66/61 16/16/36 52/52/35
f 30/65/59 66/31/60 52/52/35 15/15/34
f 10/10/9 48/48/27 67/32/62 31/66/61
f 48/48/27 6/6/26 29/64/56 67/32/62
f 67/32/62 29/64/56 13/13/28 53/53/31
f 31/66/61 67/32/62 53/53/31 16/16/36
f 3/3/39 32/67/63 68/33/64 34/69/65
f 32/67/63 4/4/50 33/68/66 68/33/64
f 68/33/64 33/68/66 17/17/45 21/56/42
f 34/69/65 68/33/64 21/56/42 18/18/41
f 4/4/50 26/61/53 69/34/67 33/68/66
f 26/61/53 12/12/14 35/70/68 69/34/67
f 69/34/67 35/70/68 19/19/47 22/57/46
f 33/68/66 69/34/67 22/57/46 17/17/45
f 12/12/14 42/42/13 70/35/69 35/70/68
f 42/42/13 11/11/12 36/71/70 70/35/69
f 70/35/69 36/71/70 20/20/49 23/58/48
f 35/70/68 70/35/69 23/58/48 19/19/47
f 11/11/12 55/55/40 71/36/71 36/71/70
f 55/55/40 3/3/39 34/69/65 71/36/71
f 71/36/71 34/69/65 18/18/41 24/59/44
f 36/71/70 71/36/71 24/59/44 20/20/49
