# This file uses centimeters as units for non-parametric coordinates.

mtllib SM_beard_03.mtl
g default
v 23.367689 119.437035 12.974240
v -23.369915 119.414680 12.966695
v -22.406145 114.124832 8.897869
v -21.215887 122.629517 18.351816
v 0.000395 100.958717 10.329325
v 0.001364 114.970329 23.743412
v 22.403942 114.125389 8.897047
v 21.209295 122.646317 18.364416
v -13.828606 105.904587 9.780232
v 13.830414 105.905884 9.779928
v -13.539259 120.471725 23.601000
v 13.541720 120.424522 23.591658
v -18.246819 97.271454 14.259727
v -20.139057 104.710747 17.108673
v -10.431059 81.961296 15.389330
v -11.485355 90.124718 20.468227
v 0.006153 75.147400 16.079861
v 0.016388 84.259789 22.694637
v 10.457478 81.907730 15.383916
v 11.518354 90.086952 20.439251
v 18.241489 97.338676 14.247468
v 20.119112 104.757553 17.094395
v -13.696484 102.236000 23.830194
v -20.879681 110.796021 18.516802
v 0.020676 97.613762 27.404877
v 13.710220 102.207024 23.795927
v 20.861456 110.827888 18.497702
v -11.595767 90.004517 11.934932
v -7.047595 102.385178 10.256872
v 0.001675 83.922050 12.348486
v 7.049210 102.386177 10.256607
v 11.610134 89.966782 11.934905
v 19.375948 110.524849 8.664024
v 20.793064 105.838379 11.665096
v 22.073385 112.007744 15.159235
v -18.328970 121.998680 20.804409
v -21.280479 116.828239 18.610035
v -13.908112 111.272652 24.156038
v -8.038082 118.403145 24.593081
v 0.013180 106.237083 26.410816
v 8.061093 118.323555 24.555841
v 13.914434 111.235291 24.130848
v 21.265587 116.852608 18.604364
v 18.319256 121.974808 20.809336
v -14.536530 89.153687 14.864373
v -15.628328 96.013802 18.845795
v -5.641376 77.081070 15.833694
v -6.411707 85.972847 21.985424
v 5.666513 77.039192 15.830081
v 6.451218 85.941978 21.966375
v 14.539392 89.172455 14.858433
v 15.633299 96.031059 18.814970
v -16.895727 105.927055 21.762987
v -7.350745 98.648979 25.635309
v 7.376217 98.633858 25.631809
v 16.897358 105.934792 21.725361
v -20.804060 105.803192 11.675683
v -22.091158 111.970306 15.161581
v -19.375456 110.524307 8.663515
v -16.260876 96.261818 11.315679
v -6.060081 85.656479 12.244669
v 6.072273 85.627342 12.243854
v 16.262012 96.272041 11.317785
v -17.659117 113.903320 21.763876
v -7.757252 108.457695 25.683393
v 7.779320 108.410477 25.665831
v 17.655430 113.895294 21.742456
vt 0.879912 0.643293
vt 0.710148 0.636874
vt 0.683825 0.613958
vt 0.697783 0.676832
vt 0.798190 0.556508
vt 0.794227 0.661335
vt 0.907890 0.622429
vt 0.889225 0.684070
vt 0.739403 0.569696
vt 0.855814 0.574097
vt 0.745391 0.667274
vt 0.842475 0.670945
vt 0.701546 0.609980
vt 0.710517 0.636599
vt 0.741032 0.579550
vt 0.747889 0.621168
vt 0.797786 0.567191
vt 0.796007 0.614235
vt 0.853445 0.583800
vt 0.843465 0.624782
vt 0.890520 0.617125
vt 0.879565 0.642990
vt 0.746055 0.661928
vt 0.710852 0.665630
vt 0.794381 0.657249
vt 0.842217 0.665564
vt 0.877039 0.671914
vt 0.711614 0.591827
vt 0.768797 0.563102
vt 0.827002 0.565302
vt 0.881852 0.598263
vt 0.721587 0.672053
vt 0.769809 0.664304
vt 0.818351 0.666140
vt 0.865850 0.677508
vt 0.713826 0.596415
vt 0.726131 0.629382
vt 0.769230 0.569771
vt 0.771525 0.615769
vt 0.826066 0.571920
vt 0.820304 0.617613
vt 0.879300 0.602671
vt 0.864541 0.634615
vt 0.722552 0.666613
vt 0.770116 0.658324
vt 0.818496 0.660153
vt 0.865298 0.672010
vt 0.694063 0.611290
vt 0.705312 0.639004
vt 0.711614 0.591827
vt 0.739804 0.573580
vt 0.768797 0.563102
vt 0.798045 0.560355
vt 0.827002 0.565302
vt 0.855121 0.577940
vt 0.881852 0.598263
vt 0.897883 0.618996
vt 0.884573 0.645782
vt 0.721587 0.672053
vt 0.705280 0.670642
vt 0.745544 0.667726
vt 0.769809 0.664304
vt 0.794154 0.663279
vt 0.818351 0.666140
vt 0.842288 0.671384
vt 0.882217 0.677332
vt 0.865850 0.677508
vn -0.778765 -0.334046 0.530979
vn -0.892246 -0.270944 0.361229
vn -0.920175 -0.389622 0.038383
vn -0.866712 -0.498761 0.006896
vn -0.744784 -0.666951 -0.021730
vn -0.598927 -0.368452 0.711006
vn -0.361336 -0.413591 0.835691
vn -0.465911 -0.883528 0.048007
vn -0.001726 -0.994449 0.105206
vn -0.000205 -0.446128 0.894969
vn 0.361454 -0.413467 0.835701
vn 0.463086 -0.885061 0.047093
vn 0.745314 -0.666285 -0.023912
vn 0.601832 -0.366982 0.709311
vn 0.781859 -0.332164 0.527602
vn 0.869411 -0.494055 0.005899
vn 0.920980 -0.387627 0.039273
vn 0.892657 -0.270398 0.360621
vn -0.690411 -0.178715 0.700995
vn -0.814886 -0.130847 0.564659
vn -0.496855 -0.184850 0.847919
vn -0.291183 -0.179720 0.939635
vn 0.000477 -0.174688 0.984624
vn 0.293125 -0.179686 0.939037
vn 0.500536 -0.184715 0.845780
vn 0.692368 -0.178614 0.699088
vn 0.815207 -0.131514 0.564040
vn -0.979551 -0.158792 0.123553
vn -0.975322 -0.088763 0.202158
vn -0.962353 -0.218611 -0.161514
vn -0.895724 -0.299497 -0.328602
vn -0.426342 -0.271047 -0.862998
vn -0.339542 -0.281288 -0.897546
vn -0.006592 -0.146342 -0.989212
vn -0.176427 -0.235768 -0.955660
vn -0.016958 -0.123738 -0.992170
vn -0.089388 -0.225156 -0.970214
vn -0.000177 -0.118213 -0.992988
vn -0.000724 -0.232579 -0.972577
vn 0.016666 -0.123503 -0.992204
vn 0.088266 -0.224877 -0.970381
vn 0.007239 -0.146254 -0.989221
vn 0.177642 -0.235145 -0.955589
vn 0.427286 -0.271363 -0.862432
vn 0.341186 -0.280965 -0.897023
vn 0.962845 -0.219410 -0.157442
vn 0.896742 -0.299688 -0.325639
vn 0.974695 -0.090474 0.204413
vn 0.979114 -0.159816 0.125677
vn -0.347058 0.076920 0.934684
vn -0.572180 0.052979 0.818415
vn -0.585199 0.005846 0.810869
vn -0.347197 0.024326 0.937477
vn -0.819953 0.008028 0.572374
vn -0.833405 -0.018336 0.552359
vn 0.002520 0.198989 0.979998
vn -0.065954 0.135539 0.988574
vn -0.113838 0.083495 0.989985
vn 0.001070 0.112964 0.993599
vn 0.346941 0.076185 0.934788
vn 0.066478 0.136539 0.988402
vn 0.116487 0.084196 0.989617
vn 0.348070 0.023955 0.937162
vn 0.819792 0.005563 0.572635
vn 0.832979 -0.020316 0.552932
vn 0.572095 0.050830 0.818611
vn 0.585660 0.004212 0.810546
s 1
g SM_beard_03
usemtl initialShadingGroup
f 46/37/1 14/14/2 13/13/3 45/36/4
f 46/37/1 45/36/4 15/15/5 16/16/6
f 48/39/7 16/16/6 15/15/5 47/38/8
f 48/39/7 47/38/8 17/17/9 18/18/10
f 50/41/11 18/18/10 17/17/9 49/40/12
f 50/41/11 49/40/12 19/19/13 20/20/14
f 52/43/15 20/20/14 19/19/13 51/42/16
f 52/43/15 51/42/16 21/21/17 22/22/18
f 14/14/2 46/37/1 53/44/19 24/24/20
f 46/37/1 16/16/6 23/23/21 53/44/19
f 23/23/21 16/16/6 48/39/7 54/45/22
f 48/39/7 18/18/10 25/25/23 54/45/22
f 25/25/23 18/18/10 50/41/11 55/46/24
f 50/41/11 20/20/14 26/26/25 55/46/24
f 26/26/25 20/20/14 52/43/15 56/47/26
f 52/43/15 22/22/18 27/27/27 56/47/26
f 58/49/28 2/2/29 3/3/30 57/48/31
f 58/49/28 57/48/31 13/13/3 14/14/2
f 3/3/30 59/50/32 60/28/33 57/48/31
f 59/50/32 9/9/34 28/51/35 60/28/33
f 60/28/33 28/51/35 15/15/5 45/36/4
f 57/48/31 60/28/33 45/36/4 13/13/3
f 9/9/34 29/52/36 61/29/37 28/51/35
f 29/52/36 5/5/38 30/53/39 61/29/37
f 61/29/37 30/53/39 17/17/9 47/38/8
f 28/51/35 61/29/37 47/38/8 15/15/5
f 5/5/38 31/54/40 62/30/41 30/53/39
f 31/54/40 10/10/42 32/55/43 62/30/41
f 62/30/41 32/55/43 19/19/13 49/40/12
f 30/53/39 62/30/41 49/40/12 17/17/9
f 10/10/42 33/56/44 63/31/45 32/55/43
f 33/56/44 7/7/46 34/57/47 63/31/45
f 63/31/45 34/57/47 21/21/17 51/42/16
f 32/55/43 63/31/45 51/42/16 19/19/13
f 34/57/47 7/7/46 1/1/48 35/58/49
f 34/57/47 35/58/49 22/22/18 21/21/17
f 11/11/50 36/59/51 64/32/52 38/61/53
f 36/59/51 4/4/54 37/60/55 64/32/52
f 64/32/52 37/60/55 24/24/20 53/44/19
f 38/61/53 64/32/52 53/44/19 23/23/21
f 37/60/55 4/4/54 2/2/29 58/49/28
f 37/60/55 58/49/28 14/14/2 24/24/20
f 6/6/56 39/62/57 65/33/58 40/63/59
f 39/62/57 11/11/50 38/61/53 65/33/58
f 65/33/58 38/61/53 23/23/21 54/45/22
f 40/63/59 65/33/58 54/45/22 25/25/23
f 12/12/60 41/64/61 66/34/62 42/65/63
f 41/64/61 6/6/56 40/63/59 66/34/62
f 66/34/62 40/63/59 25/25/23 55/46/24
f 42/65/63 66/34/62 55/46/24 26/26/25
f 35/58/49 1/1/48 8/8/64 43/66/65
f 35/58/49 43/66/65 27/27/27 22/22/18
f 8/8/64 44/67/66 67/35/67 43/66/65
f 44/67/66 12/12/60 42/65/63 67/35/67
f 67/35/67 42/65/63 26/26/25 56/47/26
f 43/66/65 67/35/67 56/47/26 27/27/27
