# This file uses centimeters as units for non-parametric coordinates.

mtllib SM_food_cooked_bad_fries_geo.mtl
g default
v -13.026443 1.666841 2.374408
v -14.351561 2.500622 0.718928
v -13.699348 0.805483 -0.656886
v -12.374231 -0.028298 0.998593
v 5.228602 8.136788 -5.976569
v 4.576391 9.831927 -4.600754
v 3.903485 8.970571 -7.632049
v 3.251273 10.665709 -6.256234
v 6.157942 12.773967 -6.769795
v 5.505731 14.469105 -5.393981
v 4.832825 13.607749 -8.425275
v 4.180614 15.302887 -7.049460
v -4.433547 4.719316 1.173426
v 0.054972 9.552818 0.476461
v -4.906846 5.350300 -0.074183
v -0.418327 10.183803 -0.771148
v -4.226506 4.303555 -0.861678
v 0.262013 9.137058 -1.558641
v -3.753206 3.672572 0.385932
v 0.735313 8.506075 -0.311032
v 5.958858 9.753969 0.121171
v 5.278517 10.800714 0.908665
v 5.485559 10.384954 -1.126440
v 4.805217 11.431698 -0.338945
v -13.370523 5.168707 0.178388
v 2.453107 9.219702 5.345904
v -13.876673 6.027817 2.227164
v 1.946958 10.078813 7.394681
v -14.108068 8.097278 1.302214
v 1.715563 12.148273 6.469731
v -13.601918 7.238167 -0.746562
v 2.221712 11.289163 4.420955
v 9.545879 11.819273 2.551970
v 9.777275 9.749813 3.476920
v 9.039730 12.678383 4.600747
v 9.271126 10.608923 5.525696
v -12.170771 4.109746 1.362138
v 1.401578 13.910982 -0.123097
v -12.451441 5.221030 3.331406
v 1.120909 15.022266 1.846171
v -13.364592 6.980698 2.208256
v 0.207757 16.781935 0.723021
v -13.083923 5.869414 0.238988
v 0.488427 15.670650 -1.246247
v 8.405479 15.709896 -2.770642
v 9.318630 13.950230 -1.647492
v 8.124809 16.821180 -0.801375
v 9.037962 15.061513 0.321775
v -11.649139 1.843568 0.721174
v -11.649139 4.122107 0.721174
v -11.649139 4.122107 -1.557366
v -11.649139 1.843568 -1.557366
v 2.419717 5.887842 0.300866
v 2.419717 5.887842 2.579405
v 2.419717 8.166382 0.300866
v 2.419717 8.166382 2.579405
v 6.032665 1.394767 -2.028348
v 6.032665 1.394767 0.250191
v 6.032665 3.673307 -2.028348
v 6.032665 3.673307 0.250191
v -15.494571 1.782882 -2.243207
v -1.707930 1.074106 1.789324
v -15.930587 2.334673 -0.075914
v -2.143945 1.625897 3.956617
v -15.694776 4.541805 -0.590408
v -1.908135 3.833029 3.442124
v -15.258760 3.990014 -2.757701
v -1.472120 3.281238 1.274831
v 8.112158 4.883022 2.407013
v 7.876348 2.675890 2.921507
v 7.676142 5.434813 4.574306
v 7.440331 3.227681 5.088800
v -28.104752 -0.230763 1.730363
v 1.916588 2.354390 5.601553
v -28.668451 0.624893 -0.478419
v -1.947461 13.457834 -5.991035
v -28.162947 -0.111598 -0.113903
v 1.718137 2.376853 -5.885141
v -28.420761 0.104317 0.958827
v -28.766279 1.017490 1.444720
v -2.297640 15.053839 6.937644
v -2.100948 14.809132 5.941651
v -13.222404 1.132628 -2.999522
v -28.416372 0.241267 -0.599626
v 2.412596 0.549398 -0.026597
v -28.069365 -0.253074 0.913387
v -13.094080 1.061813 3.665958
v 0.210372 7.697285 6.863222
v -15.260855 7.456725 3.450239
v -28.238232 -0.092269 1.585144
v -15.531960 8.035664 4.191182
v -2.447616 15.201542 -0.450172
v -15.307957 7.041364 -3.234727
v -28.757998 0.858657 0.315078
v -0.147046 7.931302 -7.837989
v -14.013929 3.802508 4.224183
v -15.602808 8.030100 -0.067547
v -14.281710 4.086284 -4.218808
v -12.828384 0.148162 0.443395
vt 0.648226 0.109315
vt 0.685762 0.113131
vt 0.688624 0.464142
vt 0.648286 0.465637
vt 0.610772 0.114904
vt 0.609242 0.461914
vt 0.572370 0.118271
vt 0.570248 0.461966
vt 0.680188 0.540582
vt 0.585122 0.531372
vt 0.620797 0.534442
vt 0.647364 0.552952
vt 0.240908 0.907346
vt 0.128961 0.908363
vt 0.129036 0.883257
vt 0.239717 0.979209
vt 0.130472 0.960121
vt 0.241528 0.954725
vt 0.128800 0.934390
vt 0.245002 0.931145
vt 0.009766 0.943712
vt 0.033907 0.936755
vt 0.040993 0.959629
vt 0.043397 0.890017
vt 0.769964 0.504214
vt 0.807057 0.830892
vt 0.769056 0.827529
vt 0.769714 0.543053
vt 0.730386 0.829008
vt 0.882971 0.542737
vt 0.846947 0.832234
vt 0.845360 0.537259
vt 0.777177 0.985971
vt 0.843696 0.964193
vt 0.734493 0.951769
vt 0.772997 0.947296
vt 0.169623 0.603670
vt 0.488101 0.682477
vt 0.484922 0.721437
vt 0.199302 0.568082
vt 0.486051 0.604897
vt 0.215719 0.602400
vt 0.487734 0.643824
vt 0.201816 0.637228
vt 0.659767 0.639267
vt 0.621484 0.648146
vt 0.613125 0.609809
vt 0.619321 0.721255
vt 0.605370 0.738389
vt 0.613399 0.775379
vt 0.359514 0.765807
vt 0.365889 0.729614
vt 0.607332 0.847363
vt 0.362952 0.845302
vt 0.617310 0.812029
vt 0.356357 0.807933
vt 0.236102 0.872072
vt 0.247165 0.804186
vt 0.270211 0.827576
vt 0.281374 0.747713
vt 0.776695 0.492976
vt 0.816034 0.211824
vt 0.854249 0.210786
vt 0.856153 0.451149
vt 0.892275 0.206652
vt 0.740694 0.451984
vt 0.777736 0.208147
vt 0.779061 0.454480
vt 0.814135 0.048413
vt 0.776712 0.040029
vt 0.890525 0.039990
vt 0.853035 0.049170
vt 0.025159 0.078806
vt 0.146907 0.304993
vt 0.099108 0.319060
vt 0.021159 0.078032
vt 0.268229 0.531511
vt 0.175567 0.560674
vt 0.051821 0.590999
vt 0.034046 0.333304
vt 0.009766 0.076313
vt 0.064778 0.009766
vt 0.322103 0.010283
vt 0.307990 0.080928
vt 0.060131 0.028486
vt 0.579586 0.009912
vt 0.556116 0.132667
vt 0.531800 0.228145
vt 0.294192 0.135576
vt 0.057007 0.042203
vt 0.271321 0.186150
vt 0.055408 0.050068
vt 0.487897 0.321357
vt 0.430762 0.408664
vt 0.240418 0.234020
vt 0.049987 0.059656
vt 0.195109 0.274821
vt 0.036721 0.071220
vt 0.353368 0.478648
vt 0.739018 0.207592
vt 0.362965 0.884887
vt 0.487707 0.566319
vt 0.885127 0.829527
vt 0.726981 0.461981
vt 0.659092 0.589862
vt 0.711170 0.527565
vt 0.694496 0.577060
vt 0.631118 0.684878
vt 0.626052 0.572874
vt 0.723595 0.118245
vt 0.642734 0.070737
vt 0.738379 0.041819
vt 0.815179 0.009766
vt 0.817460 0.453973
vt 0.738225 0.490532
vt 0.894751 0.451189
vt 0.260729 0.773862
vt 0.274352 0.865018
vt 0.230375 0.833563
vt 0.652207 0.767497
vt 0.643906 0.729376
vt 0.603771 0.885997
vt 0.806923 0.961334
vt 0.877935 0.949893
vt 0.738629 0.990234
vt 0.731130 0.503878
vt 0.807376 0.537496
vt 0.730800 0.542624
vt 0.038799 0.913750
vt 0.045828 0.983466
vt 0.017028 0.967373
vt 0.131925 0.985297
vt 0.269833 0.927292
vt 0.236812 0.883272
vt 0.265677 0.902826
vt 0.194122 0.674927
vt 0.196857 0.713346
vt 0.651108 0.601059
vt 0.853870 0.010644
vt 0.604586 0.076493
vn -0.164842 0.821583 0.545737
vn -0.164842 0.821583 0.545737
vn -0.164842 0.821583 0.545737
vn -0.164842 0.821583 0.545737
vn -0.496686 0.423693 -0.757487
vn -0.496686 0.423693 -0.757487
vn -0.496686 0.423693 -0.757487
vn -0.496686 0.423693 -0.757487
vn 0.164842 -0.821583 -0.545737
vn 0.164842 -0.821583 -0.545737
vn 0.164842 -0.821583 -0.545737
vn 0.164842 -0.821583 -0.545737
vn 0.496686 -0.423693 0.757488
vn 0.496686 -0.423693 0.757488
vn 0.496686 -0.423693 0.757487
vn 0.496686 -0.423693 0.757487
vn 0.761478 0.559127 -0.327916
vn 0.761478 0.559127 -0.327916
vn 0.761478 0.559126 -0.327916
vn 0.761478 0.559127 -0.327916
vn -0.761478 -0.559126 0.327916
vn -0.761478 -0.559126 0.327916
vn -0.761478 -0.559126 0.327916
vn -0.761478 -0.559126 0.327916
vn 0.856139 -0.084372 0.509811
vn 0.856139 -0.084372 0.509811
vn 0.856139 -0.084372 0.509811
vn 0.856139 -0.084372 0.509811
vn 0.688565 -0.254174 -0.679172
vn 0.688565 -0.254174 -0.679172
vn 0.688565 -0.254174 -0.679172
vn 0.688565 -0.254174 -0.679172
vn -0.856139 0.084372 -0.509812
vn -0.856139 0.084372 -0.509812
vn -0.856139 0.084372 -0.509812
vn -0.856139 0.084372 -0.509812
vn -0.688565 0.254174 0.679172
vn -0.688565 0.254174 0.679172
vn -0.688565 0.254174 0.679172
vn -0.688565 0.254174 0.679172
vn -0.580870 0.616118 0.531967
vn -0.580870 0.616118 0.531967
vn -0.580870 0.616118 0.531967
vn -0.580870 0.616118 0.531967
vn -0.468517 0.316123 -0.824960
vn -0.468517 0.316123 -0.824960
vn -0.468517 0.316123 -0.824960
vn -0.468517 0.316123 -0.824960
vn 0.580870 -0.616118 -0.531967
vn 0.580870 -0.616118 -0.531967
vn 0.580870 -0.616118 -0.531967
vn 0.580870 -0.616118 -0.531967
vn 0.468517 -0.316123 0.824960
vn 0.468517 -0.316123 0.824960
vn 0.468517 -0.316123 0.824960
vn 0.468517 -0.316123 0.824960
vn 0.827483 0.560669 -0.030357
vn 0.827483 0.560669 -0.030357
vn 0.827483 0.560669 -0.030357
vn 0.827483 0.560669 -0.030357
vn -0.827483 -0.560669 0.030358
vn -0.827483 -0.560669 0.030358
vn -0.827484 -0.560669 0.030358
vn -0.827484 -0.560669 0.030358
vn 0.068686 -0.570878 0.818157
vn 0.068686 -0.570878 0.818157
vn 0.068686 -0.570878 0.818157
vn 0.068686 -0.570878 0.818157
vn 0.239621 -0.826726 -0.509024
vn 0.239621 -0.826726 -0.509024
vn 0.239621 -0.826726 -0.509024
vn 0.239621 -0.826726 -0.509024
vn -0.068687 0.570878 -0.818157
vn -0.068687 0.570878 -0.818157
vn -0.068687 0.570878 -0.818157
vn -0.068687 0.570878 -0.818157
vn -0.239621 0.826726 0.509024
vn -0.239621 0.826726 0.509024
vn -0.239621 0.826726 0.509024
vn -0.239621 0.826726 0.509024
vn 0.100100 -0.908511 0.405694
vn 0.100100 -0.908511 0.405694
vn 0.100100 -0.908511 0.405694
vn 0.100100 -0.908511 0.405694
vn -0.369943 0.344309 0.862898
vn -0.369943 0.344309 0.862898
vn -0.369943 0.344309 0.862898
vn -0.369943 0.344309 0.862898
vn -0.100100 0.908511 -0.405694
vn -0.100100 0.908511 -0.405694
vn -0.100100 0.908511 -0.405694
vn -0.100100 0.908511 -0.405694
vn 0.369943 -0.344309 -0.862898
vn 0.369943 -0.344309 -0.862898
vn 0.369943 -0.344309 -0.862898
vn 0.369943 -0.344309 -0.862898
vn 0.969712 0.181489 0.163464
vn 0.969712 0.181489 0.163464
vn 0.969712 0.181489 0.163464
vn 0.969712 0.181489 0.163464
vn -0.969712 -0.181488 -0.163464
vn -0.969712 -0.181488 -0.163464
vn -0.969712 -0.181488 -0.163464
vn -0.969712 -0.181488 -0.163464
vn -0.196040 -0.418318 -0.886892
vn -0.196040 -0.418318 -0.886892
vn -0.196040 -0.418318 -0.886892
vn -0.196040 -0.418318 -0.886892
vn -0.170940 0.892859 -0.416632
vn -0.170940 0.892859 -0.416632
vn -0.170940 0.892859 -0.416632
vn -0.170940 0.892859 -0.416632
vn 0.196040 0.418319 0.886892
vn 0.196040 0.418319 0.886892
vn 0.196040 0.418319 0.886892
vn 0.196040 0.418319 0.886892
vn 0.170940 -0.892859 0.416632
vn 0.170940 -0.892859 0.416632
vn 0.170940 -0.892859 0.416632
vn 0.170940 -0.892859 0.416632
vn 0.550359 -0.691128 0.468452
vn 0.550359 -0.691128 0.468452
vn 0.550359 -0.691128 0.468452
vn 0.550359 -0.691128 0.468452
vn -0.222458 0.439896 0.870060
vn -0.222458 0.439896 0.870060
vn -0.222458 0.439896 0.870060
vn -0.222458 0.439896 0.870060
vn -0.550359 0.691128 -0.468452
vn -0.550359 0.691128 -0.468452
vn -0.550359 0.691128 -0.468452
vn -0.550359 0.691128 -0.468452
vn 0.222458 -0.439896 -0.870060
vn 0.222458 -0.439896 -0.870060
vn 0.222458 -0.439896 -0.870060
vn 0.222458 -0.439896 -0.870060
vn 0.907864 0.407084 -0.100330
vn 0.907864 0.407084 -0.100330
vn 0.907864 0.407084 -0.100330
vn 0.907864 0.407084 -0.100330
vn -0.907864 -0.407083 0.100330
vn -0.907864 -0.407084 0.100330
vn -0.907864 -0.407083 0.100330
vn -0.907864 -0.407083 0.100330
vn -0.150381 -0.586173 -0.796107
vn -0.150381 -0.586173 -0.796107
vn -0.150381 -0.586173 -0.796107
vn -0.150381 -0.586173 -0.796107
vn -0.100499 0.860292 -0.499798
vn -0.100499 0.860292 -0.499798
vn -0.100499 0.860292 -0.499798
vn -0.100499 0.860292 -0.499798
vn 0.150382 0.586173 0.796107
vn 0.150382 0.586173 0.796107
vn 0.150382 0.586173 0.796107
vn 0.150382 0.586173 0.796107
vn 0.100499 -0.860292 0.499798
vn 0.100499 -0.860292 0.499798
vn 0.100499 -0.860292 0.499798
vn 0.100499 -0.860292 0.499798
vn -0.130944 0.000000 0.991390
vn -0.130944 0.000000 0.991390
vn -0.130944 0.000000 0.991390
vn -0.130944 0.000000 0.991390
vn -0.276275 0.961079 0.000000
vn -0.276275 0.961079 0.000000
vn -0.276275 0.961079 0.000000
vn -0.276275 0.961079 0.000000
vn 0.130944 0.000000 -0.991390
vn 0.130944 0.000000 -0.991390
vn 0.130944 0.000000 -0.991390
vn 0.130944 0.000000 -0.991390
vn 0.276275 -0.961079 0.000000
vn 0.276275 -0.961079 0.000000
vn 0.276275 -0.961079 0.000000
vn 0.276275 -0.961079 0.000000
vn 1.000000 0.000000 0.000000
vn 1.000000 0.000000 0.000000
vn 1.000000 0.000000 0.000000
vn 1.000000 0.000000 0.000000
vn -1.000000 0.000000 0.000000
vn -1.000000 0.000000 0.000000
vn -1.000000 0.000000 0.000000
vn -1.000000 0.000000 0.000000
vn -0.779302 -0.626648 0.000000
vn -0.779302 -0.626648 0.000000
vn -0.779302 -0.626648 0.000000
vn -0.779302 -0.626648 0.000000
vn -0.541844 0.000000 -0.840479
vn -0.541844 0.000000 -0.840479
vn -0.541844 0.000000 -0.840479
vn -0.541844 0.000000 -0.840479
vn 0.779302 0.626648 0.000000
vn 0.779302 0.626648 0.000000
vn 0.779302 0.626648 0.000000
vn 0.779302 0.626648 0.000000
vn 0.541844 0.000000 0.840479
vn 0.541844 0.000000 0.840479
vn 0.541844 0.000000 0.840479
vn 0.541844 0.000000 0.840479
vn -0.115072 -0.967937 0.223286
vn -0.115072 -0.967937 0.223286
vn -0.115072 -0.967937 0.223286
vn -0.115072 -0.967937 0.223286
vn -0.260495 0.245492 0.933743
vn -0.260495 0.245492 0.933743
vn -0.260495 0.245492 0.933743
vn -0.260495 0.245492 0.933743
vn 0.115072 0.967937 -0.223286
vn 0.115072 0.967937 -0.223286
vn 0.115072 0.967937 -0.223286
vn 0.115072 0.967937 -0.223286
vn 0.260495 -0.245492 -0.933743
vn 0.260495 -0.245492 -0.933743
vn 0.260495 -0.245492 -0.933743
vn 0.260495 -0.245492 -0.933743
vn 0.976049 -0.055230 0.210423
vn 0.976049 -0.055230 0.210423
vn 0.976049 -0.055230 0.210423
vn 0.976049 -0.055230 0.210423
vn -0.976049 0.055231 -0.210423
vn -0.976049 0.055231 -0.210423
vn -0.976049 0.055231 -0.210423
vn -0.976049 0.055231 -0.210423
vn 0.153326 -0.239842 -0.958628
vn 0.153326 -0.239842 -0.958628
vn 0.153326 -0.239842 -0.958628
vn 0.153326 -0.239842 -0.958628
vn -0.127803 0.954687 -0.268774
vn -0.127803 0.954687 -0.268774
vn -0.127803 0.954687 -0.268774
vn -0.127803 0.954687 -0.268774
vn -0.153326 0.239842 0.958628
vn -0.153326 0.239842 0.958628
vn -0.153326 0.239842 0.958628
vn -0.153326 0.239842 0.958628
vn 0.127803 -0.954687 0.268774
vn 0.127803 -0.954687 0.268774
vn 0.127803 -0.954687 0.268774
vn 0.127803 -0.954687 0.268774
vn -0.043853 -0.701566 0.711254
vn -0.035311 -0.714595 0.698646
vn -0.183335 -0.027341 0.982670
vn -0.234343 0.121660 0.964511
vn -0.031444 -0.723829 0.689263
vn -0.170024 -0.066019 0.983226
vn -0.215913 0.081870 0.972974
vn -0.230081 0.119645 0.965789
vn -0.272382 0.237905 0.932314
vn -0.471982 0.881348 -0.021409
vn -0.474176 0.880385 0.008865
vn -0.474876 0.870193 -0.131364
vn -0.472679 0.868799 -0.147526
vn -0.474858 0.879841 0.019742
vn -0.475875 0.870890 -0.122860
vn -0.421239 0.574071 -0.702139
vn -0.425450 0.588690 -0.687340
vn -0.437377 0.633551 -0.638212
vn -0.223429 -0.109613 -0.968537
vn -0.222283 -0.122690 -0.967232
vn -0.223405 -0.105190 -0.969033
vn -0.060963 -0.756000 -0.651726
vn -0.057271 -0.765332 -0.641083
vn -0.040625 -0.809696 -0.585442
vn 0.031824 -0.999448 -0.009587
vn 0.034926 -0.999155 -0.021673
vn 0.030388 -0.999500 -0.008715
s off
g SM_food_cooked_bad_fries_geo food
usemtl aiStandardSurface23SG
f 2/1/1 1/2/2 6/3/3 8/4/4
f 3/5/5 2/1/6 8/4/7 7/6/8
f 4/7/9 3/5/10 7/6/11 5/8/12
f 1/2/13 4/110/14 5/104/15 6/3/16
f 10/9/17 9/107/18 11/105/19 12/12/20
f 4/140/21 1/111/22 2/1/23 3/5/24
f 6/3/25 5/104/26 9/106/27 10/9/28
f 5/8/29 7/6/30 11/11/31 9/10/32
f 7/6/33 8/4/34 12/12/35 11/11/36
f 8/4/37 6/3/38 10/9/39 12/12/40
f 13/13/41 14/14/42 16/15/43 15/134/44
f 15/16/45 16/132/46 18/17/47 17/18/48
f 17/18/49 18/17/50 20/19/51 19/20/52
f 19/20/53 20/19/54 14/14/55 13/13/56
f 22/21/57 21/22/58 23/23/59 24/131/60
f 19/20/61 13/13/62 15/135/63 17/133/64
f 14/14/65 20/19/66 21/22/67 22/129/68
f 20/19/69 18/17/70 23/23/71 21/22/72
f 18/17/73 16/132/74 24/130/75 23/23/76
f 16/15/77 14/14/78 22/129/79 24/24/80
f 25/127/81 26/26/82 28/27/83 27/28/84
f 27/28/85 28/27/86 30/29/87 29/128/88
f 29/30/89 30/103/90 32/31/91 31/32/92
f 31/32/93 32/31/94 26/26/95 25/127/96
f 34/33/97 33/125/98 35/35/99 36/36/100
f 31/126/101 25/25/102 27/28/103 29/128/104
f 26/26/105 32/31/106 33/34/107 34/123/108
f 32/31/109 30/103/110 35/124/111 33/34/112
f 30/29/113 28/27/114 36/36/115 35/35/116
f 28/27/117 26/26/118 34/123/119 36/36/120
f 37/136/121 38/38/122 40/39/123 39/137/124
f 39/40/125 40/102/126 42/41/127 41/42/128
f 41/42/129 42/41/130 44/43/131 43/44/132
f 43/44/133 44/43/134 38/38/135 37/136/136
f 46/45/137 45/46/138 47/47/139 48/138/140
f 43/44/141 37/37/142 39/40/143 41/42/144
f 38/38/145 44/43/146 45/46/147 46/108/148
f 44/43/149 42/41/150 47/47/151 45/46/152
f 42/41/153 40/102/154 48/109/155 47/47/156
f 40/39/157 38/38/158 46/108/159 48/48/160
f 50/49/161 49/50/162 54/51/163 56/52/164
f 51/53/165 50/122/166 56/101/167 55/54/168
f 52/55/169 51/53/170 55/54/171 53/56/172
f 49/50/173 52/55/174 53/56/175 54/51/176
f 58/57/177 57/119/178 59/59/179 60/118/180
f 52/120/181 49/50/182 50/49/183 51/121/184
f 54/51/185 53/56/186 57/58/187 58/117/188
f 53/56/189 55/54/190 59/59/191 57/58/192
f 55/54/193 56/101/194 60/118/195 59/59/196
f 56/52/197 54/51/198 58/117/199 60/60/200
f 61/114/201 62/62/202 64/63/203 63/64/204
f 63/64/205 64/63/206 66/65/207 65/116/208
f 65/66/209 66/100/210 68/67/211 67/68/212
f 67/68/213 68/67/214 62/62/215 61/114/216
f 70/69/217 69/113/218 71/139/219 72/72/220
f 67/68/221 61/61/222 63/115/223 65/66/224
f 62/62/225 68/67/226 69/70/227 70/69/228
f 68/67/229 66/100/230 71/112/231 69/70/232
f 66/65/233 64/63/234 72/72/235 71/71/236
f 64/63/237 62/62/238 70/69/239 72/72/240
s 1
f 73/73/241 87/74/242 96/75/243 90/76/244
f 87/74/242 74/77/245 88/78/246 96/75/243
f 96/75/243 88/78/246 82/79/247 89/80/248
f 90/76/244 96/75/243 89/80/248 79/81/249
f 80/82/250 91/83/251 97/84/252 94/85/253
f 91/83/251 81/86/254 92/87/255 97/84/252
f 97/84/252 92/87/255 76/88/256 93/89/257
f 94/85/253 97/84/252 93/89/257 75/90/258
f 75/90/258 93/89/257 98/91/259 84/92/260
f 93/89/257 76/88/256 95/93/261 98/91/259
f 98/91/259 95/93/261 78/94/262 83/95/263
f 84/92/260 98/91/259 83/95/263 77/96/264
f 77/96/264 83/95/263 99/97/265 86/98/266
f 83/95/263 78/94/262 85/99/267 99/97/265
f 99/97/265 85/99/267 74/77/245 87/74/242
f 86/98/266 99/97/265 87/74/242 73/73/241
