# This file uses centimeters as units for non-parametric coordinates.

mtllib SM_food_component_cardboard_geo.mtl
g default
v -7.336601 0.081141 7.336601
v 7.336601 0.081141 7.336601
v -7.336601 2.487936 7.336601
v 7.336601 2.487936 7.336601
v -7.336601 2.487936 -7.336601
v 7.336601 2.487936 -7.336601
v -7.336601 0.081141 -7.336601
v 7.336601 0.081141 -7.336601
v -7.336601 1.929519 7.336601
v 7.336601 1.929519 7.336601
v 7.336601 1.929519 -7.336601
v -7.336601 1.929519 -7.336601
v -7.336601 0.639558 -7.336601
v 7.336601 0.639558 -7.336601
v 7.336601 0.639558 7.336601
v -7.336601 0.639558 7.336601
v -7.336601 2.131754 7.336601
v 7.336601 2.131754 7.336601
v 7.336601 2.131754 -7.336601
v -7.336601 2.131754 -7.336601
v 7.336601 0.915435 5.869282
v -7.336601 0.915435 5.869282
v 7.336601 2.131754 4.401962
v -7.336601 2.131754 4.401962
v 7.336601 0.915435 2.934642
v -7.336601 0.915435 2.934642
v 7.336601 2.131754 1.467323
v -7.336601 2.131754 1.467323
v 7.336601 0.915435 -0.000001
v -7.336601 0.915435 -0.000001
v 7.336601 2.131754 -1.467321
v -7.336601 2.131754 -1.467321
v 7.336601 0.915435 -2.934641
v -7.336601 0.915435 -2.934641
v 7.336601 2.131754 -4.401958
v -7.336601 2.131754 -4.401958
v 7.336601 0.915435 -5.869280
v -7.336601 0.915435 -5.869280
v 7.336601 0.539594 -5.869280
v -7.336601 0.539594 -5.869280
v -7.336601 1.755912 -7.500793
v 7.336601 1.755912 -7.500793
v -7.336601 1.755913 7.500793
v -7.336601 0.539594 5.869282
v 7.336601 0.539594 5.869282
v 7.336601 1.755913 7.500793
v -7.336601 1.755913 4.401962
v 7.336601 1.755913 4.401962
v -7.336601 0.539594 2.934641
v 7.336601 0.539594 2.934641
v -7.336601 1.755912 1.467322
v 7.336601 1.755912 1.467322
v -7.336601 0.539594 -0.000001
v 7.336601 0.539594 -0.000001
v -7.336601 1.755913 -1.467321
v 7.336601 1.755913 -1.467321
v -7.336601 0.539594 -2.934641
v 7.336601 0.539594 -2.934641
v -7.336601 1.755913 -4.401958
v 7.336601 1.755913 -4.401958
vt 0.650299 0.762088
vt 0.651126 0.438519
vt 0.326189 0.757507
vt 0.323993 0.438240
vt 0.990234 0.337068
vt 0.989718 0.009766
vt 0.671012 0.334821
vt 0.666087 0.010841
vt 0.015023 0.762105
vt 0.009766 0.447218
vt 0.980913 0.651392
vt 0.666045 0.645880
vt 0.642644 0.753766
vt 0.642787 0.446206
vt 0.331743 0.446418
vt 0.334399 0.749959
vt 0.982628 0.328728
vt 0.981501 0.017582
vt 0.673867 0.019045
vt 0.679074 0.327126
vt 0.336426 0.367058
vt 0.625015 0.375691
vt 0.621618 0.419159
vt 0.335836 0.407157
vt 0.627290 0.018429
vt 0.629967 0.062064
vt 0.335926 0.059894
vt 0.335473 0.020135
vt 0.646181 0.097750
vt 0.324601 0.098083
vt 0.635730 0.139098
vt 0.333374 0.136037
vt 0.647640 0.177551
vt 0.324336 0.175628
vt 0.635610 0.218608
vt 0.333514 0.213596
vt 0.646854 0.257525
vt 0.324586 0.253237
vt 0.633952 0.298204
vt 0.333841 0.291134
vt 0.643580 0.337647
vt 0.325306 0.330690
vt 0.330477 0.370190
vt 0.331750 0.414318
vt 0.019003 0.427246
vt 0.016834 0.386196
vt 0.012525 0.009766
vt 0.331384 0.013133
vt 0.329707 0.057406
vt 0.011124 0.050902
vt 0.318444 0.096709
vt 0.010206 0.093446
vt 0.326944 0.136339
vt 0.009766 0.134910
vt 0.317983 0.175094
vt 0.009815 0.177486
vt 0.327063 0.214080
vt 0.010279 0.218907
vt 0.318240 0.252884
vt 0.011240 0.261424
vt 0.327475 0.291749
vt 0.012614 0.302775
vt 0.319100 0.331016
vt 0.014566 0.345184
vt 0.631054 0.378132
vt 0.624991 0.427138
vt 0.630925 0.010383
vt 0.635964 0.059566
vt 0.653118 0.096608
vt 0.641811 0.138688
vt 0.654575 0.177371
vt 0.641690 0.218494
vt 0.653794 0.257650
vt 0.640049 0.298414
vt 0.650548 0.338817
vn 0.000000 -1.000000 0.000000
vn 0.000000 -1.000000 0.000000
vn 0.000000 -1.000000 0.000000
vn 0.000000 -1.000000 0.000000
vn 0.000000 1.000000 0.000000
vn 0.000000 1.000000 0.000000
vn 0.000000 1.000000 0.000000
vn 0.000000 1.000000 0.000000
vn 0.000000 1.000000 0.000000
vn 0.000000 1.000000 0.000000
vn 0.000000 1.000000 0.000000
vn 0.000000 1.000000 0.000000
vn 0.000000 -1.000000 0.000000
vn 0.000000 -1.000000 0.000000
vn 0.000000 -1.000000 0.000000
vn 0.000000 -1.000000 0.000000
vn 0.000000 0.000000 1.000000
vn 0.000000 0.000000 1.000000
vn 0.000000 0.000000 1.000000
vn 0.000000 0.000000 1.000000
vn 1.000000 0.000000 0.000000
vn 1.000000 0.000000 0.000000
vn 1.000000 0.000000 0.000000
vn 1.000000 0.000000 0.000000
vn 0.000000 0.000000 -1.000000
vn 0.000000 0.000000 -1.000000
vn 0.000000 0.000000 -1.000000
vn 0.000000 0.000000 -1.000000
vn -1.000000 0.000000 0.000000
vn -1.000000 0.000000 0.000000
vn -1.000000 0.000000 0.000000
vn -1.000000 0.000000 0.000000
vn 0.000000 0.000000 -1.000000
vn 0.000000 0.000000 -1.000000
vn 0.000000 0.000000 -1.000000
vn 0.000000 0.000000 -1.000000
vn 1.000000 0.000000 0.000000
vn 1.000000 0.000000 0.000000
vn 1.000000 0.000000 0.000000
vn 1.000000 0.000000 0.000000
vn 0.000000 0.000000 1.000000
vn 0.000000 0.000000 1.000000
vn 0.000000 0.000000 1.000000
vn 0.000000 0.000000 1.000000
vn -1.000000 0.000000 0.000000
vn -1.000000 0.000000 0.000000
vn -1.000000 0.000000 0.000000
vn -1.000000 0.000000 0.000000
vn 0.000000 -1.000000 0.000000
vn 0.000000 -1.000000 0.000000
vn 0.000000 -0.801723 -0.597696
vn 0.000000 -0.801723 -0.597696
vn 0.000000 -0.801722 0.597697
vn 0.000000 -1.000000 0.000000
vn 0.000000 -1.000000 0.000000
vn 0.000000 -0.801722 0.597697
vn 0.000000 -1.000000 0.000000
vn 0.000000 -1.000000 0.000000
vn 0.000000 -1.000000 0.000000
vn 0.000000 -1.000000 0.000000
vn 0.000000 -1.000000 0.000000
vn 0.000000 -1.000000 0.000000
vn 0.000000 -1.000000 -0.000000
vn 0.000000 -1.000000 -0.000000
vn 0.000000 -1.000000 -0.000000
vn 0.000000 -1.000000 -0.000000
vn 0.000000 -1.000000 0.000000
vn 0.000000 -1.000000 0.000000
vn 0.000000 -1.000000 0.000000
vn 0.000000 -1.000000 0.000000
vn 0.000000 1.000000 0.000000
vn 0.000000 0.769883 0.638185
vn 0.000000 0.769883 0.638185
vn 0.000000 1.000000 0.000000
vn 0.000000 0.769883 -0.638186
vn 0.000000 0.769883 -0.638186
vn 0.000000 1.000000 0.000000
vn 0.000000 1.000000 0.000000
vn 0.000000 1.000000 0.000000
vn 0.000000 1.000000 0.000000
vn 0.000000 1.000000 0.000000
vn 0.000000 1.000000 0.000000
vn 0.000000 1.000000 -0.000000
vn 0.000000 1.000000 -0.000000
vn 0.000000 1.000000 0.000000
vn 0.000000 1.000000 0.000000
vn 0.000000 1.000000 0.000000
vn 0.000000 1.000000 0.000000
vn 0.000000 1.000000 -0.000000
vn 0.000000 1.000000 -0.000000
vn 0.000000 1.000000 -0.000000
vn 0.000000 1.000000 -0.000000
vn -1.000000 0.000000 0.000000
vn -1.000000 0.000000 0.000000
vn -1.000000 0.000000 0.000000
vn -1.000000 0.000000 0.000000
vn 0.000000 0.400331 -0.916371
vn 0.000000 0.400331 -0.916371
vn 0.000000 0.400331 -0.916371
vn 0.000000 0.400331 -0.916371
vn 1.000000 0.000000 0.000000
vn 1.000000 0.000000 0.000000
vn 1.000000 0.000000 0.000000
vn 1.000000 0.000000 0.000000
vn -1.000000 0.000000 0.000000
vn -1.000000 0.000000 0.000000
vn -1.000000 0.000000 0.000000
vn -1.000000 0.000000 0.000000
vn 1.000000 0.000000 0.000000
vn 1.000000 0.000000 0.000000
vn 1.000000 0.000000 0.000000
vn 1.000000 0.000000 0.000000
vn 0.000000 0.400331 0.916371
vn 0.000000 0.400331 0.916371
vn 0.000000 0.400331 0.916371
vn 0.000000 0.400331 0.916371
vn -1.000000 0.000000 0.000000
vn -1.000000 0.000000 0.000000
vn 1.000000 -0.000000 0.000000
vn 1.000000 -0.000000 0.000000
vn -1.000000 -0.000001 0.000000
vn -1.000000 -0.000001 0.000000
vn 1.000000 -0.000001 0.000000
vn 1.000000 -0.000001 0.000000
vn -1.000000 0.000001 0.000000
vn -1.000000 0.000001 0.000000
vn 1.000000 0.000001 0.000000
vn 1.000000 0.000001 0.000000
vn -1.000000 0.000001 0.000000
vn -1.000000 0.000001 0.000000
vn 1.000000 0.000001 0.000000
vn 1.000000 0.000001 0.000000
vn -1.000000 -0.000001 0.000000
vn -1.000000 -0.000001 0.000000
vn 1.000000 -0.000001 0.000000
vn 1.000000 -0.000001 0.000000
vn -1.000000 0.000000 0.000000
vn -1.000000 0.000000 0.000000
vn 1.000000 0.000000 0.000000
vn 1.000000 0.000000 0.000000
vn -1.000000 0.000000 0.000000
vn -1.000000 0.000000 0.000000
vn 1.000000 0.000000 0.000000
vn 1.000000 0.000000 0.000000
s off
g SM_food_component_cardboard_geo
usemtl initialShadingGroup
f 9/13/1 12/16/2 11/15/3 10/14/4
f 13/17/5 16/20/6 15/19/7 14/18/8
f 3/9/9 4/10/10 6/4/11 5/3/12
f 7/5/13 8/11/14 2/12/15 1/7/16
f 3/1/17 9/13/18 10/14/19 4/2/20
f 4/2/21 10/14/22 11/15/23 6/4/24
f 6/4/25 11/15/26 12/16/27 5/3/28
f 5/3/29 12/16/30 9/13/31 3/1/32
f 7/5/33 13/17/34 14/18/35 8/6/36
f 8/6/37 14/18/38 15/19/39 2/8/40
f 2/8/41 15/19/42 16/20/43 1/7/44
f 1/7/45 16/20/46 13/17/47 7/5/48
s 1
f 39/21/49 40/22/50 41/23/51 42/24/52
f 43/25/53 44/26/54 45/27/55 46/28/56
f 45/27/55 44/26/54 47/29/57 48/30/58
f 48/30/58 47/29/57 49/31/59 50/32/60
f 50/32/60 49/31/59 51/33/61 52/34/62
f 52/34/62 51/33/61 53/35/63 54/36/64
f 54/36/64 53/35/63 55/37/65 56/38/66
f 56/38/66 55/37/65 57/39/67 58/40/68
f 58/40/68 57/39/67 59/41/69 60/42/70
f 60/42/70 59/41/69 40/22/50 39/21/49
s 3
f 37/43/71 19/44/72 20/45/73 38/46/74
f 17/47/75 18/48/76 21/49/77 22/50/78
f 21/49/77 23/51/79 24/52/80 22/50/78
f 23/51/79 25/53/81 26/54/82 24/52/80
f 25/53/81 27/55/83 28/56/84 26/54/82
f 27/55/83 29/57/85 30/58/86 28/56/84
f 29/57/85 31/59/87 32/60/88 30/58/86
f 31/59/87 33/61/89 34/62/90 32/60/88
f 33/61/89 35/63/91 36/64/92 34/62/90
f 35/63/91 37/43/71 38/46/74 36/64/92
s 5
f 38/65/93 20/66/94 41/23/95 40/22/96
s off
f 20/66/97 19/44/98 42/24/99 41/23/100
s 6
f 19/44/101 37/43/102 39/21/103 42/24/104
s 5
f 17/67/105 22/68/106 44/26/107 43/25/108
s 6
f 21/49/109 18/48/110 46/28/111 45/27/112
s off
f 18/48/113 17/67/114 43/25/115 46/28/116
s 5
f 22/68/106 24/69/117 47/29/118 44/26/107
s 6
f 23/51/119 21/49/109 45/27/112 48/30/120
s 5
f 24/69/117 26/70/121 49/31/122 47/29/118
s 6
f 25/53/123 23/51/119 48/30/120 50/32/124
s 5
f 26/70/121 28/71/125 51/33/126 49/31/122
s 6
f 27/55/127 25/53/123 50/32/124 52/34/128
s 5
f 28/71/125 30/72/129 53/35/130 51/33/126
s 6
f 29/57/131 27/55/127 52/34/128 54/36/132
s 5
f 30/72/129 32/73/133 55/37/134 53/35/130
s 6
f 31/59/135 29/57/131 54/36/132 56/38/136
s 5
f 32/73/133 34/74/137 57/39/138 55/37/134
s 6
f 33/61/139 31/59/135 56/38/136 58/40/140
s 5
f 34/74/137 36/75/141 59/41/142 57/39/138
s 6
f 35/63/143 33/61/139 58/40/140 60/42/144
s 5
f 36/75/141 38/65/93 40/22/96 59/41/142
s 6
f 37/43/102 35/63/143 60/42/144 39/21/103
