# This file uses centimeters as units for non-parametric coordinates.

mtllib SM_food_component_polystere_geo.mtl
g default
v -7.517241 0.975114 4.510346
v 7.517241 0.975114 4.510346
v -7.517241 9.995807 4.510346
v 7.517241 9.995807 4.510346
v -7.517241 9.995807 -4.510346
v 7.517241 8.125753 -4.510346
v -7.517241 0.975114 -4.510346
v 7.517241 0.975114 -4.510346
vt 0.258109 0.013324
vt 0.666085 0.019253
vt 0.254551 0.258109
vt 0.662527 0.264039
vt 0.250993 0.502895
vt 0.662005 0.514055
vt 0.274606 0.746564
vt 0.680722 0.707210
vt 0.298218 0.990234
vt 0.704334 0.950880
vt 0.910870 0.022811
vt 0.908050 0.216851
vt 0.013324 0.009766
vt 0.009766 0.254551
vn 0.000000 0.000000 1.000000
vn 0.000000 0.000000 1.000000
vn 0.000000 0.000000 1.000000
vn 0.000000 0.000000 1.000000
vn 0.061743 0.992773 -0.102904
vn 0.061743 0.992773 -0.102904
vn 0.061743 0.992773 -0.102904
vn 0.061743 0.992773 -0.102904
vn -0.000000 0.000000 -1.000000
vn -0.000000 0.000000 -1.000000
vn -0.000000 0.000000 -1.000000
vn -0.000000 0.000000 -1.000000
vn 0.000000 -1.000000 0.000000
vn 0.000000 -1.000000 0.000000
vn 0.000000 -1.000000 0.000000
vn 0.000000 -1.000000 0.000000
vn 1.000000 0.000000 0.000000
vn 1.000000 0.000000 0.000000
vn 1.000000 0.000000 0.000000
vn 1.000000 0.000000 0.000000
vn -1.000000 0.000000 0.000000
vn -1.000000 0.000000 0.000000
vn -1.000000 0.000000 0.000000
vn -1.000000 0.000000 0.000000
s off
g SM_food_component_polystere_geo
usemtl initialShadingGroup
f 1/1/1 2/2/2 4/4/3 3/3/4
f 3/3/5 4/4/6 6/6/7 5/5/8
f 5/5/9 6/6/10 8/8/11 7/7/12
f 7/7/13 8/8/14 2/10/15 1/9/16
f 2/2/17 8/11/18 6/12/19 4/4/20
f 7/13/21 1/1/22 3/3/23 5/14/24
