# This file uses centimeters as units for non-parametric coordinates.

mtllib SM_food_cooked_good_fries_geo.mtl
g default
v -13.026443 1.666841 2.374408
v -2.749046 10.189095 -2.971749
v -14.351561 2.500622 0.718928
v -4.074164 11.022877 -4.627229
v -13.699348 0.805483 -0.656886
v -3.421952 9.327738 -6.003043
v -12.374231 -0.028298 0.998593
v -2.096834 8.493957 -4.347564
v 2.665111 11.283564 -6.136534
v 2.012900 12.978703 -4.760719
v 1.339993 12.117346 -7.792013
v 0.687782 13.812484 -6.416199
v 6.157942 12.773967 -6.769795
v 5.505731 14.469105 -5.393981
v 4.832825 13.607749 -8.425275
v 4.180614 15.302887 -7.049460
v -4.235365 3.271802 0.459885
v 5.358596 4.297631 -4.164573
v -4.235365 5.550341 0.459885
v 5.358596 6.576170 -4.164573
v -5.257419 5.550341 -1.576570
v 4.336542 6.576170 -6.201027
v -5.257419 3.271802 -1.576570
v 4.336542 4.297631 -6.201027
v 8.001657 3.848830 -8.452126
v 9.023710 3.848830 -6.415671
v 8.001657 6.127370 -8.452126
v 9.023710 6.127370 -6.415671
v 10.334512 2.823001 -9.928800
v 11.356565 2.823001 -7.892344
v 10.334512 5.101541 -9.928800
v 11.356565 5.101541 -7.892344
v -13.370523 5.168707 0.178388
v 0.328565 8.004102 3.514651
v -13.876673 6.027817 2.227164
v -0.177585 8.863213 5.563428
v -14.108068 8.097278 1.302214
v -0.408979 10.932673 4.638478
v -13.601918 7.238167 -0.746562
v 0.097170 10.073563 2.589702
v 5.757157 11.286141 2.980398
v 5.988552 9.216681 3.905348
v 5.251008 12.145251 5.029174
v 5.482402 10.075791 5.954124
v 9.545879 11.819273 2.551970
v 9.777275 9.749813 3.476920
v 9.039730 12.678383 4.600747
v 9.271126 10.608923 5.525696
v -12.379702 4.483818 1.157673
v 0.584695 10.691871 0.689066
v -12.660372 5.595101 3.126941
v 0.304026 11.803155 2.658334
v -13.573523 7.354769 2.003791
v -0.609126 13.562822 1.535184
v -13.292854 6.243485 0.034523
v -0.328456 12.451538 -0.434084
v 4.820014 14.866674 -1.582477
v 5.733166 13.107007 -0.459327
v 4.539345 15.977958 0.386791
v 5.452497 14.218290 1.509941
v 8.196548 16.083967 -2.975107
v 9.109699 14.324301 -1.851957
v 7.915879 17.195251 -1.005840
v 8.829031 15.435584 0.117310
v -12.195187 0.845313 1.285912
v 1.228013 5.751728 -0.320306
v -12.117849 1.788651 3.358561
v 1.305350 6.695065 1.752343
v -12.957563 3.728166 2.507150
v 0.465636 8.634581 0.900932
v -13.034901 2.784828 0.434501
v 0.388299 7.691243 -1.171717
v 5.600093 9.680519 -2.764961
v 6.439808 7.741004 -1.913550
v 5.677430 10.623857 -0.692312
v 6.517145 8.684341 0.159100
v 8.902458 10.682162 -4.471798
v 9.742173 8.742647 -3.620387
v 8.979795 11.625500 -2.399149
v 9.819510 9.685984 -1.547738
v -11.649139 1.843568 0.721174
v -1.000163 2.869397 0.891476
v -11.649139 4.122107 0.721174
v -1.000163 5.147936 0.891476
v -11.649139 4.122107 -1.557366
v -1.000163 5.147936 -1.387063
v -11.649139 1.843568 -1.557366
v -1.000163 2.869397 -1.387063
v 3.285295 2.420596 -1.754982
v 3.285295 2.420596 0.523558
v 3.285295 4.699136 -1.754982
v 3.285295 4.699136 0.523558
v 6.032665 1.394767 -2.028348
v 6.032665 1.394767 0.250191
v 6.032665 3.673307 -2.028348
v 6.032665 3.673307 0.250191
v -15.494571 1.782882 -2.243207
v -1.707930 1.074106 1.789324
v -15.930587 2.334673 -0.075914
v -2.143945 1.625897 3.956617
v -15.694776 4.541805 -0.590408
v -1.908135 3.833029 3.442124
v -15.258760 3.990014 -2.757701
v -1.472120 3.281238 1.274831
v 4.286073 3.210123 1.979532
v 4.050262 1.002991 2.494025
v 3.850058 3.761914 4.146825
v 3.614247 1.554782 4.661318
v 8.122725 3.022107 1.720772
v 7.886914 0.814975 2.235266
v 7.686708 3.573898 3.888065
v 7.450898 1.366766 4.402559
v -28.104752 -0.230763 1.730363
v 1.916588 2.354390 5.601553
v -28.668451 0.624893 -0.478419
v -1.947461 13.457834 -5.991035
v -28.162947 -0.111598 -0.113903
v 1.718137 2.376853 -5.885141
v -28.420761 0.104317 0.958827
v -28.766279 1.017490 1.444720
v -2.297640 15.053839 6.937644
v -2.100948 14.809132 5.941651
v -13.222404 1.132628 -2.999522
v -28.416372 0.241267 -0.599626
v 2.412596 0.549398 -0.026597
v -28.069365 -0.253074 0.913387
v -13.094080 1.061813 3.665958
v 0.210372 7.697285 6.863222
v -15.260855 7.456725 3.450239
v -28.238232 -0.092269 1.585144
v -15.531960 8.035664 4.191182
v -2.447616 15.201542 -0.450172
v -15.307957 7.041364 -3.234727
v -28.757998 0.858657 0.315078
v -0.147046 7.931302 -7.837989
v -14.013929 3.802508 4.224183
v -15.602808 8.030100 -0.067547
v -14.281710 4.086284 -4.218808
v -12.828384 0.148162 0.443395
vt 0.424958 0.839835
vt 0.615984 0.868933
vt 0.422481 0.870341
vt 0.613351 0.899928
vt 0.417440 0.900531
vt 0.608312 0.930109
vt 0.410614 0.930366
vt 0.601487 0.959938
vt 0.406292 0.960664
vt 0.597166 0.990234
vt 0.878279 0.921772
vt 0.615983 0.931838
vt 0.394466 0.837332
vt 0.391972 0.867833
vt 0.692598 0.870574
vt 0.803735 0.898677
vt 0.696780 0.931945
vt 0.688935 0.901575
vt 0.734951 0.875561
vt 0.758023 0.870401
vt 0.751397 0.906205
vt 0.731273 0.896205
vt 0.624022 0.149679
vt 0.765069 0.178514
vt 0.761426 0.209835
vt 0.620703 0.180138
vt 0.754645 0.239691
vt 0.613916 0.210027
vt 0.745501 0.268915
vt 0.604768 0.239271
vt 0.739682 0.298987
vt 0.598945 0.269348
vt 0.852876 0.185588
vt 0.876561 0.182324
vt 0.868626 0.216925
vt 0.848043 0.206543
vt 0.593596 0.146302
vt 0.590238 0.176750
vt 0.963217 0.229619
vt 0.908863 0.208617
vt 0.821633 0.181214
vt 0.765807 0.242547
vt 0.827185 0.240578
vt 0.816527 0.211444
vt 0.586199 0.042820
vt 0.556724 0.233789
vt 0.525736 0.231086
vt 0.555699 0.040275
vt 0.495565 0.225989
vt 0.525518 0.035177
vt 0.465750 0.219107
vt 0.495695 0.028294
vt 0.435462 0.214729
vt 0.465406 0.023914
vt 0.549762 0.352747
vt 0.554853 0.375834
vt 0.519067 0.369102
vt 0.529129 0.349011
vt 0.588787 0.012342
vt 0.558289 0.009766
vt 0.503117 0.495935
vt 0.526437 0.421463
vt 0.554874 0.310408
vt 0.493820 0.233628
vt 0.493491 0.314411
vt 0.523885 0.306657
vt 0.126407 0.466715
vt 0.317434 0.495811
vt 0.314801 0.526806
vt 0.123931 0.497220
vt 0.309762 0.556987
vt 0.118890 0.527410
vt 0.302937 0.586816
vt 0.112064 0.557245
vt 0.298616 0.617113
vt 0.107743 0.587543
vt 0.436400 0.502438
vt 0.459472 0.497278
vt 0.452847 0.533082
vt 0.432723 0.523082
vt 0.095915 0.464212
vt 0.093421 0.494712
vt 0.579728 0.548648
vt 0.505185 0.525554
vt 0.394048 0.497451
vt 0.317433 0.558716
vt 0.398230 0.558823
vt 0.390385 0.528453
vt 0.109523 0.736207
vt 0.300549 0.765304
vt 0.297916 0.796299
vt 0.107046 0.766713
vt 0.292877 0.826480
vt 0.102005 0.796903
vt 0.286052 0.856310
vt 0.095179 0.826738
vt 0.281731 0.886606
vt 0.090858 0.857036
vt 0.419516 0.771932
vt 0.442587 0.766772
vt 0.435962 0.802576
vt 0.415838 0.792576
vt 0.079031 0.733704
vt 0.076537 0.764205
vt 0.562844 0.818142
vt 0.488300 0.795048
vt 0.377163 0.766945
vt 0.300548 0.828210
vt 0.381345 0.828316
vt 0.373500 0.797946
vt 0.631697 0.013208
vt 0.772744 0.042042
vt 0.769100 0.073364
vt 0.628378 0.043667
vt 0.762319 0.103220
vt 0.621591 0.073555
vt 0.753176 0.132444
vt 0.612443 0.102799
vt 0.747357 0.162516
vt 0.606620 0.132877
vt 0.860550 0.049117
vt 0.884236 0.045853
vt 0.876301 0.080453
vt 0.855717 0.070072
vt 0.601271 0.009831
vt 0.597913 0.040278
vt 0.970892 0.093147
vt 0.916538 0.072145
vt 0.829308 0.044742
vt 0.773482 0.106075
vt 0.834860 0.104107
vt 0.824202 0.074972
vt 0.117965 0.601462
vt 0.308991 0.630559
vt 0.306359 0.661554
vt 0.115488 0.631967
vt 0.301319 0.691735
vt 0.110448 0.662158
vt 0.294494 0.721564
vt 0.103622 0.691993
vt 0.290174 0.751860
vt 0.099300 0.722290
vt 0.427958 0.637187
vt 0.451030 0.632026
vt 0.444404 0.667831
vt 0.424281 0.657831
vt 0.087473 0.598959
vt 0.084979 0.629460
vt 0.571286 0.683397
vt 0.496743 0.660303
vt 0.385605 0.632200
vt 0.308991 0.693464
vt 0.389787 0.693571
vt 0.381942 0.663201
vt 0.021814 0.063779
vt 0.116928 0.240738
vt 0.079509 0.251741
vt 0.018679 0.063151
vt 0.211750 0.417945
vt 0.139297 0.440759
vt 0.042515 0.464538
vt 0.028580 0.262840
vt 0.009766 0.061781
vt 0.052786 0.009766
vt 0.254100 0.010201
vt 0.243054 0.065472
vt 0.049154 0.024412
vt 0.455579 0.010014
vt 0.437185 0.106054
vt 0.418129 0.180767
vt 0.232251 0.108224
vt 0.046714 0.035144
vt 0.214348 0.147787
vt 0.045465 0.041297
vt 0.383736 0.253699
vt 0.338978 0.321993
vt 0.190154 0.185232
vt 0.041227 0.048798
vt 0.154674 0.217139
vt 0.030855 0.057847
vt 0.278381 0.376692
vt 0.490162 0.690293
vt 0.395110 0.601859
vt 0.564548 0.713254
vt 0.313156 0.598801
vt 0.908735 0.101911
vt 0.842830 0.016174
vt 0.962932 0.122736
vt 0.780117 0.009766
vt 0.481720 0.825038
vt 0.386668 0.736604
vt 0.556105 0.847999
vt 0.304713 0.733546
vt 0.498605 0.555544
vt 0.403552 0.467110
vt 0.572990 0.578505
vt 0.321598 0.464053
vt 0.496467 0.414791
vt 0.585187 0.319997
vt 0.473281 0.489107
vt 0.588470 0.238041
vt 0.901060 0.238383
vt 0.835155 0.152645
vt 0.955257 0.259208
vt 0.772443 0.146237
vt 0.797155 0.928668
vt 0.702103 0.840233
vt 0.871540 0.951628
vt 0.620149 0.837175
vn 0.171050 0.205980 0.963491
vn 0.210418 0.307009 0.928154
vn -0.627746 0.772429 -0.096375
vn -0.727141 0.686340 -0.014256
vn -0.248868 -0.256820 -0.933867
vn -0.304213 -0.367786 -0.878742
vn 0.619831 -0.781671 0.069284
vn 0.574368 -0.809285 0.123122
vn 0.479289 0.324189 0.815588
vn 0.781215 -0.619625 0.075952
vn 0.225282 -0.045972 -0.973208
vn -0.101159 0.973917 -0.203106
vn 0.481211 -0.868722 0.117294
vn 0.156350 0.246739 0.956386
vn -0.166114 -0.216711 -0.961999
vn -0.493393 0.855517 -0.157017
vn 0.219043 -0.729156 0.648346
vn 0.363180 -0.676453 0.640712
vn 0.292458 0.721502 0.627617
vn 0.121626 0.672808 0.729751
vn -0.335071 0.736724 -0.587337
vn -0.498052 0.668691 -0.552084
vn -0.308868 -0.693398 -0.650999
vn -0.375469 -0.723467 -0.579326
vn 0.570883 -0.752503 0.328378
vn 0.008975 -0.733685 -0.679431
vn 0.211364 0.502174 -0.838539
vn 0.832357 0.502653 0.233499
vn -0.507398 -0.671209 -0.540394
vn 0.256001 -0.691957 0.675026
vn -0.225932 0.717722 -0.658657
vn 0.484160 0.712296 0.508157
vn 0.162139 -0.908925 -0.384144
vn 0.252714 -0.914793 -0.315101
vn -0.102828 -0.364284 0.925594
vn -0.240181 -0.416927 0.876633
vn -0.257488 0.891058 0.373785
vn -0.368677 0.880953 0.296647
vn 0.093815 0.390790 -0.915687
vn 0.035750 0.347225 -0.937100
vn 0.498113 -0.774919 -0.389081
vn 0.315436 0.343088 -0.884755
vn 0.256962 0.918595 0.300256
vn 0.456990 -0.263854 0.849436
vn -0.073696 0.361629 -0.929405
vn 0.172355 -0.923071 -0.343852
vn -0.163899 0.913174 0.373162
vn 0.060181 -0.323017 0.944478
vn 0.300113 -0.911701 -0.280596
vn 0.401291 -0.885264 -0.235103
vn 0.177391 -0.193475 0.964935
vn 0.050246 -0.281918 0.958122
vn -0.388231 0.872748 0.295954
vn -0.506656 0.825151 0.249853
vn -0.190466 0.218923 -0.956972
vn -0.239124 0.160957 -0.957555
vn 0.584850 -0.714233 -0.384476
vn 0.037640 0.225189 -0.973588
vn 0.078193 0.992072 0.098383
vn 0.668409 0.004699 0.743779
vn -0.344923 0.153485 -0.925997
vn 0.321349 -0.915425 -0.242346
vn -0.305026 0.913307 0.269870
vn 0.325639 -0.116372 0.938305
vn 0.162735 -0.906515 -0.389547
vn 0.270859 -0.894657 -0.355282
vn 0.267421 -0.300099 0.915657
vn 0.131397 -0.374443 0.917893
vn -0.252181 0.875233 0.412761
vn -0.379728 0.844183 0.378367
vn -0.276585 0.325856 -0.904057
vn -0.331058 0.273323 -0.903159
vn 0.453257 -0.729400 -0.512380
vn -0.052730 0.310976 -0.948954
vn 0.198008 0.965716 0.167882
vn 0.747788 -0.131729 0.650739
vn -0.432577 0.273455 -0.859127
vn 0.187789 -0.915914 -0.354735
vn -0.168671 0.909604 0.379699
vn 0.419083 -0.235935 0.876758
vn -0.095049 -0.729156 0.677715
vn 0.037198 -0.676453 0.735546
vn -0.020136 0.721502 0.692120
vn -0.218631 0.672808 0.706775
vn -0.036018 0.736724 -0.675233
vn -0.197495 0.668691 -0.716832
vn 0.015958 -0.693399 -0.720378
vn -0.075717 -0.723467 -0.686195
vn 0.362933 -0.752503 0.549563
vn 0.312785 -0.733685 -0.603218
vn 0.565040 0.502174 -0.654639
vn 0.639186 0.502653 0.582050
vn -0.211092 -0.671209 -0.710576
vn -0.073985 -0.691957 0.718138
vn 0.093518 0.717722 -0.690021
vn 0.204783 0.712296 0.671341
vn -0.001268 -0.836015 -0.548706
vn 0.082426 -0.873027 -0.480656
vn -0.223570 -0.499714 0.836841
vn -0.365774 -0.513018 0.776545
vn -0.095020 0.840371 0.533618
vn -0.201621 0.867764 0.454240
vn 0.219485 0.525215 -0.822178
vn 0.155168 0.499243 -0.852455
vn 0.354411 -0.775434 -0.522584
vn 0.425159 0.428071 -0.797493
vn 0.417850 0.774567 0.474814
vn 0.348339 -0.504312 0.790145
vn 0.050524 0.534181 -0.843859
vn 0.003716 -0.859145 -0.511719
vn 0.000990 0.842487 0.538716
vn -0.056887 -0.497073 0.865842
vn -0.043853 -0.701566 0.711254
vn -0.035311 -0.714595 0.698646
vn -0.183335 -0.027341 0.982670
vn -0.234343 0.121660 0.964511
vn -0.031444 -0.723829 0.689263
vn -0.170024 -0.066019 0.983226
vn -0.215913 0.081870 0.972974
vn -0.230081 0.119645 0.965789
vn -0.272382 0.237905 0.932314
vn -0.471982 0.881348 -0.021409
vn -0.474176 0.880385 0.008865
vn -0.474876 0.870193 -0.131364
vn -0.472679 0.868799 -0.147526
vn -0.474858 0.879841 0.019742
vn -0.475875 0.870890 -0.122860
vn -0.421239 0.574071 -0.702139
vn -0.425450 0.588690 -0.687340
vn -0.437377 0.633551 -0.638212
vn -0.223429 -0.109613 -0.968537
vn -0.222283 -0.122690 -0.967232
vn -0.223405 -0.105190 -0.969033
vn -0.060963 -0.756000 -0.651726
vn -0.057271 -0.765332 -0.641083
vn -0.040625 -0.809696 -0.585442
vn 0.031824 -0.999448 -0.009587
vn 0.034926 -0.999155 -0.021673
vn 0.030388 -0.999500 -0.008715
s 1
g SM_food_cooked_good_fries_geo
usemtl initialShadingGroup
f 1/1/1 2/2/2 4/4/3 3/3/4
f 3/3/4 4/4/3 6/6/5 5/5/6
f 5/5/6 6/6/5 8/8/7 7/7/8
f 7/7/8 8/8/7 2/10/2 1/9/1
f 14/19/9 13/20/10 15/21/11 16/22/12
f 7/13/8 1/1/1 3/3/4 5/14/6
f 2/2/2 8/209/7 9/207/13 10/15/14
f 8/11/7 6/208/5 11/206/15 9/16/13
f 6/12/5 4/4/3 12/18/16 11/17/15
f 4/4/3 2/2/2 10/15/14 12/18/16
f 10/15/14 9/207/13 13/20/10 14/19/9
f 9/16/13 11/206/15 15/21/11 13/20/10
f 11/17/15 12/18/16 16/22/12 15/21/11
f 12/18/16 10/15/14 14/19/9 16/22/12
s 3
f 17/23/17 18/24/18 20/25/19 19/26/20
f 19/26/20 20/25/19 22/27/21 21/28/22
f 21/28/22 22/27/21 24/29/23 23/30/24
f 23/30/24 24/29/23 18/31/18 17/32/17
f 30/33/25 29/34/26 31/35/27 32/36/28
f 23/37/24 17/23/17 19/26/20 21/38/22
f 18/24/18 24/205/23 25/203/29 26/41/30
f 24/39/23 22/204/21 27/202/31 25/40/29
f 22/42/21 20/25/19 28/44/32 27/43/31
f 20/25/19 18/24/18 26/41/30 28/44/32
f 26/41/30 25/203/29 29/34/26 30/33/25
f 25/40/29 27/202/31 31/35/27 29/34/26
f 27/43/31 28/44/32 32/36/28 31/35/27
f 28/44/32 26/41/30 30/33/25 32/36/28
s 5
f 33/45/33 34/46/34 36/47/35 35/48/36
f 35/48/36 36/47/35 38/49/37 37/50/38
f 37/50/38 38/49/37 40/51/39 39/52/40
f 39/52/40 40/51/39 34/53/34 33/54/33
f 46/55/41 45/56/42 47/57/43 48/58/44
f 39/59/40 33/45/33 35/48/36 37/60/38
f 34/46/34 40/201/39 41/199/45 42/63/46
f 40/61/39 38/200/37 43/198/47 41/62/45
f 38/64/37 36/47/35 44/66/48 43/65/47
f 36/47/35 34/46/34 42/63/46 44/66/48
f 42/63/46 41/199/45 45/56/42 46/55/41
f 41/62/45 43/198/47 47/57/43 45/56/42
f 43/65/47 44/66/48 48/58/44 47/57/43
f 44/66/48 42/63/46 46/55/41 48/58/44
s 7
f 49/67/49 50/68/50 52/69/51 51/70/52
f 51/70/52 52/69/51 54/71/53 53/72/54
f 53/72/54 54/71/53 56/73/55 55/74/56
f 55/74/56 56/73/55 50/75/50 49/76/49
f 62/77/57 61/78/58 63/79/59 64/80/60
f 55/81/56 49/67/49 51/70/52 53/82/54
f 50/68/50 56/197/55 57/195/61 58/85/62
f 56/83/55 54/196/53 59/194/63 57/84/61
f 54/86/53 52/69/51 60/88/64 59/87/63
f 52/69/51 50/68/50 58/85/62 60/88/64
f 58/85/62 57/195/61 61/78/58 62/77/57
f 57/84/61 59/194/63 63/79/59 61/78/58
f 59/87/63 60/88/64 64/80/60 63/79/59
f 60/88/64 58/85/62 62/77/57 64/80/60
s 9
f 65/89/65 66/90/66 68/91/67 67/92/68
f 67/92/68 68/91/67 70/93/69 69/94/70
f 69/94/70 70/93/69 72/95/71 71/96/72
f 71/96/72 72/95/71 66/97/66 65/98/65
f 78/99/73 77/100/74 79/101/75 80/102/76
f 71/103/72 65/89/65 67/92/68 69/104/70
f 66/90/66 72/193/71 73/191/77 74/107/78
f 72/105/71 70/192/69 75/190/79 73/106/77
f 70/108/69 68/91/67 76/110/80 75/109/79
f 68/91/67 66/90/66 74/107/78 76/110/80
f 74/107/78 73/191/77 77/100/74 78/99/73
f 73/106/77 75/190/79 79/101/75 77/100/74
f 75/109/79 76/110/80 80/102/76 79/101/75
f 76/110/80 74/107/78 78/99/73 80/102/76
s 11
f 81/111/81 82/112/82 84/113/83 83/114/84
f 83/114/84 84/113/83 86/115/85 85/116/86
f 85/116/86 86/115/85 88/117/87 87/118/88
f 87/118/88 88/117/87 82/119/82 81/120/81
f 94/121/89 93/122/90 95/123/91 96/124/92
f 87/125/88 81/111/81 83/114/84 85/126/86
f 82/112/82 88/189/87 89/187/93 90/129/94
f 88/127/87 86/188/85 91/186/95 89/128/93
f 86/130/85 84/113/83 92/132/96 91/131/95
f 84/113/83 82/112/82 90/129/94 92/132/96
f 90/129/94 89/187/93 93/122/90 94/121/89
f 89/128/93 91/186/95 95/123/91 93/122/90
f 91/131/95 92/132/96 96/124/92 95/123/91
f 92/132/96 90/129/94 94/121/89 96/124/92
s 13
f 97/133/97 98/134/98 100/135/99 99/136/100
f 99/136/100 100/135/99 102/137/101 101/138/102
f 101/138/102 102/137/101 104/139/103 103/140/104
f 103/140/104 104/139/103 98/141/98 97/142/97
f 110/143/105 109/144/106 111/145/107 112/146/108
f 103/147/104 97/133/97 99/136/100 101/148/102
f 98/134/98 104/185/103 105/183/109 106/151/110
f 104/149/103 102/184/101 107/182/111 105/150/109
f 102/152/101 100/135/99 108/154/112 107/153/111
f 100/135/99 98/134/98 106/151/110 108/154/112
f 106/151/110 105/183/109 109/144/106 110/143/105
f 105/150/109 107/182/111 111/145/107 109/144/106
f 107/153/111 108/154/112 112/146/108 111/145/107
f 108/154/112 106/151/110 110/143/105 112/146/108
s 15
f 113/155/113 127/156/114 136/157/115 130/158/116
f 127/156/114 114/159/117 128/160/118 136/157/115
f 136/157/115 128/160/118 122/161/119 129/162/120
f 130/158/116 136/157/115 129/162/120 119/163/121
f 120/164/122 131/165/123 137/166/124 134/167/125
f 131/165/123 121/168/126 132/169/127 137/166/124
f 137/166/124 132/169/127 116/170/128 133/171/129
f 134/167/125 137/166/124 133/171/129 115/172/130
f 115/172/130 133/171/129 138/173/131 124/174/132
f 133/171/129 116/170/128 135/175/133 138/173/131
f 138/173/131 135/175/133 118/176/134 123/177/135
f 124/174/132 138/173/131 123/177/135 117/178/136
f 117/178/136 123/177/135 139/179/137 126/180/138
f 123/177/135 118/176/134 125/181/139 139/179/137
f 139/179/137 125/181/139 114/159/117 127/156/114
f 126/180/138 139/179/137 127/156/114 113/155/113
