# This file uses centimeters as units for non-parametric coordinates.

mtllib SM_food_component_bread_geo.mtl
g default
v -2.959018 1.765132 2.959032
v 2.959018 1.765132 2.959032
v -2.959018 1.765132 -2.959004
v 2.959018 1.765132 -2.959004
v -4.789711 5.261759 4.789724
v -3.201186 6.502198 3.201191
v 3.201186 6.502197 3.201191
v 4.789711 5.261759 4.789725
v -3.201186 6.502198 -3.201179
v -4.789711 5.261759 -4.789699
v 3.201186 6.502197 -3.201180
v 4.789711 5.261759 -4.789700
v 0.000000 6.543643 3.970181
v 6.531425 5.261759 0.000012
v 4.375390 6.251989 -4.375381
v 3.970176 6.543643 0.000005
v -0.000000 6.543643 -3.970170
v 0.000000 5.261759 -6.531414
v 4.413971 3.295784 4.413985
v -4.413971 3.295784 4.413984
v 4.413971 3.295784 -4.413957
v -4.413971 3.295784 -4.413957
v -0.000000 1.433188 -3.640167
v 3.640180 1.433188 0.000014
v 0.000000 1.433188 3.640195
v -3.640180 1.433188 0.000014
v -4.375390 6.251989 4.375398
v -3.970176 6.543643 0.000005
v -4.375390 6.251989 -4.375381
v -6.531425 5.261759 0.000012
v 0.000000 5.261759 6.531437
v 4.375390 6.251989 4.375398
v 0.000000 0.875366 0.000014
v -5.960109 6.255749 0.000009
v 0.000000 6.255749 5.960117
v 5.960109 6.255749 0.000009
v 0.000000 6.255749 -5.960100
v -0.000000 3.270506 6.022704
v 0.000000 6.616421 0.000004
v 0.000000 3.270506 -6.022676
v 6.022689 3.270506 0.000014
v -6.022689 3.270506 0.000014
v 4.681314 5.880556 -4.681303
v 5.564953 6.253869 -2.387312
v 3.832084 6.438104 -3.832076
v 3.718609 6.529948 -1.891452
v -2.387321 6.253869 -5.564944
v 0.000000 5.880556 -6.383598
v -2.612570 5.261759 -6.095984
v -1.891458 6.529948 -3.718603
v 0.000000 6.453143 -5.200232
v 1.891458 6.529948 -3.718603
v 2.387321 6.253869 -5.564944
v 2.612570 5.261759 -6.095984
v 0.000000 2.247179 5.047445
v -2.407192 3.283145 5.619936
v -3.690774 2.348294 3.690788
v 3.690774 2.348294 3.690788
v 2.407192 3.283145 5.619936
v 4.740440 4.333554 4.740454
v -0.000000 4.333554 6.464250
v -4.740440 4.333554 4.740454
v 0.000000 6.598159 2.136097
v -2.136093 6.598159 0.000004
v 2.136093 6.598159 0.000004
v 0.000000 6.598159 -2.136088
v 0.000000 4.333554 -6.464223
v -2.407192 3.283145 -5.619907
v -4.740440 4.333554 -4.740426
v 4.740440 4.333554 -4.740427
v 2.407192 3.283145 -5.619907
v 3.690774 2.348294 -3.690760
v 0.000000 2.247179 -5.047417
v -3.690774 2.348294 -3.690760
v 5.047431 2.247179 0.000014
v 5.619921 3.283145 2.407206
v 5.619921 3.283145 -2.407178
v 6.464236 4.333554 0.000013
v -5.047431 2.247179 0.000014
v -5.619921 3.283145 -2.407178
v -5.619921 3.283145 2.407206
v -6.464236 4.333554 0.000013
v -1.699085 1.525275 -3.389952
v 0.000000 0.998148 -1.902644
v -1.902658 0.998149 0.000014
v -3.389966 1.525275 -1.699071
v 1.699085 1.525275 -3.389952
v 3.389966 1.525275 -1.699071
v 1.902658 0.998148 0.000014
v 3.389966 1.525275 1.699099
v 1.699085 1.525275 3.389980
v 0.000000 0.998148 1.902672
v -1.699085 1.525275 3.389980
v -3.389966 1.525275 1.699099
v -4.681314 5.880556 4.681324
v -5.564953 6.253869 2.387330
v -6.383610 5.880556 0.000011
v -6.095997 5.261759 2.612583
v -3.832084 6.438104 3.832090
v -3.718609 6.529948 1.891463
v -5.200240 6.453143 0.000007
v -3.718610 6.529948 -1.891452
v -3.832084 6.438104 -3.832076
v -5.564953 6.253869 -2.387312
v -4.681314 5.880556 -4.681303
v -6.095997 5.261759 -2.612558
v -2.387321 6.253869 5.564961
v 0.000000 6.453143 5.200245
v -1.891458 6.529948 3.718615
v -2.612570 5.261759 6.096009
v 0.000000 5.880556 6.383620
v 2.612570 5.261759 6.096009
v 4.681314 5.880556 4.681324
v 2.387321 6.253869 5.564961
v 3.832084 6.438104 3.832090
v 1.891458 6.529948 3.718614
v 5.564953 6.253869 2.387330
v 5.200239 6.453143 0.000007
v 3.718609 6.529948 1.891463
v 6.095997 5.261759 2.612583
v 6.383610 5.880556 0.000011
v 6.095997 5.261759 -2.612558
v -1.770791 1.113708 -1.770777
v 1.770791 1.113708 -1.770777
v 1.770791 1.113708 1.770805
v -1.770791 1.113708 1.770805
v -5.958036 5.880556 2.553454
v -4.862298 6.445623 2.093214
v -4.862298 6.445623 -2.093200
v -5.958036 5.880556 -2.553433
v -2.093207 6.445623 4.862304
v -2.553444 5.880556 5.958046
v 2.553444 5.880556 5.958046
v 2.093207 6.445623 4.862304
v 4.862298 6.445623 2.093214
v 5.958036 5.880556 2.553455
v 5.958036 5.880556 -2.553433
v 4.862298 6.445623 -2.093200
v -2.553444 5.880556 -5.958025
v -2.093208 6.445623 -4.862290
v 2.093208 6.445623 -4.862290
v 2.553444 5.880556 -5.958025
v -2.011437 2.297736 4.705926
v 2.011437 2.297736 4.705926
v 2.585695 4.333554 6.033301
v -2.585695 4.333554 6.033301
v -2.002428 6.580972 2.002432
v 2.002428 6.580972 2.002432
v 2.002428 6.580972 -2.002423
v -2.002428 6.580972 -2.002423
v -2.585695 4.333554 -6.033274
v 2.585695 4.333554 -6.033274
v 2.011437 2.297736 -4.705899
v -2.011437 2.297736 -4.705898
v 4.705912 2.297736 2.011451
v 4.705912 2.297736 -2.011423
v 6.033288 4.333554 -2.585681
v 6.033288 4.333554 2.585708
v -4.705912 2.297736 -2.011423
v -4.705912 2.297736 2.011451
v -6.033288 4.333554 2.585708
v -6.033288 4.333554 -2.585681
vt 0.191616 0.625104
vt 0.231857 0.615223
vt 0.229380 0.665102
vt 0.178827 0.664548
vt 0.283791 0.609902
vt 0.283141 0.662681
vt 0.282443 0.719439
vt 0.224623 0.718165
vt 0.170443 0.716344
vt 0.335578 0.616499
vt 0.336827 0.666423
vt 0.375564 0.627366
vt 0.387379 0.667113
vt 0.394486 0.719100
vt 0.340277 0.719588
vt 0.335948 0.772895
vt 0.281744 0.776319
vt 0.386916 0.771288
vt 0.374669 0.811451
vt 0.333966 0.823190
vt 0.281084 0.829946
vt 0.227640 0.771563
vt 0.176727 0.768703
vt 0.228385 0.821892
vt 0.187983 0.809155
vt 0.085118 0.906625
vt 0.133725 0.087890
vt 0.089573 0.158147
vt 0.028822 0.818028
vt 0.146673 0.100850
vt 0.106566 0.165220
vt 0.092590 0.243398
vt 0.074069 0.243653
vt 0.009766 0.709306
vt 0.164610 0.118794
vt 0.130016 0.175003
vt 0.184913 0.139106
vt 0.167338 0.181398
vt 0.158289 0.242527
vt 0.118175 0.243061
vt 0.128791 0.310951
vt 0.105461 0.321483
vt 0.165918 0.303500
vt 0.182408 0.345540
vt 0.161929 0.366614
vt 0.144234 0.385447
vt 0.088618 0.329104
vt 0.035746 0.601887
vt 0.131638 0.399052
vt 0.098545 0.517053
vt 0.221647 0.085253
vt 0.227901 0.122312
vt 0.211874 0.061824
vt 0.290684 0.049254
vt 0.290370 0.074741
vt 0.289881 0.114580
vt 0.204810 0.044833
vt 0.171300 0.966590
vt 0.279113 0.990234
vt 0.290911 0.030769
vt 0.376640 0.046945
vt 0.369160 0.063757
vt 0.387474 0.969249
vt 0.475105 0.911422
vt 0.446646 0.091736
vt 0.433383 0.104374
vt 0.358815 0.086939
vt 0.351652 0.123833
vt 0.415010 0.121872
vt 0.394214 0.141679
vt 0.448211 0.178914
vt 0.410743 0.184390
vt 0.471896 0.169710
vt 0.483945 0.248209
vt 0.458377 0.247243
vt 0.418288 0.245723
vt 0.489057 0.163057
vt 0.533563 0.824236
vt 0.555288 0.716016
vt 0.502455 0.248918
vt 0.485809 0.333987
vt 0.469159 0.325954
vt 0.531957 0.607990
vt 0.471264 0.521637
vt 0.441083 0.402856
vt 0.428825 0.388946
vt 0.446095 0.314851
vt 0.409162 0.306490
vt 0.411599 0.369684
vt 0.391643 0.348113
vt 0.199270 0.441203
vt 0.191669 0.462408
vt 0.206612 0.422948
vt 0.286031 0.427740
vt 0.285832 0.443945
vt 0.285611 0.461893
vt 0.216960 0.398383
vt 0.224463 0.361052
vt 0.286773 0.367396
vt 0.286312 0.404865
vt 0.355803 0.400090
vt 0.365544 0.424902
vt 0.349220 0.362586
vt 0.372435 0.443332
vt 0.379512 0.464718
vt 0.215791 0.867768
vt 0.161787 0.833967
vt 0.280485 0.878680
vt 0.279942 0.922797
vt 0.197995 0.906967
vt 0.131035 0.863093
vt 0.345427 0.869362
vt 0.400247 0.836900
vt 0.430273 0.866774
vt 0.362254 0.908987
vt 0.376120 0.941897
vt 0.279489 0.959671
vt 0.454811 0.891202
vt 0.183323 0.939525
vt 0.105903 0.886910
vt 0.223529 0.177627
vt 0.289154 0.173663
vt 0.288315 0.241986
vt 0.218219 0.241951
vt 0.354663 0.179239
vt 0.358390 0.243674
vt 0.353270 0.307697
vt 0.287479 0.309971
vt 0.221764 0.306081
vt 0.197301 0.493013
vt 0.116796 0.539096
vt 0.285287 0.488255
vt 0.284878 0.521490
vt 0.207193 0.528199
vt 0.139154 0.565811
vt 0.373129 0.495175
vt 0.452476 0.543224
vt 0.429468 0.569381
vt 0.362374 0.530108
vt 0.347070 0.570658
vt 0.284372 0.562654
vt 0.400672 0.600989
vt 0.221496 0.569114
vt 0.167163 0.598117
vt 0.433395 0.782686
vt 0.443514 0.718260
vt 0.487779 0.717412
vt 0.473164 0.799306
vt 0.433501 0.654189
vt 0.472712 0.635792
vt 0.505102 0.620510
vt 0.524710 0.716644
vt 0.506161 0.813003
vt 0.133036 0.650493
vt 0.121451 0.714299
vt 0.077220 0.712362
vt 0.094290 0.631138
vt 0.129982 0.778955
vt 0.089817 0.794591
vt 0.056492 0.807473
vt 0.040319 0.710686
vt 0.062285 0.615063
vt 0.117916 0.414026
vt 0.454433 0.418164
vt 0.504575 0.342705
vt 0.523460 0.249727
vt 0.508435 0.155896
vt 0.461294 0.077777
vt 0.384733 0.027938
vt 0.291169 0.009766
vt 0.197187 0.025632
vt 0.119424 0.073574
vt 0.070376 0.150511
vt 0.053050 0.243945
vt 0.069644 0.337358
vn -0.323434 -0.889258 -0.323434
vn -0.166441 -0.917077 -0.362309
vn -0.151998 -0.976624 -0.151998
vn -0.362309 -0.917077 -0.166441
vn -0.000000 -0.924310 -0.381642
vn -0.000000 -0.987818 -0.155617
vn -0.000000 -1.000000 0.000000
vn -0.155617 -0.987818 -0.000000
vn -0.381641 -0.924311 0.000000
vn 0.166441 -0.917077 -0.362309
vn 0.151998 -0.976623 -0.151998
vn 0.323435 -0.889258 -0.323434
vn 0.362309 -0.917077 -0.166441
vn 0.381642 -0.924310 0.000000
vn 0.155617 -0.987818 0.000000
vn 0.151998 -0.976623 0.151998
vn -0.000000 -0.987818 0.155617
vn 0.362309 -0.917077 0.166441
vn 0.323435 -0.889258 0.323435
vn 0.166441 -0.917077 0.362309
vn -0.000000 -0.924310 0.381642
vn -0.151998 -0.976623 0.151998
vn -0.362309 -0.917077 0.166441
vn -0.166441 -0.917077 0.362309
vn -0.323435 -0.889258 0.323435
vn -0.706169 0.051478 0.706169
vn -0.619761 0.481448 0.619761
vn -0.824665 0.479343 0.300263
vn -0.938282 0.050819 0.342116
vn -0.326730 0.886846 0.326729
vn -0.435161 0.886446 0.157632
vn -0.464546 0.885549 -0.000000
vn -0.878750 0.477283 -0.000000
vn -0.998733 0.050321 0.000000
vn -0.120038 0.985486 0.120038
vn -0.151614 0.986907 0.055022
vn -0.044394 0.998027 0.044395
vn -0.047421 0.998633 0.021994
vn -0.049058 0.998796 0.000000
vn -0.156040 0.987751 -0.000000
vn -0.151614 0.986907 -0.055022
vn -0.435162 0.886446 -0.157632
vn -0.047422 0.998633 -0.021994
vn -0.044394 0.998027 -0.044394
vn -0.120038 0.985486 -0.120038
vn -0.326731 0.886845 -0.326731
vn -0.824666 0.479341 -0.300264
vn -0.938282 0.050818 -0.342116
vn -0.619763 0.481444 -0.619763
vn -0.706169 0.051475 -0.706170
vn -0.055022 0.986907 0.151614
vn -0.021994 0.998633 0.047422
vn -0.157632 0.886447 0.435160
vn 0.000000 0.885550 0.464544
vn 0.000000 0.987751 0.156040
vn -0.000000 0.998796 0.049058
vn -0.300263 0.479344 0.824664
vn -0.342116 0.050820 0.938282
vn 0.000000 0.050323 0.998733
vn -0.000000 0.477285 0.878748
vn 0.300263 0.479344 0.824664
vn 0.157632 0.886447 0.435160
vn 0.342116 0.050820 0.938282
vn 0.706169 0.051478 0.706170
vn 0.619761 0.481448 0.619762
vn 0.326730 0.886846 0.326729
vn 0.055022 0.986907 0.151614
vn 0.021994 0.998633 0.047422
vn 0.120038 0.985486 0.120038
vn 0.044394 0.998027 0.044395
vn 0.151614 0.986907 0.055022
vn 0.047421 0.998633 0.021994
vn 0.435161 0.886446 0.157632
vn 0.464546 0.885549 -0.000000
vn 0.156040 0.987751 -0.000000
vn 0.049058 0.998796 -0.000000
vn 0.824665 0.479343 0.300263
vn 0.938282 0.050819 0.342116
vn 0.998733 0.050321 0.000000
vn 0.878750 0.477283 -0.000000
vn 0.824666 0.479341 -0.300264
vn 0.435162 0.886446 -0.157632
vn 0.938282 0.050817 -0.342116
vn 0.706169 0.051475 -0.706169
vn 0.619763 0.481445 -0.619763
vn 0.326731 0.886845 -0.326731
vn 0.151614 0.986907 -0.055022
vn 0.047421 0.998633 -0.021994
vn 0.120038 0.985486 -0.120038
vn 0.044394 0.998027 -0.044395
vn -0.300264 0.479339 -0.824667
vn -0.342117 0.050817 -0.938282
vn -0.157632 0.886446 -0.435162
vn 0.000000 0.885549 -0.464547
vn 0.000000 0.477281 -0.878751
vn 0.000000 0.050319 -0.998733
vn -0.055022 0.986907 -0.151614
vn -0.021994 0.998633 -0.047422
vn -0.000000 0.998796 -0.049058
vn -0.000000 0.987751 -0.156040
vn 0.055022 0.986907 -0.151614
vn 0.157632 0.886446 -0.435162
vn 0.021994 0.998633 -0.047422
vn 0.300264 0.479340 -0.824667
vn 0.342116 0.050817 -0.938282
vn -0.220918 -0.781202 0.583883
vn -0.442877 -0.779564 0.442877
vn -0.000000 -0.783535 0.621347
vn 0.000000 -0.549739 0.835337
vn -0.288295 -0.558179 0.778025
vn -0.582227 -0.567472 0.582227
vn 0.220918 -0.781202 0.583883
vn 0.442877 -0.779564 0.442877
vn 0.582226 -0.567472 0.582227
vn 0.288295 -0.558179 0.778024
vn 0.332472 -0.245324 0.910647
vn 0.000000 -0.241677 0.970357
vn 0.684633 -0.250112 0.684633
vn -0.332472 -0.245324 0.910647
vn -0.684633 -0.250112 0.684633
vn -0.018628 0.999653 0.018628
vn -0.000000 0.999824 0.018759
vn 0.000000 1.000000 -0.000000
vn -0.018759 0.999824 -0.000000
vn 0.018628 0.999653 0.018628
vn 0.018759 0.999824 -0.000000
vn 0.018628 0.999653 -0.018628
vn -0.000000 0.999824 -0.018760
vn -0.018628 0.999653 -0.018628
vn -0.332472 -0.245325 -0.910647
vn -0.684633 -0.250113 -0.684633
vn 0.000000 -0.241678 -0.970356
vn -0.000000 -0.549739 -0.835337
vn -0.288295 -0.558179 -0.778024
vn -0.582227 -0.567472 -0.582227
vn 0.332472 -0.245326 -0.910647
vn 0.684633 -0.250113 -0.684633
vn 0.582227 -0.567472 -0.582227
vn 0.288295 -0.558179 -0.778024
vn 0.220918 -0.781202 -0.583883
vn -0.000000 -0.783535 -0.621347
vn 0.442877 -0.779564 -0.442877
vn -0.220918 -0.781202 -0.583883
vn -0.442877 -0.779564 -0.442877
vn 0.583883 -0.781202 0.220918
vn 0.621347 -0.783535 0.000000
vn 0.835337 -0.549739 0.000000
vn 0.778024 -0.558179 0.288295
vn 0.583883 -0.781202 -0.220918
vn 0.778024 -0.558179 -0.288295
vn 0.910647 -0.245325 -0.332472
vn 0.970357 -0.241678 0.000000
vn 0.910647 -0.245325 0.332472
vn -0.583883 -0.781202 -0.220918
vn -0.621347 -0.783535 0.000000
vn -0.835337 -0.549739 0.000000
vn -0.778024 -0.558180 -0.288295
vn -0.583883 -0.781202 0.220918
vn -0.778024 -0.558179 0.288295
vn -0.910647 -0.245325 0.332472
vn -0.970357 -0.241678 0.000000
vn -0.910647 -0.245325 -0.332472
s 1
g SM_food_component_bread_geo
usemtl initialShadingGroup
f 3/1/1 83/2/2 123/3/3 86/4/4
f 83/2/2 23/5/5 84/6/6 123/3/3
f 123/3/3 84/6/6 33/7/7 85/8/8
f 86/4/4 123/3/3 85/8/8 26/9/9
f 23/5/5 87/10/10 124/11/11 84/6/6
f 87/10/10 4/12/12 88/13/13 124/11/11
f 124/11/11 88/13/13 24/14/14 89/15/15
f 84/6/6 124/11/11 89/15/15 33/7/7
f 33/7/7 89/15/15 125/16/16 92/17/17
f 89/15/15 24/14/14 90/18/18 125/16/16
f 125/16/16 90/18/18 2/19/19 91/20/20
f 92/17/17 125/16/16 91/20/20 25/21/21
f 26/9/9 85/8/8 126/22/22 94/23/23
f 85/8/8 33/7/7 92/17/17 126/22/22
f 126/22/22 92/17/17 25/21/21 93/24/24
f 94/23/23 126/22/22 93/24/24 1/25/25
f 5/172/26 95/27/27 127/28/28 98/173/29
f 95/27/27 27/30/30 96/31/31 127/28/28
f 127/28/28 96/31/31 34/32/32 97/33/33
f 98/173/29 127/28/28 97/33/33 30/174/34
f 27/30/30 99/35/35 128/36/36 96/31/31
f 99/35/35 6/37/37 100/38/38 128/36/36
f 128/36/36 100/38/38 28/39/39 101/40/40
f 96/31/31 128/36/36 101/40/40 34/32/32
f 34/32/32 101/40/40 129/41/41 104/42/42
f 101/40/40 28/39/39 102/43/43 129/41/41
f 129/41/41 102/43/43 9/44/44 103/45/45
f 104/42/42 129/41/41 103/45/45 29/46/46
f 30/174/34 97/33/33 130/47/47 106/175/48
f 97/33/33 34/32/32 104/42/42 130/47/47
f 130/47/47 104/42/42 29/46/46 105/49/49
f 106/175/48 130/47/47 105/49/49 10/163/50
f 6/37/37 99/35/35 131/51/51 109/52/52
f 99/35/35 27/30/30 107/53/53 131/51/51
f 131/51/51 107/53/53 35/54/54 108/55/55
f 109/52/52 131/51/51 108/55/55 13/56/56
f 27/30/30 95/27/27 132/57/57 107/53/53
f 95/27/27 5/172/26 110/171/58 132/57/57
f 132/57/57 110/171/58 31/170/59 111/60/60
f 107/53/53 132/57/57 111/60/60 35/54/54
f 35/54/54 111/60/60 133/61/61 114/62/62
f 111/60/60 31/170/59 112/169/63 133/61/61
f 133/61/61 112/169/63 8/168/64 113/65/65
f 114/62/62 133/61/61 113/65/65 32/66/66
f 13/56/56 108/55/55 134/67/67 116/68/68
f 108/55/55 35/54/54 114/62/62 134/67/67
f 134/67/67 114/62/62 32/66/66 115/69/69
f 116/68/68 134/67/67 115/69/69 7/70/70
f 7/70/70 115/69/69 135/71/71 119/72/72
f 115/69/69 32/66/66 117/73/73 135/71/71
f 135/71/71 117/73/73 36/74/74 118/75/75
f 119/72/72 135/71/71 118/75/75 16/76/76
f 32/66/66 113/65/65 136/77/77 117/73/73
f 113/65/65 8/168/64 120/167/78 136/77/77
f 136/77/77 120/167/78 14/166/79 121/80/80
f 117/73/73 136/77/77 121/80/80 36/74/74
f 36/74/74 121/80/80 137/81/81 44/82/82
f 121/80/80 14/166/79 122/165/83 137/81/81
f 137/81/81 122/165/83 12/164/84 43/85/85
f 44/82/82 137/81/81 43/85/85 15/86/86
f 16/76/76 118/75/75 138/87/87 46/88/88
f 118/75/75 36/74/74 44/82/82 138/87/87
f 138/87/87 44/82/82 15/86/86 45/89/89
f 46/88/88 138/87/87 45/89/89 11/90/90
f 10/163/50 105/49/49 139/91/91 49/92/92
f 105/49/49 29/46/46 47/93/93 139/91/91
f 139/91/91 47/93/93 37/94/94 48/95/95
f 49/92/92 139/91/91 48/95/95 18/96/96
f 29/46/46 103/45/45 140/97/97 47/93/93
f 103/45/45 9/44/44 50/98/98 140/97/97
f 140/97/97 50/98/98 17/99/99 51/100/100
f 47/93/93 140/97/97 51/100/100 37/94/94
f 37/94/94 51/100/100 141/101/101 53/102/102
f 51/100/100 17/99/99 52/103/103 141/101/101
f 141/101/101 52/103/103 11/90/90 45/89/89
f 53/102/102 141/101/101 45/89/89 15/86/86
f 18/96/96 48/95/95 142/104/104 54/105/105
f 48/95/95 37/94/94 53/102/102 142/104/104
f 142/104/104 53/102/102 15/86/86 43/85/85
f 54/105/105 142/104/104 43/85/85 12/164/84
f 1/25/25 93/24/24 143/106/106 57/107/107
f 93/24/24 25/21/21 55/108/108 143/106/106
f 143/106/106 55/108/108 38/109/109 56/110/110
f 57/107/107 143/106/106 56/110/110 20/111/111
f 25/21/21 91/20/20 144/112/112 55/108/108
f 91/20/20 2/19/19 58/113/113 144/112/112
f 144/112/112 58/113/113 19/114/114 59/115/115
f 55/108/108 144/112/112 59/115/115 38/109/109
f 38/109/109 59/115/115 145/116/116 61/117/117
f 59/115/115 19/114/114 60/118/118 145/116/116
f 145/116/116 60/118/118 8/64/64 112/63/63
f 61/117/117 145/116/116 112/63/63 31/59/59
f 20/111/111 56/110/110 146/119/119 62/120/120
f 56/110/110 38/109/109 61/117/117 146/119/119
f 146/119/119 61/117/117 31/59/59 110/58/58
f 62/120/120 146/119/119 110/58/58 5/26/26
f 6/37/37 109/52/52 147/121/121 100/38/38
f 109/52/52 13/56/56 63/122/122 147/121/121
f 147/121/121 63/122/122 39/123/123 64/124/124
f 100/38/38 147/121/121 64/124/124 28/39/39
f 13/56/56 116/68/68 148/125/125 63/122/122
f 116/68/68 7/70/70 119/72/72 148/125/125
f 148/125/125 119/72/72 16/76/76 65/126/126
f 63/122/122 148/125/125 65/126/126 39/123/123
f 39/123/123 65/126/126 149/127/127 66/128/128
f 65/126/126 16/76/76 46/88/88 149/127/127
f 149/127/127 46/88/88 11/90/90 52/103/103
f 66/128/128 149/127/127 52/103/103 17/99/99
f 28/39/39 64/124/124 150/129/129 102/43/43
f 64/124/124 39/123/123 66/128/128 150/129/129
f 150/129/129 66/128/128 17/99/99 50/98/98
f 102/43/43 150/129/129 50/98/98 9/44/44
f 10/50/50 49/92/92 151/130/130 69/131/131
f 49/92/92 18/96/96 67/132/132 151/130/130
f 151/130/130 67/132/132 40/133/133 68/134/134
f 69/131/131 151/130/130 68/134/134 22/135/135
f 18/96/96 54/105/105 152/136/136 67/132/132
f 54/105/105 12/84/84 70/137/137 152/136/136
f 152/136/136 70/137/137 21/138/138 71/139/139
f 67/132/132 152/136/136 71/139/139 40/133/133
f 40/133/133 71/139/139 153/140/140 73/141/141
f 71/139/139 21/138/138 72/142/142 153/140/140
f 153/140/140 72/142/142 4/12/12 87/10/10
f 73/141/141 153/140/140 87/10/10 23/5/5
f 22/135/135 68/134/134 154/143/143 74/144/144
f 68/134/134 40/133/133 73/141/141 154/143/143
f 154/143/143 73/141/141 23/5/5 83/2/2
f 74/144/144 154/143/143 83/2/2 3/1/1
f 2/19/19 90/18/18 155/145/145 58/113/113
f 90/18/18 24/14/14 75/146/146 155/145/145
f 155/145/145 75/146/146 41/147/147 76/148/148
f 58/113/113 155/145/145 76/148/148 19/114/114
f 24/14/14 88/13/13 156/149/149 75/146/146
f 88/13/13 4/12/12 72/142/142 156/149/149
f 156/149/149 72/142/142 21/138/138 77/150/150
f 75/146/146 156/149/149 77/150/150 41/147/147
f 41/147/147 77/150/150 157/151/151 78/152/152
f 77/150/150 21/138/138 70/137/137 157/151/151
f 157/151/151 70/137/137 12/84/84 122/83/83
f 78/152/152 157/151/151 122/83/83 14/79/79
f 19/114/114 76/148/148 158/153/153 60/118/118
f 76/148/148 41/147/147 78/152/152 158/153/153
f 158/153/153 78/152/152 14/79/79 120/78/78
f 60/118/118 158/153/153 120/78/78 8/64/64
f 3/1/1 86/4/4 159/154/154 74/144/144
f 86/4/4 26/9/9 79/155/155 159/154/154
f 159/154/154 79/155/155 42/156/156 80/157/157
f 74/144/144 159/154/154 80/157/157 22/135/135
f 26/9/9 94/23/23 160/158/158 79/155/155
f 94/23/23 1/25/25 57/107/107 160/158/158
f 160/158/158 57/107/107 20/111/111 81/159/159
f 79/155/155 160/158/158 81/159/159 42/156/156
f 42/156/156 81/159/159 161/160/160 82/161/161
f 81/159/159 20/111/111 62/120/120 161/160/160
f 161/160/160 62/120/120 5/26/26 98/29/29
f 82/161/161 161/160/160 98/29/29 30/34/34
f 22/135/135 80/157/157 162/162/162 69/131/131
f 80/157/157 42/156/156 82/161/161 162/162/162
f 162/162/162 82/161/161 30/34/34 106/48/48
f 69/131/131 162/162/162 106/48/48 10/50/50
