# This file uses centimeters as units for non-parametric coordinates.

mtllib SM_food_component_paper_geo.mtl
g default
v -4.042303 2.409412 4.042303
v 4.042303 2.409412 4.042303
v -8.190866 4.699179 3.710751
v 4.042303 10.494017 4.042303
v -4.042303 10.494017 -4.042303
v 4.042303 10.494017 -4.042303
v -4.042303 2.409412 -4.042302
v 7.270217 0.954582 -6.159844
v -9.605672 6.113984 -0.331551
v 5.457108 6.451715 -5.457108
v 0.000000 0.994606 -5.457108
v -8.512025 9.907445 -2.909687
v 5.457108 0.994606 0.000000
v -6.305623 -1.957105 0.132465
v 0.000000 0.994606 5.457108
v 4.362460 6.451715 4.558090
v -2.264994 8.957431 5.163350
v -3.204917 6.451715 2.799434
v 8.019409 11.466687 2.339044
v 0.000000 11.908822 -5.457108
v -1.128493 2.788273 10.799899
v 0.000000 13.727859 0.000000
v 0.000000 6.451715 -7.276144
v 0.000000 -0.824430 0.000000
v 7.276144 6.451715 0.000000
v -7.276144 6.451715 0.000000
vt 0.232697 0.112972
vt 0.154244 0.955371
vt 0.443485 0.117727
vt 0.353802 0.987355
vt 0.116932 0.285512
vt 0.456940 0.303529
vt 0.255157 0.502655
vt 0.461250 0.525350
vt 0.715285 0.248098
vt 0.227753 0.707426
vt 0.009766 0.091640
vt 0.490786 0.773466
vt 0.670162 0.015243
vt 0.331899 0.164793
vt 0.367781 0.414035
vt 0.345492 0.624293
vt 0.271019 0.858855
vt 0.573233 0.198801
vt 0.110854 0.203405
vt 0.336298 0.088705
vt 0.250778 0.990234
vt 0.453740 0.210759
vt 0.292483 0.276810
vt 0.223352 0.216064
vt 0.549345 0.359301
vt 0.558752 0.327105
vt 0.357641 0.516479
vt 0.095850 0.392321
vt 0.473820 0.637258
vt 0.694683 0.147021
vt 0.327761 0.743164
vt 0.146961 0.503343
vt 0.047587 0.290105
vt 0.401566 0.896876
vt 0.534726 0.071434
vt 0.128498 0.814408
vt 0.133268 0.009766
vn -0.645901 -0.389530 0.656565
vn 0.117040 -0.780219 0.614459
vn 0.090515 -0.033026 0.995347
vn -0.785013 -0.123659 0.607012
vn 0.667039 -0.563421 0.487457
vn 0.616732 0.087464 0.782299
vn 0.228327 0.577183 0.784045
vn -0.303971 0.661045 0.686018
vn -0.614229 0.650066 0.447367
vn -0.180390 0.972381 0.148103
vn -0.590069 0.739972 0.322892
vn 0.732674 0.645770 0.214874
vn 0.554628 0.613420 -0.562231
vn -0.061198 0.799384 -0.597695
vn -0.524285 0.706691 -0.475092
vn -0.152843 0.016276 -0.988117
vn -0.660582 -0.141798 -0.737241
vn 0.674350 0.108522 -0.730394
vn 0.612812 -0.549419 -0.567979
vn -0.105402 -0.636752 -0.763831
vn -0.552140 -0.419706 -0.720408
vn 0.065854 -0.997326 0.031700
vn -0.668268 -0.741352 0.061763
vn 0.670422 -0.730944 0.127500
vn 0.998148 0.019871 0.057503
vn -0.980636 -0.185020 -0.064198
s 1
g SM_food_component_paper_geo
usemtl initialShadingGroup
f 1/1/1 15/20/2 21/14/3 18/24/4
f 15/20/2 2/3/5 16/22/6 21/14/3
f 21/14/3 16/22/6 4/6/7 17/23/8
f 18/24/4 21/14/3 17/23/8 3/5/9
f 3/5/9 17/23/8 22/15/10 9/28/11
f 17/23/8 4/6/7 19/25/12 22/15/10
f 22/15/10 19/25/12 6/8/13 20/27/14
f 9/28/11 22/15/10 20/27/14 5/7/15
f 5/7/15 20/27/14 23/16/16 12/32/17
f 20/27/14 6/8/13 10/29/18 23/16/16
f 23/16/16 10/29/18 8/12/19 11/31/20
f 12/32/17 23/16/16 11/31/20 7/10/21
f 7/10/21 11/31/20 24/17/22 14/36/23
f 11/31/20 8/12/19 13/34/24 24/17/22
f 24/17/22 13/34/24 2/4/5 15/21/2
f 14/36/23 24/17/22 15/21/2 1/2/1
f 2/3/5 13/35/24 25/18/25 16/22/6
f 13/35/24 8/13/19 10/30/18 25/18/25
f 25/18/25 10/30/18 6/9/13 19/26/12
f 16/22/6 25/18/25 19/26/12 4/6/7
f 7/11/21 14/37/23 26/19/26 12/33/17
f 14/37/23 1/1/1 18/24/4 26/19/26
