# This file uses centimeters as units for non-parametric coordinates.

mtllib SM_coat_03.mtl
g default
v 10.528695 95.264381 4.790898
v 9.529160 95.474129 -5.571466
v -8.905545 95.262512 4.616760
v -8.019257 95.467590 -5.581216
v -15.471371 90.954880 -5.689796
v -17.491550 92.342743 4.862689
v -13.827374 83.111877 -6.024903
v -14.459200 82.430603 6.643999
v 15.425308 83.017960 -6.050175
v 16.449999 82.067924 6.291517
v 17.017328 90.995064 -5.675415
v 19.067818 92.356750 4.942170
v 10.887938 95.991615 -0.579124
v 0.740582 95.403763 -7.997506
v -9.329306 95.978317 -0.606848
v -17.134407 92.719330 -1.021694
v -13.912185 87.839981 -7.685735
v -13.833522 81.274643 -0.416524
v -15.944608 87.811096 9.211658
v 15.389869 81.049576 -0.545939
v 15.456234 87.752640 -7.640471
v 18.680841 92.731628 -0.971720
v 17.446909 87.654831 9.236305
v 16.337027 31.077791 12.215953
v 21.800121 30.975105 1.033348
v 19.833563 49.906929 0.889845
v 15.715697 50.057198 11.224324
v 17.485889 30.883102 -10.636705
v 16.194805 50.445724 -9.872663
v 14.710820 63.786602 -8.755635
v 18.597198 63.067688 0.854333
v 15.187225 63.260048 9.908501
v -13.410217 63.359917 9.902157
v -17.129435 63.172626 0.900578
v -18.315853 49.957405 0.883595
v -14.066734 50.079060 11.232988
v -13.201150 63.796993 -8.685346
v -14.585808 50.439133 -9.785563
v -15.868444 30.869402 -10.578024
v -20.221113 31.009054 1.033621
v -14.825108 31.104916 12.328746
v 0.780957 30.862783 -13.068991
v 0.893777 50.329514 -12.135730
v 0.586392 63.598892 -10.658454
v 0.558897 31.076391 16.444283
v 0.691482 49.890823 16.679264
v 0.864809 63.175571 14.941991
v 0.755897 81.710831 13.443511
v -11.222607 81.281303 11.909146
v -10.122225 90.100922 10.999356
v 12.701460 80.822891 11.422981
v 11.652592 89.980362 11.098444
v 10.950217 96.234871 5.413037
v -9.330394 96.238571 5.237571
v 0.687406 83.992081 -10.116772
v 11.123112 83.640564 -8.270233
v 0.731040 92.301483 -10.188726
v 9.638539 92.326637 -9.313709
v -9.642848 83.688293 -8.232670
v -8.174934 92.401421 -9.340901
v -8.545239 96.216446 -6.487436
v 0.743222 95.921188 -9.294076
v 10.056971 96.219009 -6.478852
v 0.822297 72.394295 14.395968
v -12.580270 72.310440 9.764123
v 14.242970 72.106155 9.459101
v -13.825564 79.884590 -0.093329
v -15.347899 75.157310 1.218293
v -12.175179 73.844925 -7.317288
v 0.585214 73.800438 -10.169798
v 13.635654 73.807747 -7.362610
v 16.494905 74.878456 1.003875
v 15.216035 79.597992 -0.328403
v -10.115737 97.024643 -0.798815
v -17.946991 93.765656 -1.213660
v -18.148296 93.295540 5.443725
v -16.200254 91.713989 -6.529954
v -14.171316 87.976372 -8.966535
v -13.315618 82.469017 -6.816565
v -13.139995 80.138237 -0.469531
v -14.527531 81.722275 7.332579
v -16.508625 88.125504 10.375227
v 14.783271 79.885269 -0.637144
v 16.546511 81.317787 6.990018
v 14.952484 82.368179 -6.884898
v 15.714434 87.888794 -8.931593
v 17.735817 91.748108 -6.523318
v 11.674613 97.038551 -0.774144
v 19.493677 93.778564 -1.166740
v 19.727415 93.297211 5.529254
v 17.984241 87.929634 10.416611
v 17.392962 2.485850 12.424000
v 23.864880 2.350178 1.152380
v 19.006069 1.871739 -10.957728
v -22.305784 2.401926 1.138650
v -15.835574 2.513863 12.488267
v -17.425735 1.837446 -10.961516
v 0.266471 2.930869 16.450508
v 0.761066 2.527540 -14.001800
v -2.066104 94.790588 5.740775
v 3.743294 94.792549 5.789677
v 3.739612 95.654175 6.779441
v -2.069773 95.653664 6.733034
v -2.094775 90.710564 11.032966
v 0.795108 88.311066 11.726677
v 3.714669 90.676537 11.059409
vt 0.319524 0.132672
vt 0.368444 0.135052
vt 0.361183 0.215904
vt 0.317541 0.213750
vt 0.417182 0.140921
vt 0.405183 0.223790
vt 0.396169 0.280407
vt 0.355630 0.272015
vt 0.316899 0.270194
vt 0.194023 0.269709
vt 0.154494 0.270716
vt 0.149184 0.214646
vt 0.193339 0.212814
vt 0.113467 0.278728
vt 0.105015 0.221911
vt 0.094158 0.138605
vt 0.142926 0.133617
vt 0.192196 0.131833
vt 0.482987 0.153547
vt 0.044281 0.234608
vt 0.059385 0.291609
vt 0.255027 0.131891
vt 0.255083 0.211834
vt 0.255496 0.269277
vt 0.209033 0.345886
vt 0.255262 0.350944
vt 0.255074 0.383193
vt 0.243291 0.395097
vt 0.266843 0.395509
vt 0.301890 0.344338
vt 0.294627 0.387773
vt 0.391898 0.366757
vt 0.431493 0.381388
vt 0.093048 0.420889
vt 0.388130 0.409234
vt 0.118869 0.366231
vt 0.123794 0.408613
vt 0.139401 0.425082
vt 0.411804 0.436504
vt 0.372560 0.426350
vt 0.255375 0.308953
vt 0.197204 0.308000
vt 0.314339 0.308116
vt 0.155731 0.341098
vt 0.159492 0.320630
vt 0.121375 0.321471
vt 0.069776 0.335752
vt 0.387726 0.323125
vt 0.350645 0.322485
vt 0.354322 0.343809
vt 0.198120 0.421216
vt 0.168154 0.427582
vt 0.165450 0.397694
vt 0.185070 0.394563
vt 0.147293 0.396452
vt 0.135075 0.384735
vt 0.135227 0.364263
vt 0.153908 0.343909
vt 0.186295 0.351369
vt 0.215259 0.386705
vt 0.196521 0.374207
vt 0.355950 0.345924
vt 0.324768 0.351543
vt 0.375150 0.364611
vt 0.376219 0.385310
vt 0.364024 0.397412
vt 0.343055 0.429702
vt 0.345189 0.400759
vt 0.311928 0.422731
vt 0.325390 0.396255
vt 0.313001 0.375839
vt 0.326357 0.010688
vt 0.378802 0.013045
vt 0.431072 0.017581
vt 0.134823 0.011403
vt 0.187584 0.009766
vt 0.082442 0.014719
vt 0.254921 0.011112
vt 0.503730 0.032871
vt 0.141464 0.429984
vt 0.105040 0.441290
vt 0.370677 0.431327
vt 0.197350 0.426236
vt 0.169237 0.432387
vt 0.164662 0.393167
vt 0.182482 0.390675
vt 0.148566 0.391805
vt 0.138852 0.382548
vt 0.138980 0.365024
vt 0.155728 0.349245
vt 0.183473 0.353718
vt 0.192561 0.372631
vt 0.353968 0.352182
vt 0.327692 0.353598
vt 0.371395 0.365232
vt 0.372405 0.383163
vt 0.362643 0.392504
vt 0.342050 0.434379
vt 0.345918 0.396602
vt 0.312621 0.427831
vt 0.328110 0.392386
vt 0.316987 0.374554
vt 0.279740 0.426826
vt 0.230135 0.425879
vt 0.281819 0.432068
vt 0.227931 0.431082
vt 0.028303 0.150335
vt 0.009766 0.028988
vt 0.080058 0.381864
vt 0.441139 0.336343
vt 0.451293 0.293385
vt 0.101314 0.436646
vt 0.419554 0.420449
vt 0.408284 0.441309
vt 0.464828 0.236790
vn 0.579962 0.035832 0.813855
vn 0.996340 0.069979 0.049085
vn 0.995577 0.091653 0.020654
vn 0.615324 0.072684 0.784916
vn 0.552422 0.055854 -0.831691
vn 0.552076 0.092242 -0.828676
vn 0.549089 0.132368 -0.825216
vn 0.992062 0.125031 -0.013463
vn 0.642550 0.110251 0.758271
vn -0.638526 0.102245 0.762779
vn -0.993221 0.116112 -0.005529
vn -0.995536 0.091782 0.022007
vn -0.618379 0.077789 0.782020
vn -0.554358 0.125636 -0.822741
vn -0.550964 0.090054 -0.829656
vn -0.551622 0.056756 -0.832161
vn -0.996422 0.070442 0.046701
vn -0.590518 0.038726 0.806095
vn -0.001554 0.035092 -0.999383
vn -0.001315 0.069831 -0.997558
vn -0.003725 0.102948 -0.994680
vn 0.002928 0.015382 0.999877
vn 0.000829 0.064762 0.997900
vn 0.003480 0.100148 0.994967
vn -0.432902 0.014825 0.901319
vn 0.013575 0.055780 0.998351
vn 0.019975 0.216323 0.976118
vn -0.090260 0.409666 0.907759
vn 0.105751 0.388803 0.915232
vn 0.442837 0.000026 0.896602
vn 0.190965 0.417369 0.888446
vn 0.264575 -0.049677 -0.963085
vn -0.000874 -0.033447 -0.999440
vn 0.000552 0.101507 -0.994835
vn 0.189386 0.166123 -0.967748
vn -0.275146 -0.044503 -0.960372
vn -0.191688 0.167886 -0.966990
vn -0.276251 0.752686 -0.597620
vn 0.002890 0.646212 -0.763153
vn 0.275029 0.748038 -0.603986
vn 0.008406 0.014617 0.999858
vn -0.644018 0.074628 0.761362
vn 0.657493 0.096755 0.747223
vn -0.990646 0.093097 -0.099768
vn -0.986055 0.166229 -0.007977
vn -0.578933 0.115011 -0.807223
vn -0.002656 0.046874 -0.998897
vn 0.569633 0.116522 -0.813598
vn 0.984101 0.176556 -0.019346
vn 0.993509 0.051542 -0.101406
vn -0.189998 0.845175 0.499579
vn -0.299046 0.948779 -0.101929
vn -0.497938 0.860306 -0.109230
vn -0.407447 0.792490 0.453814
vn -0.496417 0.654568 -0.570185
vn -0.285506 0.053572 -0.956879
vn -0.195514 -0.534225 -0.822422
vn -0.447320 -0.878983 -0.165207
vn -0.652476 -0.433269 0.621734
vn -0.194549 0.453392 0.869820
vn -0.442621 0.329435 0.834002
vn 0.384689 -0.900060 -0.204713
vn 0.602752 -0.506137 0.616858
vn 0.199707 -0.531234 -0.823352
vn 0.282751 0.054939 -0.957619
vn 0.491691 0.651860 -0.577337
vn 0.298432 0.948893 -0.102669
vn 0.497085 0.860846 -0.108864
vn 0.193309 0.839242 0.508236
vn 0.412209 0.786683 0.459580
vn 0.438069 0.281217 0.853822
vn 0.575981 0.028860 0.816953
vn 0.996929 0.060523 0.049691
vn 0.562046 0.046074 -0.825821
vn -0.997097 0.060816 0.045807
vn -0.588696 0.029994 0.807798
vn -0.561356 0.047500 -0.826210
vn 0.001167 0.007971 0.999968
vn -0.001006 0.026641 -0.999645
vn 0.422267 0.834047 0.355044
vn -0.000074 0.882786 0.469776
vn -0.420482 0.834855 0.355264
vn 0.550106 0.690646 -0.469459
vn 0.816480 0.575419 0.047473
vn -0.785063 -0.617982 -0.042129
vn -0.828244 -0.538872 -0.153717
vn -0.794620 -0.603313 0.067765
vn -0.943174 -0.331007 0.029275
vn -0.927694 -0.348300 -0.134430
vn -0.900728 -0.419611 -0.112325
vn -0.951102 -0.248391 -0.183593
vn -0.903107 -0.317658 -0.288949
vn 0.918339 -0.368562 -0.144272
vn 0.959190 -0.177531 -0.220085
vn 0.944623 -0.304590 -0.122113
vn 0.948884 -0.313079 0.040007
vn 0.799170 -0.597182 0.068572
vn -0.815937 0.575528 0.054907
vn 0.784014 -0.619021 -0.046205
vn -0.554236 0.693016 -0.461034
vn 0.827823 -0.538431 -0.157483
vn 0.919804 -0.269561 -0.285126
vn 0.048264 0.754734 0.654254
vn -0.051100 0.762551 0.644907
vn -0.172208 0.672525 -0.719760
vn 0.183648 0.672017 -0.717403
s 1
g SM_coat_03 chara_props
usemtl aiStandardSurface8SG
f 24/1/1 25/2/2 26/3/3 27/4/4
f 25/2/2 28/5/5 29/6/6 26/3/3
f 26/3/3 29/6/6 30/7/7 31/8/8
f 27/4/4 26/3/3 31/8/8 32/9/9
f 33/10/10 34/11/11 35/12/12 36/13/13
f 34/11/11 37/14/14 38/15/15 35/12/12
f 35/12/12 38/15/15 39/16/16 40/17/17
f 36/13/13 35/12/12 40/17/17 41/18/18
f 28/5/5 42/19/19 43/115/20 29/6/6
f 42/107/19 39/16/16 38/15/15 43/20/20
f 43/20/20 38/15/15 37/14/14 44/21/21
f 29/6/6 43/115/20 44/111/21 30/7/7
f 41/18/18 45/22/22 46/23/23 36/13/13
f 45/22/22 24/1/1 27/4/4 46/23/23
f 46/23/23 27/4/4 32/9/9 47/24/24
f 36/13/13 46/23/23 47/24/24 33/10/10
f 49/25/25 48/26/26 105/27/27 104/28/28
f 106/29/29 51/30/30 52/31/31
f 56/32/32 55/33/33 57/113/34 58/35/35
f 55/109/33 59/36/36 60/37/37 57/34/34
f 57/34/34 60/37/37 61/38/38 62/112/39
f 58/35/35 57/113/34 62/39/39 63/40/40
f 33/10/10 47/24/24 64/41/41 65/42/42
f 47/24/24 32/9/9 66/43/43 64/41/41
f 64/41/41 66/43/43 51/30/30 48/26/26
f 65/42/42 64/41/41 48/26/26 49/25/25
f 49/25/25 67/44/44 68/45/45 65/42/42
f 67/44/44 59/36/36 69/46/46 68/45/45
f 68/45/45 69/46/46 37/14/14 34/11/11
f 65/42/42 68/45/45 34/11/11 33/10/10
f 30/7/7 44/111/21 70/110/47 71/48/48
f 44/21/21 37/14/14 69/46/46 70/47/47
f 70/47/47 69/46/46 59/36/36 55/109/33
f 71/48/48 70/110/47 55/33/33 56/32/32
f 32/9/9 31/8/8 72/49/49 66/43/43
f 31/8/8 30/7/7 71/48/48 72/49/49
f 72/49/49 71/48/48 56/32/32 73/50/50
f 66/43/43 72/49/49 73/50/50 51/30/30
f 54/51/51 74/52/52 75/53/53 76/54/54
f 74/52/52 61/38/38 77/55/55 75/53/53
f 61/38/38 60/37/37 78/56/56 77/55/55
f 60/37/37 59/36/36 79/57/57 78/56/56
f 59/36/36 67/44/44 80/58/58 79/57/57
f 67/44/44 49/25/25 81/59/59 80/58/58
f 49/25/25 50/60/60 82/61/61 81/59/59
f 50/60/60 54/51/51 76/54/54 82/61/61
f 51/30/30 73/50/50 83/62/62 84/63/63
f 73/50/50 56/32/32 85/64/64 83/62/62
f 56/32/32 58/35/35 86/65/65 85/64/64
f 58/35/35 63/40/40 87/66/66 86/65/65
f 63/40/40 88/67/67 89/68/68 87/66/66
f 88/67/67 53/69/69 90/70/70 89/68/68
f 53/69/69 52/31/31 91/71/71 90/70/70
f 52/31/31 51/30/30 84/63/63 91/71/71
f 25/2/2 24/1/1 92/72/72 93/73/73
f 28/5/5 25/2/2 93/73/73 94/74/74
f 41/18/18 40/17/17 95/75/75 96/76/76
f 40/17/17 39/16/16 97/77/77 95/75/75
f 45/22/22 41/18/18 96/76/76 98/78/78
f 24/1/1 45/22/22 98/78/78 92/72/72
f 39/16/16 42/107/19 99/108/79 97/77/77
f 42/19/19 28/5/5 94/74/74 99/79/79
f 4/80/80 14/81/81 62/112/39 61/38/38
f 14/114/81 2/82/82 63/40/40 62/39/39
f 3/83/83 15/84/84 74/52/52 54/51/51
f 16/85/85 6/86/86 76/54/54 75/53/53
f 15/84/84 4/80/80 61/38/38 74/52/52
f 5/87/87 16/85/85 75/53/53 77/55/55
f 17/88/88 5/87/87 77/55/55 78/56/56
f 7/89/89 17/88/88 78/56/56 79/57/57
f 18/90/90 7/89/89 79/57/57 80/58/58
f 8/91/91 18/90/90 80/58/58 81/59/59
f 19/92/92 8/91/91 81/59/59 82/61/61
f 6/86/86 19/92/92 82/61/61 76/54/54
f 20/93/93 10/94/94 84/63/63 83/62/62
f 9/95/95 20/93/93 83/62/62 85/64/64
f 21/96/96 9/95/95 85/64/64 86/65/65
f 11/97/97 21/96/96 86/65/65 87/66/66
f 2/82/82 13/98/98 88/67/67 63/40/40
f 22/99/99 11/97/97 87/66/66 89/68/68
f 13/98/98 1/100/100 53/69/69 88/67/67
f 12/101/101 22/99/99 89/68/68 90/70/70
f 23/102/102 12/101/101 90/70/70 91/71/71
f 10/94/94 23/102/102 91/71/71 84/63/63
f 102/103/103 106/29/29 52/31/31 53/69/69
f 50/60/60 104/28/28 103/104/104 54/51/51
f 1/100/100 101/105/105 102/103/103 53/69/69
f 103/104/104 100/106/106 3/83/83 54/51/51
f 49/25/25 104/28/28 50/60/60
f 48/26/26 51/30/30 106/29/29 105/27/27
