# This file uses centimeters as units for non-parametric coordinates.

mtllib SM_glasses_04.mtl
g default
v 2.494098 132.610992 30.748236
v 2.494098 138.811462 30.748236
v -2.494098 138.811462 30.748236
v -2.494098 132.610992 30.748236
v 11.293437 125.175034 28.703062
v 11.293437 139.975021 28.703062
v -11.293437 139.975021 28.703062
v -11.293437 125.175034 28.703062
v 23.230354 124.810394 21.667297
v 23.230354 139.854218 21.667297
v -23.230354 139.854218 21.667297
v -23.230354 124.810394 21.667297
v 32.226624 130.058517 5.129675
v 32.226624 137.965912 5.129675
v -32.226624 137.965912 5.129675
v -32.226624 130.058517 5.129675
v 33.459911 136.561951 -11.432299
v 33.459911 137.651199 -11.432299
v -33.459911 137.651199 -11.432299
v -33.459911 136.561951 -11.432299
v -28.526760 138.910065 14.040359
v -28.526760 127.434456 14.040359
v 33.459911 136.178314 -3.277251
v 33.459911 137.651199 -3.277251
v -33.459911 137.651199 -3.277251
v -33.459911 136.178314 -3.277251
v 0.000000 133.850327 30.963261
v 0.000000 138.617538 30.963261
v 6.323784 128.893021 30.103157
v 6.323784 139.393250 30.103157
v -6.323784 139.393250 30.103157
v -6.323784 128.893021 30.103157
v 17.207438 123.935715 26.222988
v 17.207438 140.168945 26.222988
v -17.207438 140.168945 26.222988
v -17.207438 123.935715 26.222988
v 28.526760 127.434456 14.040359
v 28.526760 138.910065 14.040359
v -2.320458 132.610992 29.382250
v 0.000000 133.850327 29.590248
v 0.000000 138.617538 29.590248
v -2.320458 138.811462 29.382250
v 2.320458 132.610992 29.382250
v 2.320458 138.811462 29.382250
v 6.022479 139.393250 28.760443
v 6.022479 128.893021 28.760443
v 10.840110 125.175034 27.404388
v 10.840110 139.975021 27.404388
v -6.022479 128.893021 28.760443
v -6.022479 139.393250 28.760443
v -10.840110 139.975021 27.404388
v -10.840110 125.175034 27.404388
v 16.525286 140.168945 25.037998
v 16.525286 123.935715 25.037998
v 22.248709 124.810394 20.724718
v 22.248709 139.854218 20.724718
v -16.525286 123.935715 25.037998
v -16.525286 140.168945 25.037998
v -22.248709 139.854218 20.724718
v -22.248709 124.810394 20.724718
v 27.324415 138.910065 13.383098
v 27.324415 127.434456 13.383098
v 30.908493 130.058517 4.765428
v 30.908493 137.965912 4.765428
v -27.324415 127.434456 13.383098
v -27.324415 138.910065 13.383098
v -30.908493 137.965912 4.765428
v -30.908493 130.058517 4.765428
v 32.089104 137.651199 -3.377264
v 32.089104 136.178314 -3.377264
v 32.081806 136.561951 -11.432299
v 32.081806 137.651199 -11.432299
v -32.089104 136.178314 -3.377264
v -32.089104 137.651199 -3.377264
v -32.081806 137.651199 -11.432299
v -32.081806 136.561951 -11.432299
vt 0.514386 0.087864
vt 0.514386 0.125416
vt 0.485614 0.125416
vt 0.485614 0.087864
vt 0.586524 0.009766
vt 0.586525 0.137637
vt 0.413476 0.137637
vt 0.413476 0.009766
vt 0.697817 0.009766
vt 0.697817 0.137637
vt 0.302184 0.137637
vt 0.302183 0.009766
vt 0.861758 0.064885
vt 0.861758 0.117804
vt 0.138242 0.117805
vt 0.138242 0.064886
vt 0.990234 0.064885
vt 0.990234 0.117804
vt 0.009766 0.117805
vt 0.009766 0.064886
vt 0.500000 0.087864
vt 0.500000 0.125416
vt 0.550455 0.048815
vt 0.550456 0.131526
vt 0.449545 0.131526
vt 0.449545 0.048815
vt 0.642171 0.009766
vt 0.642171 0.137637
vt 0.357830 0.137637
vt 0.357830 0.009766
vt 0.779788 0.037325
vt 0.779788 0.127721
vt 0.220213 0.127721
vt 0.220213 0.037326
vt 0.925996 0.064885
vt 0.925996 0.117804
vt 0.074004 0.117805
vt 0.074004 0.064886
vt 0.485614 0.087864
vt 0.500000 0.087864
vt 0.500000 0.125416
vt 0.485614 0.125416
vt 0.514386 0.087864
vt 0.514386 0.125416
vt 0.550456 0.131526
vt 0.550455 0.048815
vt 0.586524 0.009766
vt 0.586525 0.137637
vt 0.449545 0.048815
vt 0.449545 0.131526
vt 0.413476 0.137637
vt 0.413476 0.009766
vt 0.642171 0.137637
vt 0.642171 0.009766
vt 0.697817 0.009766
vt 0.697817 0.137637
vt 0.357830 0.009766
vt 0.357830 0.137637
vt 0.302184 0.137637
vt 0.302183 0.009766
vt 0.779788 0.127721
vt 0.779788 0.037325
vt 0.861758 0.064885
vt 0.861758 0.117804
vt 0.220213 0.037326
vt 0.220213 0.127721
vt 0.138242 0.117805
vt 0.138242 0.064886
vt 0.925996 0.117804
vt 0.925996 0.064885
vt 0.990234 0.064885
vt 0.990234 0.117804
vt 0.074004 0.064886
vt 0.074004 0.117805
vt 0.009766 0.117805
vt 0.009766 0.064886
vt 0.485614 0.087864
vt 0.500000 0.087864
vt 0.500000 0.125416
vt 0.485614 0.125416
vt 0.514386 0.087864
vt 0.514386 0.125416
vt 0.550456 0.131526
vt 0.550455 0.048815
vt 0.586524 0.009766
vt 0.586525 0.137637
vt 0.449545 0.048815
vt 0.449545 0.131526
vt 0.413476 0.137637
vt 0.413476 0.009766
vt 0.642171 0.137637
vt 0.642171 0.009766
vt 0.697817 0.009766
vt 0.697817 0.137637
vt 0.357830 0.009766
vt 0.357830 0.137637
vt 0.302184 0.137637
vt 0.302183 0.009766
vt 0.779788 0.127721
vt 0.779788 0.037325
vt 0.861758 0.064885
vt 0.861758 0.117804
vt 0.220213 0.037326
vt 0.220213 0.127721
vt 0.138242 0.117805
vt 0.138242 0.064886
vt 0.925996 0.117804
vt 0.925996 0.064885
vt 0.990234 0.064885
vt 0.990234 0.117804
vt 0.074004 0.064886
vt 0.074004 0.117805
vt 0.009766 0.117805
vt 0.009766 0.064886
vn -0.038075 -0.142677 0.989037
vn -0.000000 -0.174562 0.984646
vn 0.000000 0.213147 0.977020
vn -0.121657 0.169499 0.977993
vn 0.038075 -0.142677 0.989037
vn 0.121657 0.169499 0.977993
vn 0.223707 0.118287 0.967452
vn 0.164138 -0.109623 0.980327
vn 0.314575 -0.099211 0.944034
vn 0.336727 0.092070 0.937090
vn -0.164138 -0.109623 0.980327
vn -0.223707 0.118287 0.967452
vn -0.336727 0.092070 0.937090
vn -0.314575 -0.099211 0.944034
vn 0.506736 0.080558 0.858330
vn 0.507038 -0.087128 0.857509
vn 0.719259 -0.088782 0.689046
vn 0.720344 0.085495 0.688328
vn -0.507038 -0.087128 0.857509
vn -0.506736 0.080558 0.858329
vn -0.720344 0.085495 0.688328
vn -0.719259 -0.088782 0.689046
vn 0.867395 0.107490 0.485873
vn 0.871358 -0.105978 0.479066
vn 0.951038 -0.168847 0.258878
vn 0.939153 0.160900 0.303484
vn -0.871358 -0.105978 0.479066
vn -0.867395 0.107490 0.485873
vn -0.939153 0.160900 0.303484
vn -0.951038 -0.168847 0.258878
vn 0.916563 0.387342 0.099395
vn 0.951235 -0.308431 -0.004833
vn 0.694971 -0.718234 -0.033997
vn 0.684066 0.729420 0.000000
vn -0.951234 -0.308431 -0.004833
vn -0.916563 0.387342 0.099395
vn -0.684066 0.729420 0.000000
vn -0.694970 -0.718234 -0.033997
vn 0.615285 -0.783095 0.090480
vn -0.000000 -0.999474 0.032432
vn 0.000000 0.999987 0.005081
vn 0.122078 0.992358 0.017968
vn -0.615285 -0.783095 0.090482
vn -0.122078 0.992358 0.017968
vn -0.126146 0.991588 0.028990
vn -0.624209 -0.767965 0.143503
vn -0.379418 -0.916881 0.123982
vn -0.064733 0.997679 0.021142
vn 0.624209 -0.767966 0.143501
vn 0.126146 0.991588 0.028990
vn 0.064733 0.997679 0.021143
vn 0.379418 -0.916881 0.123982
vn 0.005035 0.999954 -0.008163
vn -0.032963 -0.999456 -0.001234
vn 0.133121 -0.978451 -0.157837
vn 0.048831 0.997127 -0.057911
vn 0.032963 -0.999456 -0.001234
vn -0.005035 0.999954 -0.008163
vn -0.048831 0.997127 -0.057911
vn -0.133121 -0.978451 -0.157837
vn 0.048802 0.994960 -0.087597
vn 0.131268 -0.962940 -0.235618
vn 0.102066 -0.899201 -0.425465
vn 0.022778 0.997548 -0.066174
vn -0.131268 -0.962940 -0.235618
vn -0.048802 0.994960 -0.087597
vn -0.022778 0.997548 -0.066174
vn -0.102066 -0.899201 -0.425466
vn 0.003237 0.999819 -0.018750
vn 0.059171 -0.931080 -0.359985
vn 0.001720 -0.998880 -0.047282
vn 0.000000 1.000000 0.000000
vn -0.059171 -0.931080 -0.359985
vn -0.003237 0.999819 -0.018750
vn 0.000000 1.000000 0.000000
vn -0.001720 -0.998880 -0.047282
s 1
g SM_glasses_04
usemtl initialShadingGroup
f 4/39/1 27/40/2 28/41/3 3/42/4
f 27/40/2 1/43/5 2/44/6 28/41/3
f 30/45/7 2/44/6 1/43/5 29/46/8
f 30/45/7 29/46/8 5/47/9 6/48/10
f 32/49/11 4/39/1 3/42/4 31/50/12
f 32/49/11 31/50/12 7/51/13 8/52/14
f 34/53/15 6/48/10 5/47/9 33/54/16
f 34/53/15 33/54/16 9/55/17 10/56/18
f 36/57/19 8/52/14 7/51/13 35/58/20
f 36/57/19 35/58/20 11/59/21 12/60/22
f 38/61/23 10/56/18 9/55/17 37/62/24
f 38/61/23 37/62/24 13/63/25 14/64/26
f 22/65/27 12/60/22 11/59/21 21/66/28
f 22/65/27 21/66/28 15/67/29 16/68/30
f 24/69/31 14/64/26 13/63/25 23/70/32
f 24/69/31 23/70/32 17/71/33 18/72/34
f 26/73/35 16/68/30 15/67/29 25/74/36
f 26/73/35 25/74/36 19/75/37 20/76/38
f 4/4/1 39/77/39 40/78/40 27/21/2
f 28/22/3 41/79/41 42/80/42 3/3/4
f 27/21/2 40/78/40 43/81/43 1/1/5
f 2/2/6 44/82/44 41/79/41 28/22/3
f 30/24/7 45/83/45 44/82/44 2/2/6
f 1/1/5 43/81/43 46/84/46 29/23/8
f 29/23/8 46/84/46 47/85/47 5/5/9
f 6/6/10 48/86/48 45/83/45 30/24/7
f 32/26/11 49/87/49 39/77/39 4/4/1
f 3/3/4 42/80/42 50/88/50 31/25/12
f 31/25/12 50/88/50 51/89/51 7/7/13
f 8/8/14 52/90/52 49/87/49 32/26/11
f 34/28/15 53/91/53 48/86/48 6/6/10
f 5/5/9 47/85/47 54/92/54 33/27/16
f 33/27/16 54/92/54 55/93/55 9/9/17
f 10/10/18 56/94/56 53/91/53 34/28/15
f 36/30/19 57/95/57 52/90/52 8/8/14
f 7/7/13 51/89/51 58/96/58 35/29/20
f 35/29/20 58/96/58 59/97/59 11/11/21
f 12/12/22 60/98/60 57/95/57 36/30/19
f 38/32/23 61/99/61 56/94/56 10/10/18
f 9/9/17 55/93/55 62/100/62 37/31/24
f 37/31/24 62/100/62 63/101/63 13/13/25
f 14/14/26 64/102/64 61/99/61 38/32/23
f 22/34/27 65/103/65 60/98/60 12/12/22
f 11/11/21 59/97/59 66/104/66 21/33/28
f 21/33/28 66/104/66 67/105/67 15/15/29
f 16/16/30 68/106/68 65/103/65 22/34/27
f 24/36/31 69/107/69 64/102/64 14/14/26
f 13/13/25 63/101/63 70/108/70 23/35/32
f 23/35/32 70/108/70 71/109/71 17/17/33
f 18/18/34 72/110/72 69/107/69 24/36/31
f 26/38/35 73/111/73 68/106/68 16/16/30
f 15/15/29 67/105/67 74/112/74 25/37/36
f 25/37/36 74/112/74 75/113/75 19/19/37
f 20/20/38 76/114/76 73/111/73 26/38/35
