# This file uses centimeters as units for non-parametric coordinates.

mtllib SM_glasses_03.mtl
g default
v 0.819984 131.342148 28.335449
v 0.819984 131.342148 27.659355
v 0.819984 132.520508 28.335449
v 0.819984 132.520493 27.659355
v -0.819985 132.520493 28.335449
v -0.819985 132.520508 27.659355
v -0.819985 131.342148 28.335449
v -0.819985 131.342148 27.659353
v 2.966171 130.061966 28.258713
v 2.966171 130.061966 27.736092
v 2.966171 130.972855 27.736092
v 2.966171 130.972855 28.258715
v -2.966170 130.972839 28.258717
v -2.966170 130.972855 27.736092
v -2.966170 130.061966 27.736092
v -2.966170 130.061966 28.258717
v 5.015137 130.067490 28.120337
v 5.015137 130.067490 27.874470
v 5.015137 130.496033 27.874470
v 5.015137 130.496033 28.120337
v -5.015135 130.496033 28.120337
v -5.015135 130.496033 27.874470
v -5.015135 130.067490 27.874470
v -5.015135 130.067490 28.120337
v -13.706264 126.152222 28.384645
v -17.376366 128.702881 28.384644
v -17.376364 128.702896 27.316738
v -13.706264 126.152222 27.316738
v -5.510965 128.702896 28.384644
v -9.181067 126.152222 28.384645
v -9.181067 126.152222 27.316738
v -5.510965 128.702881 27.316740
v -16.684069 129.861465 28.384645
v -16.684069 129.861481 27.316740
v -6.203261 129.861481 27.316738
v -6.203261 129.861481 28.384645
v -9.446615 127.601593 28.384645
v -9.446615 127.601593 27.316738
v -13.440715 127.601593 27.316738
v -13.440714 127.601593 28.384645
v 13.704697 126.152222 28.384645
v 17.374376 128.702896 28.384645
v 17.374376 128.702881 27.316738
v 13.704697 126.152222 27.316738
v 5.510335 128.702881 28.384647
v 9.180016 126.152222 28.384645
v 9.180015 126.152222 27.316738
v 5.510334 128.702896 27.316738
v 16.682158 129.861465 28.384645
v 16.682158 129.861465 27.316740
v 6.202551 129.861465 27.316740
v 6.202552 129.861481 28.384645
v 9.445534 127.601593 28.384645
v 9.445535 127.601593 27.316738
v 13.439176 127.601593 27.316738
v 13.439177 127.601593 28.384645
v -19.182394 133.817032 27.488226
v -18.730867 133.357559 27.324741
v -18.730867 133.357544 28.376642
v -19.182396 133.817047 28.213161
v -3.704942 133.817032 28.213161
v -4.156468 133.357559 28.376640
v -4.156468 133.357544 27.324741
v -3.704942 133.817047 27.488226
v -19.634760 133.248779 28.213379
v -19.436041 132.467224 28.376766
v -19.436041 132.467224 27.324621
v -19.634760 133.248795 27.488008
v -3.451295 132.467224 28.376764
v -3.252576 133.248795 28.213379
v -3.252576 133.248779 27.488008
v -3.451295 132.467224 27.324619
v 18.728722 133.357544 27.324741
v 19.180206 133.817017 27.488226
v 19.180206 133.817017 28.213158
v 18.728722 133.357544 28.376642
v 4.155994 133.357544 28.376640
v 3.704510 133.817017 28.213160
v 3.704510 133.817017 27.488226
v 4.155995 133.357544 27.324741
v 19.433815 132.467224 28.376762
v 19.632515 133.248779 28.213377
v 19.632517 133.248795 27.488007
v 19.433811 132.467224 27.324619
v 3.252201 133.248795 28.213377
v 3.450901 132.467224 28.376764
v 3.450901 132.467239 27.324619
v 3.252202 133.248779 27.488007
v 13.748949 125.910675 27.850691
v 11.442355 125.821869 28.384645
v 15.706101 127.143295 28.384645
v 15.706102 127.143303 27.316738
v 17.489748 128.509796 27.850693
v 7.178609 127.143303 28.384645
v 5.394965 128.509796 27.850693
v 7.178608 127.143295 27.316740
v 9.312775 126.876915 27.138756
v 13.571937 126.876907 27.138754
v 13.571937 126.876915 28.562628
v 9.312774 126.876907 28.562628
v 17.028267 129.282181 28.562630
v 17.028267 129.282181 27.138756
v 5.856443 129.282181 28.562628
v 5.856442 129.282181 27.138756
v -19.063068 133.902481 27.348751
v -19.083452 132.912399 27.149345
v -19.704994 133.104446 27.348267
v -19.417168 133.543213 27.369686
v -19.122232 133.916489 27.850693
v -19.063068 133.902481 28.352636
v -18.613338 133.505936 27.850693
v -19.417168 133.543213 28.331699
v -19.704994 133.104446 28.353123
v -19.083452 132.912399 28.552040
v -3.824267 133.902481 28.352634
v -3.803882 132.912399 28.552038
v -3.182340 133.104446 28.353121
v -3.470168 133.543213 28.331699
v -3.765104 133.916489 27.850693
v -3.824267 133.902481 27.348751
v -4.273997 133.505936 27.850693
v -3.470168 133.543213 27.369684
v -3.182341 133.104446 27.348265
v -3.803882 132.912399 27.149345
v -19.712103 133.169937 27.850693
v -19.553566 132.318848 27.850693
v -3.333766 132.318848 27.850693
v -3.175232 133.169937 27.850693
v 19.060892 133.902451 27.348751
v 19.414951 133.543198 27.369686
v 19.702742 133.104446 27.348265
v 19.081268 132.912384 27.149345
v 18.611206 133.505936 27.850693
v 19.060894 133.902466 28.352633
v 19.120054 133.916458 27.850693
v 19.081268 132.912384 28.552038
v 19.702742 133.104446 28.353121
v 19.414951 133.543198 28.331699
v 3.823824 133.902451 28.352633
v 3.469764 133.543198 28.331699
v 3.181976 133.104446 28.353121
v 3.803448 132.912384 28.552038
v 4.273510 133.505936 27.850693
v 3.823825 133.902466 27.348751
v 3.764663 133.916458 27.850693
v 3.803448 132.912384 27.149345
v 3.181977 133.104446 27.348265
v 3.469765 133.543198 27.369686
v 19.551331 132.318848 27.850693
v 19.709850 133.169937 27.850693
v 3.174867 133.169937 27.850693
v 3.333386 132.318848 27.850693
v -17.900702 131.751526 27.316740
v -17.900702 131.751526 28.384645
v -4.986630 131.751526 27.316738
v -4.986631 131.751526 28.384645
v -18.639452 130.738785 28.384645
v -18.639452 130.738785 27.316740
v -4.247878 130.738785 28.384645
v -4.247878 130.738785 27.316740
v 17.898649 131.751511 28.384645
v 17.898651 131.751526 27.316740
v 4.986062 131.751526 28.384645
v 4.986062 131.751511 27.316738
v 18.637321 130.738785 27.316738
v 18.637321 130.738785 28.384645
v 4.247393 130.738785 27.316740
v 4.247393 130.738785 28.384645
v 0.819984 132.716904 27.997402
v -0.000000 132.773102 27.649630
v -0.819985 132.716904 27.997404
v -0.000000 132.773102 28.345177
v -0.819985 131.145737 27.997404
v -0.000000 131.560837 27.649630
v 0.819984 131.145737 27.997402
v -0.000000 131.560837 28.345177
v -0.819985 131.931320 27.546673
v 0.819984 131.931320 27.546673
v 0.819984 131.931320 28.448133
v -0.819985 131.931320 28.448133
v 1.888634 130.686035 27.688536
v 2.966170 129.910141 27.997404
v 1.888634 130.686035 28.306273
v 1.888634 131.762695 27.688534
v 2.966170 130.517410 27.648987
v 1.888634 131.762695 28.306273
v 2.966170 131.124664 27.997404
v 2.966170 130.517410 28.345819
v -1.888635 131.762695 27.688532
v -2.966170 131.124664 27.997402
v -1.888635 131.762695 28.306273
v -1.888635 130.686035 27.688532
v -2.966170 130.517410 27.648985
v -1.888635 130.686035 28.306273
v -2.966170 129.910141 27.997402
v -2.966170 130.517410 28.345819
v 4.001264 129.939362 27.800953
v 5.015137 129.996063 27.997402
v 4.001264 129.939362 28.193851
v 4.001264 130.624161 27.800953
v 5.015137 130.281769 27.833490
v 4.001264 130.624161 28.193851
v 5.015137 130.567459 27.997402
v 5.015137 130.281769 28.161314
v -4.001264 130.624161 27.800953
v -5.015135 130.567459 27.997402
v -4.001264 130.624161 28.193851
v -4.001264 129.939362 27.800953
v -5.015135 130.281769 27.833490
v -4.001264 129.939362 28.193851
v -5.015135 129.996063 27.997402
v -5.015135 130.281769 28.161314
v -9.490873 127.843155 27.850691
v -11.443666 127.313980 27.316738
v -13.396456 127.843155 27.850693
v -11.443665 127.313980 28.384645
v -15.192461 128.464462 28.384645
v -15.192462 128.464462 27.316740
v -16.568686 130.054565 27.850693
v -7.694868 128.464462 28.384645
v -6.318644 130.054565 27.850691
v -7.694868 128.464462 27.316738
v -11.443666 125.821869 28.384645
v -13.750523 125.910675 27.850691
v -11.443666 125.821869 27.316738
v -9.136808 125.910675 27.850693
v -17.491747 128.509796 27.850691
v -15.707900 127.143303 27.316738
v -15.707899 127.143303 28.384644
v -7.179430 127.143295 27.316740
v -5.395582 128.509796 27.850691
v -7.179430 127.143295 28.384645
v -13.573488 126.876907 27.138756
v -9.313841 126.876907 27.138756
v -9.313841 126.876907 28.562628
v -13.573488 126.876907 28.562628
v -17.030216 129.282181 28.562628
v -17.030216 129.282181 27.138756
v -5.857113 129.282181 28.562628
v -5.857113 129.282181 27.138754
v 11.442355 127.313980 28.384645
v 13.394922 127.843155 27.850693
v 11.442355 127.313980 27.316738
v 9.489787 127.843155 27.850693
v 16.566788 130.054565 27.850693
v 15.190722 128.464462 27.316738
v 15.190722 128.464462 28.384645
v 7.693988 128.464462 27.316738
v 6.317921 130.054565 27.850693
v 7.693987 128.464462 28.384645
v 9.135761 125.910675 27.850693
v 11.442356 125.821869 27.316738
v -0.000000 132.975159 27.997402
v -0.000000 131.358795 27.997402
v -0.000000 132.166977 27.533705
v -0.000000 132.166977 28.461102
v 1.888634 130.506592 27.997402
v 1.888634 131.224365 27.585577
v 1.888634 131.942139 27.997402
v 1.888634 131.224365 28.409227
v -1.888635 131.942139 27.997404
v -1.888635 131.224365 27.585577
v -1.888635 130.506592 27.997404
v -1.888635 131.224365 28.409229
v 4.001264 129.825226 27.997402
v 4.001264 130.281769 27.735470
v 4.001264 130.738281 27.997402
v 4.001264 130.281754 28.259335
v -4.001263 130.738281 27.997404
v -4.001263 130.281754 27.735470
v -4.001263 129.825226 27.997402
v -4.001263 130.281769 28.259336
v -11.443665 127.562668 27.850693
v -15.106554 128.684662 27.850693
v -7.780775 128.684662 27.850693
v -11.443665 125.573181 27.850693
v -15.793806 126.923103 27.850691
v -7.093524 126.923096 27.850693
v -11.443666 126.567932 27.138756
v -11.443665 126.567932 28.562628
v -15.450180 127.803879 28.562628
v -15.450179 127.803879 27.138756
v -7.437150 127.803879 28.562628
v -7.437150 127.803879 27.138756
v 11.442354 127.562668 27.850693
v 15.104825 128.684662 27.850693
v 7.779883 128.684662 27.850693
v 11.442355 125.573181 27.850693
v 15.791999 126.923096 27.850693
v 7.092711 126.923103 27.850693
v 11.442356 126.567924 27.138754
v 11.442355 126.567924 28.562628
v 15.448412 127.803879 28.562628
v 15.448412 127.803879 27.138756
v 7.436298 127.803879 28.562628
v 7.436297 127.803879 27.138756
v -19.384031 133.503464 27.181112
v -18.956081 134.035492 27.850693
v -19.384031 133.503464 28.520273
v -3.503304 133.503464 28.520273
v -3.931254 134.035492 27.850693
v -3.503304 133.503464 27.181112
v -19.811981 132.971436 27.850693
v -3.075353 132.971436 27.850693
v 19.381817 133.503448 27.181112
v 18.953917 134.035461 27.850693
v 19.381815 133.503448 28.520271
v 3.502900 133.503448 28.520271
v 3.930799 134.035461 27.850691
v 3.502901 133.503448 27.181112
v 19.809715 132.971436 27.850693
v 3.075002 132.971436 27.850693
v -17.777576 131.920319 27.850693
v -5.109756 131.920319 27.850693
v -18.762579 130.569992 27.850693
v -4.124753 130.569992 27.850693
v -18.270077 131.245148 27.138756
v -19.428213 133.556458 27.850693
v -18.270077 131.245163 28.562628
v -3.459123 133.556458 27.850693
v -4.617254 131.245163 27.138756
v -4.617254 131.245148 28.562628
v 17.775539 131.920319 27.850693
v 5.109174 131.920319 27.850693
v 18.760433 130.569992 27.850693
v 4.124281 130.569992 27.850693
v 18.267986 131.245148 27.138756
v 19.425997 133.556458 27.850691
v 18.267986 131.245148 28.562628
v 3.458720 133.556458 27.850693
v 4.616727 131.245148 27.138756
v 4.616728 131.245148 28.562628
vt 0.425159 0.176953
vt 0.412124 0.177129
vt 0.454733 0.177285
vt 0.435253 0.178853
vt 0.445811 0.179250
vt 0.434411 0.191533
vt 0.445015 0.192513
vt 0.424816 0.193009
vt 0.412127 0.192486
vt 0.454728 0.194899
vt 0.426422 0.159159
vt 0.416624 0.155272
vt 0.454701 0.155326
vt 0.445271 0.161406
vt 0.435084 0.162196
vt 0.433889 0.208739
vt 0.444025 0.209551
vt 0.453208 0.215674
vt 0.414869 0.214506
vt 0.425213 0.211408
vt 0.431156 0.146155
vt 0.426923 0.143910
vt 0.444985 0.144853
vt 0.441000 0.147205
vt 0.436127 0.147554
vt 0.434460 0.223138
vt 0.439303 0.223588
vt 0.443266 0.226110
vt 0.425144 0.227008
vt 0.429697 0.224597
vt 0.239246 0.255556
vt 0.241516 0.288961
vt 0.222371 0.290101
vt 0.289401 0.287166
vt 0.219760 0.256501
vt 0.291181 0.255104
vt 0.239615 0.188491
vt 0.238820 0.221874
vt 0.219248 0.221606
vt 0.291181 0.220678
vt 0.220551 0.188202
vt 0.287331 0.188248
vt 0.256622 0.290666
vt 0.274958 0.290427
vt 0.272784 0.185707
vt 0.254492 0.186307
vt 0.255255 0.220837
vt 0.274359 0.220323
vt 0.275147 0.255831
vt 0.256088 0.256128
vt 0.555829 0.235810
vt 0.558088 0.202407
vt 0.538943 0.201274
vt 0.605972 0.204186
vt 0.536343 0.234872
vt 0.607764 0.236244
vt 0.556222 0.302869
vt 0.555415 0.269488
vt 0.535843 0.269763
vt 0.607777 0.270665
vt 0.537159 0.303164
vt 0.603938 0.303093
vt 0.573193 0.200696
vt 0.591529 0.200929
vt 0.589392 0.305642
vt 0.571100 0.305049
vt 0.571851 0.270520
vt 0.590955 0.271027
vt 0.591730 0.235522
vt 0.572671 0.235232
vt 0.276035 0.329986
vt 0.248369 0.347028
vt 0.273665 0.329853
vt 0.274783 0.329130
vt 0.256496 0.328822
vt 0.256028 0.329991
vt 0.257639 0.329560
vt 0.254783 0.330784
vt 0.242416 0.140147
vt 0.253972 0.147073
vt 0.243675 0.139337
vt 0.252884 0.147814
vt 0.271259 0.147743
vt 0.223989 0.137493
vt 0.270081 0.147032
vt 0.225100 0.138521
vt 0.246297 0.327400
vt 0.244603 0.326201
vt 0.245833 0.325032
vt 0.285354 0.325194
vt 0.226415 0.327995
vt 0.284459 0.326504
vt 0.227650 0.328803
vt 0.239434 0.343410
vt 0.242719 0.150955
vt 0.242657 0.151934
vt 0.241639 0.149921
vt 0.224297 0.148151
vt 0.223066 0.148946
vt 0.223003 0.149936
vt 0.281940 0.151095
vt 0.591341 0.162227
vt 0.592592 0.161371
vt 0.590222 0.161505
vt 0.564918 0.144338
vt 0.574196 0.161804
vt 0.571339 0.160580
vt 0.573053 0.162542
vt 0.572585 0.161373
vt 0.560301 0.352020
vt 0.569507 0.343540
vt 0.559041 0.351210
vt 0.570595 0.344282
vt 0.586705 0.344315
vt 0.541726 0.352842
vt 0.587883 0.343604
vt 0.540615 0.353871
vt 0.562392 0.166336
vt 0.562855 0.163967
vt 0.561162 0.165167
vt 0.601017 0.164850
vt 0.555986 0.147961
vt 0.544208 0.162572
vt 0.601912 0.166160
vt 0.542974 0.163380
vt 0.558261 0.341437
vt 0.559341 0.340402
vt 0.559278 0.339423
vt 0.539688 0.342419
vt 0.598561 0.340247
vt 0.539624 0.341429
vt 0.540919 0.343213
vt 0.440181 0.185550
vt 0.418801 0.184872
vt 0.450201 0.186086
vt 0.430083 0.184979
vt 0.420063 0.166909
vt 0.450505 0.168677
vt 0.440582 0.171136
vt 0.430312 0.169421
vt 0.439404 0.199898
vt 0.449546 0.202843
vt 0.419265 0.203084
vt 0.429358 0.201035
vt 0.425162 0.150859
vt 0.446755 0.152162
vt 0.439469 0.154614
vt 0.431911 0.153560
vt 0.438059 0.216241
vt 0.445233 0.218711
vt 0.423596 0.219679
vt 0.430537 0.217277
vt 0.265280 0.238282
vt 0.265803 0.273350
vt 0.264233 0.203198
vt 0.229421 0.238868
vt 0.230930 0.272442
vt 0.229830 0.205367
vt 0.283304 0.237970
vt 0.247235 0.238600
vt 0.248243 0.272558
vt 0.283103 0.272151
vt 0.246939 0.204689
vt 0.281803 0.203656
vt 0.581868 0.253073
vt 0.582380 0.218008
vt 0.580835 0.288155
vt 0.546010 0.252499
vt 0.547508 0.218928
vt 0.546431 0.285997
vt 0.599894 0.253379
vt 0.563824 0.252762
vt 0.564820 0.218806
vt 0.599680 0.219201
vt 0.563540 0.286669
vt 0.598404 0.287690
vt 0.280158 0.327703
vt 0.265646 0.329341
vt 0.250735 0.328302
vt 0.242612 0.145090
vt 0.262049 0.147415
vt 0.224113 0.143278
vt 0.236125 0.327008
vt 0.232899 0.149986
vt 0.596716 0.163652
vt 0.582203 0.162019
vt 0.567293 0.163064
vt 0.559236 0.346267
vt 0.578672 0.343935
vt 0.540737 0.348086
vt 0.552684 0.164364
vt 0.549521 0.341375
vt 0.265737 0.309635
vt 0.262876 0.167009
vt 0.234201 0.307706
vt 0.231615 0.169960
vt 0.281369 0.307896
vt 0.247221 0.337156
vt 0.250061 0.308010
vt 0.233363 0.144185
vt 0.278566 0.168232
vt 0.247353 0.169038
vt 0.582301 0.181725
vt 0.579491 0.324343
vt 0.550767 0.183666
vt 0.548229 0.321402
vt 0.597934 0.183458
vt 0.563775 0.154212
vt 0.566626 0.183356
vt 0.549987 0.347176
vt 0.595181 0.323113
vt 0.563968 0.322319
vt 0.440585 0.179384
vt 0.445431 0.185949
vt 0.439682 0.191700
vt 0.434911 0.185143
vt 0.418896 0.193295
vt 0.412125 0.184808
vt 0.454731 0.186092
vt 0.419138 0.176511
vt 0.424959 0.184931
vt 0.449891 0.193788
vt 0.450423 0.178220
vt 0.430321 0.177888
vt 0.429722 0.192195
vt 0.414374 0.166201
vt 0.454717 0.166305
vt 0.421948 0.157785
vt 0.425470 0.167891
vt 0.445918 0.170478
vt 0.449573 0.159357
vt 0.435159 0.170752
vt 0.440200 0.162362
vt 0.430646 0.160879
vt 0.444799 0.200885
vt 0.438984 0.208595
vt 0.434033 0.199932
vt 0.453968 0.205287
vt 0.413498 0.203496
vt 0.448286 0.211675
vt 0.424672 0.202366
vt 0.420601 0.212469
vt 0.429471 0.209921
vt 0.421773 0.149591
vt 0.449843 0.150090
vt 0.429040 0.145032
vt 0.428543 0.152169
vt 0.443389 0.153811
vt 0.442993 0.146029
vt 0.435481 0.154540
vt 0.438564 0.147379
vt 0.433641 0.146854
vt 0.441938 0.217003
vt 0.436882 0.223363
vt 0.434093 0.216356
vt 0.448237 0.220892
vt 0.420007 0.220757
vt 0.441285 0.224849
vt 0.427126 0.218540
vt 0.427420 0.225803
vt 0.432079 0.223868
vt 0.264772 0.220449
vt 0.274860 0.238087
vt 0.265656 0.256112
vt 0.255694 0.238478
vt 0.256357 0.273243
vt 0.275184 0.272959
vt 0.265802 0.290893
vt 0.254852 0.203746
vt 0.263617 0.185671
vt 0.273684 0.203138
vt 0.238833 0.238708
vt 0.229879 0.255821
vt 0.219504 0.239053
vt 0.291181 0.237891
vt 0.229443 0.221934
vt 0.232422 0.289486
vt 0.221065 0.273301
vt 0.290291 0.271135
vt 0.240191 0.272042
vt 0.219900 0.204904
vt 0.289256 0.204463
vt 0.230561 0.188324
vt 0.239072 0.205429
vt 0.283370 0.255366
vt 0.282813 0.220540
vt 0.247014 0.221410
vt 0.247633 0.255801
vt 0.249055 0.289688
vt 0.282453 0.289328
vt 0.247041 0.187532
vt 0.280359 0.186494
vt 0.572283 0.252880
vt 0.582239 0.235245
vt 0.591449 0.253265
vt 0.581367 0.270905
vt 0.582373 0.200466
vt 0.591761 0.218395
vt 0.572934 0.218118
vt 0.590285 0.288211
vt 0.580225 0.305681
vt 0.571453 0.287611
vt 0.546038 0.269431
vt 0.536093 0.252317
vt 0.607771 0.253455
vt 0.546462 0.235549
vt 0.555422 0.252656
vt 0.556768 0.219326
vt 0.537643 0.218073
vt 0.606868 0.220215
vt 0.548994 0.201885
vt 0.555674 0.285932
vt 0.547169 0.303039
vt 0.536501 0.286463
vt 0.605857 0.286879
vt 0.599409 0.270807
vt 0.599953 0.235984
vt 0.564216 0.235562
vt 0.563609 0.269949
vt 0.565626 0.201677
vt 0.599024 0.202026
vt 0.563649 0.303825
vt 0.596967 0.304851
vt 0.275409 0.329558
vt 0.274224 0.329492
vt 0.280416 0.322481
vt 0.284907 0.325849
vt 0.227033 0.328399
vt 0.280247 0.328245
vt 0.243902 0.345219
vt 0.265652 0.329707
vt 0.251576 0.338906
vt 0.257067 0.329191
vt 0.255405 0.330388
vt 0.265665 0.324232
vt 0.249759 0.330911
vt 0.246065 0.326216
vt 0.245218 0.325616
vt 0.250930 0.327512
vt 0.251164 0.326927
vt 0.243046 0.139742
vt 0.253428 0.147444
vt 0.243197 0.145146
vt 0.247771 0.149874
vt 0.242179 0.150438
vt 0.242148 0.150927
vt 0.240007 0.144836
vt 0.262027 0.147052
vt 0.233758 0.139334
vt 0.270670 0.147387
vt 0.224544 0.138007
vt 0.262267 0.152495
vt 0.226718 0.143534
vt 0.223681 0.148549
vt 0.223650 0.149044
vt 0.223527 0.143220
vt 0.276600 0.149419
vt 0.236127 0.327502
vt 0.242866 0.335405
vt 0.235644 0.321935
vt 0.232543 0.155454
vt 0.233049 0.148061
vt 0.591967 0.161799
vt 0.590781 0.161866
vt 0.596805 0.163110
vt 0.560452 0.146149
vt 0.601465 0.165505
vt 0.543591 0.162976
vt 0.596976 0.168874
vt 0.582224 0.167128
vt 0.573624 0.162173
vt 0.571962 0.160977
vt 0.582209 0.161654
vt 0.568129 0.152459
vt 0.567489 0.163855
vt 0.567723 0.164439
vt 0.562624 0.165152
vt 0.561777 0.165752
vt 0.566315 0.160456
vt 0.559671 0.351615
vt 0.570051 0.343911
vt 0.556631 0.346522
vt 0.558801 0.340919
vt 0.558770 0.340430
vt 0.559821 0.346211
vt 0.564393 0.341482
vt 0.578888 0.338856
vt 0.587294 0.343960
vt 0.541171 0.353357
vt 0.578650 0.344298
vt 0.550384 0.352026
vt 0.540152 0.348145
vt 0.593222 0.341925
vt 0.540303 0.342816
vt 0.540272 0.342321
vt 0.543342 0.347830
vt 0.552204 0.169436
vt 0.552685 0.163870
vt 0.559420 0.155964
vt 0.549672 0.343300
vt 0.549163 0.335907
vt 0.274457 0.309189
vt 0.257006 0.309239
vt 0.271609 0.167206
vt 0.254184 0.167625
vt 0.243070 0.307111
vt 0.224393 0.309048
vt 0.287377 0.306180
vt 0.240469 0.170174
vt 0.221777 0.169069
vt 0.284636 0.169672
vt 0.573570 0.182124
vt 0.591021 0.182167
vt 0.570800 0.323730
vt 0.588225 0.324142
vt 0.540958 0.182327
vt 0.603942 0.185173
vt 0.559636 0.184258
vt 0.538392 0.322296
vt 0.601250 0.321670
vt 0.557083 0.321184
vn 0.288544 0.511063 0.809664
vn 0.454349 0.890824 -0.000011
vn -0.000001 1.000000 -0.000000
vn -0.000002 0.552350 0.833612
vn 0.288545 0.511061 -0.809666
vn 0.000003 0.552350 -0.833612
vn -0.288546 0.511063 -0.809664
vn -0.454351 0.890823 0.000012
vn -0.288545 0.511061 0.809666
vn 0.187812 -0.457299 0.869255
vn 0.422325 -0.906444 0.000000
vn 0.000001 -1.000000 -0.000000
vn 0.000000 -0.452731 0.891647
vn 0.187814 -0.457299 -0.869254
vn 0.000002 -0.452730 -0.891648
vn -0.187813 -0.457304 -0.869252
vn -0.422324 -0.906445 -0.000000
vn -0.187817 -0.457305 0.869251
vn 0.000002 0.033492 -0.999439
vn 0.048214 0.023432 -0.998562
vn -0.048212 0.023433 -0.998562
vn 0.000000 0.033492 0.999439
vn -0.048214 0.023433 0.998562
vn 0.048213 0.023432 0.998562
vn -0.497485 -0.867472 -0.000000
vn -0.260774 -0.487253 0.833415
vn -0.260772 -0.487254 -0.833416
vn -0.163421 -0.534830 -0.829006
vn -0.309345 -0.950950 0.000001
vn -0.163423 -0.534835 0.829002
vn 0.043804 -0.004346 -0.999031
vn 0.358029 0.459308 -0.812928
vn 0.289216 0.441999 -0.849112
vn 0.046439 -0.027421 -0.998545
vn 0.593598 0.804762 -0.000000
vn 0.358031 0.459307 0.812928
vn 0.289215 0.441995 0.849114
vn 0.525957 0.850511 0.000000
vn 0.043803 -0.004346 0.999031
vn 0.046441 -0.027421 0.998545
vn -0.593601 0.804760 0.000000
vn -0.358033 0.459310 0.812925
vn -0.358032 0.459309 -0.812926
vn -0.289215 0.441997 -0.849113
vn -0.525958 0.850511 0.000011
vn -0.289214 0.441995 0.849115
vn -0.043805 -0.004344 -0.999031
vn 0.260776 -0.487259 -0.833412
vn 0.163426 -0.534836 -0.829001
vn -0.046441 -0.027420 -0.998545
vn 0.497487 -0.867472 0.000000
vn 0.260777 -0.487256 0.833413
vn 0.163421 -0.534831 0.829005
vn 0.309347 -0.950949 -0.000000
vn -0.043804 -0.004346 0.999031
vn -0.046440 -0.027420 0.998545
vn 0.017972 -0.999839 -0.000000
vn 0.045390 -0.519995 0.852962
vn 0.045390 -0.519990 -0.852966
vn 0.123740 -0.481247 -0.867808
vn 0.166158 -0.986099 -0.000000
vn 0.123739 -0.481246 0.867808
vn 0.084890 -0.015766 -0.996266
vn 0.175164 0.466996 -0.866737
vn 0.123745 0.481292 -0.867782
vn 0.096229 0.000000 -0.995359
vn 0.285562 0.958360 -0.000000
vn 0.175166 0.466989 0.866740
vn 0.123748 0.481291 0.867782
vn 0.166150 0.986101 -0.000000
vn 0.084889 -0.015769 0.996266
vn 0.096228 0.000002 0.995359
vn -0.285560 0.958361 0.000020
vn -0.175165 0.466993 0.866738
vn -0.175162 0.466985 -0.866743
vn -0.123743 0.481279 -0.867790
vn -0.166150 0.986100 -0.000001
vn -0.123741 0.481277 0.867791
vn -0.084891 -0.015768 -0.996266
vn -0.045390 -0.520001 -0.852959
vn -0.123745 -0.481261 -0.867799
vn -0.096232 0.000002 -0.995359
vn -0.017972 -0.999839 0.000000
vn -0.045393 -0.519997 0.852961
vn -0.123744 -0.481262 0.867799
vn -0.166159 -0.986099 -0.000000
vn -0.084894 -0.015767 0.996265
vn -0.096230 0.000000 0.995359
vn -0.162616 0.531082 0.831570
vn -0.297681 0.954666 -0.000000
vn -0.000000 1.000000 0.000000
vn 0.000000 0.550365 0.834924
vn -0.162617 0.531081 -0.831570
vn 0.000000 0.550366 -0.834924
vn 0.162618 0.531083 -0.831569
vn 0.297681 0.954665 0.000000
vn 0.162616 0.531081 0.831570
vn 0.479784 0.395889 0.782994
vn 0.331176 0.476350 0.814502
vn 0.578690 0.815547 -0.000001
vn 0.777582 0.628782 0.000010
vn 0.331178 0.476350 -0.814501
vn 0.479787 0.395891 -0.782991
vn -0.331175 0.476347 0.814504
vn -0.578692 0.815546 0.000000
vn -0.479788 0.395890 0.782991
vn -0.777582 0.628782 -0.000003
vn -0.479786 0.395890 -0.782992
vn -0.331176 0.476347 -0.814503
vn 0.185294 -0.595922 0.781372
vn -0.000000 -0.615418 0.788201
vn 0.000000 -1.000000 0.000000
vn 0.291142 -0.956680 0.000002
vn -0.185295 -0.595923 0.781371
vn -0.291143 -0.956680 -0.000000
vn -0.185294 -0.595924 -0.781371
vn 0.000000 -0.615418 -0.788201
vn 0.185296 -0.595925 -0.781370
vn -0.521573 -0.423845 0.740484
vn -0.767962 -0.640496 -0.000002
vn -0.563176 -0.826337 0.000000
vn -0.367799 -0.527625 0.765726
vn -0.521574 -0.423843 -0.740485
vn -0.367801 -0.527625 -0.765725
vn 0.563175 -0.826338 0.000006
vn 0.367800 -0.527624 0.765725
vn 0.367801 -0.527628 -0.765723
vn 0.521575 -0.423845 -0.740483
vn 0.767962 -0.640495 0.000006
vn 0.521573 -0.423844 0.740485
vn 0.000001 -0.028664 -0.999589
vn 0.012080 -0.028901 -0.999509
vn -0.012078 -0.028901 -0.999509
vn 0.000000 -0.028664 0.999589
vn -0.012080 -0.028903 0.999509
vn 0.012080 -0.028902 0.999509
vn -0.022564 -0.022987 0.999481
vn -0.028446 -0.013027 0.999510
vn -0.022561 -0.022984 -0.999481
vn -0.028443 -0.013025 -0.999511
vn 0.022563 -0.022986 0.999481
vn 0.028444 -0.013027 0.999511
vn 0.022562 -0.022986 -0.999481
vn 0.028445 -0.013027 -0.999510
vn 0.162633 0.531078 0.831569
vn -0.000000 0.550358 0.834929
vn 0.000000 1.000000 0.000000
vn 0.297713 0.954655 0.000000
vn -0.162635 0.531080 0.831567
vn -0.297714 0.954655 0.000000
vn -0.162634 0.531080 -0.831567
vn -0.000001 0.550360 -0.834928
vn 0.162634 0.531080 -0.831567
vn -0.479830 0.395881 0.782970
vn -0.777619 0.628736 0.000004
vn -0.578736 0.815515 -0.000000
vn -0.331212 0.476346 0.814490
vn -0.479830 0.395881 -0.782970
vn -0.331211 0.476347 -0.814489
vn 0.578737 0.815514 -0.000000
vn 0.331211 0.476346 0.814490
vn 0.331210 0.476347 -0.814490
vn 0.479827 0.395880 -0.782972
vn 0.777619 0.628736 -0.000004
vn 0.479828 0.395878 0.782972
vn -0.185318 -0.595926 0.781364
vn -0.291172 -0.956671 0.000000
vn 0.000000 -1.000000 0.000000
vn -0.000000 -0.615423 0.788197
vn -0.185316 -0.595922 -0.781367
vn -0.000000 -0.615424 -0.788196
vn 0.185317 -0.595923 -0.781366
vn 0.291170 -0.956671 -0.000003
vn 0.185315 -0.595923 0.781367
vn 0.521616 -0.423829 0.740463
vn 0.367837 -0.527617 0.765713
vn 0.563217 -0.826309 -0.000002
vn 0.767996 -0.640454 0.000001
vn 0.367837 -0.527615 -0.765714
vn 0.521617 -0.423831 -0.740462
vn -0.367837 -0.527618 0.765712
vn -0.563218 -0.826309 -0.000003
vn -0.521617 -0.423830 0.740462
vn -0.767997 -0.640454 -0.000004
vn -0.521617 -0.423830 -0.740462
vn -0.367837 -0.527617 -0.765713
vn -0.012083 -0.028904 -0.999509
vn -0.000001 -0.028667 -0.999589
vn 0.012083 -0.028903 -0.999509
vn 0.012083 -0.028903 0.999509
vn -0.000000 -0.028667 0.999589
vn -0.012083 -0.028902 0.999509
vn 0.028447 -0.013024 0.999511
vn 0.022568 -0.022986 0.999481
vn 0.022568 -0.022985 -0.999481
vn 0.028447 -0.013024 -0.999511
vn -0.022567 -0.022985 0.999481
vn -0.028449 -0.013024 0.999510
vn -0.028448 -0.013024 -0.999510
vn -0.022568 -0.022986 -0.999481
vn -0.711738 0.695244 -0.100326
vn 0.490863 0.560523 -0.666984
vn -0.118765 0.189367 -0.974697
vn -0.775754 0.619950 -0.117760
vn 0.640725 0.357055 -0.679694
vn 0.021499 0.032290 -0.999247
vn -0.628557 -0.275680 -0.727266
vn -0.716416 -0.140500 -0.683380
vn -0.830579 0.549597 -0.089895
vn 0.702950 0.711239 0.000003
vn 0.874605 0.484836 0.000000
vn -0.699293 0.714835 -0.000013
vn -0.711737 0.695243 0.100334
vn 0.490872 0.560517 0.666982
vn 0.640728 0.357056 0.679690
vn -0.118759 0.189367 0.974698
vn 0.021504 0.032291 0.999247
vn -0.775759 0.619940 0.117778
vn -0.830583 0.549591 0.089898
vn -0.716414 -0.140501 0.683381
vn -0.628554 -0.275679 0.727270
vn 0.711738 0.695241 0.100341
vn -0.490862 0.560523 0.666985
vn 0.118763 0.189368 0.974697
vn 0.775753 0.619949 0.117772
vn -0.640726 0.357055 0.679692
vn -0.021503 0.032291 0.999247
vn 0.628559 -0.275679 0.727265
vn 0.716424 -0.140502 0.683371
vn 0.830579 0.549598 0.089895
vn -0.702950 0.711240 -0.000004
vn -0.874606 0.484835 0.000003
vn 0.699295 0.714833 0.000006
vn 0.711741 0.695240 -0.100329
vn -0.490872 0.560522 -0.666978
vn -0.640729 0.357056 -0.679689
vn 0.118767 0.189368 -0.974697
vn -0.021499 0.032290 -0.999247
vn 0.775760 0.619942 -0.117766
vn 0.830579 0.549596 -0.089901
vn 0.716420 -0.140502 -0.683375
vn 0.628557 -0.275679 -0.727267
vn -0.967200 -0.254018 -0.000001
vn -0.914050 -0.405602 -0.000000
vn -0.843012 0.537894 0.000004
vn 0.967199 -0.254020 -0.000001
vn 0.843010 0.537897 -0.000006
vn 0.914050 -0.405601 0.000000
vn -0.640773 0.357047 -0.679652
vn -0.490898 0.560532 -0.666951
vn 0.118759 0.189373 -0.974697
vn -0.021512 0.032295 -0.999247
vn 0.711757 0.695222 -0.100341
vn 0.775780 0.619914 -0.117778
vn 0.830610 0.549554 -0.089881
vn 0.716449 -0.140497 -0.683345
vn 0.628597 -0.275665 -0.727238
vn -0.702960 0.711229 0.000003
vn 0.699317 0.714812 0.000000
vn -0.874625 0.484801 0.000000
vn -0.640773 0.357045 0.679654
vn -0.490901 0.560531 0.666949
vn 0.711765 0.695217 0.100319
vn 0.118758 0.189371 0.974697
vn 0.775786 0.619909 0.117770
vn -0.021509 0.032294 0.999247
vn 0.628599 -0.275667 0.727235
vn 0.716451 -0.140495 0.683345
vn 0.830609 0.549552 0.089900
vn 0.640771 0.357046 0.679655
vn 0.490897 0.560528 0.666955
vn -0.118758 0.189369 0.974698
vn 0.021511 0.032294 0.999247
vn -0.711758 0.695223 0.100333
vn -0.775780 0.619915 0.117777
vn -0.830609 0.549553 0.089885
vn -0.716447 -0.140494 0.683349
vn -0.628595 -0.275665 0.727240
vn 0.702960 0.711229 -0.000002
vn -0.699319 0.714810 -0.000002
vn 0.874625 0.484800 0.000003
vn 0.640775 0.357044 -0.679652
vn 0.490900 0.560530 -0.666951
vn -0.711767 0.695214 -0.100329
vn -0.118756 0.189372 -0.974698
vn -0.775785 0.619909 -0.117775
vn 0.021511 0.032293 -0.999247
vn -0.628595 -0.275665 -0.727240
vn -0.716445 -0.140496 -0.683350
vn -0.830608 0.549553 -0.089895
vn 0.967205 -0.253998 -0.000004
vn 0.843040 0.537851 0.000005
vn 0.914067 -0.405563 -0.000003
vn -0.967205 -0.253996 -0.000004
vn -0.914068 -0.405562 -0.000005
vn -0.843040 0.537851 -0.000005
vn 0.863545 0.504272 0.000009
vn 0.587286 0.345947 0.731721
vn 0.587287 0.345949 -0.731720
vn -0.863545 0.504272 -0.000001
vn -0.587290 0.345949 0.731717
vn -0.587288 0.345950 -0.731718
vn -0.603668 -0.328763 0.726292
vn -0.875345 -0.483499 -0.000003
vn -0.603672 -0.328763 -0.726289
vn 0.603670 -0.328763 0.726290
vn 0.875346 -0.483497 0.000004
vn 0.603671 -0.328762 -0.726289
vn -0.009820 0.004647 -0.999941
vn -0.783375 0.621550 -0.000000
vn -0.009819 0.004648 0.999941
vn 0.783374 0.621551 0.000000
vn 0.009821 0.004647 -0.999941
vn 0.009818 0.004647 0.999941
vn -0.587332 0.345935 0.731690
vn -0.863571 0.504227 0.000003
vn -0.587333 0.345936 -0.731688
vn 0.587331 0.345934 0.731691
vn 0.863571 0.504227 -0.000002
vn 0.587331 0.345934 -0.731691
vn 0.875369 -0.483456 -0.000001
vn 0.603713 -0.328749 0.726261
vn 0.603711 -0.328746 -0.726263
vn -0.875369 -0.483455 -0.000002
vn -0.603711 -0.328746 0.726263
vn -0.603714 -0.328748 -0.726260
vn 0.009816 0.004651 -0.999941
vn 0.783399 0.621519 0.000003
vn 0.009817 0.004650 0.999941
vn -0.783400 0.621518 -0.000004
vn -0.009818 0.004649 -0.999941
vn -0.009818 0.004650 0.999941
s 1
g SM_glasses_03
usemtl initialShadingGroup
f 3/4/1 169/213/2 253/133/3 172/216/4
f 169/213/2 4/5/5 170/214/6 253/133/3
f 253/133/3 170/214/6 6/7/7 171/215/8
f 172/216/4 253/133/3 171/215/8 5/6/9
f 7/8/10 173/217/11 254/134/12 176/221/13
f 173/217/11 8/9/14 174/218/15 254/134/12
f 254/134/12 174/218/15 2/2/16 175/220/17
f 176/221/13 254/134/12 175/220/17 1/1/18
f 2/3/16 174/219/15 255/135/19 178/223/20
f 174/219/15 8/10/14 177/222/21 255/135/19
f 255/135/19 177/222/21 6/7/7 170/214/6
f 178/223/20 255/135/19 170/214/6 4/5/5
f 7/8/10 176/221/13 256/136/22 180/225/23
f 176/221/13 1/1/18 179/224/24 256/136/22
f 256/136/22 179/224/24 3/4/1 172/216/4
f 180/225/23 256/136/22 172/216/4 5/6/9
f 1/1/18 175/220/17 257/137/25 183/229/26
f 175/220/17 2/2/16 181/226/27 257/137/25
f 257/137/25 181/226/27 10/12/28 182/228/29
f 183/229/26 257/137/25 182/228/29 9/11/30
f 2/3/16 178/223/20 258/138/31 181/227/27
f 178/223/20 4/5/5 184/230/32 258/138/31
f 258/138/31 184/230/32 11/14/33 185/231/34
f 181/227/27 258/138/31 185/231/34 10/13/28
f 4/5/5 169/213/2 259/139/35 184/230/32
f 169/213/2 3/4/1 186/232/36 259/139/35
f 259/139/35 186/232/36 12/15/37 187/233/38
f 184/230/32 259/139/35 187/233/38 11/14/33
f 3/4/1 179/224/24 260/140/39 186/232/36
f 179/224/24 1/1/18 183/229/26 260/140/39
f 260/140/39 183/229/26 9/11/30 188/234/40
f 186/232/36 260/140/39 188/234/40 12/15/37
f 5/6/9 171/215/8 261/141/41 191/237/42
f 171/215/8 6/7/7 189/235/43 261/141/41
f 261/141/41 189/235/43 14/17/44 190/236/45
f 191/237/42 261/141/41 190/236/45 13/16/46
f 6/7/7 177/222/21 262/142/47 189/235/43
f 177/222/21 8/10/14 192/238/48 262/142/47
f 262/142/47 192/238/48 15/18/49 193/240/50
f 189/235/43 262/142/47 193/240/50 14/17/44
f 8/9/14 173/217/11 263/143/51 192/239/48
f 173/217/11 7/8/10 194/241/52 263/143/51
f 263/143/51 194/241/52 16/20/53 195/242/54
f 192/239/48 263/143/51 195/242/54 15/19/49
f 7/8/10 180/225/23 264/144/55 194/241/52
f 180/225/23 5/6/9 191/237/42 264/144/55
f 264/144/55 191/237/42 13/16/46 196/243/56
f 194/241/52 264/144/55 196/243/56 16/20/53
f 9/11/30 182/228/29 265/145/57 199/247/58
f 182/228/29 10/12/28 197/244/59 265/145/57
f 265/145/57 197/244/59 18/22/60 198/246/61
f 199/247/58 265/145/57 198/246/61 17/21/62
f 10/13/28 185/231/34 266/146/63 197/245/59
f 185/231/34 11/14/33 200/248/64 266/146/63
f 266/146/63 200/248/64 19/24/65 201/249/66
f 197/245/59 266/146/63 201/249/66 18/23/60
f 11/14/33 187/233/38 267/147/67 200/248/64
f 187/233/38 12/15/37 202/250/68 267/147/67
f 267/147/67 202/250/68 20/25/69 203/251/70
f 200/248/64 267/147/67 203/251/70 19/24/65
f 12/15/37 188/234/40 268/148/71 202/250/68
f 188/234/40 9/11/30 199/247/58 268/148/71
f 268/148/71 199/247/58 17/21/62 204/252/72
f 202/250/68 268/148/71 204/252/72 20/25/69
f 13/16/46 190/236/45 269/149/73 207/255/74
f 190/236/45 14/17/44 205/253/75 269/149/73
f 269/149/73 205/253/75 22/27/76 206/254/77
f 207/255/74 269/149/73 206/254/77 21/26/78
f 14/17/44 193/240/50 270/150/79 205/253/75
f 193/240/50 15/18/49 208/256/80 270/150/79
f 270/150/79 208/256/80 23/28/81 209/258/82
f 205/253/75 270/150/79 209/258/82 22/27/76
f 15/19/49 195/242/54 271/151/83 208/257/80
f 195/242/54 16/20/53 210/259/84 271/151/83
f 271/151/83 210/259/84 24/30/85 211/260/86
f 208/257/80 271/151/83 211/260/86 23/29/81
f 16/20/53 196/243/56 272/152/87 210/259/84
f 196/243/56 13/16/46 207/255/74 272/152/87
f 272/152/87 207/255/74 21/26/78 212/261/88
f 210/259/84 272/152/87 212/261/88 24/30/85
s 3
f 37/47/89 213/262/90 273/153/91 216/265/92
f 213/262/90 38/48/93 214/263/94 273/153/91
f 273/153/91 214/263/94 39/49/95 215/264/96
f 216/265/92 273/153/91 215/264/96 40/50/97
f 33/43/98 217/266/99 274/154/100 219/268/101
f 217/266/99 40/50/97 215/264/96 274/154/100
f 274/154/100 215/264/96 39/49/95 218/267/102
f 219/268/101 274/154/100 218/267/102 34/44/103
f 37/47/89 220/269/104 275/155/105 213/262/90
f 220/269/104 36/46/106 221/270/107 275/155/105
f 275/155/105 221/270/107 35/45/108 222/271/109
f 213/262/90 275/155/105 222/271/109 38/48/93
f 30/38/110 223/272/111 276/156/112 226/276/113
f 223/272/111 25/31/114 224/273/115 276/156/112
f 276/156/112 224/273/115 28/35/116 225/274/117
f 226/276/113 276/156/112 225/274/117 31/39/118
f 26/32/119 227/277/120 277/157/121 229/280/122
f 227/277/120 27/33/123 228/278/124 277/157/121
f 277/157/121 228/278/124 28/35/116 224/273/115
f 229/280/122 277/157/121 224/273/115 25/31/114
f 30/38/110 226/276/113 278/158/125 232/284/126
f 226/276/113 31/39/118 230/281/127 278/158/125
f 278/158/125 230/281/127 32/41/128 231/283/129
f 232/284/126 278/158/125 231/283/129 29/37/130
f 31/40/118 225/275/117 279/159/131 234/286/132
f 225/275/117 28/36/116 233/285/133 279/159/131
f 279/159/131 233/285/133 39/49/95 214/263/94
f 234/286/132 279/159/131 214/263/94 38/48/93
f 25/31/114 223/272/111 280/160/134 236/288/135
f 223/272/111 30/38/110 235/287/136 280/160/134
f 280/160/134 235/287/136 37/47/89 216/265/92
f 236/288/135 280/160/134 216/265/92 40/50/97
f 26/32/119 229/280/122 281/161/137 237/289/138
f 229/280/122 25/31/114 236/288/135 281/161/137
f 281/161/137 236/288/135 40/50/97 217/266/99
f 237/289/138 281/161/137 217/266/99 33/43/98
f 28/36/116 228/279/124 282/162/139 233/285/133
f 228/279/124 27/34/123 238/290/140 282/162/139
f 282/162/139 238/290/140 34/44/103 218/267/102
f 233/285/133 282/162/139 218/267/102 39/49/95
f 30/38/110 232/284/126 283/163/141 235/287/136
f 232/284/126 29/37/130 239/291/142 283/163/141
f 283/163/141 239/291/142 36/46/106 220/269/104
f 235/287/136 283/163/141 220/269/104 37/47/89
f 32/42/128 230/282/127 284/164/143 240/292/144
f 230/282/127 31/40/118 234/286/132 284/164/143
f 284/164/143 234/286/132 38/48/93 222/271/109
f 240/292/144 284/164/143 222/271/109 35/45/108
s 7
f 53/67/145 241/293/146 285/165/147 244/296/148
f 241/293/146 56/70/149 242/294/150 285/165/147
f 285/165/147 242/294/150 55/69/151 243/295/152
f 244/296/148 285/165/147 243/295/152 54/68/153
f 49/63/154 245/297/155 286/166/156 247/299/157
f 245/297/155 50/64/158 246/298/159 286/166/156
f 286/166/156 246/298/159 55/69/151 242/294/150
f 247/299/157 286/166/156 242/294/150 56/70/149
f 53/67/145 244/296/148 287/167/160 250/302/161
f 244/296/148 54/68/153 248/300/162 287/167/160
f 287/167/160 248/300/162 51/65/163 249/301/164
f 250/302/161 287/167/160 249/301/164 52/66/165
f 46/58/166 251/303/167 288/168/168 90/307/169
f 251/303/167 47/59/170 252/304/171 288/168/168
f 288/168/168 252/304/171 44/55/172 89/306/173
f 90/307/169 288/168/168 89/306/173 41/51/174
f 42/52/175 91/308/176 289/169/177 93/311/178
f 91/308/176 41/51/174 89/306/173 289/169/177
f 289/169/177 89/306/173 44/55/172 92/309/179
f 93/311/178 289/169/177 92/309/179 43/53/180
f 46/58/166 94/312/181 290/170/182 251/303/167
f 94/312/181 45/57/183 95/313/184 290/170/182
f 290/170/182 95/313/184 48/61/185 96/314/186
f 251/303/167 290/170/182 96/314/186 47/59/170
f 47/60/170 97/316/187 291/171/188 252/305/171
f 97/316/187 54/68/153 243/295/152 291/171/188
f 291/171/188 243/295/152 55/69/151 98/317/189
f 252/305/171 291/171/188 98/317/189 44/56/172
f 41/51/174 99/318/190 292/172/191 90/307/169
f 99/318/190 56/70/149 241/293/146 292/172/191
f 292/172/191 241/293/146 53/67/145 100/319/192
f 90/307/169 292/172/191 100/319/192 46/58/166
f 42/52/175 101/320/193 293/173/194 91/308/176
f 101/320/193 49/63/154 247/299/157 293/173/194
f 293/173/194 247/299/157 56/70/149 99/318/190
f 91/308/176 293/173/194 99/318/190 41/51/174
f 44/56/172 98/317/189 294/174/195 92/310/179
f 98/317/189 55/69/151 246/298/159 294/174/195
f 294/174/195 246/298/159 50/64/158 102/321/196
f 92/310/179 294/174/195 102/321/196 43/54/180
f 46/58/166 100/319/192 295/175/197 94/312/181
f 100/319/192 53/67/145 250/302/161 295/175/197
f 295/175/197 250/302/161 52/66/165 103/322/198
f 94/312/181 295/175/197 103/322/198 45/57/183
f 48/62/185 104/323/199 296/176/200 96/315/186
f 104/323/199 51/65/163 248/300/162 296/176/200
f 296/176/200 248/300/162 54/68/153 97/316/187
f 96/315/186 296/176/200 97/316/187 47/60/170
s 3
f 57/71/201 105/324/202 297/177/203 108/329/204
f 105/324/202 58/74/205 106/326/206 297/177/203
f 297/177/203 106/326/206 67/90/207 107/327/208
f 108/329/204 297/177/203 107/327/208 68/92/209
f 58/74/205 105/325/202 298/178/210 111/335/211
f 105/325/202 57/73/201 109/331/212 298/178/210
f 298/178/210 109/331/212 60/77/213 110/333/214
f 111/335/211 298/178/210 110/333/214 59/75/215
f 59/76/215 110/334/214 299/179/216 114/339/217
f 110/334/214 60/78/213 112/336/218 299/179/216
f 299/179/216 112/336/218 65/87/219 113/337/220
f 114/339/217 299/179/216 113/337/220 66/89/221
f 61/79/222 115/341/223 300/180/224 118/347/225
f 115/341/223 62/81/226 116/343/227 300/180/224
f 300/180/224 116/343/227 69/95/228 117/345/229
f 118/347/225 300/180/224 117/345/229 70/97/230
f 62/82/226 115/342/223 301/181/231 121/352/232
f 115/342/223 61/80/222 119/348/233 301/181/231
f 301/181/231 119/348/233 64/85/234 120/350/235
f 121/352/232 301/181/231 120/350/235 63/83/236
f 63/84/236 120/351/235 302/182/237 124/356/238
f 120/351/235 64/86/234 122/353/239 302/182/237
f 302/182/237 122/353/239 71/98/240 123/354/241
f 124/356/238 302/182/237 123/354/241 72/99/242
f 66/89/221 113/338/220 303/183/243 126/360/244
f 113/338/220 65/88/219 125/358/245 303/183/243
f 303/183/243 125/358/245 68/93/209 107/328/208
f 126/360/244 303/183/243 107/328/208 67/91/207
f 70/97/230 117/346/229 304/184/246 128/362/247
f 117/346/229 69/96/228 127/361/248 304/184/246
f 304/184/246 127/361/248 72/100/242 123/355/241
f 128/362/247 304/184/246 123/355/241 71/98/240
s 7
f 73/102/249 129/363/250 305/185/251 132/369/252
f 129/363/250 74/103/253 130/365/254 305/185/251
f 305/185/251 130/365/254 83/121/255 131/367/256
f 132/369/252 305/185/251 131/367/256 84/124/257
f 74/104/253 129/364/250 306/186/258 135/373/259
f 129/364/250 73/102/249 133/370/260 306/186/258
f 306/186/258 133/370/260 76/108/261 134/371/262
f 135/373/259 306/186/258 134/371/262 75/106/263
f 75/107/263 134/372/262 307/187/264 138/379/265
f 134/372/262 76/109/261 136/375/266 307/187/264
f 307/187/264 136/375/266 81/118/267 137/377/268
f 138/379/265 307/187/264 137/377/268 82/119/269
f 77/110/270 139/380/271 308/188/272 142/385/273
f 139/380/271 78/112/274 140/382/275 308/188/272
f 308/188/272 140/382/275 85/126/276 141/383/277
f 142/385/273 308/188/272 141/383/277 86/127/278
f 78/113/274 139/381/271 309/189/279 145/390/280
f 139/381/271 77/111/270 143/387/281 309/189/279
f 309/189/279 143/387/281 80/116/282 144/388/283
f 145/390/280 309/189/279 144/388/283 79/114/284
f 79/115/284 144/389/283 310/190/285 148/396/286
f 144/389/283 80/117/282 146/392/287 310/190/285
f 310/190/285 146/392/287 87/129/288 147/394/289
f 148/396/286 310/190/285 147/394/289 88/132/290
f 82/120/269 137/378/268 311/191/291 150/398/292
f 137/378/268 81/118/267 149/397/293 311/191/291
f 311/191/291 149/397/293 84/125/257 131/368/256
f 150/398/292 311/191/291 131/368/256 83/123/255
f 86/128/278 141/384/277 312/192/294 152/401/295
f 141/384/277 85/126/276 151/400/296 312/192/294
f 312/192/294 151/400/296 88/132/290 147/395/289
f 152/401/295 312/192/294 147/395/289 87/131/288
s 3
f 33/43/98 219/268/101 313/193/297 154/403/298
f 219/268/101 34/44/103 153/402/299 313/193/297
f 313/193/297 153/402/299 58/74/205 111/335/211
f 154/403/298 313/193/297 111/335/211 59/75/215
f 62/82/226 121/352/232 314/194/300 156/405/301
f 121/352/232 63/83/236 155/404/302 314/194/300
f 314/194/300 155/404/302 35/45/108 221/270/107
f 156/405/301 314/194/300 221/270/107 36/46/106
f 26/32/119 157/406/303 315/195/304 227/277/120
f 157/406/303 66/89/221 126/360/244 315/195/304
f 315/195/304 126/360/244 67/91/207 158/407/305
f 227/277/120 315/195/304 158/407/305 27/33/123
f 69/96/228 159/409/306 316/196/307 127/361/248
f 159/409/306 29/37/130 231/283/129 316/196/307
f 316/196/307 231/283/129 32/41/128 160/410/308
f 127/361/248 316/196/307 160/410/308 72/100/242
f 27/34/123 158/408/305 317/197/309 238/290/140
f 158/408/305 67/90/207 106/326/206 317/197/309
f 317/197/309 106/326/206 58/74/205 153/402/299
f 238/290/140 317/197/309 153/402/299 34/44/103
f 68/94/209 125/359/245 318/198/310 108/330/204
f 125/359/245 65/87/219 112/336/218 318/198/310
f 318/198/310 112/336/218 60/78/213 109/332/212
f 108/330/204 318/198/310 109/332/212 57/72/201
f 66/89/221 157/406/303 319/199/311 114/340/217
f 157/406/303 26/32/119 237/289/138 319/199/311
f 319/199/311 237/289/138 33/43/98 154/403/298
f 114/340/217 319/199/311 154/403/298 59/75/215
f 70/97/230 128/362/247 320/200/312 118/347/225
f 128/362/247 71/98/240 122/353/239 320/200/312
f 320/200/312 122/353/239 64/86/234 119/349/233
f 118/347/225 320/200/312 119/349/233 61/79/222
f 72/101/242 160/411/308 321/201/313 124/357/238
f 160/411/308 32/42/128 240/292/144 321/201/313
f 321/201/313 240/292/144 35/45/108 155/404/302
f 124/357/238 321/201/313 155/404/302 63/83/236
f 29/37/130 159/409/306 322/202/314 239/291/142
f 159/409/306 69/96/228 116/344/227 322/202/314
f 322/202/314 116/344/227 62/82/226 156/405/301
f 239/291/142 322/202/314 156/405/301 36/46/106
s 7
f 49/63/154 161/412/315 323/203/316 245/297/155
f 161/412/315 76/108/261 133/370/260 323/203/316
f 323/203/316 133/370/260 73/102/249 162/413/317
f 245/297/155 323/203/316 162/413/317 50/64/158
f 77/111/270 163/414/318 324/204/319 143/387/281
f 163/414/318 52/66/165 249/301/164 324/204/319
f 324/204/319 249/301/164 51/65/163 164/415/320
f 143/387/281 324/204/319 164/415/320 80/116/282
f 42/52/175 93/311/178 325/205/321 166/418/322
f 93/311/178 43/53/180 165/416/323 325/205/321
f 325/205/321 165/416/323 84/125/257 149/397/293
f 166/418/322 325/205/321 149/397/293 81/118/267
f 86/128/278 152/401/295 326/206/324 168/421/325
f 152/401/295 87/131/288 167/419/326 326/206/324
f 326/206/324 167/419/326 48/61/185 95/313/184
f 168/421/325 326/206/324 95/313/184 45/57/183
f 43/54/180 102/321/196 327/207/327 165/417/323
f 102/321/196 50/64/158 162/413/317 327/207/327
f 327/207/327 162/413/317 73/102/249 132/369/252
f 165/417/323 327/207/327 132/369/252 84/124/257
f 83/122/255 130/366/254 328/208/328 150/399/292
f 130/366/254 74/105/253 135/374/259 328/208/328
f 328/208/328 135/374/259 75/107/263 138/379/265
f 150/399/292 328/208/328 138/379/265 82/119/269
f 81/118/267 136/376/266 329/209/329 166/418/322
f 136/376/266 76/108/261 161/412/315 329/209/329
f 329/209/329 161/412/315 49/63/154 101/320/193
f 166/418/322 329/209/329 101/320/193 42/52/175
f 85/126/276 140/382/275 330/210/330 151/400/296
f 140/382/275 78/112/274 145/391/280 330/210/330
f 330/210/330 145/391/280 79/115/284 148/396/286
f 151/400/296 330/210/330 148/396/286 88/132/290
f 87/130/288 146/393/287 331/211/331 167/420/326
f 146/393/287 80/116/282 164/415/320 331/211/331
f 331/211/331 164/415/320 51/65/163 104/323/199
f 167/420/326 331/211/331 104/323/199 48/62/185
f 45/57/183 103/322/198 332/212/332 168/421/325
f 103/322/198 52/66/165 163/414/318 332/212/332
f 332/212/332 163/414/318 77/111/270 142/386/273
f 168/421/325 332/212/332 142/386/273 86/128/278
