# This file uses centimeters as units for non-parametric coordinates.

mtllib SM_hair_03.mtl
g default
v 24.860090 104.347206 -14.704739
v 18.285116 155.623474 13.854170
v 18.362141 156.818481 -19.028513
v -24.276688 155.539520 7.165498
v -16.776960 156.761902 -19.943821
v -25.108702 104.239685 -23.655872
v -3.263132 162.021729 15.676834
v -23.813202 135.622589 -26.909323
v -30.104275 130.429108 7.109762
v -4.223921 92.052734 -19.389330
v 27.560104 125.881233 -22.361258
v 22.710674 160.555511 -1.407586
v 26.519190 125.844170 9.316632
v -1.492999 159.488571 -24.794355
v -22.966228 161.119659 -4.927698
v 31.764904 145.355927 -1.746369
v 0.152902 167.713821 -1.175352
v -28.727736 147.522919 -6.910390
v -5.248163 125.306931 -37.979004
v -28.944899 144.614273 6.193309
v -18.540035 151.766235 -24.202257
v -24.353210 147.718002 -16.078949
v -26.902618 114.498154 -28.565622
v -16.442892 95.039047 -22.280527
v 10.568930 95.682724 -16.088013
v -5.913981 106.790359 -29.787041
v 15.046748 123.744171 -32.081711
v -17.187559 127.646912 -33.679218
v -2.461516 144.826447 -31.485849
v 31.336575 138.223969 5.870735
v 28.128080 113.252731 -19.423641
v 30.721384 137.317047 -12.424804
v 22.591888 143.372192 -21.488184
v 21.595114 159.533691 -11.685295
v 28.854223 154.786118 -1.763093
v 21.189508 159.318298 8.110792
v 22.921301 143.861053 14.084603
v 12.764180 166.826340 -1.743043
v -1.864402 167.701416 8.054241
v 9.680787 161.461380 15.881833
v 10.508819 159.940384 -23.047663
v 0.185238 165.588608 -13.669643
v -11.814470 157.588745 -23.006464
v -19.624222 159.255417 -12.600149
v -13.325137 164.648087 -2.024377
v -25.010880 159.600037 2.112163
v -15.960754 159.206436 12.436588
v -26.606295 155.795395 -6.665014
v -34.770218 136.739334 -1.337651
v 26.740295 149.581451 -12.028634
v 27.618532 152.710266 8.183011
v 11.103318 166.629471 8.151253
v 11.986356 165.005920 -13.026365
v -12.087910 163.168320 -12.816483
v -15.011590 164.137817 5.919780
v -29.768604 151.501602 0.123951
v -22.109695 155.502686 -14.780589
v 11.885365 109.614662 -24.736055
v -18.637911 109.005356 -31.358398
v -12.384970 147.154083 -30.033684
v 11.599038 145.451126 -31.481544
v 33.312401 137.951553 -13.373733
v 34.499645 146.167862 -1.715707
v 30.037371 150.764359 -13.269649
v 32.187344 155.849304 -1.639570
v 29.997257 126.686768 -24.577810
v 25.291727 145.575531 -23.588209
v 20.779997 159.325165 -21.180521
v 24.246931 162.252716 -13.049578
v 25.355011 163.141312 -1.300315
v 34.072063 139.201736 7.605967
v 29.711185 126.166611 11.265133
v 30.836977 153.872360 9.766637
v 25.729286 144.723602 16.222855
v 23.688232 161.610825 9.777970
v 20.512253 157.701370 16.186619
v 12.501905 170.131332 9.783989
v 11.022772 164.634766 18.262480
v 14.185686 170.476120 -1.633826
v 0.195448 171.834808 -0.897985
v -1.732001 171.636765 10.007004
v -3.129025 165.396942 18.234503
v 13.304653 168.538589 -14.379981
v 11.935180 162.671234 -25.416439
v -1.458278 162.790710 -27.521965
v 0.125349 170.266510 -15.335188
v -13.494330 167.748657 -14.296906
v -14.578101 168.690842 -1.627992
v -13.859423 160.591080 -25.900206
v -19.871630 159.121689 -22.323263
v -22.819302 161.754379 -13.611871
v -25.757236 163.667679 -4.191067
v -16.294212 167.589630 7.844995
v -17.141926 162.195633 15.087515
v -27.520218 161.556824 4.553525
v -26.307995 157.293900 10.213831
v -33.318916 152.682449 2.412252
v -31.689999 145.234024 9.167677
v -29.918589 157.293167 -6.404317
v -30.795427 148.003433 -6.781356
v -37.900669 137.201706 0.396825
v -33.381508 131.080750 8.950033
v -25.144043 156.875793 -15.862150
v -21.360367 153.440720 -27.081938
v -25.346731 136.039490 -28.564085
v -26.377153 148.585190 -17.003696
v 19.949619 89.223869 -28.536261
v 31.406113 99.762291 -21.287403
v 20.927080 106.016365 -39.599712
v 34.090126 111.055946 -26.921591
v -2.307405 85.929749 -32.606190
v -3.609017 104.380920 -44.728226
v -4.602554 124.290024 -40.939278
v 17.916094 125.133331 -38.270809
v -19.887447 91.363991 -30.591913
v -20.701044 107.755371 -37.882526
v -27.382463 102.408356 -27.142076
v -28.107824 113.922821 -30.537424
v -18.031876 127.534996 -36.212620
v -14.132698 148.530899 -33.757172
v -2.805784 145.304398 -34.393665
v 12.768442 147.077194 -33.526749
vt 0.494653 0.079702
vt 0.562821 0.101078
vt 0.522254 0.125381
vt 0.477829 0.111223
vt 0.630958 0.135788
vt 0.558751 0.153643
vt 0.516330 0.175070
vt 0.494115 0.157107
vt 0.461278 0.140495
vt 0.417557 0.020167
vt 0.451518 0.050679
vt 0.439786 0.098537
vt 0.406482 0.075322
vt 0.425127 0.128917
vt 0.396429 0.122932
vt 0.413891 0.173534
vt 0.385571 0.163796
vt 0.445976 0.179757
vt 0.429065 0.222661
vt 0.399201 0.216959
vt 0.371724 0.211576
vt 0.479064 0.195200
vt 0.510502 0.209400
vt 0.503003 0.253931
vt 0.466830 0.236691
vt 0.451821 0.279899
vt 0.414752 0.270522
vt 0.489645 0.293927
vt 0.475733 0.313828
vt 0.443707 0.315642
vt 0.409156 0.309824
vt 0.385444 0.265123
vt 0.359425 0.259834
vt 0.377054 0.305695
vt 0.349355 0.300071
vt 0.373456 0.339456
vt 0.334251 0.343596
vt 0.410891 0.335846
vt 0.408881 0.368936
vt 0.356106 0.385728
vt 0.321668 0.385358
vt 0.452868 0.334342
vt 0.496557 0.326864
vt 0.549926 0.366382
vt 0.466781 0.362079
vt 0.733308 0.172356
vt 0.748579 0.224970
vt 0.686133 0.214697
vt 0.691947 0.156442
vt 0.744717 0.295687
vt 0.674344 0.290513
vt 0.614261 0.287252
vt 0.626645 0.203366
vt 0.722302 0.349705
vt 0.661546 0.348129
vt 0.691092 0.383003
vt 0.642935 0.383714
vt 0.593817 0.337191
vt 0.531084 0.307966
vt 0.552652 0.270552
vt 0.559411 0.213032
vt 0.499593 0.070532
vt 0.320142 0.084811
vt 0.278023 0.077773
vt 0.566429 0.092230
vt 0.232868 0.082755
vt 0.636057 0.124399
vt 0.288236 0.113079
vt 0.261793 0.118393
vt 0.321917 0.112473
vt 0.410832 0.009766
vt 0.393162 0.071645
vt 0.355486 0.085493
vt 0.457563 0.040053
vt 0.355590 0.115923
vt 0.382391 0.119487
vt 0.374065 0.161321
vt 0.345939 0.157947
vt 0.317815 0.149946
vt 0.337042 0.201389
vt 0.312268 0.191940
vt 0.360777 0.210917
vt 0.283987 0.148577
vt 0.251531 0.147502
vt 0.275783 0.186303
vt 0.237971 0.184565
vt 0.301761 0.238007
vt 0.268702 0.227462
vt 0.232969 0.218817
vt 0.260779 0.254393
vt 0.236770 0.238461
vt 0.287326 0.269040
vt 0.347542 0.258627
vt 0.325410 0.248059
vt 0.310277 0.283512
vt 0.332602 0.296457
vt 0.317789 0.339500
vt 0.296184 0.311385
vt 0.275096 0.287092
vt 0.361161 0.396024
vt 0.414298 0.374961
vt 0.312466 0.391559
vt 0.246474 0.263601
vt 0.214221 0.240725
vt 0.467485 0.370510
vt 0.547809 0.374088
vt 0.760930 0.155669
vt 0.704946 0.128230
vt 0.096282 0.075154
vt 0.800174 0.234313
vt 0.066839 0.139295
vt 0.785654 0.310877
vt 0.149512 0.089931
vt 0.127715 0.161956
vt 0.062245 0.187651
vt 0.747770 0.361246
vt 0.640704 0.391339
vt 0.695853 0.395676
vt 0.125315 0.208210
vt 0.191001 0.175463
vt 0.192913 0.212132
vt 0.205919 0.128787
vt 0.221919 0.280690
vt 0.263509 0.312903
vt 0.151781 0.249852
vt 0.279575 0.364190
vt 0.254204 0.039135
vt 0.319457 0.050518
vt 0.183236 0.042224
vt 0.363894 0.034081
vt 0.042495 0.054867
vt 0.095144 0.014648
vt 0.013203 0.108977
vt 0.009766 0.159430
vt 0.029306 0.205046
vt 0.069022 0.225589
vt 0.135477 0.021607
vn 0.973081 0.224713 -0.051159
vn 0.868125 0.231240 -0.439190
vn 0.856882 0.332076 -0.394309
vn 0.894450 0.444735 -0.046573
vn 0.699611 0.237002 -0.674073
vn 0.715441 0.287134 -0.636945
vn 0.624647 0.482286 -0.614180
vn 0.676884 0.658702 -0.328542
vn 0.665839 0.745964 -0.013968
vn 0.721031 0.008176 0.692855
vn 0.813921 0.061431 0.577718
vn 0.811787 0.333200 0.479562
vn 0.696753 0.092420 0.711332
vn 0.628157 0.665997 0.402326
vn 0.565669 0.495191 0.659397
vn 0.315667 0.893549 0.319258
vn 0.278872 0.755832 0.592409
vn 0.340744 0.939796 -0.026027
vn -0.047630 0.997767 -0.046830
vn -0.095274 0.946835 0.307290
vn -0.128253 0.810033 0.572187
vn 0.293396 0.906623 -0.303239
vn 0.280055 0.603329 -0.746701
vn -0.018030 0.639236 -0.768799
vn -0.041365 0.947786 -0.316214
vn -0.297124 0.907840 -0.295880
vn -0.313863 0.948095 -0.051044
vn -0.237147 0.669899 -0.703560
vn -0.549065 0.659279 -0.513692
vn -0.571805 0.753446 -0.324589
vn -0.598207 0.794308 -0.105939
vn -0.379212 0.879036 0.288952
vn -0.409381 0.738832 0.535289
vn -0.685085 0.681506 0.257312
vn -0.689892 0.506629 0.517084
vn -0.937996 0.328405 0.110967
vn -0.852442 0.191815 0.486364
vn -0.875949 0.384194 -0.291734
vn -0.900544 0.203932 -0.383969
vn -0.938182 0.180363 0.295439
vn -0.865803 0.147246 0.478230
vn -0.857147 0.332249 -0.393586
vn -0.709161 0.330063 -0.623016
vn -0.654987 0.192517 -0.730705
vn -0.908317 0.198787 -0.368027
vn 0.716565 -0.423101 -0.554546
vn 0.381208 -0.519760 -0.764546
vn 0.416721 -0.191013 -0.888740
vn 0.734235 -0.060678 -0.676178
vn 0.013476 -0.531702 -0.846825
vn -0.024249 -0.227039 -0.973584
vn -0.042731 0.190302 -0.980795
vn 0.377393 0.223103 -0.898777
vn -0.409098 -0.448528 -0.794646
vn -0.479392 -0.149308 -0.864807
vn -0.750497 -0.272024 -0.602293
vn -0.680304 0.025686 -0.732479
vn -0.410910 0.179503 -0.893830
vn -0.296105 0.310232 -0.903371
vn -0.006390 0.309197 -0.950977
vn 0.318345 0.324502 -0.890705
vn -0.959179 -0.277175 0.056130
vn -0.878852 -0.473295 0.060097
vn -0.826480 -0.354937 0.436979
vn -0.827083 -0.271425 0.492201
vn -0.696246 -0.255656 0.670733
vn -0.629700 0.023066 0.776496
vn -0.665091 -0.657443 0.354152
vn -0.642250 -0.479059 0.598346
vn -0.645015 -0.763712 0.026469
vn -0.699029 -0.001570 -0.715092
vn -0.678957 -0.075138 -0.730323
vn -0.790019 -0.327789 -0.518097
vn -0.782299 -0.059135 -0.620090
vn -0.604688 -0.675156 -0.422512
vn -0.545348 -0.496138 -0.675605
vn -0.249908 -0.759944 -0.600026
vn -0.288312 -0.899155 -0.329236
vn -0.313674 -0.948462 0.045052
vn 0.110750 -0.946536 -0.302991
vn 0.069013 -0.993918 0.085819
vn 0.141256 -0.810744 -0.568104
vn -0.261079 -0.913594 0.311743
vn -0.276078 -0.632406 0.723770
vn 0.074701 -0.945244 0.317699
vn 0.055764 -0.667720 0.742321
vn 0.279119 -0.955101 0.099369
vn 0.268117 -0.912250 0.309697
vn 0.242975 -0.695350 0.676352
vn 0.482031 -0.795829 0.366473
vn 0.468130 -0.703546 0.534675
vn 0.538086 -0.827494 0.160368
vn 0.404713 -0.744691 -0.530700
vn 0.367030 -0.885706 -0.284278
vn 0.675106 -0.700531 -0.231276
vn 0.706042 -0.511978 -0.489269
vn 0.854475 -0.204475 -0.477559
vn 0.930530 -0.342925 -0.128515
vn 0.843699 -0.436858 0.311973
vn 0.906988 -0.204193 -0.368344
vn 0.888758 -0.293216 0.352326
vn 0.858509 -0.173633 -0.482507
vn 0.781020 -0.435375 0.447723
vn 0.639922 -0.405454 0.652769
vn 0.842615 -0.318032 0.434574
vn 0.566033 -0.232546 0.790904
vn -0.378219 0.522996 0.763823
vn -0.446667 0.423279 0.788241
vn -0.339734 0.464926 0.817572
vn -0.329453 0.523874 0.785504
vn -0.140606 0.463215 0.875021
vn -0.215500 0.540266 0.813433
vn -0.399729 0.123019 0.908341
vn -0.062145 0.087302 0.994242
vn 0.265626 0.339378 0.902367
vn 0.059456 0.558943 0.827072
vn 0.521435 0.095610 0.847918
vn 0.489722 0.495048 0.717704
vn 0.333708 -0.060964 0.940703
vn -0.013841 -0.303923 0.952596
vn 0.300481 -0.356508 0.884655
vn -0.348507 -0.275310 0.895962
vn 0.428997 -0.902515 0.037797
vn 0.435669 -0.716327 0.545040
vn 0.431579 -0.718783 0.545060
vn 0.431280 -0.902026 0.018626
vn 0.528071 -0.654526 0.541052
vn 0.528071 -0.654526 0.541052
vn 0.545263 -0.402483 -0.735320
vn 0.504805 -0.526577 -0.684024
vn 0.495821 -0.549418 -0.672533
vn 0.545263 -0.402483 -0.735320
vn -0.523247 -0.280162 0.804812
vn -0.490204 -0.317451 0.811742
vn -0.490204 -0.317451 0.811742
vn -0.527180 -0.275573 0.803829
vn -0.572875 -0.219646 0.789664
vn -0.572875 -0.219646 0.789664
vn -0.116334 -0.585345 0.802395
vn -0.218615 -0.565291 0.795395
vn -0.218615 -0.565291 0.795395
vn -0.116956 -0.585243 0.802379
vn -0.038619 -0.619160 0.784315
vn -0.038106 -0.614721 0.787823
vn -0.019012 -0.703352 0.710588
vn -0.024451 -0.687245 0.726014
vn 0.004135 -0.767454 0.641091
vn 0.004135 -0.767454 0.641091
vn 0.648594 -0.191433 0.736668
vn 0.662880 -0.348054 0.662910
vn 0.662880 -0.348054 0.662910
vn 0.648520 -0.190948 0.736858
vn -0.370461 -0.715842 -0.591887
vn -0.397312 -0.597277 -0.696709
vn -0.395247 -0.686814 -0.609973
vn -0.382617 -0.527307 -0.758652
vn -0.372584 -0.833436 -0.408124
vn -0.372584 -0.833436 -0.408124
vn 0.618331 -0.042854 0.784748
vn 0.618332 -0.042854 0.784748
vn -0.610516 -0.553586 0.566404
vn -0.541181 -0.774052 0.328583
vn -0.538201 -0.779320 0.320937
vn -0.610516 -0.553586 0.566404
vn 0.299204 -0.695051 0.653743
vn 0.156266 -0.826847 0.540283
vn 0.182005 -0.806692 0.562248
vn 0.299204 -0.695051 0.653744
vn 0.763965 0.114820 0.634960
vn 0.767120 0.098833 0.633845
vn 0.767119 0.098833 0.633845
vn 0.764039 0.114455 0.634936
vn -0.048859 -0.890410 0.452530
vn -0.040883 -0.890302 0.453532
vn 0.758897 0.138537 0.636304
vn 0.758897 0.138537 0.636304
vn -0.365983 -0.805631 0.465849
vn -0.377684 -0.797180 0.471020
vn -0.619740 -0.551891 0.557977
vn -0.619740 -0.551891 0.557977
vn -0.857751 0.093563 0.505480
vn -0.825065 0.073202 0.560275
vn -0.830276 0.076320 0.552103
vn -0.857750 0.093563 0.505480
vn -0.797892 0.057587 0.600043
vn -0.797892 0.057587 0.600043
s 1
g SM_hair_03 chara_props
usemtl aiStandardSurface2SG
f 63/1/1 62/2/2 64/3/3 65/4/4
f 62/2/2 66/5/5 67/6/6 64/3/3
f 64/3/3 67/6/6 68/7/7 69/8/8
f 65/4/4 64/3/3 69/8/8 70/9/9
f 72/10/10 71/11/11 73/12/12 74/13/13
f 71/11/11 63/1/1 65/4/4 73/12/12
f 73/12/12 65/4/4 70/9/9 75/14/14
f 74/13/13 73/12/12 75/14/14 76/15/15
f 76/15/15 75/14/14 77/16/16 78/17/17
f 75/14/14 70/9/9 79/18/18 77/16/16
f 77/16/16 79/18/18 80/19/19 81/20/20
f 78/17/17 77/16/16 81/20/20 82/21/21
f 70/9/9 69/8/8 83/22/22 79/18/18
f 69/8/8 68/7/7 84/23/23 83/22/22
f 83/22/22 84/23/23 85/24/24 86/25/25
f 79/18/18 83/22/22 86/25/25 80/19/19
f 80/19/19 86/25/25 87/26/26 88/27/27
f 86/25/25 85/24/24 89/28/28 87/26/26
f 87/26/26 89/28/28 90/29/29 91/30/30
f 88/27/27 87/26/26 91/30/30 92/31/31
f 82/21/21 81/20/20 93/32/32 94/33/33
f 81/20/20 80/19/19 88/27/27 93/32/32
f 93/32/32 88/27/27 92/31/31 95/34/34
f 94/33/33 93/32/32 95/34/34 96/35/35
f 96/35/35 95/34/34 97/36/36 98/37/37
f 95/34/34 92/31/31 99/38/38 97/36/36
f 97/36/36 99/38/38 100/39/39 101/40/40
f 98/37/37 97/36/36 101/40/40 102/41/41
f 92/31/31 91/30/30 103/42/42 99/38/38
f 91/30/30 90/29/29 104/43/43 103/42/42
f 103/42/42 104/43/43 105/44/44 106/45/45
f 99/38/38 103/42/42 106/45/45 100/39/39
f 108/46/46 107/47/47 109/48/48 110/49/49
f 107/47/47 111/50/50 112/51/51 109/48/48
f 109/48/48 112/51/51 113/52/52 114/53/53
f 110/49/49 109/48/48 114/53/53 66/5/5
f 111/50/50 115/54/54 116/55/55 112/51/51
f 115/54/54 117/56/56 118/57/57 116/55/55
f 116/55/55 118/57/57 105/44/44 119/58/58
f 112/51/51 116/55/55 119/58/58 113/52/52
f 113/52/52 119/58/58 120/59/59 121/60/60
f 119/58/58 105/44/44 104/43/43 120/59/59
f 120/59/59 104/43/43 90/29/29 89/28/28
f 121/60/60 120/59/59 89/28/28 85/24/24
f 66/5/5 114/53/53 122/61/61 67/6/6
f 114/53/53 113/52/52 121/60/60 122/61/61
f 122/61/61 121/60/60 85/24/24 84/23/23
f 67/6/6 122/61/61 84/23/23 68/7/7
s 3
f 16/128/62 35/63/63 50/64/64 32/127/65
f 32/127/65 50/64/64 33/66/66 11/129/67
f 50/64/64 34/68/68 3/69/69 33/66/66
f 35/63/63 12/70/70 34/68/68 50/64/64
f 13/71/71 37/72/72 51/73/73 30/130/74
f 30/130/74 51/73/73 35/63/63 16/128/62
f 51/73/73 36/75/75 12/70/70 35/63/63
f 37/72/72 2/76/76 36/75/75 51/73/73
f 2/76/76 40/77/77 52/78/78 36/75/75
f 36/75/75 52/78/78 38/79/79 12/70/70
f 52/78/78 39/80/80 17/81/81 38/79/79
f 40/77/77 7/82/82 39/80/80 52/78/78
f 12/70/70 38/79/79 53/83/83 34/68/68
f 34/68/68 53/83/83 41/84/84 3/69/69
f 53/83/83 42/85/85 14/86/86 41/84/84
f 38/79/79 17/81/81 42/85/85 53/83/83
f 17/81/81 45/87/87 54/88/88 42/85/85
f 42/85/85 54/88/88 43/89/89 14/86/86
f 54/88/88 44/90/90 5/91/91 43/89/89
f 45/87/87 15/92/92 44/90/90 54/88/88
f 7/82/82 47/93/93 55/94/94 39/80/80
f 39/80/80 55/94/94 45/87/87 17/81/81
f 55/94/94 46/95/95 15/92/92 45/87/87
f 47/93/93 4/96/96 46/95/95 55/94/94
f 4/96/96 20/97/97 56/98/98 46/95/95
f 46/95/95 56/98/98 48/99/99 15/92/92
f 56/98/98 49/126/100 18/124/101 48/99/99
f 20/97/97 9/102/102 49/126/100 56/98/98
f 15/92/92 48/99/99 57/103/103 44/90/90
f 44/90/90 57/103/103 21/104/104 5/91/91
f 57/103/103 22/123/105 8/125/106 21/104/104
f 48/99/99 18/124/101 22/123/105 57/103/103
f 1/132/107 31/137/108 58/109/109 25/131/110
f 25/131/110 58/109/109 26/111/111 10/133/112
f 58/109/109 27/113/113 19/114/114 26/111/111
f 31/137/108 11/129/67 27/113/113 58/109/109
f 10/133/112 26/111/111 59/115/115 24/134/116
f 24/134/116 59/115/115 23/136/117 6/135/118
f 59/115/115 28/119/119 8/125/106 23/136/117
f 26/111/111 19/114/114 28/119/119 59/115/115
f 19/114/114 29/120/120 60/121/121 28/119/119
f 28/119/119 60/121/121 21/104/104 8/125/106
f 60/121/121 43/89/89 5/91/91 21/104/104
f 29/120/120 14/86/86 43/89/89 60/121/121
f 11/129/67 33/66/66 61/122/122 27/113/113
f 27/113/113 61/122/122 29/120/120 19/114/114
f 61/122/122 41/84/84 14/86/86 29/120/120
f 33/66/66 3/69/69 41/84/84 61/122/122
s 6
f 16/62/123 32/65/124 62/2/125 63/1/126
f 32/65/124 11/67/127 66/5/128 62/2/125
f 13/71/129 30/74/130 71/11/131 72/10/132
s 7
f 37/72/133 13/71/134 72/10/135 74/13/136
s 6
f 30/74/130 16/62/123 63/1/126 71/11/131
s 7
f 2/76/137 37/72/133 74/13/136 76/15/138
s 8
f 40/77/139 2/76/140 76/15/141 78/17/142
f 7/82/143 40/77/139 78/17/142 82/21/144
f 47/93/145 7/82/143 82/21/144 94/33/146
f 4/96/147 47/93/145 94/33/146 96/35/148
s 9
f 20/97/149 4/96/150 96/35/151 98/37/152
s 10
f 18/101/153 49/100/154 101/40/155 100/39/156
f 49/100/154 9/102/157 102/41/158 101/40/155
s 9
f 9/102/159 20/97/149 98/37/152 102/41/160
s 10
f 8/106/161 22/105/162 106/45/163 105/44/164
f 22/105/162 18/101/153 100/39/156 106/45/163
s 11
f 1/107/165 25/110/166 107/47/167 108/46/168
s 12
f 31/108/169 1/107/170 108/46/171 110/49/172
s 11
f 25/110/166 10/112/173 111/50/174 107/47/167
s 12
f 11/67/175 31/108/169 110/49/172 66/5/176
s 11
f 10/112/173 24/116/177 115/54/178 111/50/174
f 24/116/177 6/118/179 117/56/180 115/54/178
s 13
f 6/118/181 23/117/182 118/57/183 117/56/184
f 23/117/182 8/106/185 105/44/186 118/57/183
