# This file uses centimeters as units for non-parametric coordinates.

mtllib SM_hair_01.mtl
g default
v 20.120331 153.048492 17.171446
v 18.208851 156.676880 -19.183247
v -17.848591 155.694550 16.076843
v -18.212893 156.645660 -19.370056
v -1.316125 164.874008 17.217472
v -21.934130 129.947098 -25.710215
v 23.970089 142.172043 -24.326794
v 23.021164 161.408340 -1.372707
v 0.140873 161.188293 -24.585550
v -23.021156 161.408295 -1.372704
v 29.736010 124.939140 -6.102593
v -0.000000 169.824860 -1.308865
v -31.808979 136.022171 -3.449187
v -0.762440 124.605019 -31.098341
v -24.128050 142.367126 15.858999
v -21.555323 146.685333 -24.088814
v -26.879555 121.662888 -12.661307
v 12.446492 136.984192 -30.330956
v -12.078118 135.294449 -30.459410
v -0.126737 142.750320 -31.574198
v 29.462334 138.196838 -14.742200
v 21.636080 150.134735 -22.427723
v 21.424400 159.851120 -11.941423
v 28.894543 148.208160 -2.744776
v 23.180744 159.069778 8.127388
v 16.544277 144.710327 27.648809
v 12.554497 167.700241 -1.327985
v -0.928755 169.364349 9.258341
v 14.961362 158.932846 15.411335
v 10.803501 159.939697 -22.294966
v 0.000000 167.774414 -13.631407
v -10.570878 159.643921 -23.535109
v -21.426966 159.850464 -11.948559
v -12.554420 167.699799 -1.327957
v -21.304815 159.659958 9.134131
v -10.448459 161.690308 17.829235
v -29.426617 150.943863 -1.768204
v 27.297361 149.997665 -12.978078
v 25.732267 148.092377 13.355351
v 12.285812 166.155838 9.494352
v 11.677896 165.764801 -12.775737
v -11.677895 165.764801 -12.775737
v -10.752817 166.251511 10.327808
v -27.441406 149.736801 9.627105
v -28.140175 145.045670 -16.471031
v -11.169555 148.138199 -30.007339
v 11.661113 149.090439 -28.282764
v 31.694653 139.066238 -15.526654
v 32.208042 125.625992 -6.244369
v 29.451611 150.944153 -13.784427
v 31.219084 149.686142 -2.412149
v 25.624516 142.724319 -26.006500
v 23.239180 150.910553 -24.082819
v 19.622429 158.094971 -20.624048
v 23.061577 161.491119 -12.787103
v 24.764481 163.153488 -1.357141
v 27.641123 149.344482 14.207179
v 24.602274 160.812775 9.124436
v 18.047152 145.755127 29.346834
v 21.687056 154.374405 18.478605
v 13.015319 168.241058 10.561407
v 15.925024 160.802261 16.650509
v 13.430705 170.005600 -1.305595
v -0.000000 172.291534 -1.283664
v -0.876318 171.422302 10.394378
v -1.557611 166.894165 18.454103
v 12.532292 167.913132 -13.635838
v 11.628745 161.561752 -23.941118
v 0.110517 162.087875 -25.759106
v -0.000000 170.079010 -14.511160
v -12.532291 167.913132 -13.635839
v -13.430705 170.005600 -1.305595
v -11.378021 161.100876 -24.812447
v -19.621128 158.079453 -20.717905
v -23.061647 161.491104 -12.787297
v -24.764481 163.153488 -1.357140
v -11.591642 168.226562 11.363793
v -11.320788 163.478485 19.217829
v -22.985474 161.272385 10.020805
v -19.351757 157.082794 17.414171
v -29.309858 150.963013 10.576576
v -26.073797 142.961349 16.964811
v -31.612122 151.802261 -1.615330
v -30.195692 146.217316 -17.007666
v -23.120649 147.964890 -25.388262
v -23.545677 130.555649 -27.344643
v -29.047274 121.622841 -13.514153
v -34.102921 136.215866 -3.680926
v -12.902236 136.059967 -32.630726
v -0.796939 124.449905 -33.430283
v -11.985292 149.160721 -31.673334
v -0.045061 144.152679 -33.939072
v 13.256189 137.584091 -32.569305
v 12.497065 150.220642 -30.388367
vt 0.380340 0.646433
vt 0.350870 0.737652
vt 0.355995 0.695330
vt 0.304312 0.698626
vt 0.835119 0.311078
vt 0.312128 0.738035
vt 0.282014 0.738909
vt 0.263389 0.714183
vt 0.240029 0.683598
vt 0.887165 0.284480
vt 0.935618 0.264685
vt 0.852379 0.247432
vt 0.900654 0.241191
vt 0.849558 0.201641
vt 0.888465 0.217071
vt 0.200219 0.720937
vt 0.170646 0.770494
vt 0.848510 0.153739
vt 0.887753 0.156992
vt 0.233680 0.746249
vt 0.268741 0.766033
vt 0.257405 0.801290
vt 0.214278 0.786162
vt 0.201802 0.828964
vt 0.817284 0.101951
vt 0.244604 0.835695
vt 0.233275 0.864369
vt 0.202882 0.873009
vt 0.166426 0.883576
vt 0.859624 0.117942
vt 0.898401 0.124069
vt 0.871531 0.074788
vt 0.909522 0.091397
vt 0.902081 0.034857
vt 0.935651 0.049132
vt 0.186675 0.944071
vt 0.234930 0.978878
vt 0.242002 0.915452
vt 0.264824 0.887382
vt 0.317843 0.928001
vt 0.299424 0.983058
vt 0.380346 0.852625
vt 0.363009 0.789936
vt 0.334346 0.884927
vt 0.286595 0.854239
vt 0.317019 0.825758
vt 0.311000 0.778572
vt 0.869563 0.009766
vt 0.836602 0.056056
vt 0.159932 0.827726
vt 0.808531 0.152809
vt 0.808872 0.202893
vt 0.815322 0.250589
vt 0.300012 0.650313
vt 0.982990 0.788932
vt 0.937566 0.818263
vt 0.927702 0.857862
vt 0.962065 0.868081
vt 0.893931 0.819431
vt 0.891482 0.848816
vt 0.889761 0.875863
vt 0.912223 0.893922
vt 0.939632 0.917060
vt 0.252982 0.430857
vt 0.269171 0.376014
vt 0.218913 0.370541
vt 0.221492 0.403665
vt 0.234894 0.487445
vt 0.225768 0.441144
vt 0.178863 0.406596
vt 0.198733 0.432968
vt 0.176178 0.370071
vt 0.131658 0.374710
vt 0.134239 0.410529
vt 0.138230 0.441503
vt 0.883957 0.919617
vt 0.907636 0.950470
vt 0.864910 0.887775
vt 0.833155 0.899325
vt 0.849285 0.937853
vt 0.866126 0.977080
vt 0.812400 0.951764
vt 0.818204 0.990027
vt 0.802365 0.912730
vt 0.776923 0.926304
vt 0.774015 0.955039
vt 0.771144 0.990234
vt 0.102441 0.422571
vt 0.105837 0.451998
vt 0.087820 0.384413
vt 0.047719 0.398557
vt 0.062036 0.432011
vt 0.073039 0.459541
vt 0.028733 0.452712
vt 0.031083 0.487404
vt 0.009766 0.417332
vt 0.726950 0.923037
vt 0.725993 0.977985
vt 0.750456 0.898944
vt 0.709690 0.860602
vt 0.657256 0.885989
vt 0.678968 0.946356
vt 0.774825 0.788949
vt 0.753477 0.842406
vt 0.781396 0.875490
vt 0.804853 0.841763
vt 0.839888 0.807712
vt 0.851939 0.847984
vt 0.373170 0.651805
vt 0.346808 0.694298
vt 0.294611 0.659469
vt 0.342612 0.737326
vt 0.883153 0.276691
vt 0.829919 0.302898
vt 0.928721 0.264630
vt 0.894023 0.246742
vt 0.880086 0.218603
vt 0.880123 0.154649
vt 0.890569 0.122125
vt 0.900951 0.088907
vt 0.896675 0.041768
vt 0.928793 0.050092
vt 0.863198 0.015170
vt 0.311292 0.923593
vt 0.295132 0.976960
vt 0.235627 0.971386
vt 0.188587 0.935246
vt 0.373658 0.850509
vt 0.326544 0.880311
vt 0.354407 0.789753
vn 0.994523 0.095891 -0.041587
vn 0.978177 0.145103 -0.148712
vn 0.917950 0.320667 -0.233541
vn 0.953529 0.301271 -0.004356
vn 0.655668 0.268402 -0.705733
vn 0.630198 0.379746 -0.677233
vn 0.558577 0.588657 -0.584359
vn 0.685160 0.666511 -0.293801
vn 0.747589 0.664083 0.010208
vn 0.842231 0.400266 0.361157
vn 0.757235 0.583984 0.292503
vn 0.734182 0.408605 0.542234
vn 0.681513 0.474057 0.557503
vn 0.351648 0.863688 0.361091
vn 0.412447 0.692425 0.591976
vn 0.355381 0.934506 -0.020075
vn 0.003781 0.999498 -0.031460
vn 0.025055 0.949731 0.312062
vn 0.044532 0.821350 0.568684
vn 0.321194 0.882862 -0.342622
vn 0.253407 0.642604 -0.723081
vn 0.014116 0.636575 -0.771086
vn -0.000791 0.930295 -0.366812
vn -0.320676 0.881777 -0.345885
vn -0.369106 0.929328 -0.010496
vn -0.254612 0.633105 -0.730993
vn -0.583381 0.558939 -0.589283
vn -0.698662 0.638484 -0.322816
vn -0.723569 0.690062 -0.016177
vn -0.381290 0.871400 0.308674
vn -0.417224 0.747772 0.516489
vn -0.676041 0.640000 0.365197
vn -0.618749 0.503544 0.602987
vn -0.772216 0.445676 0.452831
vn -0.668211 0.359671 0.651253
vn -0.925653 0.352783 -0.136790
vn -0.908706 0.143290 -0.392074
vn -0.703165 0.206671 -0.680329
vn -0.777525 0.007121 -0.628812
vn -0.916961 -0.007782 -0.398901
vn -0.963842 0.022765 -0.265501
vn 0.005702 0.035377 -0.999358
vn -0.290508 0.058982 -0.955053
vn -0.264307 0.284489 -0.921525
vn 0.017348 0.182307 -0.983089
vn 0.207498 0.100529 -0.973056
vn 0.238041 0.321763 -0.916409
vn -0.995621 -0.089361 0.027449
vn -0.960752 -0.277404 0.001450
vn -0.922458 -0.314960 0.223319
vn -0.981544 -0.138299 0.132075
vn -0.629391 -0.380428 0.677600
vn -0.657565 -0.269109 0.703697
vn -0.690916 -0.662582 0.289171
vn -0.555882 -0.589126 0.586452
vn -0.758325 -0.651831 -0.007759
vn -0.848564 -0.387230 -0.360545
vn -0.776812 -0.562545 -0.283032
vn -0.731357 -0.406476 -0.547625
vn -0.679834 -0.471454 -0.561745
vn -0.416396 -0.691023 -0.590849
vn -0.358121 -0.860345 -0.362707
vn -0.355533 -0.934275 0.026964
vn -0.027679 -0.951355 -0.306850
vn -0.005399 -0.999110 0.041826
vn -0.057030 -0.819514 -0.570214
vn -0.329574 -0.883987 0.331584
vn -0.275869 -0.628231 0.727476
vn -0.001311 -0.938078 0.346423
vn -0.029992 -0.629962 0.776047
vn 0.371230 -0.928384 0.017081
vn 0.328527 -0.884529 0.331177
vn 0.267028 -0.625132 0.733420
vn 0.700260 -0.635643 0.324953
vn 0.593850 -0.555767 0.581778
vn 0.725410 -0.688057 0.018922
vn 0.419753 -0.744081 -0.519761
vn 0.386489 -0.869054 -0.308822
vn 0.677019 -0.635227 -0.371661
vn 0.619777 -0.498909 -0.605777
vn 0.664515 -0.362590 -0.653413
vn 0.766753 -0.446718 -0.461013
vn 0.925975 -0.350678 0.139987
vn 0.909919 -0.132311 0.393118
vn 0.702557 -0.198069 0.683507
vn 0.918933 0.018397 0.393985
vn 0.777296 0.009448 0.629064
vn 0.964871 -0.013675 0.262369
vn -0.012269 -0.027985 0.999533
vn -0.028423 -0.160841 0.986571
vn 0.260604 -0.269120 0.927179
vn 0.282619 -0.041103 0.958351
vn -0.245998 -0.306110 0.919664
vn -0.200608 -0.101422 0.974408
vn 0.020707 -0.556812 -0.830381
vn 0.046155 -0.719413 -0.693048
vn 0.054621 -0.768873 -0.637064
vn 0.020707 -0.556812 -0.830381
vn 0.027954 -0.149077 0.988431
vn 0.027954 -0.149077 0.988431
vn 0.027954 -0.149077 0.988431
vn 0.027954 -0.149077 0.988430
vn 0.265383 -0.944116 -0.195494
vn 0.262328 -0.944200 -0.199176
vn 0.508085 -0.855008 0.103976
vn 0.520516 -0.848510 0.095364
vn 0.520516 -0.848510 0.095364
vn 0.508480 -0.854806 0.103704
vn 0.495764 -0.861154 0.112391
vn 0.495764 -0.861154 0.112391
vn -0.734094 0.630324 0.252583
vn -0.734094 0.630324 0.252583
vn -0.734094 0.630324 0.252583
vn -0.734094 0.630324 0.252583
vn -0.254187 -0.434603 0.864007
vn -0.529173 -0.231473 0.816331
vn -0.529173 -0.231473 0.816331
vn -0.236829 -0.445086 0.863603
vn 0.014143 -0.522287 0.852653
vn 0.044828 -0.521280 0.852208
vn 0.235293 -0.515545 0.823924
vn 0.235395 -0.514470 0.824567
vn 0.234252 -0.526291 0.817401
vn 0.234252 -0.526291 0.817401
vn -0.535997 -0.808058 -0.244438
vn -0.576685 -0.650981 -0.493617
vn -0.576685 -0.650981 -0.493617
vn -0.528069 -0.821904 -0.213582
vn 0.464974 -0.240948 0.851906
vn 0.464974 -0.240948 0.851906
vn 0.464974 -0.240948 0.851906
vn 0.464974 -0.240948 0.851906
vn -0.456067 -0.889927 0.005694
vn -0.456067 -0.889927 0.005694
vn 0.203656 -0.858921 -0.469872
vn -0.024900 -0.972561 0.231312
vn -0.034333 -0.964692 0.261135
vn 0.208449 -0.858943 -0.467724
vn -0.210282 -0.586870 0.781898
vn -0.210282 -0.586870 0.781898
vn -0.044430 -0.114776 0.992397
vn -0.044430 -0.114776 0.992397
vn -0.044430 -0.114776 0.992397
vn -0.044430 -0.114776 0.992397
vn 0.075000 -0.995743 0.053581
vn -0.354902 -0.912922 -0.201538
vn -0.279380 -0.928712 -0.243804
vn 0.063025 -0.996575 0.053527
vn 0.579884 -0.814422 0.021227
vn 0.549583 -0.835311 0.014646
s 1
g SM_hair_01 chara_props
usemtl aiStandardSurface2SG
f 49/109/1 48/110/2 50/4/3 51/111/4
f 48/110/2 52/112/5 53/6/6 50/4/3
f 50/4/3 53/6/6 54/7/7 55/8/8
f 51/111/4 50/4/3 55/8/8 56/9/9
f 57/113/10 51/114/4 56/53/9 58/12/11
f 59/115/12 57/113/10 58/12/11 60/116/13
f 60/116/13 58/12/11 61/14/14 62/117/15
f 58/12/11 56/53/9 63/52/16 61/14/14
f 61/14/14 63/52/16 64/51/17 65/18/18
f 62/117/15 61/14/14 65/18/18 66/118/19
f 56/9/9 55/8/8 67/20/20 63/16/16
f 55/8/8 54/7/7 68/21/21 67/20/20
f 67/20/20 68/21/21 69/22/22 70/23/23
f 63/16/16 67/20/20 70/23/23 64/17/17
f 64/17/17 70/23/23 71/24/24 72/50/25
f 70/23/23 69/22/22 73/26/26 71/24/24
f 71/24/24 73/26/26 74/27/27 75/28/28
f 72/50/25 71/24/24 75/28/28 76/29/29
f 66/118/19 65/18/18 77/30/30 78/119/31
f 65/18/18 64/51/17 72/25/25 77/30/30
f 77/30/30 72/25/25 76/49/29 79/32/32
f 78/119/31 77/30/30 79/32/32 80/120/33
f 80/120/33 79/32/32 81/121/34 82/122/35
f 79/32/32 76/49/29 83/123/36 81/121/34
f 76/29/29 75/28/28 84/38/37 83/127/36
f 75/28/28 74/27/27 85/39/38 84/38/37
f 84/38/37 85/39/38 86/124/39 87/125/40
f 83/127/36 84/38/37 87/125/40 88/126/41
f 90/128/42 89/129/43 91/45/44 92/46/45
f 89/129/43 86/124/39 85/39/38 91/45/44
f 91/45/44 85/39/38 74/27/27 73/26/26
f 92/46/45 91/45/44 73/26/26 69/22/22
f 52/112/5 93/130/46 94/47/47 53/6/6
f 93/130/46 90/128/42 92/46/45 94/47/47
f 94/47/47 92/46/45 69/22/22 68/21/21
f 53/6/6 94/47/47 68/21/21 54/7/7
s 2
f 11/55/48 24/58/49 38/57/50 21/56/51
f 21/56/51 38/57/50 22/60/52 7/59/53
f 38/57/50 23/62/54 2/61/55 22/60/52
f 24/58/49 8/63/56 23/62/54 38/57/50
f 39/64/57 25/67/58 8/66/56 24/65/49
f 26/68/59 1/69/60 25/67/58 39/64/57
f 1/69/60 29/71/61 40/70/62 25/67/58
f 25/67/58 40/70/62 27/72/63 8/66/56
f 40/70/62 28/74/64 12/73/65 27/72/63
f 29/71/61 5/75/66 28/74/64 40/70/62
f 8/63/56 27/77/63 41/76/67 23/62/54
f 23/62/54 41/76/67 30/78/68 2/61/55
f 41/76/67 31/80/69 9/79/70 30/78/68
f 27/77/63 12/81/65 31/80/69 41/76/67
f 12/81/65 34/83/71 42/82/72 31/80/69
f 31/80/69 42/82/72 32/84/73 9/79/70
f 42/82/72 33/86/74 4/85/75 32/84/73
f 34/83/71 10/87/76 33/86/74 42/82/72
f 5/75/66 36/89/77 43/88/78 28/74/64
f 28/74/64 43/88/78 34/90/71 12/73/65
f 43/88/78 35/92/79 10/91/76 34/90/71
f 36/89/77 3/93/80 35/92/79 43/88/78
f 3/93/80 15/95/81 44/94/82 35/92/79
f 35/92/79 44/94/82 37/96/83 10/91/76
f 10/87/76 37/98/83 45/97/84 33/86/74
f 33/86/74 45/97/84 16/99/85 4/85/75
f 45/97/84 17/101/86 6/100/87 16/99/85
f 37/98/83 13/102/88 17/101/86 45/97/84
f 14/103/89 20/106/90 46/105/91 19/104/92
f 19/104/92 46/105/91 16/99/85 6/100/87
f 46/105/91 32/84/73 4/85/75 16/99/85
f 20/106/90 9/79/70 32/84/73 46/105/91
f 7/59/53 22/60/52 47/108/93 18/107/94
f 18/107/94 47/108/93 20/106/90 14/103/89
f 47/108/93 30/78/68 9/79/70 20/106/90
f 22/60/52 2/61/55 30/78/68 47/108/93
s 4
f 11/1/95 21/3/96 48/110/97 49/109/98
s off
f 24/54/99 11/1/100 49/109/101 51/111/102
s 4
f 21/3/96 7/2/103 52/112/104 48/110/97
s 5
f 39/10/105 24/5/106 51/114/107 57/113/108
f 26/11/109 39/10/105 57/113/108 59/115/110
s off
f 1/13/111 26/11/112 59/115/113 60/116/114
s 6
f 29/15/115 1/13/116 60/116/117 62/117/118
f 5/19/119 29/15/115 62/117/118 66/118/120
f 36/31/121 5/19/119 66/118/120 78/119/122
f 3/33/123 36/31/121 78/119/122 80/120/124
s 7
f 44/34/125 15/35/126 82/122/127 81/121/128
s off
f 15/35/129 3/33/130 80/120/131 82/122/132
s 7
f 37/48/133 44/34/125 81/121/128 83/123/134
s 4
f 6/40/135 17/41/136 87/125/137 86/124/138
f 17/41/136 13/37/139 88/126/140 87/125/137
s off
f 13/37/141 37/36/142 83/127/143 88/126/144
s 4
f 14/42/145 19/44/146 89/129/147 90/128/148
f 19/44/146 6/40/135 86/124/138 89/129/147
f 7/2/103 18/43/149 93/130/150 52/112/104
f 18/43/149 14/42/145 90/128/148 93/130/150
