# This file uses centimeters as units for non-parametric coordinates.

mtllib SM_hair_01.mtl
g default
v 17.017267 152.803848 17.376562
v 16.728498 155.035110 -17.440872
v -21.900114 151.839691 12.070190
v -17.408325 154.992188 -19.060574
v -0.393894 157.088745 19.850056
v -21.484211 131.481110 -22.467077
v 22.327005 141.337173 -21.914038
v 20.655020 158.906219 -1.164696
v -1.047776 156.922012 -22.781099
v -20.947901 159.133392 -1.567634
v 28.944620 132.691772 -2.500420
v 0.934770 165.929367 3.925796
v -29.224295 132.995270 -8.411427
v -0.262184 129.868286 -30.467821
v -25.094984 142.990234 17.447021
v -19.879175 145.594589 -22.289635
v -27.332470 126.177948 -11.004831
v 12.187557 137.326538 -28.813097
v -10.500848 135.987228 -28.610748
v 0.890172 144.541153 -28.007027
v 28.900408 137.224976 -8.570271
v 19.491962 148.790253 -19.798449
v 19.236301 157.726624 -10.757220
v 26.899336 146.616287 -0.309861
v 20.125496 156.216187 8.131824
v 17.351263 150.196503 23.746660
v 11.479548 164.892410 -0.820722
v 1.218919 160.545700 19.595203
v 10.956120 155.908127 17.377876
v 10.121140 157.196838 -20.287281
v 0.015325 166.135651 -13.026852
v -11.035522 156.836777 -22.099903
v -20.096039 157.995438 -11.876616
v -11.052479 164.805893 -0.336896
v -20.523531 156.568130 7.120070
v -3.244647 154.534866 22.965422
v -27.819370 149.325760 -2.149491
v 24.260221 148.348389 -9.893511
v 25.044451 146.902649 12.859431
v 10.950049 158.595154 13.564932
v 10.952244 163.611786 -12.083077
v -11.158412 164.195084 -12.429825
v -6.278531 161.643021 13.236872
v -28.682384 147.148087 8.312378
v -25.185926 143.871368 -15.254807
v -10.048053 146.678619 -26.829130
v 10.838669 147.310318 -25.794432
v 31.710032 138.080978 -9.492030
v 30.795113 133.172256 -2.674709
v 29.612192 150.852234 -12.005936
v 30.937632 148.479416 -0.266249
v 25.077980 142.541336 -25.000937
v 23.590099 151.403915 -24.375914
v 20.416739 159.069824 -21.517748
v 23.535587 162.011856 -13.113457
v 25.164803 163.074142 -1.368694
v 27.576881 148.410858 13.885718
v 23.878904 159.963776 10.214561
v 18.792200 151.183182 24.908005
v 19.160702 155.118515 19.390989
v 14.608261 164.498428 20.093071
v 13.702950 160.274048 23.077084
v 13.529479 170.344513 -1.056457
v 1.076718 170.808502 4.341988
v 1.428973 166.862762 26.173885
v -0.284542 161.555084 24.730587
v 12.621606 167.822235 -13.821314
v 11.920313 161.204132 -24.548271
v -0.903201 160.193985 -26.676878
v 0.014152 169.442642 -14.332954
v -12.528956 167.591385 -13.790451
v -12.834412 169.322571 -0.233275
v -12.425713 160.082901 -25.224199
v -20.124119 157.758530 -21.620829
v -23.157530 160.948303 -13.366301
v -24.634054 162.800934 -1.526296
v -7.372312 166.334030 16.694307
v -3.694993 157.994965 25.923447
v -24.566078 160.479614 9.118000
v -24.704224 154.265717 14.587061
v -31.965420 149.123856 9.569510
v -27.095505 143.722702 18.585915
v -31.872505 150.895035 -2.466502
v -29.193640 145.399185 -16.579594
v -23.004055 147.279205 -25.443140
v -23.808578 131.999146 -24.766142
v -29.486362 126.348564 -12.146606
v -31.147038 133.263290 -9.189065
v -11.590849 136.780548 -32.206261
v -0.295679 130.139069 -33.566788
v -11.814636 148.322800 -31.667355
v 0.917546 146.262238 -33.411530
v 13.149888 138.061691 -32.291058
v 12.593679 149.679688 -31.163088
v 23.854889 153.824341 -0.207966
v 20.171850 158.606445 -6.101574
v 23.395906 151.209290 10.279195
v 20.649445 158.231415 3.609738
v 26.926989 149.822021 6.297667
v 16.956263 151.604492 21.699108
v 18.768089 153.019531 13.044495
v 19.832106 148.500900 20.566708
v 15.062035 154.523209 15.228892
v 10.878237 156.732941 15.791165
v 15.793030 158.960464 8.519097
v 11.264326 162.114990 7.525284
v 16.445963 162.500244 -1.511492
v 7.001316 159.867081 20.686930
v 2.012869 161.905182 15.928648
v 6.378191 165.829193 1.980344
v 4.482723 157.167145 20.902643
v -0.191195 158.498886 18.830090
v 11.353642 165.009857 -6.896044
v 15.508945 161.056702 -11.420288
v 10.438820 160.967422 -16.560646
v 14.133993 156.166626 -18.828115
v 5.704016 165.382355 -12.682799
v -0.150206 162.765961 -18.208054
v 4.874650 157.367889 -21.729288
v 0.109977 167.457382 -6.764789
v -5.168856 165.967468 1.722858
v -11.470178 165.260712 -6.829632
v -5.729358 165.715347 -12.882280
v -10.785133 161.486298 -17.599669
v -6.469480 156.875763 -22.899542
v -15.989885 161.772888 -11.873364
v -18.724150 156.666199 -16.078321
v -14.776951 156.313858 -20.449368
v -16.388165 162.544998 -1.377854
v -20.895712 158.960190 -6.845587
v -1.733922 155.417709 22.188387
v -3.827511 156.893051 18.528690
v -2.372050 161.063156 16.181684
v -9.794515 163.824692 6.809355
v -12.903455 160.543777 9.487982
v -20.609571 158.235565 3.332693
v -6.630032 154.613556 19.700809
v -21.632694 154.096283 9.410967
v -25.179678 145.383591 15.757880
v -26.719391 143.416031 14.984544
v -26.087702 151.230484 7.190946
v -27.990437 150.048431 3.649150
v -24.680513 154.708008 -1.733124
v -26.304987 145.828110 -10.030008
v -23.382721 152.314453 -13.181761
v -23.320110 144.351883 -18.980227
v -18.688829 151.453033 -20.612652
v -26.078375 133.360992 -14.096002
v -25.019720 127.495583 -15.866779
v -20.767155 137.893143 -22.898455
v -28.445711 139.272141 -7.434379
v -28.494226 129.038727 -9.140276
v 0.967056 137.141495 -29.231768
v -4.675393 145.415741 -27.847275
v -9.616107 141.327042 -27.590479
v -5.546824 132.771439 -29.854498
v -15.047550 146.669510 -24.925377
v -16.294945 134.518784 -27.214737
v -10.781252 151.565765 -25.084373
v -0.583701 150.409485 -26.053391
v 15.675077 148.487228 -23.234594
v 11.523106 141.893906 -27.456078
v 17.807663 140.279785 -26.158424
v 5.719177 145.390244 -27.471132
v 6.012675 132.770905 -30.091204
v 10.297625 152.354294 -23.373505
v 30.435276 136.014847 -9.091456
v 30.113316 129.800507 -1.994086
v 29.579874 144.722214 1.264271
v 24.137712 140.223541 -23.770546
v 26.739578 145.840256 14.256815
v 17.128639 150.418823 26.225775
v 17.011892 154.301193 19.873434
v 11.943930 157.639343 20.691345
v -0.004141 158.494064 22.925694
v -3.714174 155.503983 26.165480
v -22.067640 151.898895 15.181346
v -24.781174 141.853683 19.823507
v -31.160606 146.194138 9.282359
v -30.898649 148.231201 -0.241909
v -28.830698 123.635818 -10.073771
v -22.681559 129.086380 -23.629524
v -30.441057 132.846725 -7.979876
v -11.715343 133.633377 -30.817640
v -0.478417 127.170792 -32.116192
v 13.094258 135.660812 -30.784342
v 31.248423 134.015915 -5.445295
v 31.370874 143.435928 -10.646336
v 30.664951 149.399246 -6.304026
v 31.171694 137.442154 -3.092205
v 29.445980 141.287415 -16.172834
v 24.661890 146.547348 -25.049944
v 27.332067 151.374207 -18.697924
v 22.017744 155.906143 -23.023901
v 21.969944 160.584198 -18.125620
v 27.311489 156.956802 -12.679287
v 24.613506 162.851959 -7.378976
v 28.721022 156.780899 -0.413742
v 30.167448 152.018738 6.663089
v 24.925840 162.375214 4.590872
v 26.867918 153.755066 11.899032
v 21.668880 149.824677 21.888248
v 21.988119 156.020645 15.581676
v 18.857784 153.121414 23.308178
v 19.204931 163.723419 11.386837
v 14.677225 162.451706 23.715734
v 17.267164 157.552109 17.911232
v 19.800285 167.599274 -1.580870
v 13.898860 168.038376 9.867730
v 7.367483 171.122208 1.855301
v 3.214556 167.961075 20.900585
v 9.705493 167.026230 28.617357
v -0.563205 164.238449 25.133114
v 5.736150 161.901291 27.735485
v 18.458176 165.603195 -13.477546
v 13.119467 169.529724 -7.778487
v 17.002924 160.309525 -23.051794
v 12.192464 165.168777 -19.473413
v 5.781125 160.942627 -25.811796
v -0.061634 166.137314 -20.567261
v 6.404256 169.006287 -14.135912
v 0.094064 171.215103 -7.538331
v -6.376885 169.040588 -14.188846
v -12.969992 169.073761 -7.604710
v -5.973774 170.634155 2.042580
v -7.073626 160.132874 -26.484734
v -12.115646 164.824234 -19.691011
v -16.950272 159.298401 -23.225344
v -21.590296 159.475159 -18.184673
v -18.188299 165.060608 -13.295774
v -24.204346 162.163956 -7.660897
v -19.150347 166.761856 -1.374203
v -3.323528 166.088196 20.674459
v -4.435647 161.374863 22.374849
v -1.915310 159.463501 25.622448
v -11.786841 168.627167 8.452456
v -24.599638 162.273926 4.357630
v -15.681898 165.042267 11.781967
v -25.111221 157.490341 12.331669
v -7.603426 157.490936 22.331829
v -30.163311 154.199631 8.865017
v -29.418272 144.549866 16.086937
v -27.944527 146.884079 17.108036
v -28.936283 157.493790 -1.772092
v -31.653339 152.280945 4.270710
v -27.167948 154.643677 -14.645771
v -30.636894 147.407318 -10.729509
v -21.686207 153.853210 -23.518728
v -26.890423 145.888458 -21.168438
v -23.709702 138.889954 -25.932623
v -27.280596 127.796623 -17.371628
v -29.360479 134.081177 -15.595121
v -30.745853 129.202362 -10.113050
v -31.531523 140.116638 -8.279670
v -5.996926 133.298920 -33.253883
v -11.134202 142.422440 -32.299149
v -5.411818 147.092239 -33.112968
v 0.954146 138.039612 -33.916626
v -18.229973 135.366653 -30.168774
v -17.655077 148.432159 -28.977610
v -12.483738 154.162231 -29.374172
v -0.560342 153.052567 -31.151695
v 19.575481 141.295929 -29.615389
v 12.985258 143.270111 -32.310204
v 18.549732 151.003464 -28.430334
v 6.408965 133.155823 -33.375454
v 6.489210 147.344833 -32.888950
v 12.069699 155.757202 -28.564394
v 28.342884 136.706116 -2.705661
v 25.552271 147.190170 -5.653677
v 27.214624 141.723999 -9.156687
v 28.814707 133.442688 -5.088240
v 22.237431 148.842789 -15.125882
v 20.882421 144.721252 -20.891582
v 26.392517 140.119888 -13.824067
v 22.048685 153.500549 -10.274796
v 17.933537 156.382919 -14.751918
v 17.998640 152.422455 -18.560404
v 31.750589 140.104553 -6.903244
v 28.801542 145.815796 -17.602272
v 25.221277 156.415237 -18.350077
v 28.460211 157.010742 -6.565570
v 28.396189 156.822006 5.603336
v 22.523392 152.235962 18.974739
v 18.537756 159.961655 15.594602
v 19.701397 166.684952 4.832841
v 9.524332 167.508194 19.584301
v 7.199578 164.711349 29.764734
v 19.275194 166.978226 -7.661360
v 17.505299 163.466217 -18.669708
v 6.263727 165.962341 -20.127453
v 6.648282 170.881195 -7.803591
v -6.525548 170.666992 -7.459597
v -6.335334 165.834549 -20.425915
v -17.226902 162.911697 -18.562042
v -18.918953 166.320679 -7.507327
v -2.143107 162.087448 23.679081
v -3.879532 168.532806 15.423376
v -18.733971 166.196045 5.036035
v -9.451698 161.617477 18.564932
v -30.627050 150.236740 12.640256
v -29.207497 156.958511 4.351773
v -28.463667 156.149521 -8.439750
v -24.933218 153.899490 -19.572922
v -27.301590 135.562195 -20.169048
v -30.669710 136.449417 -12.033727
v -4.768282 140.199768 -33.446133
v -17.756973 141.640686 -29.986839
v -17.459696 154.219498 -26.793211
v -6.498003 153.617157 -30.794546
v 19.249338 145.642746 -29.507471
v 6.768034 139.785156 -33.692585
v 5.573206 154.040085 -30.346920
v 17.578957 156.023300 -26.314150
v 27.950226 138.919785 -6.196382
v 24.420055 144.040009 -14.069252
v 20.378862 152.892960 -14.750018
v 23.197821 153.778427 -5.421904
v 24.264936 153.779617 4.856198
v 19.789753 149.996017 16.963953
v 15.392949 155.951294 12.088519
v 16.220457 161.363403 3.706540
v 7.042567 160.969406 14.808508
v 5.463842 158.220398 20.958008
v 16.186327 162.259705 -6.576188
v 14.605169 159.043274 -15.527662
v 5.446959 162.289322 -17.533688
v 5.911066 166.832352 -6.978664
v -5.814024 166.884659 -6.689261
v -5.740118 162.466492 -18.220692
v -15.110707 159.798523 -16.510389
v -16.527115 162.673553 -6.741397
v -1.960626 157.192520 18.801802
v -3.351127 163.766953 11.921740
v -15.593731 161.631439 4.089262
v -8.564087 157.781540 14.953158
v -26.894890 147.871277 10.910522
v -24.878550 153.777115 3.464918
v -24.409492 153.774384 -7.671319
v -21.514761 151.556885 -17.355604
v -24.129257 134.693420 -18.080877
v -27.204449 135.704468 -10.926790
v -4.078329 139.230988 -28.648403
v -15.300475 140.439423 -26.017498
v -15.018594 151.672821 -23.260075
v -5.703871 151.029800 -25.908390
v 16.719711 143.983246 -24.766840
v 6.148658 138.808563 -28.879667
v 4.716182 151.019928 -25.222515
v 14.677028 152.544815 -21.315475
v 30.074186 131.666718 -5.705882
v 29.952909 136.254898 -1.016899
v 28.305542 138.952454 -15.242053
v 29.452244 148.883987 7.184214
v 20.643478 148.202377 22.460575
v 16.802528 152.772141 24.075056
v 15.509416 155.732590 17.934156
v 4.769014 158.602585 23.973475
v -1.845122 156.843094 25.157547
v -6.551468 154.517639 23.406780
v -27.953653 142.334869 16.389519
v -25.269787 145.576172 18.334436
v -31.089533 149.135834 3.794505
v -26.345707 124.935638 -15.815686
v -30.147501 127.056343 -8.120420
v -30.625210 140.574081 -5.751481
v -6.603130 130.130753 -31.799160
v -17.429728 132.368210 -29.146500
v 19.151712 138.990204 -28.179054
v 6.414505 130.504333 -31.877771
vt 0.225768 0.441144
vt 0.900654 0.241191
vt 0.889492 0.876291
vt 0.073039 0.459541
vt 0.909522 0.091397
vt 0.775989 0.923476
vt 0.138230 0.441503
vt 0.887753 0.156992
vt 0.709690 0.860602
vt 0.317843 0.928001
vt 0.893931 0.819431
vt 0.350870 0.737652
vt 0.939632 0.917060
vt 0.218913 0.370541
vt 0.832059 0.897676
vt 0.771144 0.990234
vt 0.047719 0.398557
vt 0.982990 0.788932
vt 0.380340 0.646433
vt 0.131658 0.374710
vt 0.866126 0.977080
vt 0.678968 0.946356
vt 0.234930 0.978878
vt 0.774825 0.788949
vt 0.380346 0.852625
vt 0.031083 0.487404
vt 0.935651 0.049132
vt 0.749583 0.897980
vt 0.657256 0.885989
vt 0.299424 0.983058
vt 0.839888 0.807712
vt 0.363009 0.789936
vt 0.753477 0.842406
vt 0.334346 0.884927
vt 0.807551 0.847259
vt 0.937566 0.818263
vt 0.355995 0.695330
vt 0.891062 0.849561
vt 0.911132 0.893105
vt 0.962065 0.868081
vt 0.300012 0.650313
vt 0.835119 0.311078
vt 0.269171 0.376014
vt 0.220498 0.407707
vt 0.234894 0.487445
vt 0.935618 0.264685
vt 0.176178 0.370071
vt 0.907636 0.950470
vt 0.136068 0.410793
vt 0.198733 0.432968
vt 0.888465 0.217071
vt 0.864804 0.886547
vt 0.849081 0.937350
vt 0.801359 0.912643
vt 0.773220 0.951705
vt 0.818204 0.990027
vt 0.087820 0.384413
vt 0.062178 0.432716
vt 0.105837 0.451998
vt 0.898401 0.124069
vt 0.009766 0.417332
vt 0.869563 0.009766
vt 0.186675 0.944071
vt 0.725993 0.977985
vt 0.926931 0.857169
vt 0.252982 0.430857
vt 0.887165 0.284480
vt 0.180273 0.405762
vt 0.883679 0.918682
vt 0.811828 0.950474
vt 0.100283 0.421259
vt 0.028733 0.452712
vt 0.902081 0.034857
vt 0.727394 0.925946
vt 0.779559 0.874498
vt 0.851067 0.847303
vt 0.344993 0.694919
vt 0.352456 0.661737
vt 0.304604 0.699970
vt 0.294611 0.659469
vt 0.829919 0.302898
vt 0.341463 0.738510
vt 0.311087 0.738346
vt 0.281799 0.739350
vt 0.264342 0.715615
vt 0.240029 0.683598
vt 0.815322 0.250589
vt 0.879105 0.275478
vt 0.856025 0.246102
vt 0.912438 0.263091
vt 0.892385 0.244905
vt 0.848768 0.203123
vt 0.878834 0.212339
vt 0.808872 0.202893
vt 0.200219 0.720937
vt 0.808531 0.152809
vt 0.170646 0.770494
vt 0.848909 0.155350
vt 0.878469 0.158388
vt 0.235036 0.746612
vt 0.270095 0.766116
vt 0.258867 0.802130
vt 0.215136 0.786472
vt 0.203481 0.829656
vt 0.159932 0.827726
vt 0.817284 0.101951
vt 0.244988 0.836727
vt 0.236205 0.865020
vt 0.206605 0.872946
vt 0.166426 0.883576
vt 0.836602 0.056056
vt 0.858438 0.115843
vt 0.887694 0.121669
vt 0.872470 0.075152
vt 0.900423 0.086937
vt 0.894011 0.043077
vt 0.917075 0.056424
vt 0.863198 0.015170
vt 0.188587 0.935246
vt 0.240113 0.916168
vt 0.266278 0.888401
vt 0.306171 0.920671
vt 0.283766 0.963453
vt 0.238178 0.965552
vt 0.326109 0.879134
vt 0.359633 0.844011
vt 0.287672 0.855738
vt 0.312171 0.823543
vt 0.350948 0.789426
vt 0.311960 0.779283
vt 0.329725 0.676049
vt 0.326465 0.717071
vt 0.290461 0.722438
vt 0.275585 0.688969
vt 0.845193 0.269403
vt 0.889569 0.258874
vt 0.869012 0.228604
vt 0.831533 0.225639
vt 0.828868 0.177770
vt 0.864569 0.182158
vt 0.234329 0.716242
vt 0.261956 0.741343
vt 0.243526 0.774933
vt 0.204706 0.755960
vt 0.186665 0.803337
vt 0.229522 0.813028
vt 0.220641 0.850509
vt 0.182761 0.853319
vt 0.869707 0.137114
vt 0.833487 0.131610
vt 0.846260 0.087684
vt 0.880669 0.100941
vt 0.899487 0.063889
vt 0.867002 0.046945
vt 0.199974 0.901821
vt 0.235746 0.885053
vt 0.278313 0.925847
vt 0.240337 0.949761
vt 0.325954 0.852704
vt 0.297314 0.886381
vt 0.257325 0.860421
vt 0.276406 0.829246
vt 0.330037 0.760922
vt 0.339021 0.811148
vt 0.288541 0.792913
vt 0.293471 0.755387
vt 0.952581 0.833284
vt 0.912670 0.836093
vt 0.905292 0.869116
vt 0.935405 0.884231
vt 0.240640 0.395269
vt 0.233784 0.440778
vt 0.206214 0.421093
vt 0.198862 0.387718
vt 0.155235 0.390476
vt 0.162516 0.422899
vt 0.910862 0.920267
vt 0.887713 0.894294
vt 0.857827 0.911142
vt 0.876751 0.946255
vt 0.836504 0.964181
vt 0.824301 0.925418
vt 0.791426 0.936459
vt 0.793941 0.971766
vt 0.120187 0.431650
vt 0.114039 0.398056
vt 0.075004 0.409388
vt 0.085838 0.441530
vt 0.048723 0.457917
vt 0.037064 0.425153
vt 0.749525 0.961574
vt 0.757086 0.925831
vt 0.711088 0.892143
vt 0.697292 0.933342
vt 0.778638 0.837152
vt 0.748755 0.869360
vt 0.777785 0.903367
vt 0.805442 0.882327
vt 0.869310 0.830986
vt 0.817876 0.821602
vt 0.838714 0.869212
vt 0.874523 0.865110
vt 0.364078 0.671966
vt 0.337033 0.652005
vt 0.349071 0.716152
vt 0.858839 0.293787
vt 0.908664 0.272621
vt 0.914754 0.254312
vt 0.890807 0.230902
vt 0.884107 0.186829
vt 0.889211 0.139459
vt 0.899861 0.106624
vt 0.915800 0.043962
vt 0.918729 0.069882
vt 0.882879 0.025390
vt 0.305923 0.952903
vt 0.266278 0.977570
vt 0.211455 0.957395
vt 0.353723 0.867093
vt 0.322506 0.904208
vt 0.352724 0.763667
vt 0.367855 0.820706
vt 0.353445 0.673530
vt 0.326828 0.696511
vt 0.301058 0.680778
vt 0.333635 0.659832
vt 0.341239 0.716212
vt 0.327810 0.738338
vt 0.308341 0.719043
vt 0.294518 0.738692
vt 0.274455 0.729218
vt 0.283437 0.706054
vt 0.253333 0.700748
vt 0.267320 0.671533
vt 0.822621 0.276744
vt 0.854276 0.285695
vt 0.836107 0.248266
vt 0.867574 0.263100
vt 0.902527 0.268204
vt 0.876246 0.245413
vt 0.906767 0.256139
vt 0.850620 0.225829
vt 0.865806 0.207752
vt 0.883482 0.231213
vt 0.812097 0.226741
vt 0.220124 0.702268
vt 0.829708 0.201986
vt 0.808702 0.177851
vt 0.185432 0.745715
vt 0.829849 0.153982
vt 0.847876 0.178827
vt 0.865727 0.156915
vt 0.877221 0.185560
vt 0.248339 0.729504
vt 0.218233 0.734847
vt 0.276545 0.750418
vt 0.251976 0.757140
vt 0.264553 0.783792
vt 0.236183 0.793853
vt 0.224047 0.765826
vt 0.194074 0.778988
vt 0.208067 0.807873
vt 0.182790 0.828336
vt 0.165289 0.799110
vt 0.812907 0.127380
vt 0.251984 0.819815
vt 0.224142 0.832049
vt 0.238961 0.852749
vt 0.223136 0.868235
vt 0.202021 0.851450
vt 0.188011 0.877931
vt 0.163179 0.855651
vt 0.826943 0.079003
vt 0.852832 0.135101
vt 0.875142 0.119530
vt 0.882402 0.138337
vt 0.839164 0.109797
vt 0.855349 0.066368
vt 0.864521 0.095339
vt 0.888160 0.082131
vt 0.893012 0.104649
vt 0.883674 0.056848
vt 0.910189 0.049928
vt 0.911990 0.068192
vt 0.849900 0.035613
vt 0.177507 0.909411
vt 0.877438 0.032318
vt 0.220151 0.893834
vt 0.217725 0.925570
vt 0.247792 0.874306
vt 0.255221 0.903433
vt 0.287936 0.905801
vt 0.297665 0.944826
vt 0.263946 0.942005
vt 0.259344 0.968919
vt 0.219001 0.953447
vt 0.344970 0.862654
vt 0.309102 0.868409
vt 0.301493 0.840487
vt 0.338913 0.835030
vt 0.314414 0.898623
vt 0.276514 0.872106
vt 0.266232 0.844900
vt 0.284843 0.812302
vt 0.344945 0.762917
vt 0.333616 0.785099
vt 0.311659 0.758229
vt 0.358735 0.818029
vt 0.313895 0.802098
vt 0.290438 0.773226
vt 0.972528 0.828506
vt 0.340176 0.648373
vt 0.944438 0.860865
vt 0.932630 0.836376
vt 0.960278 0.803598
vt 0.368168 0.670882
vt 0.909287 0.852972
vt 0.891848 0.833831
vt 0.915748 0.818847
vt 0.353433 0.716491
vt 0.920156 0.876283
vt 0.898747 0.883299
vt 0.890264 0.864726
vt 0.950848 0.892570
vt 0.244042 0.373277
vt 0.924531 0.903870
vt 0.237224 0.417642
vt 0.219977 0.389298
vt 0.261077 0.403435
vt 0.861142 0.297779
vt 0.230331 0.464294
vt 0.918136 0.252938
vt 0.221814 0.426670
vt 0.243938 0.459151
vt 0.911391 0.274583
vt 0.212251 0.437056
vt 0.894560 0.229131
vt 0.186582 0.420889
vt 0.201358 0.404768
vt 0.177284 0.388715
vt 0.197545 0.370306
vt 0.923634 0.933765
vt 0.157713 0.407625
vt 0.133793 0.393443
vt 0.153918 0.372391
vt 0.886881 0.963775
vt 0.168481 0.437235
vt 0.888109 0.187032
vt 0.138793 0.426645
vt 0.894801 0.934152
vt 0.898689 0.907025
vt 0.873602 0.903207
vt 0.879227 0.880760
vt 0.866955 0.928717
vt 0.841142 0.918435
vt 0.848652 0.891864
vt 0.857166 0.956342
vt 0.842165 0.983554
vt 0.109739 0.379561
vt 0.815262 0.969434
vt 0.830622 0.944804
vt 0.807623 0.931593
vt 0.816316 0.904950
vt 0.792945 0.953757
vt 0.774862 0.935908
vt 0.787125 0.919715
vt 0.794674 0.990131
vt 0.067769 0.391485
vt 0.772156 0.969653
vt 0.122033 0.446750
vt 0.893077 0.140530
vt 0.103576 0.436937
vt 0.117727 0.415702
vt 0.094826 0.403607
vt 0.081330 0.426375
vt 0.055456 0.416277
vt 0.089438 0.455769
vt 0.903962 0.107733
vt 0.067409 0.447750
vt 0.052061 0.473472
vt 0.922587 0.070265
vt 0.029908 0.470058
vt 0.918866 0.041995
vt 0.044139 0.441948
vt 0.019250 0.435022
vt 0.885822 0.022312
vt 0.028743 0.407945
vt 0.748568 0.984110
vt 0.724940 0.948984
vt 0.751894 0.941370
vt 0.736395 0.909989
vt 0.765563 0.913612
vt 0.698146 0.908628
vt 0.683473 0.873296
vt 0.308634 0.955529
vt 0.729997 0.880262
vt 0.702480 0.962170
vt 0.210802 0.961475
vt 0.668112 0.916173
vt 0.267177 0.980968
vt 0.794048 0.822366
vt 0.792582 0.859183
vt 0.765566 0.856102
vt 0.764151 0.815678
vt 0.357346 0.868776
vt 0.764598 0.886790
vt 0.731583 0.851504
vt 0.326095 0.906464
vt 0.791747 0.893479
vt 0.820541 0.873157
vt 0.871813 0.848224
vt 0.844753 0.827071
vt 0.866910 0.813572
vt 0.356939 0.763794
vt 0.828346 0.845140
vt 0.807356 0.798331
vt 0.371678 0.821280
vt 0.857522 0.867520
vt 0.353988 0.694436
vt 0.363655 0.655552
vt 0.297311 0.654891
vt 0.832519 0.306988
vt 0.348819 0.738699
vt 0.884455 0.281895
vt 0.921939 0.264062
vt 0.900059 0.243287
vt 0.885866 0.213351
vt 0.885299 0.159482
vt 0.894511 0.123069
vt 0.907266 0.089203
vt 0.924743 0.053267
vt 0.899359 0.036494
vt 0.866380 0.012468
vt 0.187631 0.939659
vt 0.291689 0.972623
vt 0.314391 0.927176
vt 0.237072 0.971307
vt 0.334280 0.884135
vt 0.368896 0.847733
vt 0.359499 0.791015
vn 0.960631 -0.135048 0.242798
vn 0.971923 -0.219220 -0.085488
vn 0.998322 0.053219 0.022841
vn 0.971727 -0.025170 0.234760
vn 0.941256 -0.198698 -0.273051
vn 0.974662 0.111906 -0.193676
vn 0.945102 0.247719 -0.213115
vn 0.980707 0.192677 -0.032994
vn 0.991377 0.100933 0.083572
vn 0.887703 -0.185057 -0.421588
vn 0.912873 0.115421 -0.391588
vn 0.787722 -0.156491 -0.595822
vn 0.765389 0.138409 -0.628508
vn 0.708854 0.300519 -0.638134
vn 0.871667 0.266968 -0.411005
vn 0.788618 0.450517 -0.418469
vn 0.864456 0.437431 -0.247729
vn 0.634463 0.462525 -0.619295
vn 0.552463 0.603443 -0.575015
vn 0.626366 0.646560 -0.435460
vn 0.686511 0.665649 -0.292597
vn 0.909987 0.403450 -0.095670
vn 0.920738 0.390181 -0.000151
vn 0.734944 0.661000 -0.151447
vn 0.756090 0.654456 0.004033
vn 0.874819 0.082572 0.477362
vn 0.960919 0.181078 0.209393
vn 0.878692 0.430207 0.206937
vn 0.772188 0.417421 0.479045
vn 0.732219 0.639903 0.233195
vn 0.675102 0.573507 0.464034
vn 0.643803 0.251612 0.722640
vn 0.787688 0.094504 0.608783
vn 0.727498 0.431863 0.533142
vn 0.470284 0.684266 0.557327
vn 0.620055 0.539662 0.569470
vn 0.432053 0.682194 0.589866
vn 0.747162 0.415546 0.518720
vn 0.632913 0.012335 0.774125
vn 0.617373 0.689475 0.378780
vn 0.671685 0.681476 0.290568
vn 0.760265 -0.059076 0.646921
vn 0.437827 -0.586590 0.681337
vn 0.520576 0.824728 0.220962
vn 0.505164 0.862817 0.018851
vn 0.277648 0.959548 0.046679
vn 0.362859 0.908161 0.208750
vn 0.220468 0.961620 0.163344
vn 0.373980 0.812253 0.447642
vn 0.114628 0.988130 0.102273
vn -0.007732 0.991819 0.127417
vn -0.029256 0.983667 0.177605
vn -0.249995 0.861918 0.441136
vn 0.086067 -0.052733 0.994893
vn -0.006298 -0.591199 0.806501
vn -0.623545 0.110315 0.773965
vn -0.274472 -0.394478 0.876956
vn 0.494508 0.848622 -0.187887
vn 0.459684 0.825342 -0.327873
vn 0.266962 0.897376 -0.351352
vn 0.267197 0.946367 -0.181644
vn 0.414315 0.773918 -0.478951
vn 0.378056 0.657588 -0.651653
vn 0.200517 0.671161 -0.713677
vn 0.234513 0.817399 -0.526177
vn 0.100332 0.817267 -0.567458
vn 0.121408 0.923576 -0.363685
vn 0.074635 0.650122 -0.756156
vn 0.003346 0.633991 -0.773334
vn 0.001057 0.807577 -0.589762
vn -0.004113 0.932608 -0.360867
vn 0.089075 0.987440 -0.130489
vn -0.021884 0.995907 -0.087696
vn -0.138760 0.986202 -0.090281
vn -0.119832 0.988214 0.095255
vn -0.144693 0.926810 -0.346537
vn -0.312514 0.890458 -0.330788
vn -0.308024 0.943476 -0.122369
vn -0.283047 0.957346 0.058071
vn -0.119429 0.809406 -0.574977
vn -0.101492 0.643476 -0.758708
vn -0.276693 0.646827 -0.710673
vn -0.287570 0.797829 -0.529880
vn -0.473195 0.740581 -0.477102
vn -0.502381 0.802932 -0.320802
vn -0.458052 0.618342 -0.638625
vn -0.595056 0.559978 -0.576483
vn -0.649581 0.609885 -0.453966
vn -0.690143 0.644479 -0.329165
vn -0.504274 0.849115 -0.157197
vn -0.485237 0.874251 0.015174
vn -0.702843 0.683727 -0.196288
vn -0.688428 0.724683 -0.030044
vn -0.615299 0.372139 0.694924
vn 0.154940 0.229255 0.960956
vn -0.455125 0.755057 0.471964
vn -0.455876 0.685692 0.567453
vn -0.559791 0.458082 0.690503
vn -0.485308 0.299611 0.821407
vn -0.156356 0.961005 0.228085
vn -0.293882 0.926303 0.235788
vn -0.477321 0.850198 0.222099
vn -0.461016 0.708849 0.533852
vn -0.645251 0.740570 0.187635
vn -0.565476 0.671904 0.478312
vn -0.467985 0.512148 0.720204
vn -0.497348 0.276141 0.822430
vn -0.510648 0.551457 0.659647
vn -0.439417 0.405580 0.801510
vn -0.746034 0.383846 0.544146
vn -0.428708 0.374983 0.821947
vn -0.799853 0.514709 0.308724
vn -0.991399 0.019621 0.129399
vn -0.906433 -0.159618 0.391026
vn -0.592639 0.006421 0.805443
vn -0.820960 0.562446 0.098386
vn -0.852566 0.513360 -0.097942
vn -0.972664 0.212429 -0.093799
vn -0.963597 0.267006 0.013736
vn -0.864692 0.442811 -0.237120
vn -0.848078 0.401345 -0.345957
vn -0.924048 0.118006 -0.363607
vn -0.952637 0.171738 -0.250977
vn -0.779380 0.391829 -0.488913
vn -0.652697 0.392521 -0.648008
vn -0.690977 0.180720 -0.699922
vn -0.844213 0.132905 -0.519269
vn -0.863916 -0.069306 -0.498845
vn -0.920930 -0.077416 -0.381961
vn -0.724421 0.002966 -0.689352
vn -0.720104 -0.225112 -0.656334
vn -0.808503 -0.297812 -0.507574
vn -0.886591 -0.288679 -0.361415
vn -0.963646 -0.008109 -0.267059
vn -0.997706 -0.007748 -0.067245
vn -0.974458 -0.134358 -0.179942
vn -0.997095 -0.070576 0.028642
vn -0.012047 -0.223754 -0.974571
vn -0.189803 -0.132277 -0.972871
vn -0.113574 0.022321 -0.993279
vn -0.006826 0.004640 -0.999966
vn -0.259415 -0.076947 -0.962696
vn -0.262351 0.051120 -0.963617
vn -0.283847 0.204092 -0.936898
vn -0.100493 0.185591 -0.977475
vn 0.007516 0.185098 -0.982691
vn -0.474599 -0.131890 -0.870265
vn -0.483045 0.062693 -0.873349
vn -0.496668 0.206957 -0.842906
vn -0.489013 0.418131 -0.765528
vn -0.285121 0.439386 -0.851848
vn -0.090385 0.442453 -0.892225
vn 0.012608 0.438240 -0.898769
vn 0.544437 -0.148165 -0.825612
vn 0.484974 0.146329 -0.862199
vn 0.359985 -0.170700 -0.917209
vn 0.272533 0.097626 -0.957181
vn 0.238082 0.291816 -0.926370
vn 0.450156 0.316853 -0.834844
vn 0.208367 -0.203932 -0.956554
vn 0.120818 0.032657 -0.992137
vn 0.104939 0.232866 -0.966830
vn 0.078350 0.462258 -0.883277
vn 0.200276 0.492836 -0.846760
vn 0.403617 0.490131 -0.772570
vn -0.921735 -0.239713 0.304865
vn -0.909469 -0.218543 0.353703
vn -0.967746 -0.248764 0.039802
vn -0.918885 -0.323122 -0.226366
vn -0.883673 -0.388849 0.260611
vn -0.938936 -0.315602 0.137094
vn -0.901778 -0.354116 0.247786
vn -0.922361 -0.344940 0.173974
vn -0.853949 -0.500617 -0.141962
vn -0.857657 -0.373085 0.353881
vn -0.769655 -0.605449 0.202637
vn -0.840984 -0.369062 0.395650
vn -0.712930 -0.401650 0.574811
vn -0.736054 -0.403492 0.543523
vn -0.601546 -0.685847 0.409581
vn -0.854510 -0.433241 0.286556
vn -0.790110 -0.449331 0.416926
vn -0.735647 -0.594094 0.325386
vn -0.681704 -0.567153 0.462188
vn -0.609645 -0.542837 0.577635
vn -0.657120 -0.477762 0.583041
vn -0.877579 -0.467084 0.108107
vn -0.886390 -0.428847 0.174365
vn -0.746619 -0.665181 0.009694
vn -0.763645 -0.621323 0.175514
vn -0.508452 -0.783733 -0.356705
vn -0.653334 -0.620687 -0.433477
vn -0.816517 -0.563378 -0.126115
vn -0.740140 -0.669951 -0.057955
vn -0.573036 -0.679742 -0.457799
vn -0.677108 -0.700360 -0.225877
vn -0.762807 -0.642829 -0.069979
vn -0.894164 -0.413372 -0.172030
vn -0.672910 -0.639453 -0.371877
vn -0.592667 -0.783024 -0.188730
vn -0.755917 -0.635966 -0.155361
vn -0.548154 -0.694513 -0.466025
vn -0.492835 -0.860898 -0.126364
vn -0.500381 -0.687091 -0.526807
vn -0.228987 -0.965633 0.122957
vn -0.663977 -0.468389 -0.582878
vn -0.581327 -0.677871 -0.450055
vn -0.478497 -0.735166 -0.480179
vn -0.481400 -0.823196 -0.301003
vn -0.379845 -0.858355 -0.344883
vn -0.351266 -0.922544 -0.159763
vn -0.529786 -0.843984 -0.083767
vn -0.469327 -0.674019 -0.570464
vn -0.313857 -0.895916 -0.314369
vn 0.106752 -0.773628 -0.624583
vn -0.090113 -0.942445 -0.321991
vn -0.071383 -0.969075 -0.236216
vn -0.211255 -0.950640 -0.227276
vn 0.002693 -0.987536 0.157368
vn -0.276943 -0.199171 -0.940018
vn 0.354947 -0.923678 -0.144330
vn 0.420192 -0.351760 -0.836483
vn -0.573398 -0.803944 0.157763
vn -0.379020 -0.919241 0.106488
vn -0.399171 -0.835904 0.376733
vn -0.567590 -0.742121 0.356509
vn -0.520321 -0.668194 0.531774
vn -0.361539 -0.713244 0.600477
vn -0.298713 -0.576722 0.760370
vn -0.458178 -0.577497 0.675700
vn -0.220548 -0.895924 0.385590
vn -0.204086 -0.727694 0.654836
vn -0.025838 -0.925880 0.376932
vn -0.048158 -0.735260 0.676072
vn -0.055810 -0.543659 0.837449
vn -0.163778 -0.554614 0.815831
vn -0.185396 -0.981748 0.042417
vn -0.009333 -0.999951 0.003167
vn 0.124459 -0.975736 -0.180134
vn 0.163641 -0.986491 0.007601
vn 0.322421 -0.934901 -0.148341
vn 0.347193 -0.936891 0.041146
vn 0.348406 -0.879478 0.324240
vn 0.165097 -0.921356 0.351917
vn 0.115511 -0.751794 0.649202
vn 0.302131 -0.753325 0.584140
vn 0.259573 -0.576279 0.774936
vn 0.071257 -0.560302 0.825218
vn 0.541507 -0.783302 0.305301
vn 0.500402 -0.701959 0.506805
vn 0.718035 -0.619728 0.316800
vn 0.669450 -0.575209 0.470076
vn 0.600561 -0.515219 0.611454
vn 0.459519 -0.562521 0.687323
vn 0.512058 -0.850829 -0.117840
vn 0.540833 -0.837235 0.080857
vn 0.692423 -0.718906 -0.061036
vn 0.727466 -0.671744 0.139832
vn 0.637195 -0.769507 -0.042909
vn 0.383399 -0.624846 -0.680127
vn 0.305185 -0.948419 -0.085815
vn 0.383416 -0.673398 -0.632082
vn 0.410166 -0.691907 -0.594162
vn 0.299324 -0.739819 -0.602555
vn 0.106308 -0.938858 -0.327482
vn 0.325656 -0.896128 -0.301500
vn 0.471440 -0.697919 -0.539124
vn 0.496218 -0.816640 -0.294730
vn 0.550199 -0.682566 -0.481025
vn 0.629747 -0.733495 -0.255740
vn 0.303401 -0.904012 -0.301182
vn 0.442045 -0.642464 -0.625968
vn 0.494818 -0.762597 -0.416656
vn 0.507713 -0.656323 -0.558094
vn 0.846839 -0.461261 -0.264767
vn 0.689140 -0.559659 -0.460291
vn 0.819502 -0.463131 -0.337529
vn 0.427386 -0.731717 -0.530972
vn 0.473961 -0.750862 -0.459964
vn 0.704776 -0.628965 -0.328168
vn 0.754111 -0.640175 -0.146602
vn 0.666781 -0.737892 -0.104490
vn 0.817089 -0.472729 0.329989
vn 0.829888 -0.553760 0.068085
vn 0.863654 -0.450602 0.225967
vn 0.929136 -0.224374 0.293875
vn 0.919845 -0.148739 0.362990
vn 0.856661 -0.391663 0.335757
vn 0.773078 -0.387625 0.502093
vn 0.828184 -0.158005 0.537723
vn 0.647644 -0.198389 0.735662
vn 0.626632 -0.376310 0.682440
vn 0.914294 -0.018931 0.404609
vn 0.865792 -0.018396 0.500066
vn 0.875565 -0.161950 0.455146
vn 0.911370 -0.188069 0.366108
vn 0.826788 -0.247400 0.505189
vn 0.708446 -0.094242 0.699445
vn 0.836384 -0.225005 0.499835
vn 0.924016 -0.089413 0.371753
vn 0.691684 -0.122063 0.711810
vn 0.810018 -0.050694 0.584210
vn 0.018622 -0.365710 0.930543
vn 0.008668 -0.175928 0.984365
vn 0.068726 -0.166696 0.983610
vn -0.038837 -0.329000 0.943531
vn -0.024781 -0.240813 0.970255
vn 0.064807 -0.219942 0.973358
vn 0.229301 -0.217552 0.948732
vn 0.213915 -0.170187 0.961913
vn 0.158209 -0.348037 0.924035
vn 0.446387 -0.167839 0.878959
vn 0.550236 -0.378699 0.744196
vn 0.440789 -0.213059 0.871958
vn 0.236929 -0.385660 0.891701
vn 0.454397 -0.374329 0.808332
vn -0.055202 -0.401211 0.914321
vn 0.043832 -0.393539 0.918262
vn -0.441318 -0.382622 0.811689
vn -0.254992 -0.616562 0.744869
vn -0.458200 -0.411271 0.787978
vn -0.247204 -0.368387 0.896204
vn -0.209031 -0.297986 0.931403
vn 0.000908 -0.461304 0.887242
vn -0.059262 -0.214704 0.974880
vn 0.110020 -0.365051 0.924464
vn -0.111682 -0.298340 0.947903
vn -0.257745 -0.474978 0.841406
vn -0.133209 -0.434972 0.890536
vn -0.444412 -0.493752 0.747467
vn 0.099109 -0.829406 -0.549785
vn 0.164485 -0.901091 0.401222
vn 0.139001 -0.793789 -0.592096
vn 0.138674 -0.231496 0.962901
vn 0.317222 -0.481901 0.816788
vn 0.168891 -0.930525 -0.324959
vn 0.341703 -0.909387 -0.237182
vn 0.651677 -0.727778 0.213673
vn 0.438748 -0.866483 0.238132
vn 0.262355 -0.814912 0.516806
vn -0.311047 -0.408686 0.858036
vn -0.706597 0.552233 0.442447
vn -0.788785 0.407228 0.460416
vn -0.122923 -0.701524 0.701965
vn 0.166516 -0.799633 0.576939
vn 0.020860 -0.787395 0.616096
vn 0.187244 -0.755795 0.627466
vn 0.719132 -0.420346 0.553316
vn -0.274411 -0.500932 0.820832
vn -0.293724 -0.678720 0.673101
vn 0.003506 -0.559996 0.828488
vn -0.448409 -0.891331 -0.066774
vn -0.597983 -0.752887 -0.274916
vn 0.281192 -0.513424 0.810757
vn 0.481681 0.192715 0.854894
vn -0.627080 -0.763135 -0.156192
vn -0.479028 -0.686306 0.547281
vn 0.065830 -0.949992 -0.305258
vn 0.071560 -0.898115 -0.433899
vn -0.192713 -0.954227 0.228719
vn -0.446963 -0.445706 0.775609
vn -0.393588 -0.190316 0.899371
vn -0.341706 -0.468238 0.814856
vn -0.487672 -0.864343 -0.122827
vn -0.013448 -0.992195 -0.123965
vn -0.240962 -0.928012 -0.284132
vn 0.047480 -0.880167 -0.472284
vn 0.442630 -0.882313 -0.160005
vn 0.556560 -0.824560 -0.101691
vn 0.494239 -0.864056 -0.095581
s 1
g SM_hair_01
usemtl initialShadingGroup
f 49/78/1 187/223/2 279/131/3 190/226/4
f 187/223/2 48/77/5 188/224/6 279/131/3
f 279/131/3 188/224/6 50/79/7 189/225/8
f 190/226/4 279/131/3 189/225/8 51/80/9
f 48/77/5 191/227/10 280/132/11 188/224/6
f 191/227/10 52/82/12 192/228/13 280/132/11
f 280/132/11 192/228/13 53/83/14 193/229/15
f 188/224/6 280/132/11 193/229/15 50/79/7
f 50/79/7 193/229/15 281/133/16 196/232/17
f 193/229/15 53/83/14 194/230/18 281/133/16
f 281/133/16 194/230/18 54/84/19 195/231/20
f 196/232/17 281/133/16 195/231/20 55/85/21
f 51/80/9 189/225/8 282/134/22 198/234/23
f 189/225/8 50/79/7 196/232/17 282/134/22
f 282/134/22 196/232/17 55/85/21 197/233/24
f 198/234/23 282/134/22 197/233/24 56/86/25
f 57/88/26 199/236/27 283/135/28 201/238/29
f 199/236/27 51/81/9 198/235/23 283/135/28
f 283/135/28 198/235/23 56/87/25 200/237/30
f 201/238/29 283/135/28 200/237/30 58/89/31
f 59/90/32 202/239/33 284/136/34 204/241/35
f 202/239/33 57/88/26 201/238/29 284/136/34
f 284/136/34 201/238/29 58/89/31 203/240/36
f 204/241/35 284/136/34 203/240/36 60/91/37
f 60/91/37 203/240/36 285/137/38 207/244/39
f 203/240/36 58/89/31 205/242/40 285/137/38
f 285/137/38 205/242/40 61/92/41 206/243/42
f 207/244/39 285/137/38 206/243/42 62/93/43
f 58/89/31 200/237/30 286/138/44 205/242/40
f 200/237/30 56/87/25 208/245/45 286/138/44
f 286/138/44 208/245/45 63/94/46 209/247/47
f 205/242/40 286/138/44 209/247/47 61/92/41
f 61/92/41 209/247/47 287/139/48 212/251/49
f 209/247/47 63/94/46 210/248/50 287/139/48
f 287/139/48 210/248/50 64/96/51 211/250/52
f 212/251/49 287/139/48 211/250/52 65/98/53
f 62/93/43 206/243/42 288/140/54 214/253/55
f 206/243/42 61/92/41 212/251/49 288/140/54
f 288/140/54 212/251/49 65/98/53 213/252/56
f 214/253/55 288/140/54 213/252/56 66/99/57
f 56/86/25 197/233/24 289/141/58 208/246/45
f 197/233/24 55/85/21 215/254/59 289/141/58
f 289/141/58 215/254/59 67/100/60 216/255/61
f 208/246/45 289/141/58 216/255/61 63/95/46
f 55/85/21 195/231/20 290/142/62 215/254/59
f 195/231/20 54/84/19 217/256/63 290/142/62
f 290/142/62 217/256/63 68/101/64 218/257/65
f 215/254/59 290/142/62 218/257/65 67/100/60
f 67/100/60 218/257/65 291/143/66 221/260/67
f 218/257/65 68/101/64 219/258/68 291/143/66
f 291/143/66 219/258/68 69/102/69 220/259/70
f 221/260/67 291/143/66 220/259/70 70/103/71
f 63/95/46 216/255/61 292/144/72 210/249/50
f 216/255/61 67/100/60 221/260/67 292/144/72
f 292/144/72 221/260/67 70/103/71 222/261/73
f 210/249/50 292/144/72 222/261/73 64/97/51
f 64/97/51 222/261/73 293/145/74 225/264/75
f 222/261/73 70/103/71 223/262/76 293/145/74
f 293/145/74 223/262/76 71/104/77 224/263/78
f 225/264/75 293/145/74 224/263/78 72/105/79
f 70/103/71 220/259/70 294/146/80 223/262/76
f 220/259/70 69/102/69 226/266/81 294/146/80
f 294/146/80 226/266/81 73/107/82 227/267/83
f 223/262/76 294/146/80 227/267/83 71/104/77
f 71/104/77 227/267/83 295/147/84 230/270/85
f 227/267/83 73/107/82 228/268/86 295/147/84
f 295/147/84 228/268/86 74/108/87 229/269/88
f 230/270/85 295/147/84 229/269/88 75/109/89
f 72/105/79 224/263/78 296/148/90 232/272/91
f 224/263/78 71/104/77 230/270/85 296/148/90
f 296/148/90 230/270/85 75/109/89 231/271/92
f 232/272/91 296/148/90 231/271/92 76/110/93
f 66/99/57 213/252/56 297/149/94 235/276/95
f 213/252/56 65/98/53 233/274/96 297/149/94
f 297/149/94 233/274/96 77/112/97 234/275/98
f 235/276/95 297/149/94 234/275/98 78/113/99
f 65/98/53 211/250/52 298/150/100 233/274/96
f 211/250/52 64/96/51 225/265/75 298/150/100
f 298/150/100 225/265/75 72/106/79 236/277/101
f 233/274/96 298/150/100 236/277/101 77/112/97
f 77/112/97 236/277/101 299/151/102 238/279/103
f 236/277/101 72/106/79 232/273/91 299/151/102
f 299/151/102 232/273/91 76/111/93 237/278/104
f 238/279/103 299/151/102 237/278/104 79/114/105
f 78/113/99 234/275/98 300/152/106 240/281/107
f 234/275/98 77/112/97 238/279/103 300/152/106
f 300/152/106 238/279/103 79/114/105 239/280/108
f 240/281/107 300/152/106 239/280/108 80/115/109
f 80/115/109 239/280/108 301/153/110 243/284/111
f 239/280/108 79/114/105 241/282/112 301/153/110
f 301/153/110 241/282/112 81/116/113 242/283/114
f 243/284/111 301/153/110 242/283/114 82/117/115
f 79/114/105 237/278/104 302/154/116 241/282/112
f 237/278/104 76/111/93 244/285/117 302/154/116
f 302/154/116 244/285/117 83/118/118 245/287/119
f 241/282/112 302/154/116 245/287/119 81/116/113
f 76/110/93 231/271/92 303/155/120 244/286/117
f 231/271/92 75/109/89 246/288/121 303/155/120
f 303/155/120 246/288/121 84/120/122 247/289/123
f 244/286/117 303/155/120 247/289/123 83/119/118
f 75/109/89 229/269/88 304/156/124 246/288/121
f 229/269/88 74/108/87 248/290/125 304/156/124
f 304/156/124 248/290/125 85/121/126 249/291/127
f 246/288/121 304/156/124 249/291/127 84/120/122
f 84/120/122 249/291/127 305/157/128 252/294/129
f 249/291/127 85/121/126 250/292/130 305/157/128
f 305/157/128 250/292/130 86/122/131 251/293/132
f 252/294/129 305/157/128 251/293/132 87/123/133
f 83/119/118 247/289/123 306/158/134 254/296/135
f 247/289/123 84/120/122 252/294/129 306/158/134
f 306/158/134 252/294/129 87/123/133 253/295/136
f 254/296/135 306/158/134 253/295/136 88/124/137
f 90/126/138 255/297/139 307/159/140 258/300/141
f 255/297/139 89/125/142 256/298/143 307/159/140
f 307/159/140 256/298/143 91/127/144 257/299/145
f 258/300/141 307/159/140 257/299/145 92/128/146
f 89/125/142 259/301/147 308/160/148 256/298/143
f 259/301/147 86/122/131 250/292/130 308/160/148
f 308/160/148 250/292/130 85/121/126 260/302/149
f 256/298/143 308/160/148 260/302/149 91/127/144
f 91/127/144 260/302/149 309/161/150 261/303/151
f 260/302/149 85/121/126 248/290/125 309/161/150
f 309/161/150 248/290/125 74/108/87 228/268/86
f 261/303/151 309/161/150 228/268/86 73/107/82
f 92/128/146 257/299/145 310/162/152 262/304/153
f 257/299/145 91/127/144 261/303/151 310/162/152
f 310/162/152 261/303/151 73/107/82 226/266/81
f 262/304/153 310/162/152 226/266/81 69/102/69
f 52/82/12 263/305/154 311/163/155 192/228/13
f 263/305/154 93/129/156 264/306/157 311/163/155
f 311/163/155 264/306/157 94/130/158 265/307/159
f 192/228/13 311/163/155 265/307/159 53/83/14
f 93/129/156 266/308/160 312/164/161 264/306/157
f 266/308/160 90/126/138 258/300/141 312/164/161
f 312/164/161 258/300/141 92/128/146 267/309/162
f 264/306/157 312/164/161 267/309/162 94/130/158
f 94/130/158 267/309/162 313/165/163 268/310/164
f 267/309/162 92/128/146 262/304/153 313/165/163
f 313/165/163 262/304/153 69/102/69 219/258/68
f 268/310/164 313/165/163 219/258/68 68/101/64
f 53/83/14 265/307/159 314/166/165 194/230/18
f 265/307/159 94/130/158 268/310/164 314/166/165
f 314/166/165 268/310/164 68/101/64 217/256/63
f 194/230/18 314/166/165 217/256/63 54/84/19
f 11/18/166 269/311/167 315/167/168 272/315/169
f 269/311/167 24/40/170 270/313/171 315/167/168
f 315/167/168 270/313/171 38/65/172 271/314/173
f 272/315/169 315/167/168 271/314/173 21/36/174
f 21/36/174 271/314/173 316/168/175 275/319/176
f 271/314/173 38/65/172 273/317/177 316/168/175
f 316/168/175 273/317/177 22/38/178 274/318/179
f 275/319/176 316/168/175 274/318/179 7/11/180
f 38/65/172 276/321/181 317/169/182 273/317/177
f 276/321/181 23/39/183 277/322/184 317/169/182
f 317/169/182 277/322/184 2/3/185 278/323/186
f 273/317/177 317/169/182 278/323/186 22/38/178
f 24/40/170 95/324/187 318/170/188 270/313/171
f 95/324/187 8/13/189 96/326/190 318/170/188
f 318/170/188 96/326/190 23/39/183 276/321/181
f 270/313/171 318/170/188 276/321/181 38/65/172
f 39/66/191 97/327/192 319/171/193 99/329/194
f 97/327/192 25/44/195 98/328/196 319/171/193
f 319/171/193 98/328/196 8/14/189 95/325/187
f 99/329/194 319/171/193 95/325/187 24/43/170
f 26/45/197 100/331/198 320/172/199 102/334/200
f 100/331/198 1/1/201 101/333/202 320/172/199
f 320/172/199 101/333/202 25/44/195 97/327/192
f 102/334/200 320/172/199 97/327/192 39/66/191
f 1/1/201 103/336/203 321/173/204 101/333/202
f 103/336/203 29/50/205 104/338/206 321/173/204
f 321/173/204 104/338/206 40/68/207 105/339/208
f 101/333/202 321/173/204 105/339/208 25/44/195
f 25/44/195 105/339/208 322/174/209 98/328/196
f 105/339/208 40/68/207 106/340/210 322/174/209
f 322/174/209 106/340/210 27/47/211 107/341/212
f 98/328/196 322/174/209 107/341/212 8/14/189
f 40/68/207 108/343/213 323/175/214 106/340/210
f 108/343/213 28/49/215 109/344/216 323/175/214
f 323/175/214 109/344/216 12/20/217 110/345/218
f 106/340/210 323/175/214 110/345/218 27/47/211
f 29/50/205 111/347/219 324/176/220 104/338/206
f 111/347/219 5/7/221 112/349/222 324/176/220
f 324/176/220 112/349/222 28/49/215 108/343/213
f 104/338/206 324/176/220 108/343/213 40/68/207
f 8/13/189 107/342/212 325/177/223 96/326/190
f 107/342/212 27/48/211 113/350/224 325/177/223
f 325/177/223 113/350/224 41/69/225 114/351/226
f 96/326/190 325/177/223 114/351/226 23/39/183
f 23/39/183 114/351/226 326/178/227 277/322/184
f 114/351/226 41/69/225 115/352/228 326/178/227
f 326/178/227 115/352/228 30/52/229 116/353/230
f 277/322/184 326/178/227 116/353/230 2/3/185
f 41/69/225 117/354/231 327/179/232 115/352/228
f 117/354/231 31/53/233 118/355/234 327/179/232
f 327/179/232 118/355/234 9/15/235 119/356/236
f 115/352/228 327/179/232 119/356/236 30/52/229
f 27/48/211 110/346/218 328/180/237 113/350/224
f 110/346/218 12/21/217 120/357/238 328/180/237
f 328/180/237 120/357/238 31/53/233 117/354/231
f 113/350/224 328/180/237 117/354/231 41/69/225
f 12/21/217 121/358/239 329/181/240 120/357/238
f 121/358/239 34/56/241 122/360/242 329/181/240
f 329/181/240 122/360/242 42/70/243 123/361/244
f 120/357/238 329/181/240 123/361/244 31/53/233
f 31/53/233 123/361/244 330/182/245 118/355/234
f 123/361/244 42/70/243 124/362/246 330/182/245
f 330/182/245 124/362/246 32/54/247 125/363/248
f 118/355/234 330/182/245 125/363/248 9/15/235
f 42/70/243 126/364/249 331/183/250 124/362/246
f 126/364/249 33/55/251 127/365/252 331/183/250
f 331/183/250 127/365/252 4/6/253 128/366/254
f 124/362/246 331/183/250 128/366/254 32/54/247
f 34/56/241 129/367/255 332/184/256 122/360/242
f 129/367/255 10/16/257 130/369/258 332/184/256
f 332/184/256 130/369/258 33/55/251 126/364/249
f 122/360/242 332/184/256 126/364/249 42/70/243
f 5/7/221 131/370/259 333/185/260 112/349/222
f 131/370/259 36/59/261 132/372/262 333/185/260
f 333/185/260 132/372/262 43/71/263 133/373/264
f 112/349/222 333/185/260 133/373/264 28/49/215
f 28/49/215 133/373/264 334/186/265 109/344/216
f 133/373/264 43/71/263 134/374/266 334/186/265
f 334/186/265 134/374/266 34/57/241 121/359/239
f 109/344/216 334/186/265 121/359/239 12/20/217
f 43/71/263 135/375/267 335/187/268 134/374/266
f 135/375/267 35/58/269 136/376/270 335/187/268
f 335/187/268 136/376/270 10/17/257 129/368/255
f 134/374/266 335/187/268 129/368/255 34/57/241
f 36/59/261 137/377/271 336/188/272 132/372/262
f 137/377/271 3/4/273 138/379/274 336/188/272
f 336/188/272 138/379/274 35/58/269 135/375/267
f 132/372/262 336/188/272 135/375/267 43/71/263
f 3/4/273 139/380/275 337/189/276 138/379/274
f 139/380/275 15/26/277 140/382/278 337/189/276
f 337/189/276 140/382/278 44/72/279 141/384/280
f 138/379/274 337/189/276 141/384/280 35/58/269
f 35/58/269 141/384/280 338/190/281 136/376/270
f 141/384/280 44/72/279 142/385/282 338/190/281
f 338/190/281 142/385/282 37/61/283 143/387/284
f 136/376/270 338/190/281 143/387/284 10/17/257
f 10/16/257 143/388/284 339/191/285 130/369/258
f 143/388/284 37/64/283 144/389/286 339/191/285
f 339/191/285 144/389/286 45/74/287 145/390/288
f 130/369/258 339/191/285 145/390/288 33/55/251
f 33/55/251 145/390/288 340/192/289 127/365/252
f 145/390/288 45/74/287 146/391/290 340/192/289
f 340/192/289 146/391/290 16/28/291 147/392/292
f 127/365/252 340/192/289 147/392/292 4/6/253
f 45/74/287 148/393/293 341/193/294 146/391/290
f 148/393/293 17/29/295 149/394/296 341/193/294
f 341/193/294 149/394/296 6/9/297 150/396/298
f 146/391/290 341/193/294 150/396/298 16/28/291
f 37/64/283 151/397/299 342/194/300 144/389/286
f 151/397/299 13/22/301 152/399/302 342/194/300
f 342/194/300 152/399/302 17/29/295 148/393/293
f 144/389/286 342/194/300 148/393/293 45/74/287
f 14/24/303 153/401/304 343/195/305 156/404/306
f 153/401/304 20/35/307 154/402/308 343/195/305
f 343/195/305 154/402/308 46/75/309 155/403/310
f 156/404/306 343/195/305 155/403/310 19/33/311
f 19/33/311 155/403/310 344/196/312 158/407/313
f 155/403/310 46/75/309 157/406/314 344/196/312
f 344/196/312 157/406/314 16/28/291 150/396/298
f 158/407/313 344/196/312 150/396/298 6/9/297
f 46/75/309 159/409/315 345/197/316 157/406/314
f 159/409/315 32/54/247 128/366/254 345/197/316
f 345/197/316 128/366/254 4/6/253 147/392/292
f 157/406/314 345/197/316 147/392/292 16/28/291
f 20/35/307 160/410/317 346/198/318 154/402/308
f 160/410/317 9/15/235 125/363/248 346/198/318
f 346/198/318 125/363/248 32/54/247 159/409/315
f 154/402/308 346/198/318 159/409/315 46/75/309
f 7/11/180 274/318/179 347/199/319 163/413/320
f 274/318/179 22/38/178 161/411/321 347/199/319
f 347/199/319 161/411/321 47/76/322 162/412/323
f 163/413/320 347/199/319 162/412/323 18/31/324
f 18/31/324 162/412/323 348/200/325 165/416/326
f 162/412/323 47/76/322 164/415/327 348/200/325
f 348/200/325 164/415/327 20/35/307 153/401/304
f 165/416/326 348/200/325 153/401/304 14/24/303
f 47/76/322 166/418/328 349/201/329 164/415/327
f 166/418/328 30/52/229 119/356/236 349/201/329
f 349/201/329 119/356/236 9/15/235 160/410/317
f 164/415/327 349/201/329 160/410/317 20/35/307
f 22/38/178 278/323/186 350/202/330 161/411/321
f 278/323/186 2/3/185 116/353/230 350/202/330
f 350/202/330 116/353/230 30/52/229 166/418/328
f 161/411/321 350/202/330 166/418/328 47/76/322
f 11/19/166 272/316/169 351/203/331 168/420/332
f 272/316/169 21/37/174 167/419/333 351/203/331
f 351/203/331 167/419/333 48/77/5 187/223/2
f 168/420/332 351/203/331 187/223/2 49/78/1
f 24/41/170 269/312/167 352/204/334 169/421/335
f 269/312/167 11/19/166 168/420/332 352/204/334
f 352/204/334 168/420/332 49/78/1 190/226/4
f 169/421/335 352/204/334 190/226/4 51/80/9
f 21/37/174 275/320/176 353/205/336 167/419/333
f 275/320/176 7/12/180 170/423/337 353/205/336
f 353/205/336 170/423/337 52/82/12 191/227/10
f 167/419/333 353/205/336 191/227/10 48/77/5
f 39/67/191 99/330/194 354/206/338 171/424/339
f 99/330/194 24/42/170 169/422/335 354/206/338
f 354/206/338 169/422/335 51/81/9 199/236/27
f 171/424/339 354/206/338 199/236/27 57/88/26
f 26/46/197 102/335/200 355/207/340 172/425/341
f 102/335/200 39/67/191 171/424/339 355/207/340
f 355/207/340 171/424/339 57/88/26 202/239/33
f 172/425/341 355/207/340 202/239/33 59/90/32
f 1/2/201 100/332/198 356/208/342 173/426/343
f 100/332/198 26/46/197 172/425/341 356/208/342
f 356/208/342 172/425/341 59/90/32 204/241/35
f 173/426/343 356/208/342 204/241/35 60/91/37
f 29/51/205 103/337/203 357/209/344 174/427/345
f 103/337/203 1/2/201 173/426/343 357/209/344
f 357/209/344 173/426/343 60/91/37 207/244/39
f 174/427/345 357/209/344 207/244/39 62/93/43
f 5/8/221 111/348/219 358/210/346 175/428/347
f 111/348/219 29/51/205 174/427/345 358/210/346
f 358/210/346 174/427/345 62/93/43 214/253/55
f 175/428/347 358/210/346 214/253/55 66/99/57
f 36/60/261 131/371/259 359/211/348 176/429/349
f 131/371/259 5/8/221 175/428/347 359/211/348
f 359/211/348 175/428/347 66/99/57 235/276/95
f 176/429/349 359/211/348 235/276/95 78/113/99
f 3/5/273 137/378/271 360/212/350 177/430/351
f 137/378/271 36/60/261 176/429/349 360/212/350
f 360/212/350 176/429/349 78/113/99 240/281/107
f 177/430/351 360/212/350 240/281/107 80/115/109
f 44/73/279 140/383/278 361/213/352 179/432/353
f 140/383/278 15/27/277 178/431/354 361/213/352
f 361/213/352 178/431/354 82/117/115 242/283/114
f 179/432/353 361/213/352 242/283/114 81/116/113
f 15/27/277 139/381/275 362/214/355 178/431/354
f 139/381/275 3/5/273 177/430/351 362/214/355
f 362/214/355 177/430/351 80/115/109 243/284/111
f 178/431/354 362/214/355 243/284/111 82/117/115
f 37/62/283 142/386/282 363/215/356 180/433/357
f 142/386/282 44/73/279 179/432/353 363/215/356
f 363/215/356 179/432/353 81/116/113 245/287/119
f 180/433/357 363/215/356 245/287/119 83/118/118
f 6/10/297 149/395/296 364/216/358 182/436/359
f 149/395/296 17/30/295 181/435/360 364/216/358
f 364/216/358 181/435/360 87/123/133 251/293/132
f 182/436/359 364/216/358 251/293/132 86/122/131
f 17/30/295 152/400/302 365/217/361 181/435/360
f 152/400/302 13/23/301 183/437/362 365/217/361
f 365/217/361 183/437/362 88/124/137 253/295/136
f 181/435/360 365/217/361 253/295/136 87/123/133
f 13/23/301 151/398/299 366/218/363 183/437/362
f 151/398/299 37/63/283 180/434/357 366/218/363
f 366/218/363 180/434/357 83/119/118 254/296/135
f 183/437/362 366/218/363 254/296/135 88/124/137
f 14/25/303 156/405/306 367/219/364 185/439/365
f 156/405/306 19/34/311 184/438/366 367/219/364
f 367/219/364 184/438/366 89/125/142 255/297/139
f 185/439/365 367/219/364 255/297/139 90/126/138
f 19/34/311 158/408/313 368/220/367 184/438/366
f 158/408/313 6/10/297 182/436/359 368/220/367
f 368/220/367 182/436/359 86/122/131 259/301/147
f 184/438/366 368/220/367 259/301/147 89/125/142
f 7/12/180 163/414/320 369/221/368 170/423/337
f 163/414/320 18/32/324 186/440/369 369/221/368
f 369/221/368 186/440/369 93/129/156 263/305/154
f 170/423/337 369/221/368 263/305/154 52/82/12
f 18/32/324 165/417/326 370/222/370 186/440/369
f 165/417/326 14/25/303 185/439/365 370/222/370
f 370/222/370 185/439/365 90/126/138 266/308/160
f 186/440/369 370/222/370 266/308/160 93/129/156
