# This file uses centimeters as units for non-parametric coordinates.

mtllib SM_hair_02.mtl
g default
v -6.969277 159.792938 17.086582
v 6.969277 159.792938 17.086582
v -6.969277 193.384735 26.839918
v 6.969277 193.384735 26.839918
v -6.969277 193.384735 -33.066700
v 6.969277 193.384735 -33.066700
v -6.969277 159.792938 -23.313362
v 6.969277 159.792938 -23.313362
v -6.969277 197.599716 -21.274853
v -6.969277 201.198090 -3.113390
v -6.969277 159.792938 9.005382
v -6.969277 159.792938 -3.113390
v -6.969277 159.792938 -15.232162
v 6.969277 159.792938 9.005382
v 6.969277 159.792938 -3.113390
v 6.969277 159.792938 -15.232162
v 6.969277 201.198090 -3.113390
v 6.969277 197.599716 -21.274853
v -6.969277 196.335327 18.585272
v -6.969277 198.329758 11.363319
v -6.969277 190.161301 14.121937
v 6.969277 196.335327 18.585272
v 6.969277 190.161301 14.121937
v 6.969277 198.329758 11.363319
vt 0.324917 0.493095
vt 0.367796 0.472956
vt 0.418336 0.580562
vt 0.375456 0.600701
vt 0.174340 0.632438
vt 0.520632 0.798369
vt 0.470874 0.382246
vt 0.528292 0.926115
vt 0.279037 0.642800
vt 0.459660 0.779985
vt 0.216418 0.510216
vt 0.257102 0.503796
vt 0.431001 0.607530
vt 0.388122 0.627669
vt 0.388415 0.454811
vt 0.443547 0.543782
vt 0.550561 0.483284
vt 0.450255 0.400390
vt 0.419335 0.427601
vt 0.475789 0.702890
vt 0.454466 0.657489
vt 0.411586 0.677628
vt 0.331052 0.596617
vt 0.297787 0.497376
vt 0.468926 0.558430
vt 0.442009 0.630966
vt 0.446022 0.569556
vt 0.326118 0.625502
vt 0.399129 0.651105
vt 0.349307 0.614980
vt 0.432909 0.723029
vt 0.571183 0.446053
vt 0.502539 0.759846
vt 0.216160 0.640341
vt 0.477753 0.818508
vt 0.512303 0.533243
vt 0.571171 0.905976
vt 0.189288 0.514497
vn 0.000000 -0.278833 0.960339
vn 0.000000 -0.278833 0.960339
vn 0.000000 -0.278833 0.960339
vn 0.000000 -0.278833 0.960339
vn 0.000000 -0.278834 -0.960339
vn 0.000000 -0.278834 -0.960339
vn 0.000000 -0.278834 -0.960339
vn 0.000000 -0.278834 -0.960339
vn -1.000000 0.000000 0.000000
vn -1.000000 0.000000 0.000000
vn -1.000000 0.000000 0.000000
vn -1.000000 0.000000 0.000000
vn 0.000000 0.941651 0.336590
vn 0.000000 0.941651 0.336590
vn 0.000000 0.941651 0.336590
vn 0.000000 0.941651 0.336590
vn 1.000000 0.000000 0.000000
vn 1.000000 0.000000 0.000000
vn 1.000000 0.000000 0.000000
vn -1.000000 0.000000 0.000000
vn -1.000000 0.000000 0.000000
vn 1.000000 0.000000 0.000000
vn 1.000000 0.000000 0.000000
vn 1.000000 0.000000 0.000000
vn 1.000000 0.000000 0.000000
vn 0.000000 0.967622 -0.252405
vn 0.000000 0.967622 -0.252405
vn 0.000000 0.941651 -0.336592
vn 0.000000 0.941651 -0.336592
vn 1.000000 0.000000 0.000000
vn 1.000000 0.000000 0.000000
vn 1.000000 0.000000 0.000000
vn 0.000000 0.999750 -0.022362
vn 0.000000 0.999750 -0.022362
vn 0.000000 0.980931 0.194356
vn 0.000000 0.980931 0.194356
vn -1.000000 -0.000000 0.000000
vn -1.000000 -0.000000 0.000000
vn -1.000000 -0.000000 0.000000
vn -1.000000 -0.000000 0.000000
vn -1.000000 0.000000 0.000000
vn 0.000000 0.319962 0.947430
vn 0.000000 0.319962 0.947430
vn 0.000000 0.319962 0.947430
vn 0.000000 0.319962 0.947430
vn 0.000000 0.585863 -0.810410
vn 0.000000 0.585863 -0.810410
vn 0.000000 0.585863 -0.810410
vn 0.000000 0.585863 -0.810410
vn 1.000000 0.000000 0.000000
vn 1.000000 0.000000 0.000000
vn -1.000000 0.000000 0.000000
s off
g SM_hair_02 chara_props
usemtl aiStandardSurface2SG
f 1/1/1 2/2/2 4/3/3 3/4/4
f 5/35/5 6/6/6 8/37/7 7/8/8
s 1
f 10/9/9 9/34/10 13/11/11 12/12/12
s off
f 3/4/13 4/3/14 22/13/15 19/14/16
s 2
f 2/2/17 14/15/18 23/16/19
s 1
f 7/38/20 13/11/11 9/34/10 5/5/21
s 2
f 18/17/22 16/18/23 8/7/24 6/32/25
s 4
f 9/10/26 18/33/27 6/6/28 5/35/29
s 2
f 23/16/19 15/19/30 17/36/31 24/25/32
f 15/19/30 16/18/23 18/17/22 17/36/31
s 4
f 9/10/26 10/31/33 17/20/34 18/33/27
f 10/31/33 20/22/35 24/21/36 17/20/34
s 1
f 19/30/37 21/23/38 1/1/39 3/4/40
f 21/23/38 12/12/12 11/24/41
s off
f 20/22/42 21/29/43 23/26/44 24/21/45
f 21/29/46 19/14/47 22/13/48 23/26/49
s 2
f 2/2/17 23/16/19 22/27/50 4/3/51
f 14/15/18 15/19/30 23/16/19
s 1
f 21/23/38 20/28/52 10/9/9 12/12/12
f 1/1/39 21/23/38 11/24/41
