# This file uses centimeters as units for non-parametric coordinates.

mtllib SM_hair_03.mtl
g default
v 24.565916 102.650276 -19.541729
v 16.447964 153.178665 13.460300
v 17.746103 154.978622 -18.440992
v -22.716377 153.645035 7.985077
v -16.156885 155.752823 -19.392878
v -24.197601 104.181877 -25.093672
v -1.915759 155.980698 20.697456
v -22.726017 135.263992 -25.729633
v -29.967991 136.238174 5.887999
v -4.162918 94.335327 -21.187771
v 26.264580 126.890633 -21.500530
v 21.453489 159.894058 -1.394548
v 26.822659 133.844055 10.809187
v -1.109779 157.396408 -22.738243
v -21.486876 159.662338 -4.605683
v 31.065247 144.519867 -2.214183
v -0.393162 165.998795 -0.555668
v -27.331896 146.185165 -7.370596
v -4.301896 125.930176 -30.218412
v -27.131208 144.194092 4.369019
v -17.674343 149.828232 -22.585205
v -23.791304 146.521576 -15.536026
v -25.378807 115.080437 -27.639214
v -16.641066 97.079407 -23.878893
v 12.202244 96.490639 -20.190550
v -5.407855 108.795486 -26.900806
v 12.503631 125.306351 -27.586067
v -15.240988 128.183777 -29.987787
v -2.161850 143.356445 -26.615467
v 30.096418 139.466949 4.814847
v 26.547915 112.809967 -20.936451
v 29.935314 138.321625 -12.120730
v 20.725288 143.443466 -20.101839
v 20.719549 158.720627 -11.592628
v 27.677177 153.135254 -1.757753
v 19.234198 157.256592 7.564138
v 23.813404 143.299301 8.862279
v 11.488881 165.570221 -1.632582
v -1.115202 160.932114 13.474671
v 8.693871 156.312134 18.557356
v 10.035056 157.610107 -21.585440
v -0.194512 165.115112 -14.083781
v -11.023842 156.453629 -21.788099
v -18.705986 158.621460 -12.664577
v -12.689595 163.378006 -1.997534
v -22.808664 157.435364 2.380004
v -14.231889 155.214661 15.144793
v -25.078697 154.123444 -6.291692
v -30.364546 139.623108 -0.052972
v 26.099846 149.016708 -11.768141
v 26.110353 149.876282 4.533102
v 9.878698 161.407867 10.644357
v 11.426881 164.167786 -13.134784
v -11.623269 162.648254 -13.175678
v -13.417157 159.707138 8.370089
v -27.006256 148.794342 -1.087743
v -21.303022 153.982101 -14.271070
v 11.957160 109.723167 -24.786526
v -17.331421 110.567451 -28.462442
v -11.851417 145.622116 -27.008678
v 10.208159 143.296631 -25.452873
v 32.771477 139.151779 -13.274628
v 34.093342 145.436310 -2.153561
v 29.624010 150.593445 -13.170088
v 31.489880 154.739441 -1.695627
v 29.593790 127.753639 -24.974928
v 25.010645 146.081238 -23.898050
v 20.524557 157.802612 -20.926701
v 23.336105 161.369064 -12.877880
v 24.445494 162.878860 -1.264665
v 32.893642 140.020233 6.084283
v 28.765017 133.999832 12.168244
v 31.273706 151.941010 7.720278
v 27.193308 144.050842 10.932544
v 23.331808 161.386612 10.542799
v 20.328894 156.354660 17.569096
v 12.150914 167.288422 13.283183
v 10.623714 161.199570 22.500544
v 13.049116 169.747528 -1.608075
v -0.424671 170.613754 -0.448729
v -1.294845 166.699966 16.823721
v -2.197485 160.841248 25.105145
v 12.826123 167.702072 -14.419817
v 11.744267 161.121765 -24.807364
v -1.281584 161.537018 -26.697943
v -0.222525 169.483963 -15.549897
v -13.167968 166.888840 -14.555324
v -14.372169 168.448593 -1.734515
v -13.227879 160.304001 -25.429735
v -19.753387 159.166351 -22.491804
v -22.315697 162.129196 -14.154393
v -25.166508 163.654526 -4.258991
v -15.911551 165.600311 11.841826
v -16.573357 159.577408 19.445499
v -27.255434 161.471039 5.385009
v -26.125963 156.154953 11.495647
v -31.877220 150.564972 0.710834
v -29.102072 144.846710 5.767436
v -30.248819 156.520752 -6.641028
v -30.824745 147.237640 -8.015336
v -32.313377 140.170914 0.598279
v -31.031904 136.459137 6.544275
v -26.107328 156.347382 -16.359118
v -21.970079 152.328613 -26.748461
v -25.404594 136.092163 -28.573803
v -27.730963 147.911499 -17.249832
v 18.652866 91.694633 -30.355955
v 28.665079 100.099754 -24.573217
v 19.350817 106.347008 -37.913925
v 31.141087 111.057320 -26.910128
v -2.328296 90.197449 -31.208080
v -2.698033 104.987762 -42.341976
v -3.302189 125.654289 -42.870934
v 17.267178 125.869209 -38.104050
v -18.497688 94.427788 -30.357265
v -19.691967 108.457474 -37.597942
v -25.611980 102.973068 -27.920807
v -27.062002 114.444458 -30.781666
v -18.072874 128.626114 -37.525986
v -14.357171 148.155121 -33.645836
v -2.254971 146.456375 -36.522675
v 13.741364 146.831421 -34.088814
v 25.601099 137.158936 10.205042
v 24.579866 146.028595 6.107100
v 28.235962 143.656967 4.009080
v 28.208786 135.652740 8.435019
v 27.142670 152.437088 2.423290
v 31.002975 142.979309 1.380399
v 23.043976 154.285141 6.215427
v 20.584623 158.984451 3.618360
v 20.237108 149.341599 10.367843
v 17.648710 155.002457 10.405835
v 12.784774 155.333755 16.206306
v 9.095617 158.345856 14.931701
v 14.687508 159.822174 8.830214
v 10.753507 164.006027 4.943746
v 16.820484 163.073288 -1.534916
v 4.639391 161.533066 12.783457
v -0.688484 163.538483 7.607264
v 5.699693 166.440674 -1.131965
v 3.784253 156.368179 20.341175
v -1.504668 157.961639 17.432199
v 11.720030 165.618851 -7.828825
v 16.499825 162.004913 -12.231709
v 10.704694 161.688339 -17.768269
v 14.633433 156.682541 -20.031322
v 5.769131 165.156342 -13.829709
v -0.570229 161.970566 -18.878212
v 4.599243 157.720947 -22.428867
v -0.222103 166.797318 -8.318526
v -6.704256 164.871429 -0.916212
v -12.184407 163.842712 -7.963758
v -6.203098 164.223679 -13.765898
v -11.207052 160.101791 -17.796661
v -6.460776 156.932541 -22.547836
v -15.798971 160.708206 -12.702597
v -17.287428 157.236572 -16.547689
v -14.296204 156.115280 -20.551580
v -17.729012 161.686951 -3.343086
v -20.191406 159.524658 -8.640353
v -8.178737 155.468155 18.750273
v -13.688837 157.140152 11.873103
v -7.255839 160.231888 11.721655
v -13.081553 161.770554 3.841728
v -18.753277 159.124496 4.933840
v -22.385916 158.882034 -0.843094
v -19.100025 155.071457 11.313267
v -22.650604 155.337418 5.150657
v -25.349476 149.581116 5.155481
v -26.782549 145.807678 1.651763
v -25.390564 154.065567 0.512522
v -26.471443 151.962997 -3.305583
v -23.710661 157.259293 -5.579419
v -28.474424 143.140366 -0.968560
v -29.331556 142.880112 -4.051019
v -26.146877 149.814484 -6.833021
v -28.725885 139.083298 5.300233
v -30.288284 137.067078 3.681441
v -23.254765 154.713928 -10.076932
v -20.324499 156.567642 -13.345796
v -19.569265 152.159866 -18.679602
v -16.716684 153.811661 -20.880327
v -22.392723 150.110931 -15.000743
v -23.092285 142.517883 -20.468901
v -19.619921 143.362442 -24.033394
v -25.330444 147.706223 -11.092443
v 25.782362 107.089088 -19.363235
v 20.147055 111.347397 -22.531067
v 11.511314 102.458107 -21.543585
v 19.793972 99.719627 -19.409609
v 2.837458 109.137596 -25.643297
v -4.982097 100.712173 -23.085077
v 3.836758 94.830544 -20.465359
v 12.481331 117.415489 -26.897072
v 3.813846 125.563347 -28.794207
v -5.133804 117.451988 -29.544254
v 26.524786 119.149078 -22.084160
v 19.828899 125.632156 -25.008263
v -11.968143 109.179863 -28.064655
v -16.952969 102.930115 -25.706385
v -10.877733 94.910072 -22.763090
v -21.893303 112.947906 -28.035341
v -25.192171 108.417610 -26.079664
v -21.412518 100.829575 -24.264648
v -16.638123 119.094818 -29.739964
v -19.397816 131.150589 -28.396721
v -24.444181 124.121986 -27.707790
v -10.304109 126.597244 -30.665751
v -3.211785 134.504120 -28.395952
v -7.588277 144.203491 -27.316284
v -13.448043 137.405075 -28.851315
v -15.163766 147.570938 -25.384447
v -11.155478 151.743454 -24.737167
v -1.543465 151.087845 -25.052174
v 15.644832 142.937027 -23.339285
v 11.420143 134.212830 -26.767845
v 4.265214 143.259323 -26.073206
v 9.823171 151.242752 -24.048965
v 33.634415 143.386047 -7.535555
v 31.738297 144.256668 -13.360541
v 30.857922 153.158127 -7.493868
v 33.463833 149.681717 -1.957850
v 31.485401 134.247330 -18.921593
v 27.507511 137.437332 -24.913797
v 27.845011 147.890350 -18.537237
v 22.432713 153.383804 -22.319000
v 21.934185 159.825333 -17.638014
v 26.906109 156.416595 -12.885968
v 24.179859 162.406067 -7.299372
v 28.515421 159.009308 -1.446061
v 30.711294 135.951004 9.938217
v 33.148243 144.881500 6.414268
v 29.886276 147.452301 9.574134
v 28.290323 137.468735 11.857632
v 34.091293 143.827942 2.178913
v 31.603956 154.417282 3.870299
v 24.144020 162.655472 4.887249
v 27.695667 157.470245 9.713293
v 22.048899 158.996704 14.928129
v 24.453848 151.294449 13.737948
v 18.079205 164.883667 11.408671
v 11.468172 164.267624 19.115297
v 15.900647 159.496887 19.777653
v 19.191849 166.714050 -1.398075
v 12.652153 169.182083 5.963927
v 6.423304 170.949081 -1.165293
v -0.776910 168.670151 9.200847
v 5.599727 167.478485 15.810947
v -1.757562 163.898056 22.299326
v 4.520705 161.393143 24.611147
v 18.554663 165.100067 -13.493447
v 13.134841 169.255432 -8.451487
v 17.042627 159.767868 -22.822960
v 12.179188 165.175827 -19.829596
v 5.419012 161.643585 -26.126894
v -0.651924 166.255890 -21.266321
v 6.465044 169.181961 -15.216120
v -0.225709 171.207886 -9.130897
v -6.951690 168.632889 -15.213140
v -13.670725 168.333725 -8.591028
v -7.508491 169.766495 -0.724707
v -7.690973 160.999451 -26.408504
v -13.054300 164.156158 -20.138380
v -17.341009 159.714798 -23.921507
v -20.964787 160.669662 -18.929953
v -18.373293 164.615341 -14.052348
v -23.744272 163.221405 -9.257417
v -20.380756 166.365692 -2.963323
v -8.562480 166.223083 15.279889
v -16.434319 162.659760 16.684744
v -9.533122 160.200897 23.319574
v -15.143532 167.524338 5.483540
v -26.457602 163.069534 0.732608
v -22.258724 164.281815 8.087189
v -27.180517 158.976257 9.222425
v -22.184523 158.666779 15.171135
v -30.486616 156.934204 3.107903
v -30.727961 147.143539 3.959243
v -28.077953 150.904297 7.371092
v -28.347107 160.475311 -5.502537
v -31.769781 154.234497 -2.440801
v -31.128653 151.509048 -7.500247
v -31.931192 143.640533 -3.852906
v -32.421986 144.302032 0.394736
v -31.839455 137.454712 4.471338
v -30.269613 139.452606 6.278037
v -24.671076 159.573975 -15.142644
v -28.197784 157.080231 -11.372920
v -20.702847 156.860504 -24.554771
v -24.250639 154.594086 -21.700094
v -23.690224 145.196442 -28.000734
v -26.587351 143.868744 -22.701132
v -27.257582 151.986618 -17.129129
v -29.288822 148.943329 -12.395547
v 25.949257 95.603134 -27.352663
v 19.918295 97.162483 -35.558777
v 27.119646 108.625786 -32.648056
v 30.862780 104.316078 -25.523600
v 8.493032 90.009888 -31.420370
v -2.301730 95.987373 -37.507977
v 8.582587 105.245232 -40.916916
v -3.156283 114.995857 -43.919209
v 7.265668 125.473511 -41.892197
v 18.250908 115.838409 -38.164734
v 24.541462 126.526192 -32.087612
v 30.206429 118.590469 -26.927416
v -11.261932 91.450706 -31.289942
v -19.289484 99.907776 -34.465607
v -12.320057 106.089554 -40.939648
v -23.526323 98.865448 -28.855064
v -26.909159 107.174255 -29.311325
v -24.521341 111.671005 -33.926853
v -26.211979 124.171043 -30.674917
v -22.332634 131.801956 -33.279613
v -19.340946 118.279144 -38.443165
v -11.825483 126.625221 -41.090492
v -16.172058 138.947891 -36.042637
v -8.870742 146.878616 -35.467461
v -2.870037 136.555252 -40.656139
v -18.698040 150.078552 -30.755049
v -13.529859 155.168213 -30.036736
v -1.785297 154.824295 -31.752741
v 15.806372 136.722366 -37.159302
v 20.335644 146.174744 -29.475225
v 5.682391 146.746170 -36.431820
v 12.210527 154.933029 -29.556995
v 29.477606 148.369614 -2.051692
v 27.296104 151.698776 -6.796129
v 28.111977 143.033676 -11.921712
v 30.778933 142.571808 -6.948036
v 24.126696 145.879486 -16.260292
v 22.977934 135.319321 -20.764574
v 28.458355 133.230728 -16.962652
v 23.793100 154.320877 -11.562067
v 19.290995 157.119049 -15.740830
v 19.068848 150.626312 -19.356771
v 25.055243 156.768539 -1.517342
v 21.481903 159.737106 -6.666397
v 32.841240 147.772690 -7.597451
v 30.215431 140.397171 -19.018373
v 25.188009 154.530441 -17.836954
v 28.023623 158.048141 -7.328052
v 31.072130 140.467560 9.665462
v 33.765713 148.550797 2.830974
v 28.391228 158.893738 4.507163
v 26.505836 154.499649 12.626274
v 17.129770 162.287445 16.507067
v 18.790760 166.431656 5.217946
v 6.069823 169.535187 7.862387
v 5.087522 164.542419 21.605946
v 19.117540 166.245682 -7.721306
v 17.560522 163.216934 -18.535776
v 5.954718 166.171631 -20.823149
v 6.598550 170.933502 -9.002691
v -7.145096 170.221725 -8.890104
v -7.191352 165.483124 -20.933477
v -17.658504 162.581818 -19.206293
v -19.317621 165.899429 -8.662764
v -9.138720 163.349274 20.549799
v -7.950153 168.143768 8.094142
v -21.447186 165.896790 2.775991
v -22.540678 161.668198 12.451902
v -29.774950 153.674179 5.844579
v -29.849930 159.304092 -0.806377
v -32.429203 148.010025 -3.672989
v -31.582281 141.275223 4.176723
v -26.533079 160.425552 -10.294513
v -22.903414 158.254333 -20.100176
v -25.719671 149.028641 -22.676353
v -29.183920 152.832520 -12.082988
v 27.364866 100.526161 -31.007195
v 9.076649 95.919067 -37.225548
v 7.915549 115.008247 -42.102558
v 25.940985 117.247063 -32.591106
v -11.774334 97.173027 -36.746159
v -24.301590 103.750565 -31.805304
v -23.818110 121.442558 -34.203274
v -12.480065 116.090782 -42.226723
v -10.402808 137.248322 -38.941933
v -20.496119 141.701340 -32.377556
v -17.637331 155.842361 -27.834164
v -8.146418 154.821213 -31.294956
v 22.833445 136.648483 -31.459312
v 6.564518 136.555679 -40.374344
v 5.283960 155.082886 -31.309578
v 18.046144 153.932053 -26.393078
v 29.151417 146.608841 -6.866834
v 26.269323 138.792587 -16.560589
v 22.029531 152.177567 -15.836330
v 24.841814 156.021530 -6.664068
v 26.495140 139.701187 7.055579
v 29.177799 147.067307 1.484943
v 24.336504 156.103012 3.159667
v 21.419842 151.571060 7.925013
v 13.502171 157.214279 12.643141
v 15.892976 161.924484 4.037715
v 5.232012 164.266861 6.651183
v 4.118876 158.417252 16.983717
v 17.008768 163.060989 -7.126469
v 15.440848 160.147720 -16.603622
v 5.220622 162.202209 -18.569429
v 5.900295 166.842773 -8.262259
v -6.450454 165.687424 -8.134144
v -6.239864 161.234787 -18.555513
v -14.857175 158.818558 -16.905891
v -16.816109 161.732330 -8.140236
v -7.624065 157.431656 15.472075
v -6.932463 162.642059 6.403888
v -18.385181 160.707001 1.171150
v -18.805454 156.911301 8.143107
v -25.148291 151.347168 2.704678
v -24.864103 156.114532 -2.157286
v -27.736357 146.538742 -4.122977
v -28.456999 140.433884 2.547699
v -22.121490 157.328400 -9.365360
v -18.611128 155.253662 -17.380213
v -21.064930 147.089905 -19.729992
v -24.236153 151.066086 -10.607364
v 19.490252 104.913696 -20.305187
v 2.899856 101.238335 -21.981316
v 3.292614 117.410027 -28.181849
v 20.468912 118.247910 -24.194801
v -11.454815 101.154785 -24.715605
v -21.623632 105.924011 -25.861454
v -21.061642 121.674278 -28.687387
v -11.530393 117.831261 -30.065903
v -8.908961 135.584381 -29.216547
v -17.094980 140.104477 -27.159945
v -14.352750 152.617096 -23.290300
v -6.811658 151.244370 -25.248940
v 17.655426 134.140121 -24.381416
v 4.134451 134.255554 -27.521908
v 4.322751 151.203690 -24.726488
v 14.728579 150.707489 -22.176163
vt 0.095144 0.014648
vt 0.760930 0.155669
vt 0.380860 0.118985
vt 0.259184 0.116418
vt 0.331855 0.295712
vt 0.236318 0.237881
vt 0.029306 0.205046
vt 0.695853 0.395676
vt 0.359165 0.209689
vt 0.151781 0.249852
vt 0.547809 0.374088
vt 0.312466 0.391559
vt 0.013203 0.108977
vt 0.785654 0.310877
vt 0.183236 0.042224
vt 0.636057 0.124399
vt 0.320987 0.114084
vt 0.410832 0.009766
vt 0.237909 0.183278
vt 0.287000 0.267406
vt 0.319457 0.050518
vt 0.499593 0.070532
vt 0.310314 0.192902
vt 0.263509 0.312903
vt 0.414298 0.374961
vt 0.130486 0.157993
vt 0.318036 0.337705
vt 0.211259 0.240820
vt 0.221919 0.280690
vt 0.467485 0.370510
vt 0.069022 0.225589
vt 0.640704 0.391339
vt 0.009766 0.159430
vt 0.747770 0.361246
vt 0.042495 0.054867
vt 0.800174 0.234313
vt 0.070781 0.136398
vt 0.151368 0.095396
vt 0.129068 0.205409
vt 0.190976 0.173528
vt 0.363894 0.034081
vt 0.457563 0.040053
vt 0.135477 0.021607
vt 0.704946 0.128230
vt 0.254204 0.039135
vt 0.566429 0.092230
vt 0.232821 0.087061
vt 0.287081 0.113737
vt 0.319318 0.083015
vt 0.353763 0.117084
vt 0.390913 0.072074
vt 0.316917 0.151256
vt 0.336579 0.201736
vt 0.371487 0.162067
vt 0.249703 0.146088
vt 0.275779 0.187132
vt 0.233544 0.217344
vt 0.260121 0.252096
vt 0.300149 0.236138
vt 0.310333 0.282489
vt 0.346081 0.256230
vt 0.274015 0.288432
vt 0.279575 0.364190
vt 0.361161 0.396024
vt 0.276061 0.078783
vt 0.356700 0.081387
vt 0.345910 0.157693
vt 0.283714 0.149018
vt 0.268365 0.225902
vt 0.324804 0.246683
vt 0.296171 0.314462
vt 0.244446 0.264645
vt 0.097678 0.076055
vt 0.065445 0.185569
vt 0.191877 0.211420
vt 0.205832 0.126834
vt 0.558118 0.104644
vt 0.496002 0.081665
vt 0.522898 0.127861
vt 0.478801 0.111039
vt 0.625088 0.140334
vt 0.557544 0.157777
vt 0.519052 0.174460
vt 0.494606 0.158230
vt 0.461239 0.142383
vt 0.451668 0.055032
vt 0.421302 0.036871
vt 0.440124 0.095429
vt 0.409138 0.076564
vt 0.426386 0.131002
vt 0.398278 0.122746
vt 0.413966 0.173148
vt 0.387261 0.165455
vt 0.445941 0.181285
vt 0.430267 0.224268
vt 0.399652 0.217528
vt 0.373951 0.212256
vt 0.479071 0.195579
vt 0.512457 0.209059
vt 0.503863 0.253141
vt 0.466320 0.237260
vt 0.452689 0.279333
vt 0.416731 0.269982
vt 0.489950 0.291639
vt 0.476423 0.312451
vt 0.445668 0.312775
vt 0.410494 0.308417
vt 0.386529 0.264166
vt 0.361458 0.259319
vt 0.378090 0.304713
vt 0.350328 0.300606
vt 0.371926 0.340778
vt 0.337264 0.342738
vt 0.410967 0.337109
vt 0.410362 0.366777
vt 0.360667 0.379231
vt 0.330399 0.377240
vt 0.453978 0.334967
vt 0.498870 0.328298
vt 0.549863 0.362707
vt 0.467947 0.360744
vt 0.744496 0.226793
vt 0.733323 0.177363
vt 0.685518 0.216749
vt 0.690850 0.160105
vt 0.738917 0.294680
vt 0.675120 0.288255
vt 0.613067 0.281791
vt 0.624711 0.207765
vt 0.716756 0.348415
vt 0.659626 0.344245
vt 0.688415 0.378342
vt 0.640079 0.378179
vt 0.591950 0.332326
vt 0.532156 0.307490
vt 0.552541 0.268076
vt 0.560854 0.211609
vt 0.514389 0.104346
vt 0.568696 0.128973
vt 0.522862 0.152800
vt 0.488869 0.133551
vt 0.428836 0.061176
vt 0.465946 0.085035
vt 0.451005 0.119793
vt 0.416956 0.106427
vt 0.405254 0.147295
vt 0.436568 0.155676
vt 0.422033 0.198228
vt 0.392597 0.191466
vt 0.470108 0.168140
vt 0.500003 0.184194
vt 0.489850 0.223805
vt 0.455234 0.208577
vt 0.440617 0.252443
vt 0.477825 0.266112
vt 0.465227 0.300824
vt 0.429859 0.293972
vt 0.378949 0.238373
vt 0.407116 0.243816
vt 0.396601 0.287791
vt 0.367819 0.282681
vt 0.358529 0.322205
vt 0.392639 0.322705
vt 0.387334 0.357492
vt 0.346370 0.363534
vt 0.429155 0.323914
vt 0.467216 0.322669
vt 0.491533 0.347417
vt 0.434855 0.350301
vt 0.714992 0.192116
vt 0.713443 0.256467
vt 0.650346 0.248957
vt 0.658921 0.177573
vt 0.700727 0.321009
vt 0.679469 0.366138
vt 0.612056 0.358854
vt 0.635992 0.315771
vt 0.572953 0.300740
vt 0.542846 0.334601
vt 0.498255 0.310646
vt 0.519096 0.281594
vt 0.593941 0.176457
vt 0.588242 0.243551
vt 0.531392 0.236729
vt 0.536248 0.187786
vt 0.292957 0.063059
vt 0.237083 0.060472
vt 0.265230 0.098000
vt 0.302079 0.097034
vt 0.380843 0.050246
vt 0.339745 0.063726
vt 0.338284 0.099675
vt 0.371657 0.098137
vt 0.364496 0.138670
vt 0.335315 0.134072
vt 0.328266 0.175306
vt 0.354456 0.182893
vt 0.302989 0.131019
vt 0.271387 0.131888
vt 0.262318 0.166737
vt 0.297463 0.169192
vt 0.289629 0.210928
vt 0.253856 0.204287
vt 0.249805 0.234783
vt 0.279642 0.247226
vt 0.342693 0.229748
vt 0.319120 0.219849
vt 0.306194 0.259654
vt 0.328958 0.271664
vt 0.314213 0.307714
vt 0.292221 0.287757
vt 0.278591 0.318893
vt 0.301503 0.351659
vt 0.267419 0.268532
vt 0.239561 0.249295
vt 0.208599 0.258717
vt 0.251749 0.286072
vt 0.092350 0.041569
vt 0.054705 0.094573
vt 0.110087 0.116584
vt 0.141127 0.057229
vt 0.038013 0.148838
vt 0.042585 0.194429
vt 0.102091 0.217826
vt 0.095528 0.174278
vt 0.159236 0.189440
vt 0.171057 0.227730
vt 0.219218 0.227534
vt 0.213713 0.197744
vt 0.192884 0.085924
vt 0.168537 0.139034
vt 0.221605 0.159079
vt 0.238028 0.119359
vt 0.525684 0.092753
vt 0.542040 0.114944
vt 0.500835 0.118625
vt 0.488204 0.095077
vt 0.590385 0.119803
vt 0.588087 0.148715
vt 0.543141 0.140199
vt 0.533548 0.167325
vt 0.508328 0.167293
vt 0.507025 0.142210
vt 0.478593 0.149823
vt 0.469745 0.126266
vt 0.433070 0.040547
vt 0.446522 0.073857
vt 0.423015 0.085366
vt 0.414971 0.050223
vt 0.471987 0.068914
vt 0.458642 0.103647
vt 0.443494 0.136220
vt 0.433218 0.113419
vt 0.410942 0.126393
vt 0.403621 0.100507
vt 0.420210 0.151355
vt 0.399328 0.169023
vt 0.392967 0.143977
vt 0.453483 0.161017
vt 0.429617 0.176799
vt 0.438077 0.202306
vt 0.414354 0.220416
vt 0.406931 0.195047
vt 0.385618 0.214594
vt 0.380731 0.188435
vt 0.485822 0.176160
vt 0.462596 0.187919
vt 0.515771 0.189113
vt 0.494855 0.203150
vt 0.508687 0.230966
vt 0.484377 0.245135
vt 0.472744 0.216068
vt 0.447936 0.230093
vt 0.459273 0.258786
vt 0.434262 0.274209
vt 0.422887 0.247361
vt 0.497392 0.273891
vt 0.471129 0.285191
vt 0.482215 0.304806
vt 0.462971 0.313241
vt 0.447653 0.297584
vt 0.427969 0.310838
vt 0.412592 0.290527
vt 0.392677 0.241068
vt 0.372909 0.261503
vt 0.367491 0.236255
vt 0.400978 0.266813
vt 0.393863 0.306504
vt 0.381730 0.285322
vt 0.363189 0.302663
vt 0.355958 0.280333
vt 0.375420 0.322515
vt 0.353152 0.342198
vt 0.343909 0.321444
vt 0.410460 0.323072
vt 0.391080 0.338875
vt 0.410490 0.353144
vt 0.384358 0.373392
vt 0.365816 0.361552
vt 0.340499 0.381072
vt 0.330958 0.364373
vt 0.448237 0.324142
vt 0.431942 0.336101
vt 0.484440 0.318502
vt 0.477044 0.332823
vt 0.520216 0.343816
vt 0.504060 0.361036
vt 0.461509 0.348535
vt 0.437470 0.362609
vt 0.739407 0.196567
vt 0.715787 0.222062
vt 0.687998 0.185207
vt 0.715757 0.168522
vt 0.744130 0.260896
vt 0.708308 0.290919
vt 0.681067 0.252658
vt 0.643736 0.285623
vt 0.619874 0.245781
vt 0.655511 0.211148
vt 0.627616 0.173296
vt 0.661951 0.151505
vt 0.729464 0.323945
vt 0.691011 0.346245
vt 0.668152 0.318855
vt 0.701779 0.367813
vt 0.670285 0.380322
vt 0.649001 0.364209
vt 0.600065 0.371958
vt 0.574661 0.349257
vt 0.625853 0.339986
vt 0.604256 0.310239
vt 0.560175 0.320125
vt 0.543946 0.290213
vt 0.582027 0.275524
vt 0.517185 0.320019
vt 0.509520 0.298533
vt 0.526536 0.260701
vt 0.592060 0.209101
vt 0.562088 0.182730
vt 0.557924 0.240966
vt 0.534388 0.211737
vt 0.318075 0.065529
vt 0.298300 0.080669
vt 0.265567 0.060110
vt 0.286830 0.044827
vt 0.533011 0.081381
vt 0.253301 0.079750
vt 0.211518 0.067844
vt 0.218720 0.040679
vt 0.601243 0.108314
vt 0.283392 0.096471
vt 0.271661 0.115340
vt 0.249480 0.104627
vt 0.320606 0.098498
vt 0.303805 0.113401
vt 0.397961 0.043971
vt 0.375287 0.076380
vt 0.359992 0.058386
vt 0.387363 0.021924
vt 0.434197 0.024910
vt 0.338414 0.083426
vt 0.341675 0.042300
vt 0.478578 0.055293
vt 0.355254 0.099807
vt 0.337776 0.115536
vt 0.385457 0.096654
vt 0.368534 0.118054
vt 0.376392 0.140340
vt 0.359739 0.160208
vt 0.350335 0.136653
vt 0.331834 0.154318
vt 0.319509 0.131878
vt 0.341426 0.179384
vt 0.324174 0.197121
vt 0.313953 0.171596
vt 0.365583 0.185508
vt 0.348742 0.206237
vt 0.300564 0.149683
vt 0.286650 0.131141
vt 0.267306 0.148676
vt 0.255685 0.129285
vt 0.279888 0.167702
vt 0.257482 0.185473
vt 0.243356 0.164471
vt 0.293786 0.189591
vt 0.305694 0.215181
vt 0.284933 0.230906
vt 0.271992 0.207245
vt 0.251333 0.221337
vt 0.234627 0.201353
vt 0.264732 0.240966
vt 0.246729 0.244233
vt 0.234691 0.229899
vt 0.293731 0.253482
vt 0.273791 0.259798
vt 0.352720 0.233633
vt 0.336151 0.252024
vt 0.331066 0.224761
vt 0.313121 0.241392
vt 0.317710 0.265722
vt 0.299004 0.274991
vt 0.339083 0.276374
vt 0.321512 0.289837
vt 0.324526 0.315894
vt 0.307422 0.327564
vt 0.303224 0.297592
vt 0.285523 0.301282
vt 0.280515 0.278105
vt 0.288963 0.336532
vt 0.271542 0.338547
vt 0.387729 0.385493
vt 0.267236 0.301240
vt 0.313325 0.361930
vt 0.296021 0.377874
vt 0.336814 0.393791
vt 0.260185 0.276324
vt 0.253558 0.258955
vt 0.227214 0.253084
vt 0.227443 0.239004
vt 0.232185 0.272270
vt 0.186850 0.265271
vt 0.507647 0.372299
vt 0.186415 0.244256
vt 0.242714 0.296797
vt 0.440892 0.372736
vt 0.115311 0.018128
vt 0.732938 0.141950
vt 0.116309 0.048890
vt 0.071458 0.066541
vt 0.068820 0.034757
vt 0.780552 0.194991
vt 0.081978 0.106402
vt 0.043190 0.122921
vt 0.027849 0.081922
vt 0.792914 0.272595
vt 0.124252 0.084724
vt 0.138963 0.126876
vt 0.100042 0.148028
vt 0.159357 0.031916
vt 0.670501 0.126315
vt 0.166690 0.068827
vt 0.065656 0.162516
vt 0.038152 0.172587
vt 0.011485 0.134203
vt 0.766712 0.336061
vt 0.068986 0.206374
vt 0.049164 0.215318
vt 0.668278 0.393507
vt 0.019536 0.182238
vt 0.721812 0.378461
vt 0.096295 0.196991
vt 0.137561 0.225904
vt 0.110401 0.237721
vt 0.594257 0.382713
vt 0.126949 0.183471
vt 0.161622 0.166473
vt 0.189216 0.193695
vt 0.162130 0.209378
vt 0.199352 0.227030
vt 0.214703 0.214057
vt 0.216073 0.179213
vt 0.217425 0.104206
vt 0.179213 0.110919
vt 0.196766 0.150591
vt 0.229271 0.138682
vn 0.963358 -0.259735 -0.066928
vn 0.961099 -0.274988 0.025878
vn 0.926451 0.268108 -0.264210
vn 0.954478 0.282209 -0.096587
vn 0.970135 -0.242402 0.008953
vn 0.895152 0.251191 -0.368246
vn 0.846367 0.357046 -0.395197
vn 0.867588 0.412386 -0.277902
vn 0.879713 0.466063 -0.094287
vn 0.979365 -0.164692 -0.117135
vn 0.855812 0.239167 -0.458679
vn 0.961690 0.040126 -0.271185
vn 0.800983 0.229502 -0.552951
vn 0.750130 0.335259 -0.570006
vn 0.808072 0.330400 -0.487704
vn 0.763532 0.421498 -0.489243
vn 0.791904 0.484085 -0.372224
vn 0.696343 0.416470 -0.584516
vn 0.638310 0.499582 -0.585643
vn 0.670912 0.573887 -0.469607
vn 0.686380 0.652125 -0.321893
vn 0.785490 0.571943 -0.236403
vn 0.762083 0.644400 -0.063078
vn 0.669585 0.722598 -0.171779
vn 0.641384 0.766944 -0.020593
vn 0.295120 -0.598846 0.744505
vn 0.833728 -0.536661 0.129975
vn 0.687111 0.057819 0.724248
vn 0.011439 0.067793 0.997634
vn 0.883706 -0.463355 -0.066069
vn 0.887332 0.078871 0.454336
vn 0.839255 0.253130 0.481225
vn 0.654644 0.052035 0.754145
vn 0.010753 -0.133258 0.991023
vn 0.933423 -0.338978 -0.117540
vn 0.965142 0.214008 0.150671
vn 0.885226 0.435738 0.162811
vn 0.751390 0.640269 0.159590
vn 0.745106 0.483261 0.459648
vn 0.621461 0.767533 0.157099
vn 0.618259 0.682316 0.390129
vn 0.679571 0.165736 0.714643
vn 0.160568 -0.388702 0.907264
vn 0.628109 0.446472 0.637292
vn 0.268668 -0.343437 0.899927
vn 0.526844 0.645495 0.552965
vn 0.389926 -0.172594 0.904527
vn 0.501414 0.789961 0.352912
vn 0.295046 0.889460 0.349013
vn 0.356639 0.752762 0.553316
vn 0.377594 -0.099849 0.920572
vn 0.497873 0.852094 0.161423
vn 0.512380 0.858754 0.002878
vn 0.302941 0.952562 0.029199
vn 0.273030 0.945865 0.175480
vn 0.026886 0.979022 0.201972
vn 0.053122 0.934587 0.351746
vn 0.064211 0.994610 0.081419
vn -0.078956 0.989586 0.120359
vn -0.089969 0.972882 0.213090
vn -0.096679 0.931914 0.349555
vn 0.108426 0.809785 0.576621
vn 0.194935 -0.117561 0.973745
vn -0.107961 0.806567 0.581201
vn -0.085186 -0.165351 0.982549
vn 0.525641 0.838538 -0.143373
vn 0.520464 0.796852 -0.306828
vn 0.336621 0.878935 -0.337876
vn 0.339108 0.930234 -0.140250
vn 0.491657 0.720765 -0.488642
vn 0.491295 0.585172 -0.645138
vn 0.304013 0.648306 -0.698051
vn 0.305987 0.787743 -0.534634
vn 0.132223 0.812531 -0.567724
vn 0.147230 0.917849 -0.368615
vn 0.123503 0.675038 -0.727372
vn -0.020845 0.683556 -0.729600
vn -0.033752 0.819705 -0.571791
vn -0.040908 0.926855 -0.373184
vn 0.123528 0.985219 -0.118676
vn -0.058198 0.994279 -0.089569
vn -0.192205 0.977204 -0.090165
vn -0.156916 0.981972 0.105399
vn -0.202177 0.912520 -0.355573
vn -0.326582 0.883762 -0.335126
vn -0.306470 0.942723 -0.131721
vn -0.255358 0.966006 0.040314
vn -0.180255 0.820659 -0.542243
vn -0.139850 0.698297 -0.702013
vn -0.249640 0.717119 -0.650708
vn -0.298323 0.816381 -0.494495
vn -0.408933 0.798135 -0.442441
vn -0.429941 0.840769 -0.329027
vn -0.368743 0.723815 -0.583199
vn -0.496043 0.700834 -0.512614
vn -0.531213 0.737106 -0.417716
vn -0.538052 0.767344 -0.348832
vn -0.415772 0.887878 -0.196994
vn -0.393112 0.918244 -0.047865
vn -0.541007 0.799839 -0.259942
vn -0.568344 0.813633 -0.122419
vn -0.274141 0.779051 0.563849
vn -0.347606 -0.213902 0.912916
vn -0.190844 0.917477 0.349018
vn -0.300830 0.890645 0.340957
vn -0.411576 0.734317 0.539799
vn -0.508393 -0.258283 0.821478
vn -0.143492 0.967740 0.207095
vn -0.239271 0.954981 0.175387
vn -0.405712 0.906714 0.115186
vn -0.469539 0.827475 0.307925
vn -0.632989 0.772073 0.056824
vn -0.723682 0.633547 0.273683
vn -0.564810 0.645953 0.513551
vn -0.553044 -0.290112 0.781011
vn -0.786758 0.378703 0.487439
vn -0.505109 -0.374572 0.777535
vn -0.887006 0.075644 0.455521
vn -0.308937 -0.382365 0.870836
vn -0.919042 0.310159 0.243235
vn -0.972139 0.106481 0.208826
vn -0.873429 0.051510 0.484220
vn -0.154761 -0.075926 0.985030
vn -0.861704 0.507314 0.009880
vn -0.775156 0.603589 -0.186585
vn -0.906711 0.342071 -0.246706
vn -0.970058 0.238198 -0.047430
vn -0.990547 0.040472 -0.131070
vn -0.989442 0.035949 0.140401
vn -0.947262 0.120726 -0.296851
vn -0.725351 -0.442391 -0.527405
vn -0.778214 -0.414829 -0.471488
vn -0.905661 -0.367227 -0.211952
vn -0.890217 0.108437 0.442442
vn -0.236469 0.101962 0.966274
vn -0.942203 -0.321658 0.093751
vn -0.508775 -0.295304 0.808668
vn -0.714573 0.621585 -0.320962
vn -0.696282 0.602989 -0.389352
vn -0.829973 0.385118 -0.403521
vn -0.851220 0.381178 -0.360733
vn -0.689432 0.565772 -0.452312
vn -0.600666 0.542589 -0.587195
vn -0.699556 0.360667 -0.616880
vn -0.802866 0.371582 -0.466189
vn -0.871922 0.231246 -0.431598
vn -0.901266 0.220083 -0.373206
vn -0.775909 0.230044 -0.587406
vn -0.978466 0.028581 -0.204418
vn -0.977999 -0.208612 -0.000213
vn -0.909069 -0.415522 -0.030569
vn -0.913894 0.180247 -0.363741
vn -0.809644 -0.488422 -0.325456
vn 0.735631 -0.534131 0.416595
vn 0.537676 -0.825917 0.169608
vn 0.710123 -0.317769 -0.628290
vn 0.985472 -0.147018 0.085029
vn 0.309297 -0.950942 0.006666
vn 0.388168 -0.443096 -0.808079
vn 0.410899 -0.120237 -0.903718
vn 0.682293 -0.028182 -0.730535
vn 0.996060 0.060438 -0.064902
vn 0.097055 -0.991006 -0.092126
vn 0.126675 -0.527986 -0.839753
vn -0.062983 -0.988329 -0.138707
vn -0.040762 -0.570365 -0.820380
vn -0.016424 -0.293249 -0.955895
vn 0.190196 -0.227967 -0.954912
vn 0.234294 -0.018472 -0.971990
vn 0.449542 0.035461 -0.892555
vn -0.009453 -0.030637 -0.999486
vn -0.032129 0.133372 -0.990545
vn 0.221574 0.102024 -0.969792
vn 0.472755 0.106192 -0.874772
vn 0.674162 0.104912 -0.731095
vn 0.978028 0.126749 -0.165517
vn 0.696723 0.146087 -0.702307
vn -0.264548 -0.944198 -0.196223
vn -0.261032 -0.541345 -0.799255
vn -0.529826 -0.833489 -0.156784
vn -0.515213 -0.439340 -0.735891
vn -0.542027 -0.189248 -0.818775
vn -0.297618 -0.274842 -0.914268
vn -0.749187 -0.660600 -0.048233
vn -0.716571 -0.312542 -0.623573
vn -0.912892 -0.379732 0.149772
vn -0.981277 -0.129483 -0.142585
vn -0.978198 0.034078 -0.204861
vn -0.711550 -0.087175 -0.697207
vn -0.696260 0.096404 -0.711286
vn -0.545817 0.041542 -0.836874
vn -0.975754 0.113116 -0.187374
vn -0.671568 0.178066 -0.719228
vn -0.517638 0.174652 -0.837585
vn -0.311710 -0.006382 -0.950156
vn -0.301715 0.162578 -0.939434
vn -0.259312 0.276724 -0.925301
vn -0.054545 0.270462 -0.961184
vn -0.444387 0.256609 -0.858296
vn -0.325239 0.376410 -0.867488
vn -0.176956 0.406922 -0.896159
vn -0.048087 0.426797 -0.903068
vn -0.616078 0.234162 -0.752074
vn -0.517539 0.358616 -0.776883
vn -0.410437 0.553394 -0.724774
vn -0.239393 0.550706 -0.799634
vn -0.121518 0.544749 -0.829748
vn -0.023894 0.548973 -0.835498
vn 0.686749 0.231929 -0.688901
vn 0.454452 0.237708 -0.858469
vn 0.399015 0.410591 -0.819880
vn 0.630934 0.369903 -0.681978
vn 0.180035 0.249556 -0.951477
vn 0.138172 0.428649 -0.892843
vn 0.122188 0.555445 -0.822527
vn 0.341448 0.534780 -0.772932
vn 0.559605 0.474412 -0.679541
vn -0.546244 -0.836458 0.044213
vn -0.933174 -0.358845 0.020420
vn -0.887440 -0.341073 0.310032
vn -0.436946 -0.734481 0.519245
vn -0.886899 -0.461952 0.003282
vn -0.869641 -0.402463 0.285917
vn -0.822278 -0.327352 0.465510
vn -0.813649 -0.307737 0.493227
vn -0.289631 -0.658703 0.694424
vn -0.695297 -0.280759 0.661617
vn -0.145825 -0.586886 0.796430
vn -0.724532 -0.264577 0.636437
vn -0.583005 -0.221534 0.781682
vn -0.552803 -0.243656 0.796894
vn 0.001694 -0.280087 0.959973
vn -0.783481 -0.451109 0.427385
vn -0.721733 -0.339431 0.603231
vn -0.684012 -0.633784 0.361172
vn -0.656000 -0.515512 0.551282
vn -0.584950 -0.375334 0.718998
vn -0.591434 -0.254102 0.765270
vn -0.750221 -0.659897 -0.041276
vn -0.785562 -0.572897 0.233841
vn -0.613025 -0.783448 -0.102022
vn -0.662852 -0.734102 0.147380
vn -0.592153 -0.803789 0.057252
vn -0.911845 -0.240729 0.332549
vn -0.647729 -0.360154 -0.671368
vn -0.128750 -0.706034 -0.696376
vn -0.850723 -0.424963 0.309316
vn -0.681743 -0.234702 -0.692923
vn -0.688000 -0.198117 -0.698144
vn -0.641146 -0.289046 -0.710904
vn -0.082166 -0.653397 -0.752543
vn -0.860715 -0.308472 -0.404987
vn -0.281536 -0.734247 -0.617753
vn -0.833872 -0.389073 -0.391510
vn -0.644615 -0.348868 -0.680267
vn -0.699981 -0.600414 -0.386692
vn -0.573777 -0.565771 -0.592185
vn -0.569900 -0.738692 -0.359929
vn -0.678947 -0.665939 0.309122
vn -0.688033 -0.243385 -0.683647
vn -0.420227 -0.830597 0.365401
vn -0.646493 -0.440592 -0.622837
vn -0.167471 -0.904780 0.391569
vn -0.528527 -0.637447 -0.560643
vn 0.059407 -0.913656 0.402125
vn -0.343102 -0.758721 -0.553736
vn -0.315254 -0.806735 -0.499793
vn -0.480201 -0.706623 -0.519702
vn -0.465012 -0.816606 -0.341933
vn -0.276322 -0.901205 -0.333881
vn -0.285300 -0.947800 -0.142408
vn -0.487976 -0.863019 -0.130679
vn -0.086797 -0.860472 -0.502049
vn -0.047365 -0.940067 -0.337684
vn 0.132933 -0.860705 -0.491443
vn 0.126022 -0.933309 -0.336232
vn 0.116597 -0.974288 -0.192790
vn -0.050097 -0.984379 -0.168786
vn 0.118356 -0.897650 0.424519
vn -0.098052 -0.820393 -0.563331
vn 0.024024 -0.901653 0.431793
vn 0.135356 -0.828509 -0.543370
vn -0.514258 -0.850947 0.106904
vn -0.310138 -0.944629 0.107193
vn -0.304407 -0.877286 0.371088
vn -0.513714 -0.788660 0.337808
vn -0.476178 -0.673539 0.565332
vn -0.266661 -0.740068 0.617408
vn -0.244212 -0.479694 0.842766
vn -0.439177 -0.438692 0.784011
vn -0.097680 -0.909660 0.403705
vn -0.083669 -0.754827 0.650566
vn 0.076235 -0.910670 0.406040
vn 0.059278 -0.755793 0.652122
vn 0.015767 -0.506705 0.861975
vn -0.080044 -0.490150 0.867955
vn -0.081790 -0.991971 0.096458
vn 0.098087 -0.992555 0.072206
vn 0.221790 -0.956994 -0.187005
vn 0.228038 -0.971645 0.062482
vn 0.300381 -0.942832 -0.144356
vn 0.331879 -0.939288 0.087146
vn 0.340989 -0.867738 0.361604
vn 0.219132 -0.896858 0.384222
vn 0.185551 -0.762115 0.620283
vn 0.306230 -0.762196 0.570334
vn 0.231120 -0.608310 0.759304
vn 0.109758 -0.555342 0.824347
vn 0.456206 -0.812639 0.362621
vn 0.434058 -0.739099 0.515099
vn 0.569641 -0.718890 0.398380
vn 0.560672 -0.669133 0.487758
vn 0.516794 -0.622614 0.587602
vn 0.372977 -0.637115 0.674517
vn 0.401156 -0.914323 -0.055559
vn 0.434482 -0.886342 0.160073
vn 0.579550 -0.812391 0.064361
vn 0.566804 -0.781323 0.261280
vn -0.090458 -0.925258 0.368396
vn 0.282719 -0.812646 -0.509585
vn -0.128034 -0.948925 0.288354
vn 0.356787 -0.795924 -0.489089
vn 0.341777 -0.827487 -0.445482
vn 0.273059 -0.841015 -0.467046
vn 0.230487 -0.917223 -0.324926
vn 0.294654 -0.907847 -0.298318
vn 0.452505 -0.791727 -0.410375
vn 0.399298 -0.885296 -0.238352
vn 0.697323 -0.624895 -0.351066
vn 0.624156 -0.767427 -0.146580
vn -0.000832 -0.964050 0.265720
vn 0.486633 -0.740709 -0.463182
vn 0.409490 -0.840781 0.354125
vn 0.750233 -0.536237 -0.386782
vn 0.762656 -0.504655 0.404573
vn 0.912613 -0.302315 -0.275215
vn 0.867682 -0.285931 0.406659
vn 0.938066 -0.275291 -0.210350
vn 0.952592 -0.239187 -0.188037
vn 0.899279 -0.350556 -0.261549
vn 0.864193 -0.501984 -0.034397
vn 0.952740 -0.296728 0.065113
vn 0.895552 -0.350948 0.273535
vn 0.795901 -0.575313 0.188565
vn 0.896424 -0.368292 -0.246545
vn 0.950084 -0.308661 0.045486
vn 0.276049 -0.769891 -0.575382
vn 0.333854 -0.756970 -0.561728
vn 0.453247 -0.846682 -0.278743
vn 0.910032 -0.296180 0.290034
vn 0.882047 -0.282458 0.377109
vn 0.879258 -0.409196 -0.243851
vn 0.649362 -0.720180 0.244273
vn 0.363085 -0.809586 -0.461237
vn 0.736042 -0.575652 0.356184
vn 0.840868 -0.367088 0.397729
vn 0.809479 -0.374694 0.452049
vn 0.706600 -0.549528 0.445798
vn 0.686962 -0.513652 0.514048
vn 0.768528 -0.376713 0.517158
vn 0.640563 -0.373329 0.671047
vn 0.586250 -0.484006 0.649653
vn 0.828565 -0.346398 0.439873
vn 0.765553 -0.372005 0.524920
vn 0.209243 -0.833663 0.511100
vn 0.063325 -0.674383 0.735661
vn -0.144863 -0.347322 0.926489
vn 0.615932 -0.353119 0.704226
vn 0.863978 -0.315973 0.392051
vn 0.399977 -0.901273 0.166510
vn 0.392396 -0.350868 0.850245
vn 0.384067 0.117105 0.915849
vn -0.233936 0.272634 0.933244
vn 0.159959 -0.545634 0.822616
vn 0.380896 0.196606 0.903473
vn -0.299554 0.290654 0.908729
vn -0.199170 0.335574 0.920718
vn -0.157995 0.312766 0.936598
vn 0.096880 -0.640795 0.761575
vn -0.119091 0.333979 0.935027
vn 0.008303 -0.673407 0.739226
vn -0.134430 0.352867 0.925966
vn -0.148307 0.344102 0.927146
vn -0.163976 0.338181 0.926685
vn -0.119104 -0.671091 0.731746
vn -0.220768 0.181639 0.958263
vn -0.143947 0.192726 0.970637
vn -0.230585 -0.022108 0.972801
vn -0.144456 -0.026156 0.989165
vn -0.133261 -0.034469 0.990482
vn -0.128462 0.188748 0.973587
vn 0.265484 0.064496 0.961956
vn -0.343998 0.134313 0.929314
vn -0.390633 -0.072904 0.917655
vn -0.126392 0.337032 0.932971
vn -0.257104 -0.636178 0.727444
vn -0.070304 0.307668 0.948893
vn 0.110312 0.245596 0.963075
vn 0.056740 0.329155 0.942570
vn -0.344979 -0.516423 0.783771
vn 0.180294 0.300675 0.936530
vn -0.355582 -0.317128 0.879199
vn 0.208601 0.164899 0.963999
vn -0.451346 0.104297 0.886233
vn -0.461352 0.168896 0.870993
vn -0.544954 -0.102510 0.832176
vn 0.154155 0.069796 0.985578
vn 0.256845 -0.024176 0.966150
vn 0.172503 -0.080928 0.981679
vn 0.324604 -0.164916 0.931362
vn -0.333470 -0.054693 0.941173
vn -0.015366 0.148651 0.988770
vn -0.014069 -0.043097 0.998972
vn -0.137807 -0.168821 0.975966
vn -0.065966 -0.174853 0.982382
vn -0.111345 -0.186625 0.976101
vn -0.076108 -0.225012 0.971379
vn 0.119634 -0.282979 0.951636
vn 0.139825 -0.198320 0.970112
vn 0.374877 -0.269381 0.887074
vn 0.394874 -0.341848 0.852769
vn 0.147605 -0.416175 0.897224
vn 0.364853 -0.467561 0.805152
vn -0.053415 -0.272139 0.960774
vn -0.003031 -0.337942 0.941162
vn -0.418372 -0.187951 0.888617
vn -0.437645 -0.194501 0.877859
vn -0.227872 -0.173514 0.958106
vn -0.227167 -0.150223 0.962200
vn -0.121392 -0.151780 0.980932
vn -0.097142 -0.168608 0.980885
vn -0.236058 -0.248244 0.939495
vn -0.086396 -0.248905 0.964667
vn -0.439555 -0.237580 0.866226
s 1
g SM_hair_03
usemtl initialShadingGroup
f 63/78/1 219/234/2 339/138/3 222/237/4
f 219/234/2 62/77/5 220/235/6 339/138/3
f 339/138/3 220/235/6 64/79/7 221/236/8
f 222/237/4 339/138/3 221/236/8 65/80/9
f 62/77/5 223/238/10 340/139/11 220/235/6
f 223/238/10 66/81/12 224/239/13 340/139/11
f 340/139/11 224/239/13 67/82/14 225/240/15
f 220/235/6 340/139/11 225/240/15 64/79/7
f 64/79/7 225/240/15 341/140/16 228/243/17
f 225/240/15 67/82/14 226/241/18 341/140/16
f 341/140/16 226/241/18 68/83/19 227/242/20
f 228/243/17 341/140/16 227/242/20 69/84/21
f 65/80/9 221/236/8 342/141/22 230/245/23
f 221/236/8 64/79/7 228/243/17 342/141/22
f 342/141/22 228/243/17 69/84/21 229/244/24
f 230/245/23 342/141/22 229/244/24 70/85/25
f 72/87/26 231/246/27 343/142/28 234/249/29
f 231/246/27 71/86/30 232/247/31 343/142/28
f 343/142/28 232/247/31 73/88/32 233/248/33
f 234/249/29 343/142/28 233/248/33 74/89/34
f 71/86/30 235/250/35 344/143/36 232/247/31
f 235/250/35 63/78/1 222/237/4 344/143/36
f 344/143/36 222/237/4 65/80/9 236/251/37
f 232/247/31 344/143/36 236/251/37 73/88/32
f 73/88/32 236/251/37 345/144/38 238/253/39
f 236/251/37 65/80/9 230/245/23 345/144/38
f 345/144/38 230/245/23 70/85/25 237/252/40
f 238/253/39 345/144/38 237/252/40 75/90/41
f 74/89/34 233/248/33 346/145/42 240/255/43
f 233/248/33 73/88/32 238/253/39 346/145/42
f 346/145/42 238/253/39 75/90/41 239/254/44
f 240/255/43 346/145/42 239/254/44 76/91/45
f 76/91/45 239/254/44 347/146/46 243/258/47
f 239/254/44 75/90/41 241/256/48 347/146/46
f 347/146/46 241/256/48 77/92/49 242/257/50
f 243/258/47 347/146/46 242/257/50 78/93/51
f 75/90/41 237/252/40 348/147/52 241/256/48
f 237/252/40 70/85/25 244/259/53 348/147/52
f 348/147/52 244/259/53 79/94/54 245/260/55
f 241/256/48 348/147/52 245/260/55 77/92/49
f 77/92/49 245/260/55 349/148/56 248/263/57
f 245/260/55 79/94/54 246/261/58 349/148/56
f 349/148/56 246/261/58 80/95/59 247/262/60
f 248/263/57 349/148/56 247/262/60 81/96/61
f 78/93/51 242/257/50 350/149/62 250/265/63
f 242/257/50 77/92/49 248/263/57 350/149/62
f 350/149/62 248/263/57 81/96/61 249/264/64
f 250/265/63 350/149/62 249/264/64 82/97/65
f 70/85/25 229/244/24 351/150/66 244/259/53
f 229/244/24 69/84/21 251/266/67 351/150/66
f 351/150/66 251/266/67 83/98/68 252/267/69
f 244/259/53 351/150/66 252/267/69 79/94/54
f 69/84/21 227/242/20 352/151/70 251/266/67
f 227/242/20 68/83/19 253/268/71 352/151/70
f 352/151/70 253/268/71 84/99/72 254/269/73
f 251/266/67 352/151/70 254/269/73 83/98/68
f 83/98/68 254/269/73 353/152/74 257/272/75
f 254/269/73 84/99/72 255/270/76 353/152/74
f 353/152/74 255/270/76 85/100/77 256/271/78
f 257/272/75 353/152/74 256/271/78 86/101/79
f 79/94/54 252/267/69 354/153/80 246/261/58
f 252/267/69 83/98/68 257/272/75 354/153/80
f 354/153/80 257/272/75 86/101/79 258/273/81
f 246/261/58 354/153/80 258/273/81 80/95/59
f 80/95/59 258/273/81 355/154/82 261/276/83
f 258/273/81 86/101/79 259/274/84 355/154/82
f 355/154/82 259/274/84 87/102/85 260/275/86
f 261/276/83 355/154/82 260/275/86 88/103/87
f 86/101/79 256/271/78 356/155/88 259/274/84
f 256/271/78 85/100/77 262/277/89 356/155/88
f 356/155/88 262/277/89 89/104/90 263/278/91
f 259/274/84 356/155/88 263/278/91 87/102/85
f 87/102/85 263/278/91 357/156/92 266/281/93
f 263/278/91 89/104/90 264/279/94 357/156/92
f 357/156/92 264/279/94 90/105/95 265/280/96
f 266/281/93 357/156/92 265/280/96 91/106/97
f 88/103/87 260/275/86 358/157/98 268/283/99
f 260/275/86 87/102/85 266/281/93 358/157/98
f 358/157/98 266/281/93 91/106/97 267/282/100
f 268/283/99 358/157/98 267/282/100 92/107/101
f 82/97/65 249/264/64 359/158/102 271/286/103
f 249/264/64 81/96/61 269/284/104 359/158/102
f 359/158/102 269/284/104 93/108/105 270/285/106
f 271/286/103 359/158/102 270/285/106 94/109/107
f 81/96/61 247/262/60 360/159/108 269/284/104
f 247/262/60 80/95/59 261/276/83 360/159/108
f 360/159/108 261/276/83 88/103/87 272/287/109
f 269/284/104 360/159/108 272/287/109 93/108/105
f 93/108/105 272/287/109 361/160/110 274/289/111
f 272/287/109 88/103/87 268/283/99 361/160/110
f 361/160/110 268/283/99 92/107/101 273/288/112
f 274/289/111 361/160/110 273/288/112 95/110/113
f 94/109/107 270/285/106 362/161/114 276/291/115
f 270/285/106 93/108/105 274/289/111 362/161/114
f 362/161/114 274/289/111 95/110/113 275/290/116
f 276/291/115 362/161/114 275/290/116 96/111/117
f 96/111/117 275/290/116 363/162/118 279/294/119
f 275/290/116 95/110/113 277/292/120 363/162/118
f 363/162/118 277/292/120 97/112/121 278/293/122
f 279/294/119 363/162/118 278/293/122 98/113/123
f 95/110/113 273/288/112 364/163/124 277/292/120
f 273/288/112 92/107/101 280/295/125 364/163/124
f 364/163/124 280/295/125 99/114/126 281/296/127
f 277/292/120 364/163/124 281/296/127 97/112/121
f 97/112/121 281/296/127 365/164/128 284/299/129
f 281/296/127 99/114/126 282/297/130 365/164/128
f 365/164/128 282/297/130 100/115/131 283/298/132
f 284/299/129 365/164/128 283/298/132 101/116/133
f 98/113/123 278/293/122 366/165/134 286/301/135
f 278/293/122 97/112/121 284/299/129 366/165/134
f 366/165/134 284/299/129 101/116/133 285/300/136
f 286/301/135 366/165/134 285/300/136 102/117/137
f 92/107/101 267/282/100 367/166/138 280/295/125
f 267/282/100 91/106/97 287/302/139 367/166/138
f 367/166/138 287/302/139 103/118/140 288/303/141
f 280/295/125 367/166/138 288/303/141 99/114/126
f 91/106/97 265/280/96 368/167/142 287/302/139
f 265/280/96 90/105/95 289/304/143 368/167/142
f 368/167/142 289/304/143 104/119/144 290/305/145
f 287/302/139 368/167/142 290/305/145 103/118/140
f 103/118/140 290/305/145 369/168/146 293/308/147
f 290/305/145 104/119/144 291/306/148 369/168/146
f 369/168/146 291/306/148 105/120/149 292/307/150
f 293/308/147 369/168/146 292/307/150 106/121/151
f 99/114/126 288/303/141 370/169/152 282/297/130
f 288/303/141 103/118/140 293/308/147 370/169/152
f 370/169/152 293/308/147 106/121/151 294/309/153
f 282/297/130 370/169/152 294/309/153 100/115/131
f 108/123/154 295/310/155 371/170/156 298/313/157
f 295/310/155 107/122/158 296/311/159 371/170/156
f 371/170/156 296/311/159 109/124/160 297/312/161
f 298/313/157 371/170/156 297/312/161 110/125/162
f 107/122/158 299/314/163 372/171/164 296/311/159
f 299/314/163 111/126/165 300/315/166 372/171/164
f 372/171/164 300/315/166 112/127/167 301/316/168
f 296/311/159 372/171/164 301/316/168 109/124/160
f 109/124/160 301/316/168 373/172/169 304/319/170
f 301/316/168 112/127/167 302/317/171 373/172/169
f 373/172/169 302/317/171 113/128/172 303/318/173
f 304/319/170 373/172/169 303/318/173 114/129/174
f 110/125/162 297/312/161 374/173/175 306/321/176
f 297/312/161 109/124/160 304/319/170 374/173/175
f 374/173/175 304/319/170 114/129/174 305/320/177
f 306/321/176 374/173/175 305/320/177 66/81/12
f 111/126/165 307/322/178 375/174/179 300/315/166
f 307/322/178 115/130/180 308/323/181 375/174/179
f 375/174/179 308/323/181 116/131/182 309/324/183
f 300/315/166 375/174/179 309/324/183 112/127/167
f 115/130/180 310/325/184 376/175/185 308/323/181
f 310/325/184 117/132/186 311/326/187 376/175/185
f 376/175/185 311/326/187 118/133/188 312/327/189
f 308/323/181 376/175/185 312/327/189 116/131/182
f 116/131/182 312/327/189 377/176/190 315/330/191
f 312/327/189 118/133/188 313/328/192 377/176/190
f 377/176/190 313/328/192 105/120/149 314/329/193
f 315/330/191 377/176/190 314/329/193 119/134/194
f 112/127/167 309/324/183 378/177/195 302/317/171
f 309/324/183 116/131/182 315/330/191 378/177/195
f 378/177/195 315/330/191 119/134/194 316/331/196
f 302/317/171 378/177/195 316/331/196 113/128/172
f 113/128/172 316/331/196 379/178/197 319/334/198
f 316/331/196 119/134/194 317/332/199 379/178/197
f 379/178/197 317/332/199 120/135/200 318/333/201
f 319/334/198 379/178/197 318/333/201 121/136/202
f 119/134/194 314/329/193 380/179/203 317/332/199
f 314/329/193 105/120/149 291/306/148 380/179/203
f 380/179/203 291/306/148 104/119/144 320/335/204
f 317/332/199 380/179/203 320/335/204 120/135/200
f 120/135/200 320/335/204 381/180/205 321/336/206
f 320/335/204 104/119/144 289/304/143 381/180/205
f 381/180/205 289/304/143 90/105/95 264/279/94
f 321/336/206 381/180/205 264/279/94 89/104/90
f 121/136/202 318/333/201 382/181/207 322/337/208
f 318/333/201 120/135/200 321/336/206 382/181/207
f 382/181/207 321/336/206 89/104/90 262/277/89
f 322/337/208 382/181/207 262/277/89 85/100/77
f 66/81/12 305/320/177 383/182/209 224/239/13
f 305/320/177 114/129/174 323/338/210 383/182/209
f 383/182/209 323/338/210 122/137/211 324/339/212
f 224/239/13 383/182/209 324/339/212 67/82/14
f 114/129/174 303/318/173 384/183/213 323/338/210
f 303/318/173 113/128/172 319/334/198 384/183/213
f 384/183/213 319/334/198 121/136/202 325/340/214
f 323/338/210 384/183/213 325/340/214 122/137/211
f 122/137/211 325/340/214 385/184/215 326/341/216
f 325/340/214 121/136/202 322/337/208 385/184/215
f 385/184/215 322/337/208 85/100/77 255/270/76
f 326/341/216 385/184/215 255/270/76 84/99/72
f 67/82/14 324/339/212 386/185/217 226/241/18
f 324/339/212 122/137/211 326/341/216 386/185/217
f 386/185/217 326/341/216 84/99/72 253/268/71
f 226/241/18 386/185/217 253/268/71 68/83/19
f 16/21/218 327/342/219 387/186/220 330/345/221
f 327/342/219 35/49/222 328/343/223 387/186/220
f 387/186/220 328/343/223 50/65/224 329/344/225
f 330/345/221 387/186/220 329/344/225 32/45/226
f 32/45/226 329/344/225 388/187/227 333/349/228
f 329/344/225 50/65/224 331/347/229 388/187/227
f 388/187/227 331/347/229 33/47/230 332/348/231
f 333/349/228 388/187/227 332/348/231 11/15/232
f 50/65/224 334/351/233 389/188/234 331/347/229
f 334/351/233 34/48/235 335/352/236 389/188/234
f 389/188/234 335/352/236 3/4/237 336/353/238
f 331/347/229 389/188/234 336/353/238 33/47/230
f 35/49/222 337/354/239 390/189/240 328/343/223
f 337/354/239 12/17/241 338/355/242 390/189/240
f 390/189/240 338/355/242 34/48/235 334/351/233
f 328/343/223 390/189/240 334/351/233 50/65/224
f 13/18/243 123/356/244 391/190/245 126/359/246
f 123/356/244 37/51/247 124/357/248 391/190/245
f 391/190/245 124/357/248 51/66/249 125/358/250
f 126/359/246 391/190/245 125/358/250 30/41/251
f 30/41/251 125/358/250 392/191/252 128/362/253
f 125/358/250 51/66/249 127/361/254 392/191/252
f 392/191/252 127/361/254 35/49/222 327/342/219
f 128/362/253 392/191/252 327/342/219 16/21/218
f 51/66/249 129/364/255 393/192/256 127/361/254
f 129/364/255 36/50/257 130/365/258 393/192/256
f 393/192/256 130/365/258 12/17/241 337/354/239
f 127/361/254 393/192/256 337/354/239 35/49/222
f 37/51/247 131/366/259 394/193/260 124/357/248
f 131/366/259 2/3/261 132/367/262 394/193/260
f 394/193/260 132/367/262 36/50/257 129/364/255
f 124/357/248 394/193/260 129/364/255 51/66/249
f 2/3/261 133/368/263 395/194/264 132/367/262
f 133/368/263 40/54/265 134/369/266 395/194/264
f 395/194/264 134/369/266 52/67/267 135/370/268
f 132/367/262 395/194/264 135/370/268 36/50/257
f 36/50/257 135/370/268 396/195/269 130/365/258
f 135/370/268 52/67/267 136/371/270 396/195/269
f 396/195/269 136/371/270 38/52/271 137/372/272
f 130/365/258 396/195/269 137/372/272 12/17/241
f 52/67/267 138/373/273 397/196/274 136/371/270
f 138/373/273 39/53/275 139/374/276 397/196/274
f 397/196/274 139/374/276 17/23/277 140/375/278
f 136/371/270 397/196/274 140/375/278 38/52/271
f 40/54/265 141/376/279 398/197/280 134/369/266
f 141/376/279 7/9/281 142/377/282 398/197/280
f 398/197/280 142/377/282 39/53/275 138/373/273
f 134/369/266 398/197/280 138/373/273 52/67/267
f 12/17/241 137/372/272 399/198/283 338/355/242
f 137/372/272 38/52/271 143/378/284 399/198/283
f 399/198/283 143/378/284 53/68/285 144/379/286
f 338/355/242 399/198/283 144/379/286 34/48/235
f 34/48/235 144/379/286 400/199/287 335/352/236
f 144/379/286 53/68/285 145/380/288 400/199/287
f 400/199/287 145/380/288 41/55/289 146/381/290
f 335/352/236 400/199/287 146/381/290 3/4/237
f 53/68/285 147/382/291 401/200/292 145/380/288
f 147/382/291 42/56/293 148/383/294 401/200/292
f 401/200/292 148/383/294 14/19/295 149/384/296
f 145/380/288 401/200/292 149/384/296 41/55/289
f 38/52/271 140/375/278 402/201/297 143/378/284
f 140/375/278 17/23/277 150/385/298 402/201/297
f 402/201/297 150/385/298 42/56/293 147/382/291
f 143/378/284 402/201/297 147/382/291 53/68/285
f 17/23/277 151/386/299 403/202/300 150/385/298
f 151/386/299 45/59/301 152/387/302 403/202/300
f 403/202/300 152/387/302 54/69/303 153/388/304
f 150/385/298 403/202/300 153/388/304 42/56/293
f 42/56/293 153/388/304 404/203/305 148/383/294
f 153/388/304 54/69/303 154/389/306 404/203/305
f 404/203/305 154/389/306 43/57/307 155/390/308
f 148/383/294 404/203/305 155/390/308 14/19/295
f 54/69/303 156/391/309 405/204/310 154/389/306
f 156/391/309 44/58/311 157/392/312 405/204/310
f 405/204/310 157/392/312 5/6/313 158/393/314
f 154/389/306 405/204/310 158/393/314 43/57/307
f 45/59/301 159/394/315 406/205/316 152/387/302
f 159/394/315 15/20/317 160/395/318 406/205/316
f 406/205/316 160/395/318 44/58/311 156/391/309
f 152/387/302 406/205/316 156/391/309 54/69/303
f 7/9/281 161/396/319 407/206/320 142/377/282
f 161/396/319 47/61/321 162/397/322 407/206/320
f 407/206/320 162/397/322 55/70/323 163/398/324
f 142/377/282 407/206/320 163/398/324 39/53/275
f 39/53/275 163/398/324 408/207/325 139/374/276
f 163/398/324 55/70/323 164/399/326 408/207/325
f 408/207/325 164/399/326 45/59/301 151/386/299
f 139/374/276 408/207/325 151/386/299 17/23/277
f 55/70/323 165/400/327 409/208/328 164/399/326
f 165/400/327 46/60/329 166/401/330 409/208/328
f 409/208/328 166/401/330 15/20/317 159/394/315
f 164/399/326 409/208/328 159/394/315 45/59/301
f 47/61/321 167/402/331 410/209/332 162/397/322
f 167/402/331 4/5/333 168/403/334 410/209/332
f 410/209/332 168/403/334 46/60/329 165/400/327
f 162/397/322 410/209/332 165/400/327 55/70/323
f 4/5/333 169/404/335 411/210/336 168/403/334
f 169/404/335 20/27/337 170/405/338 411/210/336
f 411/210/336 170/405/338 56/71/339 171/406/340
f 168/403/334 411/210/336 171/406/340 46/60/329
f 46/60/329 171/406/340 412/211/341 166/401/330
f 171/406/340 56/71/339 172/407/342 412/211/341
f 412/211/341 172/407/342 48/62/343 173/408/344
f 166/401/330 412/211/341 173/408/344 15/20/317
f 56/71/339 174/409/345 413/212/346 172/407/342
f 174/409/345 49/63/347 175/410/348 413/212/346
f 413/212/346 175/410/348 18/24/349 176/412/350
f 172/407/342 413/212/346 176/412/350 48/62/343
f 20/27/337 177/413/351 414/213/352 170/405/338
f 177/413/351 9/12/353 178/414/354 414/213/352
f 414/213/352 178/414/354 49/63/347 174/409/345
f 170/405/338 414/213/352 174/409/345 56/71/339
f 15/20/317 173/408/344 415/214/355 160/395/318
f 173/408/344 48/62/343 179/416/356 415/214/355
f 415/214/355 179/416/356 57/72/357 180/417/358
f 160/395/318 415/214/355 180/417/358 44/58/311
f 44/58/311 180/417/358 416/215/359 157/392/312
f 180/417/358 57/72/357 181/418/360 416/215/359
f 416/215/359 181/418/360 21/28/361 182/419/362
f 157/392/312 416/215/359 182/419/362 5/6/313
f 57/72/357 183/420/363 417/216/364 181/418/360
f 183/420/363 22/29/365 184/421/366 417/216/364
f 417/216/364 184/421/366 8/10/367 185/423/368
f 181/418/360 417/216/364 185/423/368 21/28/361
f 48/62/343 176/412/350 418/217/369 179/416/356
f 176/412/350 18/24/349 186/424/370 418/217/369
f 418/217/369 186/424/370 22/29/365 183/420/363
f 179/416/356 418/217/369 183/420/363 57/72/357
f 1/1/371 187/426/372 419/218/373 190/430/374
f 187/426/372 31/43/375 188/428/376 419/218/373
f 419/218/373 188/428/376 58/73/377 189/429/378
f 190/430/374 419/218/373 189/429/378 25/35/379
f 25/35/379 189/429/378 420/219/380 193/434/381
f 189/429/378 58/73/377 191/432/382 420/219/380
f 420/219/380 191/432/382 26/37/383 192/433/384
f 193/434/381 420/219/380 192/433/384 10/13/385
f 58/73/377 194/436/386 421/220/387 191/432/382
f 194/436/386 27/38/388 195/437/389 421/220/387
f 421/220/387 195/437/389 19/26/390 196/438/391
f 191/432/382 421/220/387 196/438/391 26/37/383
f 31/43/375 197/439/392 422/221/393 188/428/376
f 197/439/392 11/15/232 198/441/394 422/221/393
f 422/221/393 198/441/394 27/38/388 194/436/386
f 188/428/376 422/221/393 194/436/386 58/73/377
f 10/13/385 192/433/384 423/222/395 201/444/396
f 192/433/384 26/37/383 199/442/397 423/222/395
f 423/222/395 199/442/397 59/74/398 200/443/399
f 201/444/396 423/222/395 200/443/399 24/33/400
f 24/33/400 200/443/399 424/223/401 204/449/402
f 200/443/399 59/74/398 202/446/403 424/223/401
f 424/223/401 202/446/403 23/31/404 203/447/405
f 204/449/402 424/223/401 203/447/405 6/7/406
f 59/74/398 205/451/407 425/224/408 202/446/403
f 205/451/407 28/39/409 206/452/410 425/224/408
f 425/224/408 206/452/410 8/10/367 207/453/411
f 202/446/403 425/224/408 207/453/411 23/31/404
f 26/37/383 196/438/391 426/225/412 199/442/397
f 196/438/391 19/26/390 208/455/413 426/225/412
f 426/225/412 208/455/413 28/39/409 205/451/407
f 199/442/397 426/225/412 205/451/407 59/74/398
f 19/26/390 209/456/414 427/226/415 208/455/413
f 209/456/414 29/40/416 210/457/417 427/226/415
f 427/226/415 210/457/417 60/75/418 211/458/419
f 208/455/413 427/226/415 211/458/419 28/39/409
f 28/39/409 211/458/419 428/227/420 206/452/410
f 211/458/419 60/75/418 212/459/421 428/227/420
f 428/227/420 212/459/421 21/28/361 185/423/368
f 206/452/410 428/227/420 185/423/368 8/10/367
f 60/75/418 213/460/422 429/228/423 212/459/421
f 213/460/422 43/57/307 158/393/314 429/228/423
f 429/228/423 158/393/314 5/6/313 182/419/362
f 212/459/421 429/228/423 182/419/362 21/28/361
f 29/40/416 214/461/424 430/229/425 210/457/417
f 214/461/424 14/19/295 155/390/308 430/229/425
f 430/229/425 155/390/308 43/57/307 213/460/422
f 210/457/417 430/229/425 213/460/422 60/75/418
f 11/15/232 332/348/231 431/230/426 198/441/394
f 332/348/231 33/47/230 215/462/427 431/230/426
f 431/230/426 215/462/427 61/76/428 216/463/429
f 198/441/394 431/230/426 216/463/429 27/38/388
f 27/38/388 216/463/429 432/231/430 195/437/389
f 216/463/429 61/76/428 217/464/431 432/231/430
f 432/231/430 217/464/431 29/40/416 209/456/414
f 195/437/389 432/231/430 209/456/414 19/26/390
f 61/76/428 218/465/432 433/232/433 217/464/431
f 218/465/432 41/55/289 149/384/296 433/232/433
f 433/232/433 149/384/296 14/19/295 214/461/424
f 217/464/431 433/232/433 214/461/424 29/40/416
f 33/47/230 336/353/238 434/233/434 215/462/427
f 336/353/238 3/4/237 146/381/290 434/233/434
f 434/233/434 146/381/290 41/55/289 218/465/432
f 215/462/427 434/233/434 218/465/432 61/76/428
f 16/22/218 330/346/221 219/234/2 63/78/1
f 330/346/221 32/46/226 62/77/5 219/234/2
f 62/77/5 32/46/226 333/350/228 223/238/10
f 333/350/228 11/16/232 66/81/12 223/238/10
f 13/18/243 126/360/246 231/246/27 72/87/26
f 126/360/246 30/42/251 71/86/30 231/246/27
f 37/51/247 123/356/244 234/249/29 74/89/34
f 123/356/244 13/18/243 72/87/26 234/249/29
f 71/86/30 30/42/251 128/363/253 235/250/35
f 128/363/253 16/22/218 63/78/1 235/250/35
f 2/3/261 131/366/259 240/255/43 76/91/45
f 131/366/259 37/51/247 74/89/34 240/255/43
f 40/54/265 133/368/263 243/258/47 78/93/51
f 133/368/263 2/3/261 76/91/45 243/258/47
f 7/9/281 141/376/279 250/265/63 82/97/65
f 141/376/279 40/54/265 78/93/51 250/265/63
f 47/61/321 161/396/319 271/286/103 94/109/107
f 161/396/319 7/9/281 82/97/65 271/286/103
f 4/5/333 167/402/331 276/291/115 96/111/117
f 167/402/331 47/61/321 94/109/107 276/291/115
f 20/27/337 169/404/335 279/294/119 98/113/123
f 169/404/335 4/5/333 96/111/117 279/294/119
f 18/25/349 175/411/348 283/298/132 100/115/131
f 175/411/348 49/64/347 101/116/133 283/298/132
f 101/116/133 49/64/347 178/415/354 285/300/136
f 178/415/354 9/12/353 102/117/137 285/300/136
f 102/117/137 9/12/353 177/413/351 286/301/135
f 177/413/351 20/27/337 98/113/123 286/301/135
f 8/11/367 184/422/366 292/307/150 105/120/149
f 184/422/366 22/30/365 106/121/151 292/307/150
f 106/121/151 22/30/365 186/425/370 294/309/153
f 186/425/370 18/25/349 100/115/131 294/309/153
f 1/2/371 190/431/374 295/310/155 108/123/154
f 190/431/374 25/36/379 107/122/158 295/310/155
f 31/44/375 187/427/372 298/313/157 110/125/162
f 187/427/372 1/2/371 108/123/154 298/313/157
f 107/122/158 25/36/379 193/435/381 299/314/163
f 193/435/381 10/14/385 111/126/165 299/314/163
f 66/81/12 11/16/232 197/440/392 306/321/176
f 197/440/392 31/44/375 110/125/162 306/321/176
f 111/126/165 10/14/385 201/445/396 307/322/178
f 201/445/396 24/34/400 115/130/180 307/322/178
f 115/130/180 24/34/400 204/450/402 310/325/184
f 204/450/402 6/8/406 117/132/186 310/325/184
f 117/132/186 6/8/406 203/448/405 311/326/187
f 203/448/405 23/32/404 118/133/188 311/326/187
f 118/133/188 23/32/404 207/454/411 313/328/192
f 207/454/411 8/11/367 105/120/149 313/328/192
