# This file uses centimeters as units for non-parametric coordinates.

mtllib SM_hair_02.mtl
g default
v -4.638044 161.031326 17.053600
v 5.357879 161.114136 18.076534
v -3.767268 189.072357 20.744366
v 2.264194 190.303009 21.795685
v -11.176596 166.567413 -44.098789
v -5.912283 165.676025 -45.106468
v -8.258724 151.947556 -27.481867
v -0.038690 149.469513 -29.085493
v -11.054931 176.843292 -38.179401
v -6.180817 195.023300 -12.311504
v -7.181700 160.213303 8.728878
v -8.941291 167.517563 -5.762911
v -10.388474 157.832657 -21.186924
v 6.828336 160.240387 9.403982
v 3.803431 168.429138 -7.062197
v 2.300556 156.727966 -23.154842
v -0.187245 194.413940 -13.471346
v -6.154902 175.569611 -39.908131
v -4.107122 194.471970 15.047368
v -4.435728 197.611862 2.899268
v -5.689430 185.265152 10.363325
v 2.182961 194.243607 15.849361
v 4.682712 183.919861 11.643020
v 2.063867 197.123032 2.835489
v 5.585403 176.074249 3.971565
v 1.994556 182.839966 -12.328461
v 2.539127 196.963348 -2.257243
v 2.922245 192.270905 5.382065
v 2.236927 164.513733 -18.210640
v -3.584679 187.101913 -27.421822
v -5.486795 197.846466 -1.656099
v -5.023077 191.460281 13.388077
v -6.296790 175.591888 16.704903
v -7.745197 176.114182 3.407703
v -7.784687 161.313004 2.538690
v -6.762440 170.529358 11.424714
v -5.416526 193.185791 5.121314
v 3.481954 190.786972 14.667212
v 5.881046 161.689301 2.559868
v -6.801519 159.846741 13.353247
v 4.986022 179.375916 22.090191
v -4.088513 179.221970 21.336174
v -3.585478 159.752594 -36.689655
v -10.700100 161.075348 -36.208714
v -8.216428 187.747406 -25.960281
v -11.968444 169.192474 -28.904137
v -10.000322 164.241760 -15.804235
v -8.708783 183.357849 -9.974595
v 3.109669 192.950439 18.811663
v -5.076433 192.871063 17.764149
v 7.055726 159.830338 14.318325
v 7.301776 170.119217 12.955606
v 7.425794 175.259445 17.932476
v -10.205239 154.022720 -24.602856
v -11.976136 170.230698 -43.592724
v -1.392401 167.684784 -31.093182
v 2.260438 151.281128 -26.492268
v -5.928383 168.849625 -44.800724
v -9.950577 177.754593 -20.212215
v 7.735960 168.264206 16.213459
v -12.581511 163.603256 -33.527103
v -1.499553 161.757202 -34.404854
v 4.001264 187.385010 -1.497963
v -0.151938 176.855591 -23.272575
v -6.612289 185.652267 17.267447
v -7.463776 168.242844 5.987624
v 6.356337 185.532333 18.914787
v 6.608640 168.143143 7.151478
v -7.766449 188.354828 -0.748021
v -6.639141 168.606857 14.589121
vt 0.324917 0.493095
vt 0.367796 0.472956
vt 0.375456 0.600701
vt 0.418336 0.580562
vt 0.477753 0.818508
vt 0.174340 0.632438
vt 0.520632 0.798369
vt 0.571183 0.446053
vt 0.189288 0.514497
vt 0.528292 0.926115
vt 0.571171 0.905976
vt 0.470874 0.382246
vt 0.216160 0.640341
vt 0.459660 0.779985
vt 0.279037 0.642800
vt 0.432909 0.723029
vt 0.297787 0.497376
vt 0.257102 0.503796
vt 0.216418 0.510216
vt 0.388415 0.454811
vt 0.419335 0.427601
vt 0.450255 0.400390
vt 0.512303 0.533243
vt 0.475789 0.702890
vt 0.550561 0.483284
vt 0.502539 0.759846
vt 0.388122 0.627669
vt 0.349307 0.614980
vt 0.411586 0.677628
vt 0.326118 0.625502
vt 0.331052 0.596617
vt 0.399129 0.651105
vt 0.431001 0.607530
vt 0.446022 0.569556
vt 0.443547 0.543782
vt 0.442009 0.630966
vt 0.468926 0.558430
vt 0.454466 0.657489
vt 0.242179 0.574288
vt 0.399919 0.490516
vt 0.199051 0.574373
vt 0.510718 0.427993
vt 0.461028 0.515764
vt 0.483113 0.461129
vt 0.345183 0.576348
vt 0.295314 0.532596
vt 0.418925 0.541714
vt 0.417099 0.475398
vt 0.298327 0.592179
vt 0.317919 0.529029
vt 0.394171 0.533015
vt 0.354296 0.551743
vt 0.545902 0.852172
vt 0.521029 0.414149
vt 0.503022 0.872311
vt 0.181814 0.573467
vt 0.247598 0.641570
vt 0.446285 0.751507
vt 0.218452 0.574805
vt 0.236760 0.507006
vt 0.269161 0.578266
vt 0.424668 0.594046
vt 0.432179 0.575059
vt 0.381789 0.614185
vt 0.362382 0.607840
vt 0.378106 0.463884
vt 0.412245 0.491127
vt 0.407547 0.512242
vt 0.202853 0.512357
vt 0.195250 0.636389
vt 0.468706 0.799247
vt 0.498662 0.443199
vt 0.460564 0.391318
vt 0.560872 0.464669
vt 0.511585 0.779107
vt 0.435252 0.490636
vt 0.468945 0.484434
vt 0.490615 0.545837
vt 0.465127 0.680189
vt 0.456237 0.551106
vt 0.448237 0.644228
vt 0.434795 0.413996
vt 0.531432 0.508263
vt 0.489164 0.731368
vt 0.422247 0.700328
vt 0.302577 0.634151
vt 0.340180 0.605798
vt 0.393625 0.639387
vt 0.329768 0.548772
vt 0.295449 0.556297
vt 0.277445 0.500586
vt 0.310518 0.538905
vt 0.405357 0.664366
vt 0.328585 0.611059
vt 0.436505 0.619248
vt 0.444785 0.556669
vt 0.403875 0.441206
vt 0.311352 0.495236
vn -0.356059 -0.132654 0.925000
vn -0.298376 -0.202925 0.932627
vn 0.117237 -0.220683 0.968274
vn 0.203882 -0.124365 0.971064
vn 0.152706 0.266089 0.951776
vn -0.386180 0.190327 0.902574
vn -0.557553 -0.654189 -0.511050
vn -0.573967 -0.563952 -0.593734
vn 0.257144 -0.620291 -0.741023
vn 0.161852 -0.645389 -0.746510
vn 0.235572 -0.552644 -0.799431
vn -0.490714 -0.640894 -0.590301
vn -0.734037 0.654814 -0.180023
vn -0.807790 0.543648 -0.227866
vn -0.989722 0.122700 0.073449
vn -0.991555 0.116514 0.056954
vn -0.844332 0.453391 -0.285553
vn -0.992471 0.086569 0.086650
vn -0.988655 -0.026846 0.147787
vn -0.991675 0.025578 0.126197
vn -0.994537 0.027718 0.100642
vn -0.654909 0.580081 0.484356
vn 0.515147 0.681004 0.520439
vn 0.406941 0.851865 -0.329735
vn -0.338232 0.856451 -0.389988
vn 0.989319 -0.075821 0.124495
vn 0.988604 -0.032228 0.147050
vn 0.977159 0.046500 0.207358
vn 0.993299 -0.019137 -0.113979
vn 0.987939 0.097411 -0.120366
vn 0.923232 0.375718 -0.080490
vn -0.972730 -0.231695 -0.010662
vn -0.994549 -0.102179 -0.020784
vn -0.868456 0.250973 -0.427547
vn 0.709204 0.428949 -0.559493
vn 0.943391 0.156222 -0.292589
vn 0.930963 0.075136 -0.357299
vn 0.734397 0.277386 -0.619449
vn 0.959331 0.127956 -0.251617
vn 0.914632 0.018847 -0.403847
vn 0.986321 0.089343 -0.138525
vn 0.982022 0.114117 -0.150369
vn 0.716238 0.459798 0.524966
vn 0.978761 0.058342 -0.196526
vn 0.965204 0.107949 -0.238176
vn 0.728091 0.568482 -0.383031
vn 0.776528 0.594007 -0.210143
vn 0.629967 0.657890 0.412700
vn 0.970542 0.096372 -0.220820
vn 0.950675 0.135728 -0.278918
vn 0.709702 0.491855 -0.504382
vn -0.671498 0.738070 -0.065906
vn -0.464432 0.742442 0.482786
vn -0.423476 0.421349 -0.801956
vn -0.980012 0.057598 0.190417
vn -0.897308 0.407671 0.169239
vn -0.961334 -0.016195 0.274910
vn -0.990210 0.046570 0.131592
vn -0.991153 0.015262 0.131842
vn -0.993774 0.048752 0.100179
vn -0.992729 -0.002078 0.120354
vn -0.995522 0.008365 0.094159
vn -0.644766 0.429898 0.632032
vn 0.587983 0.417438 -0.692835
vn 0.967811 0.207677 0.142173
vn 0.984032 0.026540 -0.176004
vn 0.987443 0.057224 -0.147249
vn -0.986207 0.132474 0.099232
vn -0.971377 -0.009017 0.237373
vn -0.970663 -0.020552 0.239565
s 1
g SM_hair_02
usemtl initialShadingGroup
f 42/52/1 1/1/2 2/2/3 41/51/4
f 42/52/1 41/51/4 4/4/5 3/3/6
f 44/55/7 5/5/8 6/7/9 43/53/10
f 44/55/7 43/53/10 8/11/11 7/10/12
f 10/15/13 45/57/14 59/39/15 48/61/16
f 45/57/14 9/13/17 46/59/18 59/39/15
f 59/39/15 46/59/18 13/19/19 47/60/20
f 48/61/16 59/39/15 47/60/20 12/18/21
f 50/64/22 3/3/6 4/4/5 49/62/23
f 50/64/22 49/62/23 22/33/24 19/27/25
f 2/2/3 51/66/26 60/40/27 53/68/28
f 14/20/29 52/67/30 60/40/27 51/66/26
f 23/35/31 53/68/28 60/40/27 52/67/30
f 7/9/12 54/69/32 61/41/33 44/56/7
f 54/69/32 13/19/19 46/59/18 61/41/33
f 61/41/33 46/59/18 9/13/17 55/70/34
f 44/56/7 61/41/33 55/70/34 5/6/8
f 18/25/35 56/72/36 62/42/37 58/74/38
f 56/72/36 16/22/39 57/73/40 62/42/37
f 62/42/37 57/73/40 8/12/11 43/54/10
f 58/74/38 62/42/37 43/54/10 6/8/9
f 55/71/34 9/14/17 18/26/35 58/75/38
f 55/71/34 58/75/38 6/7/9 5/5/8
f 23/35/31 25/76/41 63/43/42 28/80/43
f 25/76/41 15/21/44 26/77/45 63/43/42
f 63/43/42 26/77/45 17/23/46 27/78/47
f 28/80/43 63/43/42 27/78/47 24/37/48
f 15/21/44 29/82/49 64/44/50 26/77/45
f 29/82/49 16/22/39 56/72/36 64/44/50
f 64/44/50 56/72/36 18/25/35 30/83/51
f 26/77/45 64/44/50 30/83/51 17/23/46
f 18/26/35 9/14/17 45/58/14 30/84/51
f 45/58/14 10/16/13 17/24/46 30/84/51
f 17/24/46 10/16/13 31/85/52 27/79/47
f 31/85/52 20/29/53 24/38/48 27/79/47
f 19/28/25 32/87/54 65/45/55 50/65/22
f 32/87/54 21/31/56 33/89/57 65/45/55
f 65/45/55 33/89/57 1/1/2 42/52/1
f 50/65/22 65/45/55 42/52/1 3/3/6
f 21/31/56 34/90/58 66/46/59 36/92/60
f 12/18/21 35/91/61 66/46/59 34/90/58
f 11/17/62 36/92/60 66/46/59 35/91/61
f 24/38/48 20/29/53 37/93/63 28/81/43
f 37/93/63 21/32/56 23/36/31 28/81/43
f 23/36/31 21/32/56 32/88/54 38/95/64
f 32/88/54 19/27/25 22/33/24 38/95/64
f 2/2/3 53/68/28 67/47/65 41/51/4
f 53/68/28 23/35/31 38/96/64 67/47/65
f 67/47/65 38/96/64 22/34/24 49/63/23
f 41/51/4 67/47/65 49/63/23 4/4/5
f 14/20/29 39/97/66 68/48/67 52/67/30
f 15/21/44 25/76/41 68/48/67 39/97/66
f 23/35/31 52/67/30 68/48/67 25/76/41
f 21/31/56 37/94/63 69/49/68 34/90/58
f 37/94/63 20/30/53 31/86/52 69/49/68
f 69/49/68 31/86/52 10/15/13 48/61/16
f 34/90/58 69/49/68 48/61/16 12/18/21
f 1/1/2 33/89/57 70/50/69 40/98/70
f 21/31/56 36/92/60 70/50/69 33/89/57
f 11/17/62 40/98/70 70/50/69 36/92/60
