# This file uses centimeters as units for non-parametric coordinates.

mtllib SM_hair_04.mtl
g default
v 18.567123 156.207184 -18.692661
v -16.556702 157.007843 -19.828266
v -16.893772 143.106125 -23.099977
v 23.008595 141.215698 -21.989258
v 23.254482 156.710495 -1.036542
v 0.526841 159.110916 -24.754213
v -21.795647 158.775131 3.414797
v 29.914402 138.945007 -7.901952
v -30.118259 142.588974 1.290152
v 1.916304 141.504578 -30.700809
v -16.508638 150.863052 -21.904600
v -26.390242 142.949890 -13.478648
v 13.830431 140.649948 -28.039776
v -8.422818 142.514114 -28.008339
v 1.552290 150.338989 -27.771824
v 27.222797 139.210953 -13.858693
v 20.468035 149.099518 -19.966110
v 22.722378 157.045013 -11.386630
v 27.796467 151.692215 -3.858694
v 22.666206 156.178635 7.292531
v 10.931401 158.160110 -22.959385
v -9.210393 157.783417 -23.840063
v -22.012718 158.971054 -11.189264
v -20.076464 158.861816 10.731115
v -26.247776 152.242035 1.126348
v 25.030760 149.095535 -13.645385
v 25.669621 154.033615 7.302457
v -21.763536 157.263458 9.872443
v -25.177771 151.772186 -12.549526
v -8.237476 150.905792 -26.386126
v 12.280939 149.421722 -25.304670
v 29.207916 139.655212 -14.745220
v 31.564081 139.216812 -8.323322
v 27.536488 150.127869 -14.878695
v 30.048368 152.549240 -4.245559
v 24.495745 141.744080 -23.501637
v 22.328594 150.195953 -21.928556
v 19.563164 157.024673 -19.789665
v 24.136223 157.911179 -11.979360
v 26.158295 158.216537 -1.213287
v 26.648232 154.449707 6.872584
v 24.601303 157.254501 7.153866
v -21.291664 159.528076 10.278919
v -22.999641 157.936203 9.434323
v -24.709675 160.103088 2.478077
v -29.903767 154.207062 0.351386
v -24.433109 160.402679 -12.348637
v -28.810099 152.815125 -13.938946
v -18.061346 157.879730 -20.986929
v -19.115381 151.754181 -23.788328
v -20.582218 144.233917 -26.987732
v -31.321724 143.287964 -16.053263
v -32.135513 142.743591 0.791848
v -10.016037 143.801727 -32.024609
v 2.039168 142.805939 -34.017143
v -9.675794 151.729492 -28.694880
v 1.451619 151.499069 -30.648615
v -9.974413 158.594421 -25.296247
v 0.513061 160.085571 -26.547588
v 14.848811 141.555649 -30.667856
v 13.332271 150.642059 -27.975346
v 11.602736 159.216049 -24.645571
v 23.933653 155.238419 8.441941
v 22.359432 156.310135 4.348003
v 26.576345 153.448807 4.125194
v -20.702246 158.109436 10.602464
v -23.315662 155.801758 6.955430
v -23.158653 156.177628 2.660909
v -20.276644 158.889923 8.582742
v -26.705343 151.193756 -5.927202
v -23.301523 155.780533 -11.619324
v -23.147989 158.870850 -3.906243
v -21.131500 151.140686 -17.903034
v -16.375362 154.360275 -20.652782
v -19.562054 157.844208 -16.212854
v -26.225876 147.269958 -13.207959
v -21.950247 143.085205 -19.419209
v -16.585495 146.955963 -22.673279
v -29.367466 145.804245 -0.261539
v -29.246698 142.975891 -3.808704
v 1.831492 145.363205 -29.064661
v -3.565634 150.686447 -27.520374
v -8.160045 146.587402 -27.218014
v -3.659103 141.853348 -29.697475
v -12.375224 150.905151 -24.590736
v -12.500310 142.765366 -25.721214
v -8.625007 154.772858 -24.916983
v -13.149389 157.129166 -22.282196
v 1.019333 155.309570 -25.922665
v -4.575822 158.589233 -24.653870
v 16.847719 149.184723 -22.979898
v 13.100081 144.463867 -26.649961
v 19.190409 141.057083 -25.468832
v 7.004496 149.892929 -26.957138
v 7.891077 140.955704 -29.909513
v 11.436621 154.424744 -23.866386
v 5.871575 158.909271 -24.170729
v 15.179233 157.036041 -21.175684
v 28.580111 137.899689 -14.182729
v 31.426031 137.362305 -6.775906
v 29.577021 151.007767 -3.160225
v 24.111956 140.205673 -23.062927
v 22.954409 158.549454 -11.510744
v 18.729156 157.587616 -18.987787
v 24.214142 158.286652 -1.036838
v 26.429087 153.797424 8.107430
v 22.892902 157.062592 8.287562
v -22.617563 160.330292 3.143162
v -20.520962 159.334808 10.781476
v -22.409363 157.512360 9.891439
v -28.812914 151.864227 1.789684
v -22.540556 160.917648 -11.625238
v -17.230093 158.276505 -20.033131
v -28.654371 140.259476 -15.537932
v -19.185041 140.993301 -25.586580
v -31.256012 140.696960 2.708553
v -9.560513 140.923782 -30.786121
v 1.979309 140.377533 -33.145508
v -9.711956 159.159729 -24.073217
v 0.365101 160.820190 -25.132582
v 14.602590 139.421280 -29.901913
v 11.051867 159.865097 -23.365906
v 31.197184 138.388565 -10.641726
v 28.641838 144.429703 -15.393373
v 29.385588 150.921692 -10.950208
v 31.341032 143.546432 -8.014861
v 27.108023 140.947815 -18.909540
v 23.733829 145.609009 -22.917770
v 25.268950 150.066650 -18.187361
v 20.845886 154.286362 -20.838503
v 22.223759 157.087875 -16.231236
v 25.909372 154.874817 -13.012820
v 25.488707 158.776276 -6.902324
v 28.307905 156.628525 -1.835899
v 28.116737 154.201675 3.641903
v 25.399658 157.984802 4.303539
v 25.362133 155.931274 7.864455
v -22.161167 159.825607 7.922832
v -27.143435 158.134338 1.554909
v -25.493860 156.818207 6.237511
v -22.050421 158.864761 10.122955
v -26.799936 160.987122 -4.586425
v -26.699936 157.355911 -13.076045
v -31.303967 153.067032 -7.139503
v -21.428333 158.881134 -17.313049
v -18.688183 155.463379 -22.360830
v -24.184795 152.131531 -19.455580
v -19.791819 147.877975 -25.419895
v -25.840748 144.040680 -22.067863
v -30.354998 147.886368 -14.918086
v -32.291218 143.559860 -4.970276
v -32.037910 146.596313 -0.723173
v -4.218775 143.275238 -33.433453
v -9.807668 147.507523 -30.393658
v -4.348040 151.680389 -30.162180
v 1.837063 146.743378 -32.692429
v -15.623467 144.114059 -30.479368
v -14.433707 151.700043 -26.741806
v -14.295831 157.932770 -23.580193
v -9.853561 155.800385 -27.066198
v -4.963025 159.470581 -26.302284
v 0.949799 156.554581 -28.488874
v 20.331854 141.633865 -27.306829
v 14.224134 145.578720 -29.570271
v 18.321947 150.338074 -25.341051
v 8.517631 142.079819 -32.891701
v 7.515706 151.112335 -29.782223
v 6.231010 159.958145 -25.979704
v 12.404516 155.794296 -26.311110
v 16.037817 157.980057 -22.589926
v 29.123949 143.175629 -7.527176
v 26.425385 149.885254 -9.955611
v 26.019804 143.646576 -14.143246
v 28.984797 138.040070 -9.958309
v 23.074739 149.015366 -16.661900
v 21.757500 144.709351 -20.894955
v 25.337948 140.451492 -17.753531
v 23.624949 153.696777 -11.995702
v 21.058746 156.300827 -15.400817
v 19.282013 153.159210 -19.138844
v 24.313961 154.478378 -1.472292
v 23.536188 157.606506 -6.536164
v 30.460142 143.842758 -11.658200
v 26.519478 145.136551 -18.855261
v 23.708652 154.294983 -17.084082
v 27.743746 156.125107 -8.084072
v 27.144531 156.538742 4.086066
v -23.825975 158.704880 7.197506
v -29.207977 158.328537 -5.101958
v -22.923574 156.171539 -18.349808
v -25.155418 147.833588 -20.765480
v -32.195274 147.340942 -6.304746
v -4.234925 147.129654 -32.060337
v -15.007994 147.965973 -28.706816
v -14.422341 155.426315 -25.188084
v -4.668674 156.262802 -28.219435
v 19.593508 145.488098 -26.571278
v 8.119853 146.117111 -31.639675
v 6.832558 156.385101 -27.842760
v 17.071131 154.925797 -23.956150
v 27.633173 143.184036 -10.741543
v 24.171556 144.287003 -17.285122
v 21.862783 153.208359 -15.781197
v 24.358055 154.423004 -7.275438
v 23.890314 154.769775 4.403020
v -21.204000 157.422806 8.082015
v -24.347906 155.704239 -4.163642
v -20.167934 154.945892 -16.850601
v -21.535929 146.868896 -18.719944
v -28.396236 146.318176 -5.230080
v -3.455369 145.880341 -28.403696
v -12.263130 146.911087 -25.220587
v -12.626858 154.414795 -23.248779
v -4.019194 155.135986 -25.826935
v 18.074137 144.560532 -24.157099
v 7.504359 144.844864 -28.363176
v 6.342050 155.039917 -25.251238
v 15.771372 153.667099 -21.845146
v 30.504499 136.486115 -9.950061
v 30.655426 143.357224 -6.528803
v 26.574783 139.331375 -18.487194
v 21.234962 157.685745 -15.632379
v 24.001881 159.224625 -6.550117
v 27.996498 153.155991 3.692281
v 23.223398 157.752441 4.398563
v -20.801260 159.834061 8.470515
v -25.006536 155.642059 6.578151
v -24.158203 161.419693 -4.462010
v -20.133545 159.326828 -16.484695
v -24.047392 141.318420 -21.256428
v -30.879465 141.632935 -3.698836
v -31.115482 145.496490 1.056201
v -4.107594 140.648041 -32.430996
v -14.532393 140.525467 -28.706705
v -13.786409 158.396255 -22.486471
v -4.912364 160.142212 -24.958904
v 20.078184 140.022110 -26.781025
v 8.345508 139.749680 -32.075321
v 5.873288 160.669922 -24.583250
v 15.338640 158.570251 -21.535255
v -21.185616 158.571304 10.971720
v 24.345045 155.573593 9.400737
vt 0.881501 0.522346
vt 0.729516 0.514538
vt 0.867485 0.662586
vt 0.737889 0.667269
vt 0.817604 0.659013
vt 0.820472 0.509740
vt 0.912783 0.462442
vt 0.708935 0.447925
vt 0.886333 0.599456
vt 0.722311 0.597094
vt 0.906044 0.722171
vt 0.710709 0.739603
vt 0.819254 0.439132
vt 0.821846 0.764718
vt 0.817720 0.586580
vt 0.844537 0.659932
vt 0.821884 0.710213
vt 0.819220 0.546448
vt 0.816683 0.621769
vt 0.850267 0.591085
vt 0.823406 0.475399
vt 0.853774 0.515788
vt 0.891847 0.493617
vt 0.724467 0.482657
vt 0.873566 0.448119
vt 0.766871 0.422734
vt 0.925917 0.427937
vt 0.701309 0.409445
vt 0.888043 0.556833
vt 0.722335 0.551500
vt 0.873130 0.635389
vt 0.733629 0.636714
vt 0.884320 0.691140
vt 0.726725 0.702359
vt 0.921328 0.755123
vt 0.703334 0.776395
vt 0.870122 0.742650
vt 0.768776 0.774016
vt 0.860615 0.483308
vt 0.890646 0.411305
vt 0.739079 0.392015
vt 0.890057 0.775693
vt 0.735993 0.798649
vt 0.853152 0.702748
vt 0.845439 0.626214
vt 0.852811 0.551472
vt 0.804886 0.474546
vt 0.801900 0.447650
vt 0.765319 0.474723
vt 0.760928 0.433241
vt 0.802850 0.508900
vt 0.767464 0.510796
vt 0.738381 0.514554
vt 0.733895 0.479762
vt 0.722684 0.444181
vt 0.737073 0.407854
vt 0.715670 0.416920
vt 0.715593 0.771689
vt 0.734841 0.784320
vt 0.725462 0.744087
vt 0.762250 0.761430
vt 0.739585 0.707069
vt 0.771315 0.714123
vt 0.747404 0.669671
vt 0.773068 0.666887
vt 0.801669 0.661975
vt 0.804522 0.713205
vt 0.804450 0.751348
vt 0.801248 0.623709
vt 0.801482 0.587259
vt 0.771245 0.629509
vt 0.767807 0.590727
vt 0.743605 0.634966
vt 0.735899 0.595315
vt 0.801822 0.546233
vt 0.766717 0.548562
vt 0.735241 0.552444
vt 0.786548 0.456262
vt 0.786549 0.491852
vt 0.749734 0.495072
vt 0.743819 0.457793
vt 0.731654 0.422287
vt 0.731396 0.768701
vt 0.748388 0.732240
vt 0.757345 0.689389
vt 0.788928 0.688741
vt 0.789506 0.738409
vt 0.786864 0.608003
vt 0.787974 0.644408
vt 0.758094 0.650463
vt 0.752769 0.613527
vt 0.786049 0.527802
vt 0.785830 0.567920
vt 0.748932 0.571814
vt 0.750184 0.531160
vt 0.843513 0.461306
vt 0.838017 0.495470
vt 0.872225 0.503711
vt 0.884923 0.471957
vt 0.900728 0.437451
vt 0.896888 0.748909
vt 0.878223 0.715060
vt 0.862018 0.678971
vt 0.832572 0.682295
vt 0.840888 0.730674
vt 0.831041 0.606274
vt 0.829458 0.640165
vt 0.857482 0.645493
vt 0.863930 0.613108
vt 0.835085 0.529911
vt 0.833636 0.568506
vt 0.869683 0.574617
vt 0.869289 0.536280
vt 0.815085 0.458197
vt 0.789809 0.434500
vt 0.813059 0.491334
vt 0.730610 0.498103
vt 0.720959 0.464010
vt 0.751946 0.411074
vt 0.708757 0.429243
vt 0.710457 0.757867
vt 0.750642 0.783000
vt 0.724218 0.722748
vt 0.737227 0.686516
vt 0.811163 0.685217
vt 0.816234 0.737367
vt 0.792403 0.765496
vt 0.809280 0.604619
vt 0.809129 0.639769
vt 0.740000 0.652655
vt 0.732194 0.616718
vt 0.811102 0.526822
vt 0.810161 0.566254
vt 0.726877 0.574336
vt 0.730017 0.533265
vt 0.720220 0.785793
vt 0.721774 0.403704
vt 0.805746 0.458448
vt 0.786545 0.474257
vt 0.763802 0.454943
vt 0.787367 0.441724
vt 0.803832 0.491380
vt 0.786429 0.509536
vt 0.766690 0.492999
vt 0.750871 0.512785
vt 0.737200 0.497098
vt 0.747230 0.477061
vt 0.728803 0.461815
vt 0.738845 0.438969
vt 0.746358 0.415727
vt 0.716298 0.427783
vt 0.725034 0.409836
vt 0.717410 0.760509
vt 0.740954 0.751904
vt 0.744960 0.777759
vt 0.723292 0.780655
vt 0.733010 0.726005
vt 0.753813 0.710979
vt 0.768002 0.737645
vt 0.744716 0.688086
vt 0.758825 0.668781
vt 0.772839 0.689812
vt 0.788395 0.664432
vt 0.802680 0.686950
vt 0.789367 0.714383
vt 0.807413 0.737370
vt 0.790225 0.756789
vt 0.801339 0.605898
vt 0.787513 0.626365
vt 0.769468 0.610644
vt 0.786233 0.588722
vt 0.801275 0.641648
vt 0.772491 0.647521
vt 0.746644 0.652439
vt 0.755845 0.632643
vt 0.739450 0.615827
vt 0.750065 0.593216
vt 0.802207 0.527053
vt 0.785740 0.547109
vt 0.767188 0.529146
vt 0.801612 0.566836
vt 0.766907 0.569561
vt 0.734668 0.573725
vt 0.749071 0.550677
vt 0.737104 0.532862
vt 0.846410 0.443626
vt 0.793062 0.430933
vt 0.865874 0.466258
vt 0.840690 0.478687
vt 0.824397 0.458239
vt 0.856448 0.499516
vt 0.835984 0.512323
vt 0.821898 0.492451
vt 0.877622 0.488234
vt 0.886674 0.507982
vt 0.726992 0.498598
vt 0.869267 0.519392
vt 0.893000 0.454992
vt 0.902315 0.478029
vt 0.716701 0.465291
vt 0.908282 0.419621
vt 0.720194 0.400730
vt 0.919350 0.445190
vt 0.705122 0.428685
vt 0.882106 0.429712
vt 0.752975 0.407375
vt 0.905693 0.765408
vt 0.719664 0.787522
vt 0.880090 0.759171
vt 0.752385 0.786332
vt 0.887819 0.732198
vt 0.913686 0.738647
vt 0.707021 0.757999
vt 0.860410 0.723166
vt 0.869242 0.697363
vt 0.895182 0.706656
vt 0.718717 0.720981
vt 0.847714 0.680856
vt 0.857711 0.661232
vt 0.875903 0.676863
vt 0.732307 0.684814
vt 0.836261 0.707074
vt 0.819440 0.683634
vt 0.830183 0.659079
vt 0.845984 0.753684
vt 0.795311 0.769367
vt 0.824537 0.735951
vt 0.832429 0.588267
vt 0.847807 0.609243
vt 0.829906 0.623311
vt 0.817057 0.604600
vt 0.844064 0.642414
vt 0.816775 0.639149
vt 0.860000 0.630028
vt 0.870308 0.648987
vt 0.735759 0.651991
vt 0.867687 0.594662
vt 0.879732 0.617422
vt 0.727970 0.616904
vt 0.852996 0.533033
vt 0.834556 0.548538
vt 0.819729 0.527608
vt 0.851919 0.571325
vt 0.818496 0.566651
vt 0.870142 0.554610
vt 0.887188 0.578145
vt 0.722323 0.574297
vt 0.884772 0.539590
vt 0.725926 0.533019
vt 0.814322 0.474472
vt 0.809022 0.444281
vt 0.767449 0.424786
vt 0.811812 0.508783
vt 0.726933 0.481317
vt 0.731726 0.515155
vt 0.714347 0.446534
vt 0.738365 0.401376
vt 0.709471 0.414259
vt 0.716895 0.740708
vt 0.709900 0.773227
vt 0.735705 0.790678
vt 0.768415 0.771644
vt 0.731353 0.704510
vt 0.740542 0.669115
vt 0.813333 0.712036
vt 0.809752 0.660073
vt 0.811910 0.756693
vt 0.809051 0.622040
vt 0.809691 0.586394
vt 0.736813 0.635677
vt 0.728197 0.596147
vt 0.810645 0.545847
vt 0.727671 0.552852
vn 0.999595 0.005743 -0.027863
vn 0.929325 -0.114873 -0.350940
vn 0.941989 0.143149 -0.303586
vn 0.990264 0.129818 -0.050245
vn 0.878186 -0.086934 -0.470353
vn 0.877046 0.146450 -0.457540
vn 0.824364 0.318437 -0.467998
vn 0.908830 0.298535 -0.291383
vn 0.963500 0.265949 -0.030649
vn 0.864808 -0.020732 -0.501675
vn 0.832204 0.214229 -0.511412
vn 0.767970 0.063282 -0.637352
vn 0.722738 0.280588 -0.631601
vn 0.683911 0.363351 -0.632647
vn 0.774032 0.347158 -0.529487
vn 0.725007 0.465412 -0.507697
vn 0.746407 0.504551 -0.433941
vn 0.659958 0.441664 -0.607773
vn 0.598351 0.616423 -0.511858
vn 0.629162 0.635223 -0.447937
vn 0.616613 0.696895 -0.366233
vn 0.811039 0.533748 -0.239433
vn 0.850498 0.525282 0.027044
vn 0.565142 0.811902 -0.146391
vn 0.467186 0.882570 0.052983
vn 0.864092 0.288166 0.412680
vn 0.945964 0.219460 0.238726
vn 0.818440 0.525172 0.233134
vn 0.691675 0.545648 0.473132
vn 0.345918 0.920747 0.180458
vn 0.335403 0.868108 0.365915
vn -0.350847 0.862656 0.364323
vn -0.382887 0.893687 0.233924
vn -0.715348 0.591446 0.372113
vn -0.692406 0.521700 0.498401
vn -0.468126 0.847874 0.248935
vn -0.794086 0.532408 0.293207
vn -0.916016 0.288079 0.279152
vn -0.816139 0.266727 0.512614
vn -0.792204 0.185117 0.581502
vn -0.570929 0.820850 -0.015671
vn -0.843233 0.535189 -0.050308
vn -0.527075 0.774848 -0.349003
vn -0.744210 0.513105 -0.427638
vn -0.823705 0.356672 -0.440790
vn -0.939341 0.322857 -0.115762
vn -0.465835 0.695794 -0.546689
vn -0.627403 0.452993 -0.633373
vn -0.440566 0.659877 -0.608657
vn -0.546547 0.417033 -0.726203
vn -0.556164 0.380853 -0.738669
vn -0.653342 0.372138 -0.659286
vn -0.664938 0.354767 -0.657266
vn -0.880421 0.251088 -0.402261
vn -0.564123 0.405148 -0.719459
vn -0.630915 -0.027037 -0.775381
vn -0.706411 -0.058397 -0.705388
vn -0.904604 -0.198238 -0.377351
vn -0.982747 0.171392 -0.069523
vn -0.961917 0.160489 0.221269
vn -0.956297 -0.284241 -0.068577
vn -0.972637 -0.189828 0.133948
vn 0.047982 0.071651 -0.996275
vn -0.171600 0.054237 -0.983673
vn -0.144670 0.364450 -0.919917
vn 0.062949 0.356789 -0.932062
vn -0.270838 0.032524 -0.962075
vn -0.245609 0.393009 -0.886126
vn -0.280543 0.375187 -0.883476
vn -0.147242 0.377514 -0.914223
vn 0.049113 0.385102 -0.921566
vn -0.442877 -0.004068 -0.896573
vn -0.391085 0.430288 -0.813576
vn -0.418102 0.393131 -0.818925
vn -0.437350 0.408075 -0.801374
vn -0.300740 0.413675 -0.859318
vn -0.399767 0.640235 -0.655961
vn -0.303180 0.627565 -0.717108
vn -0.149332 0.425013 -0.892784
vn 0.029435 0.427830 -0.903380
vn -0.168145 0.621418 -0.765223
vn 0.002666 0.620656 -0.784078
vn 0.584606 0.076011 -0.807749
vn 0.548772 0.305082 -0.778315
vn 0.419330 0.064664 -0.905528
vn 0.397362 0.318999 -0.860432
vn 0.380405 0.349918 -0.856066
vn 0.534511 0.355524 -0.766747
vn 0.256655 0.069110 -0.964029
vn 0.255199 0.339652 -0.905268
vn 0.230384 0.366654 -0.901381
vn 0.202801 0.414723 -0.887060
vn 0.369565 0.406125 -0.835754
vn 0.178887 0.617561 -0.765910
vn 0.353638 0.615075 -0.704715
vn 0.533738 0.418006 -0.735115
vn 0.511431 0.610997 -0.604252
vn -0.778519 -0.247958 0.576563
vn -0.824723 -0.264326 0.499964
vn -0.903905 -0.217228 0.368467
vn -0.852946 -0.394229 0.342150
vn -0.702665 -0.640334 0.310216
vn -0.877050 -0.362303 0.315468
vn -0.856205 -0.301941 0.419220
vn -0.883323 -0.223073 0.412285
vn -0.865015 -0.404393 0.297010
vn -0.830023 -0.289377 0.476784
vn -0.810627 -0.480338 0.334902
vn -0.793669 -0.307562 0.524877
vn -0.686731 -0.327302 0.649057
vn -0.705746 -0.360961 0.609615
vn -0.654926 -0.571173 0.494807
vn -0.861364 -0.374300 0.343441
vn -0.791864 -0.326335 0.516194
vn -0.950174 -0.135256 0.280848
vn -0.851288 -0.149170 0.503047
vn -0.698700 -0.130633 0.703387
vn -0.680826 -0.306320 0.665315
vn -0.739066 -0.672214 0.043695
vn -0.849903 -0.499194 0.168732
vn -0.993598 -0.092905 -0.064283
vn -0.994996 -0.062928 0.077610
vn -0.415774 -0.902488 0.112463
vn -0.604910 -0.764606 0.222401
vn -0.631684 -0.774936 0.021189
vn -0.454598 -0.886372 0.087666
vn -0.936349 -0.325707 0.131020
vn -0.980537 -0.187064 -0.059611
vn 0.980978 -0.139263 0.135233
vn 0.656484 -0.711817 0.249690
vn 0.805200 -0.582174 -0.112812
vn 0.972987 -0.091648 -0.211889
vn 0.324538 -0.881246 0.343630
vn 0.562509 -0.811143 0.160098
vn 0.788900 -0.589375 0.173992
vn 0.850064 -0.518056 -0.094921
vn 0.975238 -0.077449 -0.207155
vn 0.887060 -0.461121 0.022187
vn 0.997354 -0.072343 -0.007138
vn 0.907876 -0.404596 0.109835
vn 0.857643 -0.356021 0.371076
vn 0.853949 -0.419995 0.307204
vn 0.958224 -0.071114 0.277037
vn 0.716870 -0.341483 0.607854
vn 0.832064 -0.078728 0.549064
vn 0.696029 -0.280509 0.660953
vn 0.585321 -0.228775 0.777857
vn 0.606757 -0.271868 0.746949
vn 0.674599 -0.031655 0.737505
vn 0.885381 -0.188391 0.424981
vn 0.698623 -0.178153 0.692956
vn 0.799580 -0.471917 0.371437
vn 0.612120 -0.531922 0.585122
vn 0.455401 -0.548625 0.701157
vn 0.567026 -0.160858 0.807840
vn 0.889520 -0.312304 0.333497
vn 0.954246 -0.240152 0.178163
vn 0.894722 -0.286767 0.342398
vn 0.871357 -0.446806 0.202734
vn -0.049588 -0.648902 0.759255
vn -0.038109 -0.305052 0.951573
vn 0.155850 -0.248948 0.955895
vn 0.120915 -0.634100 0.763739
vn -0.059037 -0.294598 0.953796
vn 0.121110 -0.268800 0.955552
vn 0.297024 -0.239963 0.924226
vn 0.324759 -0.187206 0.927085
vn 0.275215 -0.591665 0.757752
vn 0.469259 -0.148299 0.870519
vn 0.386127 -0.562953 0.730746
vn 0.462612 -0.216821 0.859639
vn 0.289490 -0.296751 0.910019
vn 0.467991 -0.264729 0.843150
vn 0.277435 -0.106435 0.954831
vn 0.478857 -0.046021 0.876686
vn -0.058784 -0.326319 0.943430
vn 0.112140 -0.322113 0.940036
vn -0.046511 -0.134071 0.989880
vn 0.104241 -0.136851 0.985092
vn -0.503541 -0.372773 0.779415
vn -0.417146 -0.601000 0.681753
vn -0.518411 -0.325278 0.790850
vn -0.365937 -0.310624 0.877270
vn -0.354121 -0.345347 0.869099
vn -0.295156 -0.604301 0.740070
vn -0.228831 -0.328610 0.916325
vn -0.217888 -0.620733 0.753137
vn -0.227229 -0.305664 0.924628
vn -0.358018 -0.299837 0.884263
vn -0.212060 -0.313904 0.925470
vn -0.320746 -0.111156 0.940620
vn -0.181054 -0.124087 0.975614
vn -0.519037 -0.297817 0.801190
vn -0.498843 -0.112563 0.859352
vn 0.182649 -0.981322 -0.060383
vn 0.290216 -0.531679 0.795671
vn 0.073969 -0.936244 -0.343476
vn 0.303148 -0.261327 0.916411
vn 0.437612 -0.551404 0.710246
vn 0.118050 -0.943737 -0.308909
vn 0.248308 -0.932821 -0.261130
vn -0.424382 0.896765 0.125350
vn -0.213330 0.900198 0.379650
vn -0.470431 0.881989 -0.028091
vn -0.425127 0.903655 0.051719
vn -0.447384 0.892954 0.049800
vn 0.409160 -0.845808 0.342341
vn 0.498759 -0.563505 0.658560
vn -0.494877 0.868026 0.040344
vn -0.397197 0.762964 0.510019
vn 0.583502 0.806541 -0.094958
vn 0.448454 0.791505 0.415222
vn 0.528160 0.848615 -0.029998
vn -0.389820 -0.590558 0.706599
vn -0.393275 -0.225302 0.891389
vn -0.430246 -0.551302 0.714810
vn 0.393306 0.918527 0.040231
vn 0.432191 0.901724 -0.010273
vn 0.461973 0.886884 0.004170
vn 0.343044 0.922380 0.177584
vn -0.143724 -0.967754 -0.206873
vn -0.215617 -0.958642 -0.185783
vn -0.218317 -0.971107 -0.096382
vn -0.150073 -0.987774 0.042206
vn -0.150711 -0.915830 0.372211
vn -0.278668 0.087216 0.956419
vn -0.122175 -0.912146 -0.391232
vn -0.044081 -0.895157 -0.443566
vn -0.105511 -0.931055 -0.349290
vn -0.149981 -0.951937 -0.267059
vn 0.123994 0.921539 0.367955
vn -0.038271 0.899855 0.434507
vn -0.096452 0.897455 0.430432
vn -0.060907 0.904462 0.422183
vn 0.257955 -0.933583 -0.248761
vn 0.159379 -0.935031 -0.316725
vn 0.037463 -0.918782 -0.392985
vn -0.002035 0.894828 0.446407
vn 0.033879 0.879169 0.475304
vn -0.006674 0.871687 0.490017
vn -0.322091 -0.059688 0.944825
vn 0.158417 0.155172 0.975103
s 1
g SM_hair_04
usemtl initialShadingGroup
f 33/48/1 123/138/2 183/78/3 126/141/4
f 123/138/2 32/47/5 124/139/6 183/78/3
f 183/78/3 124/139/6 34/49/7 125/140/8
f 126/141/4 183/78/3 125/140/8 35/50/9
f 32/47/5 127/142/10 184/79/11 124/139/6
f 127/142/10 36/51/12 128/143/13 184/79/11
f 184/79/11 128/143/13 37/52/14 129/144/15
f 124/139/6 184/79/11 129/144/15 34/49/7
f 34/49/7 129/144/15 185/80/16 132/147/17
f 129/144/15 37/52/14 130/145/18 185/80/16
f 185/80/16 130/145/18 38/53/19 131/146/20
f 132/147/17 185/80/16 131/146/20 39/54/21
f 35/50/9 125/140/8 186/81/22 134/149/23
f 125/140/8 34/49/7 132/147/17 186/81/22
f 186/81/22 132/147/17 39/54/21 133/148/24
f 134/149/23 186/81/22 133/148/24 40/55/25
f 41/56/26 135/150/27 187/82/28 137/152/29
f 135/150/27 35/50/9 134/149/23 187/82/28
f 187/82/28 134/149/23 40/55/25 136/151/30
f 137/152/29 187/82/28 136/151/30 42/57/31
f 43/58/32 138/153/33 188/83/34 141/156/35
f 138/153/33 45/60/36 139/154/37 188/83/34
f 188/83/34 139/154/37 46/61/38 140/155/39
f 141/156/35 188/83/34 140/155/39 44/59/40
f 45/60/36 142/157/41 189/84/42 139/154/37
f 142/157/41 47/62/43 143/158/44 189/84/42
f 189/84/42 143/158/44 48/63/45 144/159/46
f 139/154/37 189/84/42 144/159/46 46/61/38
f 47/62/43 145/160/47 190/85/48 143/158/44
f 145/160/47 49/64/49 146/161/50 190/85/48
f 190/85/48 146/161/50 50/65/51 147/162/52
f 143/158/44 190/85/48 147/162/52 48/63/45
f 48/63/45 147/162/52 191/86/53 150/165/54
f 147/162/52 50/65/51 148/163/55 191/86/53
f 191/86/53 148/163/55 51/66/56 149/164/57
f 150/165/54 191/86/53 149/164/57 52/67/58
f 46/61/38 144/159/46 192/87/59 152/167/60
f 144/159/46 48/63/45 150/165/54 192/87/59
f 192/87/59 150/165/54 52/67/58 151/166/61
f 152/167/60 192/87/59 151/166/61 53/68/62
f 55/70/63 153/168/64 193/88/65 156/171/66
f 153/168/64 54/69/67 154/169/68 193/88/65
f 193/88/65 154/169/68 56/71/69 155/170/70
f 156/171/66 193/88/65 155/170/70 57/72/71
f 54/69/67 157/172/72 194/89/73 154/169/68
f 157/172/72 51/66/56 148/163/55 194/89/73
f 194/89/73 148/163/55 50/65/51 158/173/74
f 154/169/68 194/89/73 158/173/74 56/71/69
f 56/71/69 158/173/74 195/90/75 160/175/76
f 158/173/74 50/65/51 146/161/50 195/90/75
f 195/90/75 146/161/50 49/64/49 159/174/77
f 160/175/76 195/90/75 159/174/77 58/73/78
f 57/72/71 155/170/70 196/91/79 162/177/80
f 155/170/70 56/71/69 160/175/76 196/91/79
f 196/91/79 160/175/76 58/73/78 161/176/81
f 162/177/80 196/91/79 161/176/81 59/74/82
f 36/51/12 163/178/83 197/92/84 128/143/13
f 163/178/83 60/75/85 164/179/86 197/92/84
f 197/92/84 164/179/86 61/76/87 165/180/88
f 128/143/13 197/92/84 165/180/88 37/52/14
f 60/75/85 166/181/89 198/93/90 164/179/86
f 166/181/89 55/70/63 156/171/66 198/93/90
f 198/93/90 156/171/66 57/72/71 167/182/91
f 164/179/86 198/93/90 167/182/91 61/76/87
f 61/76/87 167/182/91 199/94/92 169/184/93
f 167/182/91 57/72/71 162/177/80 199/94/92
f 199/94/92 162/177/80 59/74/82 168/183/94
f 169/184/93 199/94/92 168/183/94 62/77/95
f 37/52/14 165/180/88 200/95/96 130/145/18
f 165/180/88 61/76/87 169/184/93 200/95/96
f 200/95/96 169/184/93 62/77/95 170/185/97
f 130/145/18 200/95/96 170/185/97 38/53/19
f 8/13/98 171/186/99 201/96/100 174/190/101
f 171/186/99 19/25/102 172/188/103 201/96/100
f 201/96/100 172/188/103 26/39/104 173/189/105
f 174/190/101 201/96/100 173/189/105 16/21/106
f 16/21/106 173/189/105 202/97/107 177/193/108
f 173/189/105 26/39/104 175/191/109 202/97/107
f 202/97/107 175/191/109 17/22/110 176/192/111
f 177/193/108 202/97/107 176/192/111 4/6/112
f 26/39/104 178/194/113 203/98/114 175/191/109
f 178/194/113 18/23/115 179/195/116 203/98/114
f 203/98/114 179/195/116 1/1/117 180/197/118
f 175/191/109 203/98/114 180/197/118 17/22/110
f 19/25/102 181/198/119 204/99/120 172/188/103
f 181/198/119 5/7/121 182/199/122 204/99/120
f 204/99/120 182/199/122 18/23/115 178/194/113
f 172/188/103 204/99/120 178/194/113 26/39/104
f 27/40/123 63/201/124 205/100/125 65/205/126
f 63/201/124 20/27/127 64/203/128 205/100/125
f 205/100/125 64/203/128 5/7/121 181/198/119
f 65/205/126 205/100/125 181/198/119 19/25/102
f 24/35/129 66/207/130 206/101/131 69/212/132
f 66/207/130 28/42/133 67/209/134 206/101/131
f 206/101/131 67/209/134 25/37/135 68/211/136
f 69/212/132 206/101/131 68/211/136 7/11/137
f 7/11/137 68/211/136 207/102/138 72/216/139
f 68/211/136 25/37/135 70/214/140 207/102/138
f 207/102/138 70/214/140 29/44/141 71/215/142
f 72/216/139 207/102/138 71/215/142 23/33/143
f 23/33/143 71/215/142 208/103/144 75/220/145
f 71/215/142 29/44/141 73/218/146 208/103/144
f 208/103/144 73/218/146 11/16/147 74/219/148
f 75/220/145 208/103/144 74/219/148 2/3/149
f 29/44/141 76/222/150 209/104/151 73/218/146
f 76/222/150 12/17/152 77/223/153 209/104/151
f 209/104/151 77/223/153 3/5/154 78/224/155
f 73/218/146 209/104/151 78/224/155 11/16/147
f 25/37/135 79/225/156 210/105/157 70/214/140
f 79/225/156 9/14/158 80/227/159 210/105/157
f 210/105/157 80/227/159 12/17/152 76/222/150
f 70/214/140 210/105/157 76/222/150 29/44/141
f 10/15/160 81/228/161 211/106/162 84/231/163
f 81/228/161 15/20/164 82/229/165 211/106/162
f 211/106/162 82/229/165 30/45/166 83/230/167
f 84/231/163 211/106/162 83/230/167 14/19/168
f 14/19/168 83/230/167 212/107/169 86/233/170
f 83/230/167 30/45/166 85/232/171 212/107/169
f 212/107/169 85/232/171 11/16/147 78/224/155
f 86/233/170 212/107/169 78/224/155 3/5/154
f 30/45/166 87/234/172 213/108/173 85/232/171
f 87/234/172 22/31/174 88/235/175 213/108/173
f 213/108/173 88/235/175 2/3/149 74/219/148
f 85/232/171 213/108/173 74/219/148 11/16/147
f 15/20/164 89/237/176 214/109/177 82/229/165
f 89/237/176 6/9/178 90/238/179 214/109/177
f 214/109/177 90/238/179 22/31/174 87/234/172
f 82/229/165 214/109/177 87/234/172 30/45/166
f 4/6/112 176/192/111 215/110/180 93/242/181
f 176/192/111 17/22/110 91/240/182 215/110/180
f 215/110/180 91/240/182 31/46/183 92/241/184
f 93/242/181 215/110/180 92/241/184 13/18/185
f 13/18/185 92/241/184 216/111/186 95/244/187
f 92/241/184 31/46/183 94/243/188 216/111/186
f 216/111/186 94/243/188 15/20/164 81/228/161
f 95/244/187 216/111/186 81/228/161 10/15/160
f 31/46/183 96/245/189 217/112/190 94/243/188
f 96/245/189 21/29/191 97/246/192 217/112/190
f 217/112/190 97/246/192 6/9/178 89/237/176
f 94/243/188 217/112/190 89/237/176 15/20/164
f 17/22/110 180/197/118 218/113/193 91/240/182
f 180/197/118 1/1/117 98/248/194 218/113/193
f 218/113/193 98/248/194 21/29/191 96/245/189
f 91/240/182 218/113/193 96/245/189 31/46/183
f 8/13/98 174/190/101 219/114/195 100/251/196
f 174/190/101 16/21/106 99/250/197 219/114/195
f 219/114/195 99/250/197 32/47/5 123/138/2
f 100/251/196 219/114/195 123/138/2 33/48/1
f 19/26/102 171/187/99 220/115/198 101/252/199
f 171/187/99 8/13/98 100/251/196 220/115/198
f 220/115/198 100/251/196 33/48/1 126/141/4
f 101/252/199 220/115/198 126/141/4 35/50/9
f 16/21/106 177/193/108 221/116/200 99/250/197
f 177/193/108 4/6/112 102/253/201 221/116/200
f 221/116/200 102/253/201 36/51/12 127/142/10
f 99/250/197 221/116/200 127/142/10 32/47/5
f 1/2/117 179/196/116 222/117/202 104/255/203
f 179/196/116 18/24/115 103/254/204 222/117/202
f 222/117/202 103/254/204 39/54/21 131/146/20
f 104/255/203 222/117/202 131/146/20 38/53/19
f 18/24/115 182/200/122 223/118/205 103/254/204
f 182/200/122 5/8/121 105/256/206 223/118/205
f 223/118/205 105/256/206 40/55/25 133/148/24
f 103/254/204 223/118/205 133/148/24 39/54/21
f 27/41/123 65/206/126 224/119/207 106/257/208
f 65/206/126 19/26/102 101/252/199 224/119/207
f 224/119/207 101/252/199 35/50/9 135/150/27
f 106/257/208 224/119/207 135/150/27 41/56/26
f 5/8/121 64/204/128 225/120/209 105/256/206
f 64/204/128 20/28/127 107/258/210 225/120/209
f 225/120/209 107/258/210 42/57/31 136/151/30
f 105/256/206 225/120/209 136/151/30 40/55/25
f 24/36/129 69/213/132 226/121/211 109/260/212
f 69/213/132 7/12/137 108/259/213 226/121/211
f 226/121/211 108/259/213 45/60/36 138/153/33
f 109/260/212 226/121/211 138/153/33 43/58/32
f 25/38/135 67/210/134 227/122/214 111/262/215
f 67/210/134 28/43/133 110/261/216 227/122/214
f 227/122/214 110/261/216 44/59/40 140/155/39
f 111/262/215 227/122/214 140/155/39 46/61/38
f 7/12/137 72/217/139 228/123/217 108/259/213
f 72/217/139 23/34/143 112/263/218 228/123/217
f 228/123/217 112/263/218 47/62/43 142/157/41
f 108/259/213 228/123/217 142/157/41 45/60/36
f 23/34/143 75/221/145 229/124/219 112/263/218
f 75/221/145 2/4/149 113/264/220 229/124/219
f 229/124/219 113/264/220 49/64/49 145/160/47
f 112/263/218 229/124/219 145/160/47 47/62/43
f 3/5/154 77/223/153 230/125/221 115/266/222
f 77/223/153 12/17/152 114/265/223 230/125/221
f 230/125/221 114/265/223 52/67/58 149/164/57
f 115/266/222 230/125/221 149/164/57 51/66/56
f 12/17/152 80/227/159 231/126/224 114/265/223
f 80/227/159 9/14/158 116/267/225 231/126/224
f 231/126/224 116/267/225 53/68/62 151/166/61
f 114/265/223 231/126/224 151/166/61 52/67/58
f 9/14/158 79/226/156 232/127/226 116/267/225
f 79/226/156 25/38/135 111/262/215 232/127/226
f 232/127/226 111/262/215 46/61/38 152/167/60
f 116/267/225 232/127/226 152/167/60 53/68/62
f 10/15/160 84/231/163 233/128/227 118/269/228
f 84/231/163 14/19/168 117/268/229 233/128/227
f 233/128/227 117/268/229 54/69/67 153/168/64
f 118/269/228 233/128/227 153/168/64 55/70/63
f 14/19/168 86/233/170 234/129/230 117/268/229
f 86/233/170 3/5/154 115/266/222 234/129/230
f 234/129/230 115/266/222 51/66/56 157/172/72
f 117/268/229 234/129/230 157/172/72 54/69/67
f 2/4/149 88/236/175 235/130/231 113/264/220
f 88/236/175 22/32/174 119/270/232 235/130/231
f 235/130/231 119/270/232 58/73/78 159/174/77
f 113/264/220 235/130/231 159/174/77 49/64/49
f 22/32/174 90/239/179 236/131/233 119/270/232
f 90/239/179 6/10/178 120/271/234 236/131/233
f 236/131/233 120/271/234 59/74/82 161/176/81
f 119/270/232 236/131/233 161/176/81 58/73/78
f 4/6/112 93/242/181 237/132/235 102/253/201
f 93/242/181 13/18/185 121/272/236 237/132/235
f 237/132/235 121/272/236 60/75/85 163/178/83
f 102/253/201 237/132/235 163/178/83 36/51/12
f 13/18/185 95/244/187 238/133/237 121/272/236
f 95/244/187 10/15/160 118/269/228 238/133/237
f 238/133/237 118/269/228 55/70/63 166/181/89
f 121/272/236 238/133/237 166/181/89 60/75/85
f 6/10/178 97/247/192 239/134/238 120/271/234
f 97/247/192 21/30/191 122/273/239 239/134/238
f 239/134/238 122/273/239 62/77/95 168/183/94
f 120/271/234 239/134/238 168/183/94 59/74/82
f 21/30/191 98/249/194 240/135/240 122/273/239
f 98/249/194 1/2/117 104/255/203 240/135/240
f 240/135/240 104/255/203 38/53/19 170/185/97
f 122/273/239 240/135/240 170/185/97 62/77/95
f 28/43/133 66/208/130 241/136/241 110/261/216
f 66/208/130 24/36/129 109/260/212 241/136/241
f 241/136/241 109/260/212 43/58/32 141/156/35
f 110/261/216 241/136/241 141/156/35 44/59/40
f 20/28/127 63/202/124 242/137/242 107/258/210
f 63/202/124 27/41/123 106/257/208 242/137/242
f 242/137/242 106/257/208 41/56/26 137/152/29
f 107/258/210 242/137/242 137/152/29 42/57/31
