# This file uses centimeters as units for non-parametric coordinates.

mtllib SM_hat_02.mtl
g default
v -24.794893 146.981277 19.283175
v -20.558899 147.439819 -23.912769
v 0.000000 147.457550 -32.006901
v 0.000000 147.427765 27.358501
v 20.558899 147.439819 -23.912771
v 28.170162 147.456421 -1.390007
v 24.794886 146.981277 19.283176
v -28.170162 147.456421 -1.390007
v 26.236549 147.447937 -13.667662
v 26.782701 147.394897 10.463054
v -26.782703 147.394897 10.463054
v -26.236551 147.447937 -13.667660
v -11.200584 147.448853 -29.987906
v 11.200588 147.448853 -29.987906
v 12.988471 147.248062 25.374290
v -12.988476 147.248062 25.374289
v 22.488825 148.988098 -26.121105
v 28.798162 148.984955 -14.859111
v 19.372948 158.103699 -22.554699
v 22.812241 162.244659 -13.874454
v 30.948164 148.977570 -1.386079
v 24.494581 164.268250 -1.285445
v 29.235678 148.947845 11.728135
v 22.834038 162.009491 11.156411
v 26.665455 148.531464 21.602671
v 19.922518 157.158279 19.215069
v 12.408549 169.867004 12.320824
v 11.487088 161.081696 22.963680
v 13.284139 172.773010 -1.220258
v -0.000000 175.606262 -1.194836
v -0.000001 172.502380 13.332658
v -0.000001 162.985870 24.749846
v 12.397544 170.184174 -14.860786
v 11.457868 162.335983 -26.265564
v 0.000000 164.423767 -28.078701
v -0.000000 172.860962 -15.825032
v -12.397543 170.184174 -14.860787
v -13.284139 172.773010 -1.220259
v -11.457868 162.335983 -26.265564
v -19.372942 158.103699 -22.554699
v -22.812241 162.244659 -13.874452
v -24.494581 164.268250 -1.285444
v -12.408548 169.867004 12.320827
v -11.487090 161.081680 22.963678
v -22.834047 162.009491 11.156411
v -19.922520 157.158279 19.215067
v -29.235678 148.947845 11.728138
v -26.665461 148.531464 21.602671
v -30.948160 148.977570 -1.386078
v -28.798162 148.984955 -14.859109
v -22.488825 148.988098 -26.121105
v -12.226032 148.961182 -32.883770
v 0.000000 148.940582 -35.134769
v 12.226032 148.961182 -32.883770
v 13.786304 148.734436 28.496256
v -0.000001 148.813873 30.541319
v -13.786306 148.734436 28.496256
v 21.994547 142.778870 -25.552900
v 28.174061 142.786179 -14.498738
v 23.924477 144.327179 -27.761230
v 30.735670 144.323242 -15.690187
v 30.247929 142.792404 -1.390254
v 33.025925 144.313599 -1.386326
v 28.838850 142.727936 11.293751
v 31.298609 144.280136 12.557400
v 26.744404 142.252106 20.830568
v 28.645924 143.798798 23.142458
v -28.838850 142.727936 11.293756
v -26.744406 142.252106 20.830574
v -28.645927 143.798798 23.142467
v -31.298613 144.280136 12.557406
v -30.247932 142.792404 -1.390256
v -33.025925 144.313599 -1.386327
v -28.174061 142.786179 -14.498739
v -30.735674 144.323242 -15.690188
v -21.994547 142.778870 -25.552891
v -23.924477 144.327179 -27.761229
v -11.900577 142.768402 -32.133541
v -12.926022 144.280731 -35.029404
v 0.000000 142.762817 -34.270752
v 0.000000 144.245850 -37.398617
v 11.900578 142.768402 -32.133545
v 12.926022 144.280731 -35.029411
v 13.933712 142.495361 27.422491
v 14.721159 143.985306 30.583179
v -0.000000 142.675354 29.508972
v -0.000001 144.061462 32.691792
v -13.933717 142.495361 27.422474
v -14.721164 143.985306 30.583168
v 23.693567 148.926270 37.101570
v 11.719404 151.573517 48.853004
v 12.378842 147.250336 50.948658
v 24.833366 144.284500 38.715012
v -0.000001 153.344849 53.280037
v -0.000001 148.307709 54.781845
v -11.719405 151.573517 48.853004
v -12.378843 147.250351 50.948639
v -23.693573 148.926270 37.101574
v -24.833366 144.284500 38.715019
vt 0.458491 0.643810
vt 0.479982 0.616042
vt 0.492910 0.634970
vt 0.486904 0.659321
vt 0.445656 0.679966
vt 0.483291 0.689982
vt 0.444565 0.718081
vt 0.480744 0.721646
vt 0.655192 0.021253
vt 0.480450 0.746364
vt 0.512991 0.725239
vt 0.510085 0.756254
vt 0.513194 0.694331
vt 0.543152 0.695299
vt 0.544255 0.726991
vt 0.545325 0.757692
vt 0.514935 0.663132
vt 0.514672 0.631679
vt 0.540896 0.630346
vt 0.542007 0.662356
vt 0.569068 0.661252
vt 0.572970 0.692255
vt 0.567150 0.629858
vt 0.589087 0.631632
vt 0.596767 0.655506
vt 0.602500 0.685841
vt 0.575322 0.723073
vt 0.580380 0.753809
vt 0.607242 0.717250
vt 0.609256 0.741885
vt 0.643087 0.711179
vt 0.655203 0.171444
vt 0.639348 0.673237
vt 0.624036 0.638063
vt 0.600673 0.611854
vt 0.571888 0.596292
vt 0.539534 0.591038
vt 0.507621 0.598521
vt 0.644287 0.058531
vt 0.642170 0.096350
vt 0.644292 0.134169
vt 0.442604 0.632190
vt 0.468104 0.600457
vt 0.473184 0.605829
vt 0.448907 0.636038
vt 0.427486 0.671883
vt 0.434119 0.675325
vt 0.423428 0.711567
vt 0.431185 0.716315
vt 0.422009 0.740341
vt 0.647300 0.009766
vt 0.663720 0.703210
vt 0.667139 0.731812
vt 0.735507 0.009766
vt 0.656312 0.708486
vt 0.656913 0.663911
vt 0.650535 0.667806
vt 0.639079 0.625369
vt 0.633058 0.629645
vt 0.611445 0.595484
vt 0.606748 0.601195
vt 0.577387 0.576715
vt 0.574865 0.584150
vt 0.538830 0.570681
vt 0.539116 0.578947
vt 0.500782 0.579372
vt 0.503812 0.586615
vt 0.394893 0.767448
vt 0.716501 0.119375
vt 0.728536 0.775120
vt 0.711196 0.082132
vt 0.696080 0.756962
vt 0.716490 0.044887
vt 0.432257 0.624987
vt 0.459841 0.591055
vt 0.416154 0.666330
vt 0.410522 0.705725
vt 0.409107 0.732776
vt 0.676188 0.696484
vt 0.679483 0.723367
vt 0.667831 0.657584
vt 0.648902 0.617467
vt 0.619038 0.585533
vt 0.581750 0.564760
vt 0.538366 0.557273
vt 0.495604 0.567747
vt 0.385411 0.757291
vt 0.618564 0.036210
vt 0.592800 0.068110
vt 0.581785 0.062579
vt 0.609798 0.026931
vt 0.734661 0.762892
vt 0.584616 0.096354
vt 0.571400 0.096355
vt 0.704831 0.746169
vt 0.592804 0.124597
vt 0.581790 0.130130
vt 0.618573 0.156493
vt 0.696045 0.019196
vt 0.664316 0.050816
vt 0.609809 0.165773
vt 0.659658 0.738405
vt 0.647313 0.182933
vt 0.654294 0.082141
vt 0.664326 0.113463
vt 0.696064 0.145072
vt 0.735530 0.154490
vt 0.691187 0.764972
vt 0.367612 0.796081
vt 0.400333 0.775097
vt 0.641893 0.741621
vt 0.598619 0.781242
vt 0.546665 0.796139
vt 0.493801 0.784889
vt 0.447875 0.748369
vt 0.429932 0.746396
vt 0.363783 0.787825
vt 0.725292 0.783624
vt 0.356819 0.776053
vn 0.866430 0.409674 -0.285423
vn 0.664829 0.425447 -0.614001
vn 0.638996 0.502398 -0.582478
vn 0.755192 0.581515 -0.302531
vn 0.912060 0.409965 -0.008736
vn 0.789507 0.613741 0.000771
vn 0.867732 0.444928 0.221540
vn 0.739968 0.600658 0.302750
vn 0.646764 0.682255 0.340916
vn 0.586366 0.547686 0.596838
vn 0.387327 0.831680 0.397853
vn 0.315831 0.578190 0.752295
vn 0.416335 0.909156 0.009999
vn 0.000000 0.999929 0.011886
vn -0.000000 0.901915 0.431914
vn -0.000000 0.599804 0.800147
vn 0.394346 0.847634 -0.354976
vn 0.345207 0.603675 -0.718616
vn 0.000000 0.641995 -0.766709
vn 0.000000 0.923996 -0.382402
vn -0.394346 0.847634 -0.354976
vn -0.416335 0.909156 0.010000
vn -0.345207 0.603675 -0.718616
vn -0.638996 0.502398 -0.582477
vn -0.755192 0.581515 -0.302531
vn -0.789507 0.613741 0.000770
vn -0.387327 0.831679 0.397854
vn -0.315831 0.578190 0.752295
vn -0.739968 0.600658 0.302749
vn -0.586366 0.547686 0.596838
vn -0.867732 0.444928 0.221539
vn -0.646764 0.682256 0.340916
vn -0.912060 0.409965 -0.008736
vn -0.866430 0.409674 -0.285423
vn -0.664829 0.425447 -0.614001
vn -0.324220 0.431804 -0.841681
vn 0.000000 0.433286 -0.901257
vn 0.324220 0.431804 -0.841681
vn 0.167099 0.943261 0.286944
vn -0.000000 0.957545 0.288285
vn -0.167099 0.943261 0.286944
vn -0.415340 -0.897906 0.145797
vn -0.284827 -0.917924 0.276204
vn 0.726921 -0.084954 -0.681446
vn 0.940618 -0.085460 -0.328534
vn -0.463636 -0.885982 0.008775
vn 0.996872 -0.076853 -0.018419
vn -0.467242 -0.878808 -0.096860
vn 0.982865 -0.041890 0.179506
vn -0.208232 -0.949318 -0.235446
vn 0.724017 -0.615135 0.312103
vn 0.467241 -0.878808 -0.096860
vn 0.208231 -0.949318 -0.235446
vn -0.724016 -0.615136 0.312103
vn -0.982865 -0.041890 0.179506
vn 0.463636 -0.885983 0.008775
vn -0.996872 -0.076852 -0.018419
vn 0.415341 -0.897906 0.145798
vn -0.940618 -0.085459 -0.328534
vn 0.284827 -0.917924 0.276204
vn -0.726921 -0.084954 -0.681446
vn 0.143785 -0.912720 0.382451
vn -0.366688 -0.096922 -0.925281
vn 0.000000 -0.908436 0.418025
vn 0.000000 -0.102612 -0.994721
vn -0.143785 -0.912720 0.382451
vn 0.366689 -0.096921 -0.925282
vn -0.144604 -0.903042 -0.404481
vn -0.005378 -0.984891 0.173091
vn 0.000000 -0.894425 -0.447217
vn -0.000000 -0.978809 0.204775
vn 0.144605 -0.903042 -0.404481
vn 0.005378 -0.984891 0.173091
vn -0.864685 -0.409534 0.290866
vn -0.669388 -0.423852 0.610138
vn -0.912071 -0.409444 0.021961
vn -0.895802 -0.418487 -0.149691
vn -0.649962 -0.461681 -0.603656
vn 0.895802 -0.418487 -0.149692
vn 0.649961 -0.461680 -0.603657
vn 0.912071 -0.409444 0.021961
vn 0.864685 -0.409534 0.290865
vn 0.669389 -0.423852 0.610138
vn 0.333626 -0.432514 0.837631
vn 0.000000 -0.435490 0.900194
vn -0.333626 -0.432514 0.837631
vn -0.280100 -0.425867 -0.860338
vn 0.385720 0.916246 0.108230
vn 0.194719 0.976607 0.091238
vn 0.165447 -0.900719 0.401663
vn 0.324421 -0.896685 0.301175
vn 0.000001 -0.415931 -0.909396
vn 0.000000 0.996265 0.086344
vn -0.000000 -0.905719 0.423879
vn 0.280100 -0.425866 -0.860338
vn -0.194718 0.976607 0.091238
vn -0.165447 -0.900719 0.401663
vn -0.385719 0.916246 0.108230
vn -0.324420 -0.896686 0.301175
s 1
g SM_hat_02 chara_props
usemtl aiStandardSurface3SG
f 18/1/1 17/2/2 19/3/3 20/4/4
f 21/5/5 18/1/1 20/4/4 22/6/6
f 23/7/7 21/5/5 22/6/6 24/8/8
f 25/115/9 23/7/7 24/8/8 26/10/10
f 26/10/10 24/8/8 27/11/11 28/12/12
f 24/8/8 22/6/6 29/13/13 27/11/11
f 27/11/11 29/13/13 30/14/14 31/15/15
f 28/12/12 27/11/11 31/15/15 32/16/16
f 22/6/6 20/4/4 33/17/17 29/13/13
f 20/4/4 19/3/3 34/18/18 33/17/17
f 33/17/17 34/18/18 35/19/19 36/20/20
f 29/13/13 33/17/17 36/20/20 30/14/14
f 30/14/14 36/20/20 37/21/21 38/22/22
f 36/20/20 35/19/19 39/23/23 37/21/21
f 37/21/21 39/23/23 40/24/24 41/25/25
f 38/22/22 37/21/21 41/25/25 42/26/26
f 32/16/16 31/15/15 43/27/27 44/28/28
f 31/15/15 30/14/14 38/22/22 43/27/27
f 43/27/27 38/22/22 42/26/26 45/29/29
f 44/28/28 43/27/27 45/29/29 46/30/30
f 46/30/30 45/29/29 47/31/31 48/111/32
f 45/29/29 42/26/26 49/33/33 47/31/31
f 42/26/26 41/25/25 50/34/34 49/33/33
f 41/25/25 40/24/24 51/35/35 50/34/34
f 52/36/36 51/35/35 40/24/24 39/23/23
f 53/37/37 52/36/36 39/23/23 35/19/19
f 54/38/38 53/37/37 35/19/19 34/18/18
f 17/2/2 54/38/38 34/18/18 19/3/3
f 55/114/39 25/115/9 26/10/10 28/12/12
f 56/113/40 55/114/39 28/12/12 32/16/16
f 57/112/41 56/113/40 32/16/16 44/28/28
f 48/111/32 57/112/41 44/28/28 46/30/30
f 59/42/42 58/43/43 60/44/44 61/45/45
f 62/46/46 59/42/42 61/45/45 63/47/47
f 64/48/48 62/46/46 63/47/47 65/49/49
f 66/50/50 64/48/48 65/49/49 67/116/51
f 68/52/52 69/53/53 70/102/54 71/55/55
f 72/56/56 68/52/52 71/55/55 73/57/57
f 74/58/58 72/56/56 73/57/57 75/59/59
f 76/60/60 74/58/58 75/59/59 77/61/61
f 78/62/62 76/60/60 77/61/61 79/63/63
f 80/64/64 78/62/62 79/63/63 81/65/65
f 82/66/66 80/64/64 81/65/65 83/67/67
f 58/43/43 82/66/66 83/67/67 60/44/44
f 84/68/68 66/50/50 67/116/51 85/110/69
f 86/117/70 84/68/68 85/110/69 87/109/71
f 88/72/72 86/70/70 87/118/71 89/108/73
f 69/53/53 88/72/72 89/108/73 70/102/54
f 9/74/74 5/75/75 58/43/43 59/42/42
f 17/2/2 18/1/1 61/45/45 60/44/44
f 6/76/76 9/74/74 59/42/42 62/46/46
f 18/1/1 21/5/5 63/47/47 61/45/45
f 10/77/77 6/76/76 62/46/46 64/48/48
f 21/5/5 23/7/7 65/49/49 63/47/47
f 7/78/78 10/77/77 64/48/48 66/50/50
f 23/7/7 25/115/9 67/116/51 65/49/49
f 11/79/79 1/80/80 69/53/53 68/52/52
f 48/111/32 47/31/31 71/55/55 70/102/54
f 8/81/81 11/79/79 68/52/52 72/56/56
f 47/31/31 49/33/33 73/57/57 71/55/55
f 12/82/82 8/81/81 72/56/56 74/58/58
f 49/33/33 50/34/34 75/59/59 73/57/57
f 2/83/83 12/82/82 74/58/58 76/60/60
f 50/34/34 51/35/35 77/61/61 75/59/59
f 13/84/84 2/83/83 76/60/60 78/62/62
f 51/35/35 52/36/36 79/63/63 77/61/61
f 3/85/85 13/84/84 78/62/62 80/64/64
f 52/36/36 53/37/37 81/65/65 79/63/63
f 14/86/86 3/85/85 80/64/64 82/66/66
f 53/37/37 54/38/38 83/67/67 81/65/65
f 5/75/75 14/86/86 82/66/66 58/43/43
f 54/38/38 17/2/2 60/44/44 83/67/67
f 15/87/87 7/78/78 66/50/50 84/68/68
f 90/88/88 91/89/89 92/90/90 93/91/91
f 4/119/92 15/87/87 84/68/68 86/117/70
f 91/89/89 94/93/93 95/94/94 92/90/90
f 16/95/95 4/92/92 86/70/70 88/72/72
f 94/93/93 96/96/96 97/97/97 95/94/94
f 1/80/80 16/95/95 88/72/72 69/53/53
f 96/96/96 98/98/98 99/101/99 97/97/97
f 25/9/9 55/39/39 91/89/89 90/88/88
f 85/69/69 67/107/51 93/106/91 92/105/90
f 67/51/51 25/9/9 90/88/88 93/91/91
f 55/39/39 56/40/40 94/93/93 91/89/89
f 87/71/71 85/69/69 92/105/90 95/104/94
f 56/40/40 57/41/41 96/96/96 94/93/93
f 89/73/73 87/71/71 95/104/94 97/100/97
f 57/41/41 48/32/32 98/98/98 96/96/96
f 48/32/32 70/103/54 99/101/99 98/98/98
f 70/54/54 89/73/73 97/100/97 99/99/99
