# This file uses centimeters as units for non-parametric coordinates.

mtllib SM_hat_04.mtl
g default
v -8.238718 180.433487 -0.971090
v 8.238718 180.433487 -0.971090
v -8.238718 196.237869 -5.632349
v 8.238718 196.237869 -5.632348
v -8.238718 191.576614 -21.436731
v 8.238718 191.576614 -21.436731
v -8.238718 175.772232 -16.775473
v 8.238718 175.772232 -16.775475
v -11.122269 196.673004 -14.350260
v 11.122269 182.858704 -21.871868
v 0.000000 172.190750 -18.725521
v -11.122269 182.858704 -21.871868
v 11.122269 175.337097 -8.057562
v -11.122269 175.337097 -8.057562
v 0.000000 178.483444 2.610396
v 11.122269 189.151398 -0.535953
v 0.000000 199.819351 -3.682302
v -11.122269 189.151398 -0.535953
v 11.122269 196.673004 -14.350260
v 0.000000 193.526657 -25.018219
v 0.000000 190.200180 3.020034
v 0.000000 200.228989 -15.399042
v 0.000000 181.809921 -25.427856
v 0.000000 171.781113 -7.008779
v 14.829691 186.005051 -11.203911
v -14.829691 186.005051 -11.203911
v -22.607624 146.975723 19.491911
v -22.293188 146.532227 -23.291378
v 0.000000 146.532257 -31.151115
v -1.889408 152.487350 26.721230
v 22.293188 146.532227 -23.291380
v 30.546516 146.532257 -1.420837
v 22.120808 147.964951 19.526304
v -30.546516 146.532257 -1.420837
v 28.449785 146.532227 -13.342954
v 28.528898 146.643585 10.184994
v -28.543674 146.532227 10.183226
v -28.449787 146.532227 -13.342952
v -12.145434 146.532242 -29.190592
v 12.145435 146.532242 -29.190592
v 10.785375 151.400604 25.034708
v -13.289365 149.738190 24.961489
v 23.960831 146.532242 -24.994678
v 30.599445 146.532242 -14.315647
v 20.571852 157.575485 -21.523964
v 24.175291 162.181747 -13.305161
v 32.875034 146.532257 -1.409010
v 25.959141 164.436050 -1.318857
v 30.655361 146.619888 11.243975
v 24.209164 161.940628 10.524373
v 23.730751 147.865417 21.405720
v 20.446253 157.237991 18.331400
v 13.153675 170.564560 11.550254
v 11.853872 162.042801 21.780268
v 14.072567 173.742462 -1.264547
v -0.000000 176.844208 -1.241444
v -0.000000 173.457169 12.506758
v -0.450262 164.254166 23.483356
v 13.134430 170.902084 -14.190877
v 12.193119 162.289429 -25.007818
v 0.000000 164.620590 -26.727592
v 0.000000 173.841339 -15.104757
v -13.134428 170.902084 -14.190878
v -14.072567 173.742462 -1.264547
v -12.193119 162.289429 -25.007820
v -20.571848 157.575485 -21.523966
v -24.175291 162.181747 -13.305158
v -25.959143 164.436050 -1.318856
v -13.154310 170.559387 11.550181
v -12.485272 161.582352 21.766262
v -24.214798 161.894669 10.523700
v -20.702616 156.723846 18.318211
v -30.666096 146.532257 11.242694
v -24.161097 146.905090 21.373644
v -32.875034 146.532257 -1.409009
v -30.599447 146.532242 -14.315642
v -23.960831 146.532242 -24.994673
v -13.086068 146.532257 -31.365292
v 0.000000 146.532272 -33.497601
v 13.086069 146.532257 -31.365294
v 11.606849 151.426712 27.410091
v -1.928598 152.605453 29.259439
v -14.105732 149.704224 27.333439
v 22.293221 138.156281 -23.291460
v 28.449823 138.156281 -13.342977
v 23.960863 138.156296 -24.994759
v 30.599483 138.156296 -14.315670
v 30.546560 138.156311 -1.420837
v 32.875080 138.156311 -1.409010
v 28.532082 138.235428 10.184635
v 30.658920 138.214340 11.243567
v 22.122780 139.507294 19.525846
v 23.732605 139.405212 21.405336
v -28.543743 138.156281 10.183240
v -22.574726 138.513855 19.487492
v -24.131453 138.451492 21.369686
v -30.666164 138.156311 11.242708
v -30.546560 138.156311 -1.420833
v -32.875080 138.156311 -1.409004
v -28.449825 138.156281 -13.342963
v -30.599485 138.156296 -14.315654
v -22.293221 138.156281 -23.291456
v -23.960863 138.156296 -24.994751
v -12.145444 138.156296 -29.190670
v -13.086078 138.156311 -31.365370
v 0.000000 138.156311 -31.151140
v 0.000000 138.156326 -33.497623
v 12.145445 138.156296 -29.190659
v 13.086079 138.156311 -31.365360
v 10.752503 143.146957 25.037556
v 11.573211 143.176300 27.413042
v -1.936229 144.277649 26.726202
v -1.976354 144.398743 29.264587
v -13.246314 141.263748 24.954849
v -14.059772 141.221802 27.326454
v 24.914087 146.032242 -25.973307
v 31.889988 146.032242 -14.809313
v 31.890022 138.656296 -14.809334
v 24.914116 138.656296 -25.973379
v 34.261150 146.032257 -1.410164
v 34.261189 138.656311 -1.410165
v 31.939926 146.104416 11.748954
v 31.942846 138.705124 11.748620
v 24.677536 147.290649 22.406925
v 24.679239 139.838898 22.406610
v -31.948763 146.032257 11.747899
v -25.070204 146.358429 22.376429
v -31.948824 138.656311 11.747911
v -25.046106 138.919205 22.373226
v -34.261150 146.032257 -1.410163
v -34.261189 138.656311 -1.410159
v -31.889990 146.032242 -14.809308
v -31.890024 138.656296 -14.809318
v -24.914087 146.032242 -25.973299
v -24.914116 138.656296 -25.973370
v -13.554899 146.032257 -32.666912
v -13.554907 138.656311 -32.666985
v 0.000000 146.032272 -34.886574
v 0.000000 138.656326 -34.886589
v 13.554900 146.032257 -32.666916
v 13.554908 138.656311 -32.666977
v 12.031460 150.936050 28.727776
v 12.001704 143.671295 28.730394
v -1.946621 152.159698 30.655745
v -1.988825 144.933243 30.660316
v -14.521470 149.174026 28.648945
v -14.479481 141.700241 28.642616
vt 0.797634 0.029590
vt 0.808652 0.049494
vt 0.785615 0.059242
vt 0.775866 0.036205
vt 0.815267 0.071261
vt 0.795363 0.082280
vt 0.773596 0.088894
vt 0.762577 0.068990
vt 0.755963 0.047223
vt 0.916203 0.108716
vt 0.944735 0.079290
vt 0.765563 0.108712
vt 0.883248 0.088894
vt 0.905015 0.082278
vt 0.924918 0.071259
vt 0.895265 0.059241
vt 0.918302 0.049492
vt 0.872228 0.068991
vt 0.865613 0.047224
vt 0.885516 0.036204
vt 0.907282 0.029589
vt 0.835091 0.038306
vt 0.805666 0.009773
vt 0.845795 0.039192
vt 0.845790 0.080179
vt 0.764679 0.009766
vt 0.942515 0.635679
vt 0.941631 0.672034
vt 0.917871 0.666612
vt 0.909449 0.644700
vt 0.929689 0.600116
vt 0.894795 0.619968
vt 0.903141 0.574062
vt 0.878333 0.596747
vt 0.869876 0.560057
vt 0.862442 0.579101
vt 0.853638 0.611294
vt 0.838799 0.587231
vt 0.869128 0.635235
vt 0.845270 0.649886
vt 0.829365 0.625306
vt 0.812189 0.600790
vt 0.884629 0.659088
vt 0.901365 0.682986
vt 0.878110 0.699547
vt 0.861261 0.674150
vt 0.838090 0.689552
vt 0.822276 0.665713
vt 0.853687 0.714322
vt 0.832098 0.722958
vt 0.815064 0.706553
vt 0.798019 0.683147
vt 0.806464 0.641664
vt 0.789311 0.618955
vt 0.783049 0.658713
vt 0.773557 0.637592
vt 0.752523 0.672029
vt 0.752180 0.636690
vt 0.766137 0.706932
vt 0.793880 0.733221
vt 0.827958 0.746831
vt 0.864808 0.747162
vt 0.900871 0.733422
vt 0.927607 0.705722
vt 0.829254 0.562253
vt 0.793588 0.580144
vt 0.766672 0.604768
vt 0.990234 0.626937
vt 0.989396 0.681644
vt 0.969462 0.574700
vt 0.930170 0.535271
vt 0.878395 0.514761
vt 0.706931 0.627304
vt 0.704660 0.682575
vt 0.727356 0.734643
vt 0.768480 0.774294
vt 0.819901 0.794697
vt 0.875236 0.794687
vt 0.928158 0.772892
vt 0.968355 0.732358
vt 0.817737 0.515131
vt 0.766102 0.537780
vt 0.728515 0.576246
vt 0.969667 0.630813
vt 0.968815 0.677576
vt 0.963731 0.676509
vt 0.964824 0.632141
vt 0.952208 0.586394
vt 0.948142 0.588923
vt 0.920449 0.553155
vt 0.917170 0.556750
vt 0.879727 0.535021
vt 0.878492 0.539912
vt 0.726362 0.679206
vt 0.725432 0.635542
vt 0.730281 0.635734
vt 0.730949 0.677462
vt 0.744327 0.722622
vt 0.748175 0.719877
vt 0.779274 0.756511
vt 0.782291 0.752535
vt 0.823423 0.774063
vt 0.824294 0.768967
vt 0.870851 0.774204
vt 0.869329 0.769362
vt 0.916233 0.755727
vt 0.913508 0.751744
vt 0.950735 0.721092
vt 0.946769 0.717921
vt 0.826619 0.534581
vt 0.827713 0.539978
vt 0.775780 0.556787
vt 0.778959 0.561332
vt 0.741140 0.593679
vt 0.745906 0.596376
vt 0.944763 0.672735
vt 0.945709 0.635199
vt 0.961737 0.632611
vt 0.960686 0.675879
vt 0.932453 0.598485
vt 0.945533 0.590565
vt 0.905052 0.571548
vt 0.915442 0.559233
vt 0.870657 0.557018
vt 0.877778 0.542661
vt 0.749172 0.636016
vt 0.749459 0.672773
vt 0.733927 0.676849
vt 0.733183 0.635923
vt 0.763583 0.708773
vt 0.750662 0.718145
vt 0.792177 0.735964
vt 0.783868 0.749854
vt 0.827391 0.749976
vt 0.824832 0.765920
vt 0.865459 0.750339
vt 0.868759 0.766279
vt 0.902653 0.736053
vt 0.911776 0.749209
vt 0.930321 0.707526
vt 0.944092 0.716265
vt 0.828529 0.559062
vt 0.828017 0.543141
vt 0.791716 0.577419
vt 0.781007 0.564027
vt 0.764174 0.602719
vt 0.748786 0.597480
vt 0.736145 0.039191
vt 0.944740 0.038303
vt 0.915314 0.009771
vt 0.875216 0.108712
vt 0.806551 0.108718
vt 0.835084 0.079293
vt 0.874327 0.009766
vt 0.736139 0.080178
vn -0.577351 -0.390443 0.717092
vn 0.000000 -0.478193 0.878255
vn -0.000000 0.282887 0.959153
vn -0.707107 0.200032 0.678224
vn 0.577351 -0.390443 0.717092
vn 0.707107 0.200032 0.678224
vn 0.577350 0.717093 0.390442
vn -0.000000 0.878255 0.478192
vn -0.577350 0.717093 0.390442
vn 0.000000 0.959153 -0.282886
vn -0.707107 0.678224 -0.200031
vn 0.707107 0.678224 -0.200031
vn 0.577351 0.390443 -0.717092
vn 0.000000 0.478193 -0.878255
vn -0.577351 0.390443 -0.717092
vn -0.000000 -0.282887 -0.959153
vn -0.707107 -0.200032 -0.678224
vn 0.707107 -0.200032 -0.678224
vn 0.577350 -0.717093 -0.390442
vn -0.000000 -0.878255 -0.478192
vn -0.577350 -0.717093 -0.390442
vn 0.000000 -0.959153 0.282887
vn -0.707107 -0.678224 0.200032
vn 0.707107 -0.678224 0.200032
vn 1.000000 0.000000 -0.000000
vn -1.000000 -0.000000 -0.000000
vn 0.842029 0.447259 -0.301574
vn 0.617711 0.466129 -0.633370
vn 0.624107 0.450829 -0.638157
vn 0.766024 0.547372 -0.337033
vn 0.898717 0.438522 -0.002331
vn 0.810125 0.586249 0.003274
vn 0.841838 0.455011 0.290300
vn 0.760420 0.547777 0.348858
vn 0.645412 0.500044 0.577408
vn 0.619504 0.465096 0.632377
vn 0.394754 0.816422 0.421455
vn 0.340859 0.580304 0.739637
vn 0.426835 0.904264 0.010892
vn -0.000049 0.999911 0.013343
vn -0.001643 0.892241 0.451557
vn -0.010645 0.631189 0.775556
vn 0.397093 0.826514 -0.398990
vn 0.328270 0.541404 -0.774029
vn 0.000000 0.576295 -0.817242
vn 0.000000 0.903518 -0.428551
vn -0.397093 0.826513 -0.398990
vn -0.427136 0.904116 0.011344
vn -0.328269 0.541404 -0.774029
vn -0.624107 0.450829 -0.638157
vn -0.766024 0.547372 -0.337033
vn -0.810147 0.586213 0.004087
vn -0.397980 0.814503 0.422133
vn -0.364901 0.579307 0.728870
vn -0.760656 0.546408 0.350487
vn -0.635500 0.462061 0.618578
vn -0.840326 0.451828 0.299506
vn -0.654847 0.493908 0.572040
vn -0.898835 0.438286 -0.001000
vn -0.842029 0.447259 -0.301574
vn -0.617711 0.466128 -0.633370
vn -0.288908 0.440430 -0.850032
vn -0.000000 0.428508 -0.903538
vn 0.288908 0.440430 -0.850031
vn 0.328869 0.514554 0.791884
vn -0.049386 0.521352 0.851911
vn -0.397289 0.518889 0.756912
vn -0.889262 -0.310801 0.335583
vn -0.659140 -0.325068 0.678134
vn 0.112698 -0.986866 -0.115739
vn 0.147767 -0.987433 -0.056043
vn -0.952063 -0.305874 0.004157
vn 0.154681 -0.987963 0.001661
vn -0.885653 -0.325597 -0.331068
vn 0.104243 -0.990137 0.093612
vn -0.675856 -0.350994 -0.648091
vn -0.064751 -0.975252 0.211404
vn 0.888604 -0.315762 -0.332683
vn 0.697623 -0.342691 -0.629194
vn 0.011244 -0.985613 0.168641
vn -0.135747 -0.988665 0.064141
vn 0.952181 -0.305511 0.003801
vn -0.157183 -0.987569 -0.000379
vn 0.889263 -0.310800 0.335582
vn -0.147767 -0.987433 -0.056044
vn 0.659140 -0.325068 0.678134
vn -0.112698 -0.986866 -0.115740
vn 0.316072 -0.310452 0.896503
vn -0.052623 -0.987635 -0.147679
vn -0.000000 -0.304201 0.952608
vn 0.000000 -0.987969 -0.154652
vn -0.316072 -0.310452 0.896503
vn 0.052623 -0.987634 -0.147679
vn -0.343099 -0.309677 -0.886783
vn -0.119725 -0.968596 0.217916
vn 0.034153 -0.300289 -0.953237
vn 0.074248 -0.978725 0.191270
vn 0.415900 -0.323751 -0.849831
vn 0.176472 -0.961336 0.211401
vn -0.935598 -0.000006 0.353067
vn -0.696993 -0.000008 0.717078
vn 0.690142 0.146913 -0.708605
vn 0.923909 0.151131 -0.351500
vn 0.923910 -0.151120 -0.351501
vn 0.690143 -0.146897 -0.708607
vn -0.999996 -0.000096 0.002738
vn 0.988231 0.152957 -0.001892
vn 0.988156 -0.153445 -0.001725
vn -0.924389 -0.000210 -0.381450
vn 0.918145 0.143926 0.369182
vn 0.916079 -0.154779 0.369922
vn -0.618588 0.000311 -0.785715
vn 0.642832 0.135001 0.754017
vn 0.640527 -0.159157 0.751262
vn 0.933539 0.000891 -0.358474
vn 0.679452 0.002414 -0.733716
vn -0.689176 0.131119 0.712632
vn -0.922467 0.146831 0.357066
vn -0.921661 -0.151481 0.357204
vn -0.683771 -0.160951 0.711725
vn 0.999992 -0.000006 0.003991
vn -0.988168 0.153360 -0.002200
vn -0.988170 -0.153348 -0.002200
vn 0.935598 -0.000006 0.353068
vn -0.923909 0.151131 -0.351500
vn -0.923910 -0.151120 -0.351501
vn 0.696993 -0.000008 0.717078
vn -0.690142 0.146912 -0.708604
vn -0.690143 -0.146898 -0.708607
vn 0.332501 -0.000008 0.943103
vn -0.332860 0.152020 -0.930642
vn -0.332860 -0.152005 -0.930644
vn -0.000000 -0.000006 1.000000
vn -0.000000 0.155089 -0.987900
vn 0.000000 -0.155078 -0.987902
vn -0.332501 -0.000007 0.943103
vn 0.332860 0.152020 -0.930642
vn 0.332860 -0.152006 -0.930644
vn -0.270010 0.000399 -0.962857
vn 0.304975 0.166570 0.937680
vn 0.284102 -0.145355 0.947712
vn -0.003990 0.000122 -0.999992
vn -0.009124 0.181001 0.983441
vn -0.001088 -0.138646 0.990341
vn 0.304014 0.001227 -0.952667
vn -0.344688 0.149864 0.926677
vn -0.323197 -0.155562 0.933458
s 1
g SM_hat_04 chara_props
usemtl aiStandardSurface3SG
f 1/1/1 15/2/2 21/3/3 18/4/4
f 15/2/2 2/5/5 16/6/6 21/3/3
f 21/3/3 16/6/6 4/7/7 17/8/8
f 18/4/4 21/3/3 17/8/8 3/9/9
f 3/9/9 17/8/8 22/155/10 9/148/11
f 17/8/8 4/7/7 19/12/12 22/155/10
f 22/10/10 19/151/12 6/13/13 20/14/14
f 9/11/11 22/10/10 20/14/14 5/15/15
f 5/15/15 20/14/14 23/16/16 12/17/17
f 20/14/14 6/13/13 10/18/18 23/16/16
f 23/16/16 10/18/18 8/19/19 11/20/20
f 12/17/17 23/16/16 11/20/20 7/21/21
f 7/21/21 11/20/20 24/154/22 14/150/23
f 11/20/20 8/19/19 13/24/24 24/154/22
f 24/22/22 13/153/24 2/5/5 15/2/2
f 14/23/23 24/22/22 15/2/2 1/1/1
f 2/5/5 13/153/24 25/152/25 16/6/6
f 13/24/24 8/19/19 10/18/18 25/25/25
f 25/25/25 10/18/18 6/13/13 19/151/12
f 16/6/6 25/152/25 19/12/12 4/7/7
f 7/21/21 14/150/23 26/149/26 12/17/17
f 14/23/23 1/1/1 18/4/4 26/26/26
f 26/26/26 18/4/4 3/9/9 9/148/11
f 12/17/17 26/149/26 9/11/11 5/15/15
s 2
f 44/27/27 43/28/28 45/29/29 46/30/30
f 47/31/31 44/27/27 46/30/30 48/32/32
f 49/33/33 47/31/31 48/32/32 50/34/34
f 51/35/35 49/33/33 50/34/34 52/36/36
f 52/36/36 50/34/34 53/37/37 54/38/38
f 50/34/34 48/32/32 55/39/39 53/37/37
f 53/37/37 55/39/39 56/40/40 57/41/41
f 54/38/38 53/37/37 57/41/41 58/42/42
f 48/32/32 46/30/30 59/43/43 55/39/39
f 46/30/30 45/29/29 60/44/44 59/43/43
f 59/43/43 60/44/44 61/45/45 62/46/46
f 55/39/39 59/43/43 62/46/46 56/40/40
f 56/40/40 62/46/46 63/47/47 64/48/48
f 62/46/46 61/45/45 65/49/49 63/47/47
f 63/47/47 65/49/49 66/50/50 67/51/51
f 64/48/48 63/47/47 67/51/51 68/52/52
f 58/42/42 57/41/41 69/53/53 70/54/54
f 57/41/41 56/40/40 64/48/48 69/53/53
f 69/53/53 64/48/48 68/52/52 71/55/55
f 70/54/54 69/53/53 71/55/55 72/56/56
f 72/56/56 71/55/55 73/57/57 74/58/58
f 71/55/55 68/52/52 75/59/59 73/57/57
f 68/52/52 67/51/51 76/60/60 75/59/59
f 67/51/51 66/50/50 77/61/61 76/60/60
f 78/62/62 77/61/61 66/50/50 65/49/49
f 79/63/63 78/62/62 65/49/49 61/45/45
f 80/64/64 79/63/63 61/45/45 60/44/44
f 43/28/28 80/64/64 60/44/44 45/29/29
f 81/65/65 51/35/35 52/36/36 54/38/38
f 82/66/66 81/65/65 54/38/38 58/42/42
f 83/67/67 82/66/66 58/42/42 70/54/54
f 74/58/58 83/67/67 70/54/54 72/56/56
f 85/84/68 84/85/69 86/86/70 87/87/71
f 88/88/72 85/84/68 87/87/71 89/89/73
f 90/90/74 88/88/72 89/89/73 91/91/75
f 92/92/76 90/90/74 91/91/75 93/93/77
f 94/94/78 95/95/79 96/96/80 97/97/81
f 98/98/82 94/94/78 97/97/81 99/99/83
f 100/100/84 98/98/82 99/99/83 101/101/85
f 102/102/86 100/100/84 101/101/85 103/103/87
f 104/104/88 102/102/86 103/103/87 105/105/89
f 106/106/90 104/104/88 105/105/89 107/107/91
f 108/108/92 106/106/90 107/107/91 109/109/93
f 84/85/69 108/108/92 109/109/93 86/86/70
f 110/110/94 92/92/76 93/93/77 111/111/95
f 112/112/96 110/110/94 111/111/95 113/113/97
f 114/114/98 112/112/96 113/113/97 115/115/99
f 95/95/79 114/114/98 115/115/99 96/96/80
f 35/68/100 31/69/101 84/85/69 85/84/68
f 116/116/102 117/117/103 118/118/104 119/119/105
f 32/70/106 35/68/100 85/84/68 88/88/72
f 117/117/103 120/120/107 121/121/108 118/118/104
f 36/71/109 32/70/106 88/88/72 90/90/74
f 120/120/107 122/122/110 123/123/111 121/121/108
f 33/72/112 36/71/109 90/90/74 92/92/76
f 122/122/110 124/124/113 125/125/114 123/123/111
f 37/74/115 27/73/116 95/95/79 94/94/78
f 127/126/117 126/127/118 128/128/119 129/129/120
f 34/75/121 37/74/115 94/94/78 98/98/82
f 126/127/118 130/130/122 131/131/123 128/128/119
f 38/76/124 34/75/121 98/98/82 100/100/84
f 130/130/122 132/132/125 133/133/126 131/131/123
f 28/77/127 38/76/124 100/100/84 102/102/86
f 132/132/125 134/134/128 135/135/129 133/133/126
f 39/78/130 28/77/127 102/102/86 104/104/88
f 134/134/128 136/136/131 137/137/132 135/135/129
f 29/79/133 39/78/130 104/104/88 106/106/90
f 136/136/131 138/138/134 139/139/135 137/137/132
f 40/80/136 29/79/133 106/106/90 108/108/92
f 138/138/134 140/140/137 141/141/138 139/139/135
f 31/69/101 40/80/136 108/108/92 84/85/69
f 140/140/137 116/116/102 119/119/105 141/141/138
f 41/81/139 33/72/112 92/92/76 110/110/94
f 124/124/113 142/142/140 143/143/141 125/125/114
f 30/82/142 41/81/139 110/110/94 112/112/96
f 142/142/140 144/144/143 145/145/144 143/143/141
f 42/83/145 30/82/142 112/112/96 114/114/98
f 144/144/143 146/146/146 147/147/147 145/145/144
f 27/73/116 42/83/145 114/114/98 95/95/79
f 146/146/146 127/126/117 129/129/120 147/147/147
f 43/28/28 44/27/27 117/117/103 116/116/102
f 87/87/71 86/86/70 119/119/105 118/118/104
f 44/27/27 47/31/31 120/120/107 117/117/103
f 89/89/73 87/87/71 118/118/104 121/121/108
f 47/31/31 49/33/33 122/122/110 120/120/107
f 91/91/75 89/89/73 121/121/108 123/123/111
f 49/33/33 51/35/35 124/124/113 122/122/110
f 93/93/77 91/91/75 123/123/111 125/125/114
f 74/58/58 73/57/57 126/127/118 127/126/117
f 97/97/81 96/96/80 129/129/120 128/128/119
f 73/57/57 75/59/59 130/130/122 126/127/118
f 99/99/83 97/97/81 128/128/119 131/131/123
f 75/59/59 76/60/60 132/132/125 130/130/122
f 101/101/85 99/99/83 131/131/123 133/133/126
f 76/60/60 77/61/61 134/134/128 132/132/125
f 103/103/87 101/101/85 133/133/126 135/135/129
f 77/61/61 78/62/62 136/136/131 134/134/128
f 105/105/89 103/103/87 135/135/129 137/137/132
f 78/62/62 79/63/63 138/138/134 136/136/131
f 107/107/91 105/105/89 137/137/132 139/139/135
f 79/63/63 80/64/64 140/140/137 138/138/134
f 109/109/93 107/107/91 139/139/135 141/141/138
f 80/64/64 43/28/28 116/116/102 140/140/137
f 86/86/70 109/109/93 141/141/138 119/119/105
f 51/35/35 81/65/65 142/142/140 124/124/113
f 111/111/95 93/93/77 125/125/114 143/143/141
f 81/65/65 82/66/66 144/144/143 142/142/140
f 113/113/97 111/111/95 143/143/141 145/145/144
f 82/66/66 83/67/67 146/146/146 144/144/143
f 115/115/99 113/113/97 145/145/144 147/147/147
f 83/67/67 74/58/58 127/126/117 146/146/146
f 96/96/80 115/115/99 147/147/147 129/129/120
