# This file uses centimeters as units for non-parametric coordinates.

mtllib SM_hat_03.mtl
g default
v -15.959652 163.315201 18.923178
v 15.959652 163.315201 18.923178
v -12.236765 187.788727 12.236765
v 12.236765 187.788727 12.236765
v -12.236765 187.788727 -12.236765
v 12.236765 187.788727 -12.236765
v -15.959652 163.315201 -18.923178
v 15.959652 163.315201 -18.923178
v -22.541092 162.178055 -26.726685
v 22.541092 162.178055 -26.726685
v 22.541092 162.178055 26.726685
v -22.541092 162.178055 26.726685
v -22.541092 159.371872 -26.726685
v 22.541092 159.371872 -26.726685
v 22.541092 159.371872 26.726685
v -22.541092 159.371872 26.726685
v -12.236765 187.788727 0.000000
v -21.060350 163.315201 0.000000
v -27.323563 162.178055 0.000000
v -27.323563 159.371872 0.000000
v 27.323563 159.371872 0.000000
v 27.323563 162.178055 0.000000
v 21.060350 163.315201 0.000000
v 12.236765 187.788727 0.000000
v 0.000000 163.315201 24.968307
v 0.000000 184.323837 12.236765
v 0.000000 184.323837 0.000000
v 0.000000 184.323837 -12.236765
v 0.000000 163.315201 -24.968307
v 0.000000 162.178055 -33.625500
v 0.000000 159.371872 -33.625500
v 0.000000 158.234726 0.000000
v 0.000000 153.007339 33.625500
v 0.000000 162.178055 33.625500
v -32.750175 167.587234 -38.831467
v 0.000000 161.222702 -48.854828
v 0.000000 157.145584 -48.854828
v -32.750175 163.510132 -38.831467
v 39.698677 163.510132 0.000000
v 39.698677 167.587234 0.000000
v 32.750175 167.587234 38.831467
v 32.750175 163.510132 38.831467
v 0.000000 157.145584 48.854828
v 0.000000 161.222702 48.854828
v -32.750175 167.587234 38.831467
v -32.750175 163.510132 38.831467
v -39.698677 167.587234 0.000000
v -39.698677 163.510132 0.000000
v 32.750175 167.587234 -38.831467
v 32.750175 163.510132 -38.831467
vt 0.193412 0.009766
vt 0.377058 0.009766
vt 0.193412 0.193412
vt 0.377058 0.193412
vt 0.193412 0.377059
vt 0.377058 0.377059
vt 0.193412 0.560705
vt 0.377058 0.560705
vt 0.193412 0.744351
vt 0.377058 0.744351
vt 0.560705 0.009766
vt 0.560705 0.193412
vt 0.009766 0.009766
vt 0.009766 0.193412
vt 0.193412 0.560705
vt 0.377058 0.560705
vt 0.377058 0.744351
vt 0.193412 0.744351
vt 0.193412 0.560705
vt 0.377058 0.560705
vt 0.377058 0.744351
vt 0.193412 0.744351
vt 0.101589 0.193412
vt 0.193412 0.285236
vt 0.101589 0.009766
vt 0.193412 0.652528
vt 0.193412 0.652528
vt 0.193412 0.652528
vt 0.377058 0.652528
vt 0.377058 0.652528
vt 0.377058 0.652528
vt 0.468881 0.009766
vt 0.377058 0.285236
vt 0.468881 0.193412
vt 0.285235 0.009766
vt 0.285235 0.744351
vt 0.285235 0.193412
vt 0.285235 0.285236
vt 0.285235 0.377059
vt 0.285235 0.560705
vt 0.285235 0.560705
vt 0.285235 0.560705
vt 0.285235 0.652528
vt 0.285235 0.744351
vt 0.285235 0.744351
vt 0.193412 0.560705
vt 0.285235 0.560705
vt 0.285235 0.560705
vt 0.193412 0.560705
vt 0.377058 0.652528
vt 0.377058 0.744351
vt 0.377058 0.744351
vt 0.377058 0.652528
vt 0.285235 0.744351
vt 0.193412 0.744351
vt 0.193412 0.744351
vt 0.285235 0.744351
vt 0.193412 0.652528
vt 0.193412 0.652528
vt 0.377058 0.560705
vt 0.377058 0.560705
vn -0.473727 0.756986 0.450061
vn 0.000000 0.742478 0.669871
vn -0.000000 0.644197 0.764859
vn -0.633878 0.569973 0.522810
vn 0.000000 1.000000 0.000000
vn -0.797929 0.602751 0.000000
vn -0.633877 0.569973 -0.522810
vn -0.000000 0.644197 -0.764860
vn -0.000000 0.742478 -0.669871
vn -0.473727 0.756986 -0.450061
vn -0.181519 -0.982983 -0.028203
vn 0.000000 -0.998837 -0.048211
vn 0.000000 -0.998985 0.045036
vn -0.226798 -0.973432 0.031512
vn 0.473727 0.756986 0.450061
vn 0.799073 0.601234 -0.000000
vn 0.797929 0.602751 0.000000
vn 0.633878 0.569973 0.522810
vn -0.799073 0.601234 0.000000
vn 0.000000 0.998446 0.055726
vn 0.226237 0.972222 0.060008
vn -0.278500 0.960436 0.000000
vn -0.226237 0.972222 -0.060008
vn 0.000000 0.998446 -0.055726
vn 0.226237 0.972222 -0.060009
vn 0.278500 0.960436 -0.000000
vn -0.082392 0.981622 -0.172131
vn -0.000000 0.949249 -0.314525
vn 0.000000 -0.936368 -0.351019
vn -0.486267 -0.819714 -0.302678
vn 0.610781 -0.791799 0.000000
vn -0.001896 0.999998 0.000000
vn 0.082392 0.981622 0.172131
vn 0.529150 -0.769200 0.358235
vn 0.000000 -0.886089 0.463514
vn 0.000000 0.949249 0.314525
vn -0.082392 0.981622 0.172131
vn -0.529150 -0.769200 0.358235
vn 0.001896 0.999998 -0.000000
vn -0.610781 -0.791799 0.000000
vn -0.135010 -0.990319 -0.032266
vn 0.000000 -0.999750 -0.022372
vn 0.082392 0.981622 -0.172131
vn 0.486267 -0.819714 -0.302678
vn 0.473727 0.756986 -0.450061
vn -0.226237 0.972222 0.060009
vn 0.633877 0.569973 -0.522810
vn 0.135010 -0.990319 -0.032266
vn 0.181519 -0.982983 -0.028203
vn 0.226798 -0.973432 0.031512
s 1
g SM_hat_03 chara_props
usemtl aiStandardSurface3SG
f 1/1/1 25/35/2 26/37/3 3/3/4
f 3/3/4 26/37/3 27/38/5 17/24/6
f 5/5/7 28/39/8 29/40/9 7/7/10
f 20/28/11 32/43/12 33/44/13 16/22/14
f 2/2/15 23/32/16 24/34/17 4/4/18
f 17/23/6 18/25/19 1/1/1 3/3/4
f 7/7/10 29/40/9 30/41/20 9/15/21
f 22/30/22 23/31/16 2/10/15 11/17/23
f 34/45/24 25/36/2 1/9/1 12/18/25
f 1/9/1 18/26/19 19/27/26 12/18/25
f 35/46/27 36/47/28 37/48/29 38/49/30
f 39/53/31 40/50/32 41/51/33 42/52/34
f 43/57/35 44/54/36 45/55/37 46/56/38
f 45/55/37 47/58/39 48/59/40 46/56/38
f 7/13/10 18/25/19 17/23/6 5/14/7
f 19/27/26 18/26/19 7/7/10 9/15/21
f 48/59/40 47/58/39 35/46/27 38/49/30
f 13/19/41 31/42/42 32/43/12 20/28/11
f 49/60/43 40/50/32 39/53/31 50/61/44
f 8/8/45 23/31/16 22/30/22 10/16/46
f 24/34/17 23/32/16 8/11/45 6/12/47
f 17/24/6 27/38/5 28/39/8 5/5/7
f 26/37/3 25/35/2 2/2/15 4/4/18
f 27/38/5 26/37/3 4/4/18 24/33/17
f 28/39/8 27/38/5 24/33/17 6/6/47
f 29/40/9 28/39/8 6/6/47 8/8/45
f 30/41/20 29/40/9 8/8/45 10/16/46
f 37/48/29 36/47/28 49/60/43 50/61/44
f 32/43/12 31/42/42 14/20/48 21/29/49
f 33/44/13 32/43/12 21/29/49 15/21/50
f 41/51/33 44/54/36 43/57/35 42/52/34
f 2/10/15 25/36/2 34/45/24 11/17/23
f 9/15/21 30/41/20 36/47/28 35/46/27
f 31/42/42 13/19/41 38/49/30 37/48/29
f 22/30/22 11/17/23 41/51/33 40/50/32
f 15/21/50 21/29/49 39/53/31 42/52/34
f 34/45/24 12/18/25 45/55/37 44/54/36
f 16/22/14 33/44/13 43/57/35 46/56/38
f 12/18/25 19/27/26 47/58/39 45/55/37
f 20/28/11 16/22/14 46/56/38 48/59/40
f 19/27/26 9/15/21 35/46/27 47/58/39
f 13/19/41 20/28/11 48/59/40 38/49/30
f 10/16/46 22/30/22 40/50/32 49/60/43
f 21/29/49 14/20/48 50/61/44 39/53/31
f 30/41/20 10/16/46 49/60/43 36/47/28
f 14/20/48 31/42/42 37/48/29 50/61/44
f 11/17/23 34/45/24 44/54/36 41/51/33
f 33/44/13 15/21/50 42/52/34 43/57/35
