# This file uses centimeters as units for non-parametric coordinates.

mtllib SM_face.mtl
g default
v -17.612812 107.035286 17.148575
v -18.331535 155.982086 16.659992
v 0.000000 160.505936 21.211260
v 0.000000 97.409035 20.864271
v -23.144978 135.723312 21.208126
v 0.000000 132.155106 28.318539
v 0.000000 94.402420 11.449878
v -10.635243 100.752541 19.663746
v 0.000000 110.553009 25.718792
v -12.676370 133.390396 26.727686
v 0.000000 147.939911 26.257074
v -20.210739 106.998299 10.262191
v -29.326607 137.555069 11.483919
v -21.218420 119.711555 20.014820
v -21.479673 159.673004 9.918909
v -21.588270 147.995270 19.525335
v 0.000000 167.545135 11.745702
v -10.896074 159.007477 19.696306
v -26.880238 122.241982 10.948761
v -27.390869 149.848785 10.603933
v -11.710335 165.557343 10.862846
v -10.829954 97.731514 10.529979
v -11.937132 114.219032 24.608934
v -11.818704 147.588913 24.676432
v 17.612812 107.035286 17.148575
v 18.331535 155.982086 16.659992
v 23.144978 135.723312 21.208126
v 10.635243 100.752541 19.663746
v 12.676370 133.390396 26.727686
v 20.210739 106.998299 10.262191
v 29.326607 137.555069 11.483919
v 21.218420 119.711555 20.014820
v 21.479673 159.673004 9.918909
v 21.588270 147.995270 19.525335
v 10.896074 159.007477 19.696306
v 26.880238 122.241982 10.948761
v 27.390869 149.848785 10.603933
v 11.710335 165.557343 10.862846
v 10.829954 97.731514 10.529979
v 11.937132 114.219032 24.608934
v 11.818704 147.588913 24.676432
vt 0.278816 0.205667
vt 0.235228 0.366134
vt 0.104637 0.376040
vt 0.200811 0.166712
vt 0.217814 0.559917
vt 0.084910 0.588987
vt 0.234485 0.708435
vt 0.118800 0.756421
vt 0.265094 0.815476
vt 0.202017 0.887846
vt 0.366876 0.839584
vt 0.337168 0.963566
vt 0.498965 0.850000
vt 0.497993 0.990234
vt 0.503994 0.127241
vt 0.379831 0.150944
vt 0.344766 0.047029
vt 0.504815 0.009766
vt 0.502926 0.280298
vt 0.362048 0.314902
vt 0.353584 0.532872
vt 0.501251 0.520772
vt 0.500011 0.699156
vt 0.361255 0.696162
vt 0.728055 0.208798
vt 0.806596 0.170934
vt 0.899842 0.381576
vt 0.769402 0.369853
vt 0.916604 0.594770
vt 0.784117 0.563856
vt 0.880391 0.761712
vt 0.765384 0.712124
vt 0.795359 0.891966
vt 0.733292 0.818728
vt 0.659171 0.965801
vt 0.631185 0.841419
vt 0.664327 0.049258
vt 0.627813 0.152673
vt 0.643308 0.316861
vt 0.648736 0.534925
vt 0.638796 0.698091
vn -0.721254 -0.455868 0.521514
vn -0.697554 -0.216135 0.683158
vn -0.922481 -0.273457 0.272489
vn -0.821001 -0.556369 0.128107
vn -0.676734 0.001773 0.736225
vn -0.936742 -0.007236 0.349946
vn -0.624326 0.275239 0.731068
vn -0.878441 0.315748 0.358670
vn -0.544273 0.523403 0.655603
vn -0.664680 0.660384 0.349420
vn -0.284565 0.582870 0.761108
vn -0.325060 0.868475 0.374283
vn 0.000000 0.604666 0.796479
vn -0.000000 0.918634 0.395110
vn 0.000000 -0.680475 0.732771
vn -0.418840 -0.598681 0.682755
vn -0.562982 -0.818644 0.113459
vn 0.000000 -0.975276 0.220992
vn 0.000000 -0.230477 0.973078
vn -0.312377 -0.208515 0.926791
vn -0.289551 -0.005529 0.957147
vn 0.000000 -0.016206 0.999869
vn 0.000000 0.252430 0.967615
vn -0.271754 0.254720 0.928045
vn 0.721254 -0.455868 0.521514
vn 0.821001 -0.556369 0.128107
vn 0.922481 -0.273457 0.272490
vn 0.697554 -0.216135 0.683158
vn 0.936742 -0.007236 0.349946
vn 0.676735 0.001773 0.736225
vn 0.878441 0.315748 0.358670
vn 0.624326 0.275239 0.731068
vn 0.664680 0.660384 0.349420
vn 0.544273 0.523403 0.655603
vn 0.325060 0.868475 0.374283
vn 0.284565 0.582870 0.761108
vn 0.562982 -0.818644 0.113459
vn 0.418840 -0.598681 0.682755
vn 0.312377 -0.208515 0.926791
vn 0.289551 -0.005529 0.957147
vn 0.271754 0.254720 0.928045
s 1
g SM_face
usemtl SM_chara_baseSG
f 1/1/1 14/2/2 19/3/3 12/4/4
f 14/2/2 5/5/5 13/6/6 19/3/3
f 5/5/5 16/7/7 20/8/8 13/6/6
f 16/7/7 2/9/9 15/10/10 20/8/8
f 2/9/9 18/11/11 21/12/12 15/10/10
f 18/11/11 3/13/13 17/14/14 21/12/12
f 4/15/15 8/16/16 22/17/17 7/18/18
f 8/16/16 1/1/1 12/4/4 22/17/17
f 4/15/15 9/19/19 23/20/20 8/16/16
f 8/16/16 23/20/20 14/2/2 1/1/1
f 23/20/20 10/21/21 5/5/5 14/2/2
f 9/19/19 6/22/22 10/21/21 23/20/20
f 6/22/22 11/23/23 24/24/24 10/21/21
f 10/21/21 24/24/24 16/7/7 5/5/5
f 24/24/24 18/11/11 2/9/9 16/7/7
f 11/23/23 3/13/13 18/11/11 24/24/24
f 25/25/25 30/26/26 36/27/27 32/28/28
f 32/28/28 36/27/27 31/29/29 27/30/30
f 27/30/30 31/29/29 37/31/31 34/32/32
f 34/32/32 37/31/31 33/33/33 26/34/34
f 26/34/34 33/33/33 38/35/35 35/36/36
f 35/36/36 38/35/35 17/14/14 3/13/13
f 4/15/15 7/18/18 39/37/37 28/38/38
f 28/38/38 39/37/37 30/26/26 25/25/25
f 4/15/15 28/38/38 40/39/39 9/19/19
f 28/38/38 25/25/25 32/28/28 40/39/39
f 40/39/39 32/28/28 27/30/30 29/40/40
f 9/19/19 40/39/39 29/40/40 6/22/22
f 6/22/22 29/40/40 41/41/41 11/23/23
f 29/40/40 27/30/30 34/32/32 41/41/41
f 41/41/41 34/32/32 26/34/34 35/36/36
f 11/23/23 41/41/41 35/36/36 3/13/13
