# This file uses centimeters as units for non-parametric coordinates.

mtllib SM_face.mtl
g default
v 18.061119 115.076820 17.336592
v 18.331535 155.982071 16.458989
v -18.331535 155.982071 16.458988
v -18.061121 115.076820 17.336590
v 0.000000 160.505936 21.010256
v -23.160120 135.932205 21.011996
v 0.000000 106.932632 21.834347
v 23.160120 135.932190 21.011996
v 0.000000 132.367233 28.211856
v -21.588276 147.995270 19.324332
v -21.096622 112.524361 10.227827
v -21.448280 123.719543 20.016785
v 0.000000 97.417702 11.245660
v -10.676003 109.816841 20.345351
v 10.676004 109.816864 20.345351
v 0.000000 118.141060 27.163157
v -12.661486 133.573074 26.556308
v 12.661486 133.573074 26.556306
v 0.000000 147.939911 26.056071
v 21.096628 112.524361 10.227829
v 29.340302 137.650787 11.281424
v 21.448284 123.719543 20.016783
v 21.479673 159.673004 9.717906
v 21.588270 147.995270 19.324332
v 0.000000 167.545135 11.544698
v 10.896074 159.007477 19.495303
v -21.479677 159.673004 9.717905
v -10.896076 159.007462 19.495301
v -29.340302 137.650787 11.281422
v 27.193125 124.885178 10.746180
v 27.390869 149.848785 10.402930
v 11.710335 165.557343 10.661843
v -11.710335 165.557343 10.661845
v -27.390869 149.848785 10.402932
v -27.193121 124.885178 10.746181
v -11.404427 101.983521 10.696761
v 11.404427 101.983521 10.696761
v -11.692354 120.289719 25.449750
v 11.692354 120.289719 25.449753
v 11.818704 147.588913 24.475428
v -11.818706 147.588913 24.475428
vt 0.879912 0.643293
vt 0.907890 0.622429
vt 0.935788 0.684892
vt 0.889225 0.684070
vt 0.938408 0.748271
vt 0.891809 0.736547
vt 0.924428 0.806739
vt 0.883971 0.788290
vt 0.892526 0.853369
vt 0.871481 0.826186
vt 0.842264 0.877681
vt 0.834810 0.832728
vt 0.785867 0.882432
vt 0.787707 0.833768
vt 0.729990 0.873436
vt 0.740817 0.829174
vt 0.681707 0.845398
vt 0.704745 0.819881
vt 0.653418 0.796492
vt 0.695152 0.781151
vt 0.643893 0.737135
vt 0.691244 0.728964
vt 0.651290 0.674136
vt 0.697783 0.676832
vt 0.683825 0.613958
vt 0.710148 0.636874
vt 0.739403 0.569696
vt 0.748467 0.620185
vt 0.798190 0.556508
vt 0.796064 0.612730
vt 0.855814 0.574097
vt 0.842963 0.623758
vt 0.745391 0.667274
vt 0.794227 0.661335
vt 0.792097 0.717654
vt 0.739793 0.720518
vt 0.842475 0.670945
vt 0.844036 0.724460
vt 0.839106 0.781784
vt 0.789724 0.780413
vt 0.740380 0.778051
vn 0.667252 -0.481899 0.567933
vn 0.710383 -0.510722 0.484272
vn 0.831020 -0.258269 0.492648
vn 0.689843 -0.253571 0.678099
vn 0.840460 0.022483 0.541406
vn 0.676208 0.017045 0.736514
vn 0.769383 0.301192 0.563323
vn 0.623804 0.278129 0.730420
vn 0.587151 0.577618 0.567108
vn 0.544273 0.523403 0.655603
vn 0.303470 0.750011 0.587698
vn 0.284565 0.582870 0.761108
vn -0.000000 0.798838 0.601547
vn -0.000000 0.604666 0.796479
vn -0.303469 0.750011 0.587699
vn -0.284566 0.582869 0.761108
vn -0.587151 0.577618 0.567108
vn -0.544273 0.523403 0.655604
vn -0.769384 0.301193 0.563322
vn -0.623804 0.278129 0.730420
vn -0.840460 0.022483 0.541406
vn -0.676208 0.017045 0.736514
vn -0.831021 -0.258269 0.492648
vn -0.689843 -0.253570 0.678099
vn -0.710384 -0.510722 0.484271
vn -0.667253 -0.481899 0.567932
vn -0.422717 -0.683447 0.595156
vn -0.408689 -0.571815 0.711337
vn 0.000000 -0.753589 0.657346
vn 0.000000 -0.630488 0.776199
vn 0.422717 -0.683447 0.595156
vn 0.408690 -0.571815 0.711337
vn -0.335949 -0.246100 0.909161
vn 0.000000 -0.263108 0.964767
vn -0.000000 0.029173 0.999574
vn -0.300181 0.026482 0.953515
vn 0.335949 -0.246100 0.909161
vn 0.300181 0.026482 0.953515
vn 0.272417 0.258281 0.926866
vn 0.000000 0.256414 0.966567
vn -0.272417 0.258281 0.926866
s 1
g SM_chara_base
usemtl aiStandardSurface1SG
f 1/1/1 20/2/2 30/3/3 22/4/4
f 22/4/4 30/3/3 21/5/5 8/6/6
f 8/6/6 21/5/5 31/7/7 24/8/8
f 24/8/8 31/7/7 23/9/9 2/10/10
f 2/10/10 23/9/9 32/11/11 26/12/12
f 26/12/12 32/11/11 25/13/13 5/14/14
f 5/14/14 25/13/13 33/15/15 28/16/16
f 28/16/16 33/15/15 27/17/17 3/18/18
f 3/18/18 27/17/17 34/19/19 10/20/20
f 10/20/20 34/19/19 29/21/21 6/22/22
f 6/22/22 29/21/21 35/23/23 12/24/24
f 12/24/24 35/23/23 11/25/25 4/26/26
f 4/26/26 11/25/25 36/27/27 14/28/28
f 14/28/28 36/27/27 13/29/29 7/30/30
f 7/30/30 13/29/29 37/31/31 15/32/32
f 15/32/32 37/31/31 20/2/2 1/1/1
f 4/26/26 14/28/28 38/33/33 12/24/24
f 14/28/28 7/30/30 16/34/34 38/33/33
f 38/33/33 16/34/34 9/35/35 17/36/36
f 12/24/24 38/33/33 17/36/36 6/22/22
f 7/30/30 15/32/32 39/37/37 16/34/34
f 15/32/32 1/1/1 22/4/4 39/37/37
f 39/37/37 22/4/4 8/6/6 18/38/38
f 16/34/34 39/37/37 18/38/38 9/35/35
f 9/35/35 18/38/38 40/39/39 19/40/40
f 18/38/38 8/6/6 24/8/8 40/39/39
f 40/39/39 24/8/8 2/10/10 26/12/12
f 19/40/40 40/39/39 26/12/12 5/14/14
f 6/22/22 17/36/36 41/41/41 10/20/20
f 17/36/36 9/35/35 19/40/40 41/41/41
f 41/41/41 19/40/40 5/14/14 28/16/16
f 10/20/20 41/41/41 28/16/16 3/18/18
