# This file uses centimeters as units for non-parametric coordinates.

mtllib SM_window_frame.mtl
g default
v 0.320625 0.000000 60.296768
v 0.320625 76.619804 60.296768
v 0.320625 76.619804 -7.762703
v 0.320625 0.000000 -7.762703
v -4.015602 4.347313 -3.117851
v -4.015602 4.347313 55.651901
v -4.015602 72.272499 55.651901
v -4.015602 72.272499 -3.117851
v -0.161018 4.347313 -3.117851
v -0.161018 4.347313 55.651901
v -0.161018 72.272499 55.651901
v -0.161018 72.272499 -3.117851
v -3.582024 0.000000 60.296768
v -4.015602 0.433578 59.863182
v -3.582024 76.619804 60.296768
v -4.015602 76.186226 59.863182
v -3.582024 76.619804 -7.762703
v -4.015602 76.186226 -7.329113
v -3.582024 0.000000 -7.762703
v -4.015602 0.433578 -7.329113
v -2.425209 0.202660 69.493088
v 2.507690 0.202660 69.493088
v -2.425209 0.202660 -69.493088
v 2.507690 0.202660 -69.493088
v -2.425209 2.349709 69.493088
v -2.186676 2.588249 69.493088
v -2.425209 2.349709 -69.493088
v -2.186676 2.588249 -69.493088
v 2.269150 2.588249 69.493088
v 2.507690 2.349709 69.493088
v 2.507690 2.349709 -69.493088
v 2.269150 2.588249 -69.493088
v 4.015594 0.000000 68.626083
v 4.015594 76.619804 68.626083
v 4.015594 76.619804 0.566608
v 4.015594 0.000000 0.566608
v -0.320633 4.347313 5.211460
v -0.320633 4.347313 63.981213
v -0.320633 72.272499 63.981213
v -0.320633 72.272499 5.211460
v 3.533951 4.347313 5.211460
v 3.533951 4.347313 63.981213
v 3.533951 72.272499 63.981213
v 3.533951 72.272499 5.211460
v 0.112946 0.000000 68.626083
v -0.320633 0.433578 68.192490
v 0.112946 76.619804 68.626083
v -0.320633 76.186226 68.192490
v 0.112946 76.619804 0.566608
v -0.320633 76.186226 1.000198
v 0.112946 0.000000 0.566608
v -0.320633 0.433578 1.000198
vt 0.028514 0.307523
vt 0.026464 0.554396
vt 0.010272 0.554262
vt 0.012323 0.307389
vt 0.054343 0.569627
vt 0.055943 0.284290
vt 0.072135 0.284381
vt 0.070536 0.569718
vt 0.057326 0.037413
vt 0.073519 0.037504
vt 0.030885 0.022192
vt 0.014693 0.022057
vt 0.027814 0.677624
vt 0.030274 0.680104
vt 0.029538 0.970410
vt 0.027081 0.972891
vt 0.359609 0.678464
vt 0.357153 0.680945
vt 0.358953 0.973725
vt 0.356477 0.971250
vt 0.016852 0.665716
vt 0.371124 0.667096
vt 0.369918 0.985628
vt 0.015563 0.984254
vt 0.047131 0.698376
vt 0.046498 0.952240
vt 0.340197 0.699117
vt 0.339600 0.952981
vt 0.977187 0.958118
vt 0.393435 0.969146
vt 0.393081 0.950432
vt 0.976833 0.939403
vt 0.392884 0.939997
vt 0.976636 0.928968
vt 0.976807 0.937986
vt 0.393055 0.949015
vt 0.977384 0.968552
vt 0.393632 0.979581
vt 0.393462 0.970563
vt 0.977214 0.959534
vt 0.047678 0.324826
vt 0.045628 0.571699
vt 0.029436 0.571564
vt 0.031486 0.324692
vt 0.077819 0.553848
vt 0.079418 0.268511
vt 0.095610 0.268602
vt 0.094011 0.553939
vt 0.080802 0.021634
vt 0.096994 0.021724
vt 0.050049 0.039494
vt 0.033857 0.039360
vt 0.137514 0.331583
vt 0.139931 0.334108
vt 0.134094 0.624480
vt 0.131588 0.626920
vt 0.469338 0.338505
vt 0.466830 0.340943
vt 0.463263 0.633564
vt 0.460569 0.630825
vt 0.126763 0.319474
vt 0.481021 0.327286
vt 0.474014 0.645647
vt 0.119806 0.638033
vt 0.156467 0.352691
vt 0.151362 0.606589
vt 0.449520 0.358786
vt 0.444076 0.612292
vn 0.000000 1.000000 0.000000
vn 0.000000 1.000000 0.000000
vn 0.000000 1.000000 0.000000
vn 0.000000 1.000000 0.000000
vn 0.000000 0.000000 -1.000000
vn 0.000000 0.000000 -1.000000
vn 0.000000 0.000000 -1.000000
vn 0.000000 0.000000 -1.000000
vn 0.000000 -1.000000 0.000000
vn 0.000000 -1.000000 0.000000
vn 0.000000 -1.000000 0.000000
vn 0.000000 -1.000000 0.000000
vn 0.000000 0.000000 1.000000
vn 0.000000 0.000000 1.000000
vn 0.000000 0.000000 1.000000
vn 0.000000 0.000000 1.000000
vn -0.707107 -0.707107 0.000000
vn -0.707107 -0.707107 0.000000
vn -0.707107 -0.707107 0.000000
vn -0.707107 -0.707107 0.000000
vn -0.707117 0.000000 0.707096
vn -0.707117 0.000000 0.707096
vn -0.707117 0.000000 0.707096
vn -0.707117 0.000000 0.707096
vn -0.707107 0.707106 0.000000
vn -0.707107 0.707107 0.000000
vn -0.707107 0.707107 0.000000
vn -0.707107 0.707106 0.000000
vn -0.707117 0.000000 -0.707097
vn -0.707117 0.000000 -0.707097
vn -0.707117 0.000000 -0.707097
vn -0.707117 0.000000 -0.707097
vn 0.000000 0.000000 1.000000
vn 0.000000 0.000000 1.000000
vn 0.000000 0.000000 1.000000
vn 0.000000 0.000000 1.000000
vn 0.000000 1.000000 0.000000
vn 0.000000 1.000000 0.000000
vn 0.000000 1.000000 0.000000
vn 0.000000 1.000000 0.000000
vn 0.000000 0.000000 -1.000000
vn 0.000000 0.000000 -1.000000
vn 0.000000 0.000000 -1.000000
vn 0.000000 0.000000 -1.000000
vn 0.000000 -1.000000 0.000000
vn 0.000000 -1.000000 0.000000
vn 0.000000 -1.000000 0.000000
vn 0.000000 -1.000000 0.000000
vn -1.000000 -0.000000 0.000000
vn -1.000000 -0.000000 0.000000
vn -1.000000 -0.000000 0.000000
vn -1.000000 -0.000000 0.000000
vn -1.000000 -0.000000 0.000000
vn -1.000000 0.000000 0.000000
vn -1.000000 0.000000 0.000000
vn -1.000000 -0.000000 0.000000
vn -1.000000 0.000000 0.000000
vn -1.000000 0.000000 0.000000
vn -1.000000 0.000000 0.000000
vn -1.000000 0.000000 0.000000
vn -1.000000 0.000000 0.000000
vn -1.000000 -0.000000 0.000000
vn -1.000000 -0.000000 0.000000
vn -1.000000 0.000000 0.000000
vn -0.050749 0.998712 0.000000
vn -0.050749 0.998712 0.000000
vn 0.050749 0.998712 0.000000
vn 0.050749 0.998712 0.000000
vn 1.000000 0.000000 0.000000
vn 1.000000 0.000000 0.000000
vn 0.995038 0.099496 0.000000
vn 0.995038 0.099496 0.000000
vn -1.000000 0.000000 0.000000
vn -1.000000 0.000000 0.000000
vn -0.995038 0.099493 0.000000
vn -0.995038 0.099493 0.000000
vn -0.995038 0.099493 0.000000
vn -0.050749 0.998712 0.000000
vn -0.050749 0.998712 0.000000
vn -0.995038 0.099493 0.000000
vn 0.050749 0.998712 0.000000
vn 0.995038 0.099496 0.000000
vn 0.995038 0.099496 0.000000
vn 0.050749 0.998712 0.000000
vn 0.000000 1.000000 0.000000
vn 0.000000 1.000000 0.000000
vn 0.000000 1.000000 0.000000
vn 0.000000 1.000000 0.000000
vn 0.000000 0.000000 -1.000000
vn 0.000000 0.000000 -1.000000
vn 0.000000 0.000000 -1.000000
vn 0.000000 0.000000 -1.000000
vn 0.000000 -1.000000 0.000000
vn 0.000000 -1.000000 0.000000
vn 0.000000 -1.000000 0.000000
vn 0.000000 -1.000000 0.000000
vn 0.000000 0.000000 1.000000
vn 0.000000 0.000000 1.000000
vn 0.000000 0.000000 1.000000
vn 0.000000 0.000000 1.000000
vn -0.707107 -0.707107 0.000000
vn -0.707107 -0.707107 0.000000
vn -0.707107 -0.707107 0.000000
vn -0.707107 -0.707107 0.000000
vn -0.707123 0.000000 0.707091
vn -0.707123 0.000000 0.707091
vn -0.707123 0.000000 0.707091
vn -0.707123 0.000000 0.707091
vn -0.707107 0.707107 0.000000
vn -0.707107 0.707107 0.000000
vn -0.707107 0.707107 0.000000
vn -0.707107 0.707107 0.000000
vn -0.707116 0.000000 -0.707097
vn -0.707116 0.000000 -0.707097
vn -0.707116 0.000000 -0.707097
vn -0.707116 0.000000 -0.707097
vn 0.000000 0.000000 1.000000
vn 0.000000 0.000000 1.000000
vn 0.000000 0.000000 1.000000
vn 0.000000 0.000000 1.000000
vn 0.000000 1.000000 0.000000
vn 0.000000 1.000000 0.000000
vn 0.000000 1.000000 0.000000
vn 0.000000 1.000000 0.000000
vn 0.000000 0.000000 -1.000000
vn 0.000000 0.000000 -1.000000
vn 0.000000 0.000000 -1.000000
vn 0.000000 0.000000 -1.000000
vn 0.000000 -1.000000 0.000000
vn 0.000000 -1.000000 0.000000
vn 0.000000 -1.000000 0.000000
vn 0.000000 -1.000000 0.000000
vn -1.000000 0.000000 0.000000
vn -1.000000 0.000000 0.000000
vn -1.000000 0.000000 0.000000
vn -1.000000 0.000000 0.000000
vn -1.000000 0.000000 0.000000
vn -1.000000 -0.000000 0.000000
vn -1.000000 -0.000000 0.000000
vn -1.000000 0.000000 0.000000
vn -1.000000 -0.000000 0.000000
vn -1.000000 -0.000000 0.000000
vn -1.000000 -0.000000 0.000000
vn -1.000000 -0.000000 0.000000
vn -1.000000 -0.000000 0.000000
vn -1.000000 0.000000 0.000000
vn -1.000000 0.000000 0.000000
vn -1.000000 -0.000000 0.000000
s off
g SM_window_frame
usemtl SM_windowSG
f 5/1/1 6/2/2 10/3/3 9/4/4
f 6/5/5 7/6/6 11/7/7 10/8/8
f 7/6/9 8/9/10 12/10/11 11/7/12
f 8/11/13 5/1/14 9/4/15 12/12/16
f 13/13/17 14/14/18 20/15/19 19/16/20
f 14/14/21 13/13/22 15/17/23 16/18/24
f 16/18/25 15/17/26 17/19/27 18/20/28
f 18/20/29 17/19/30 19/16/31 20/15/32
f 13/13/33 1/21/34 2/22/35 15/17/36
f 15/17/37 2/22/38 3/23/39 17/19/40
f 17/19/41 3/23/42 4/24/43 19/16/44
f 19/16/45 4/24/46 1/21/47 13/13/48
f 20/15/49 14/14/50 6/25/51 5/26/52
f 14/14/53 16/18/54 7/27/55 6/25/56
f 16/18/57 18/20/58 8/28/59 7/27/60
f 18/20/61 20/15/62 5/26/63 8/28/64
f 28/29/65 26/30/66 29/31/67 32/32/68
f 22/33/69 24/34/70 31/35/71 30/36/72
f 23/37/73 21/38/74 25/39/75 27/40/76
f 25/39/77 26/30/78 28/29/79 27/40/80
f 29/31/81 30/36/82 31/35/83 32/32/84
f 37/41/85 38/42/86 42/43/87 41/44/88
f 38/45/89 39/46/90 43/47/91 42/48/92
f 39/46/93 40/49/94 44/50/95 43/47/96
f 40/51/97 37/41/98 41/44/99 44/52/100
f 45/53/101 46/54/102 52/55/103 51/56/104
f 46/54/105 45/53/106 47/57/107 48/58/108
f 48/58/109 47/57/110 49/59/111 50/60/112
f 50/60/113 49/59/114 51/56/115 52/55/116
f 45/53/117 33/61/118 34/62/119 47/57/120
f 47/57/121 34/62/122 35/63/123 49/59/124
f 49/59/125 35/63/126 36/64/127 51/56/128
f 51/56/129 36/64/130 33/61/131 45/53/132
f 52/55/133 46/54/134 38/65/135 37/66/136
f 46/54/137 48/58/138 39/67/139 38/65/140
f 48/58/141 50/60/142 40/68/143 39/67/144
f 50/60/145 52/55/146 37/66/147 40/68/148
