# This file uses centimeters as units for non-parametric coordinates.

mtllib SM_tie_01.mtl
g default
v -3.488003 93.833260 11.006165
v 3.569609 93.833260 11.006165
v -2.090519 97.815834 9.486519
v 2.172126 97.815834 9.486519
v -2.090519 96.548462 6.165088
v 2.172126 96.548462 6.165088
v -3.488003 92.565887 7.684733
v 3.569609 92.565887 7.684733
v -1.251655 90.303642 8.547947
v 1.333262 90.303642 8.547947
v 1.333262 91.571014 11.869378
v -1.251655 91.571014 11.869378
v -4.326687 84.358627 10.816410
v 4.408294 84.358627 10.816410
v 4.408294 85.625999 14.137840
v -4.326687 85.625999 14.137840
v -1.720902 65.389626 11.198560
v 1.802509 65.389626 11.198560
v 1.802509 66.656998 14.519991
v -1.720902 66.656998 14.519991
vt 0.277786 0.048845
vt 0.266260 0.126765
vt 0.221560 0.098365
vt 0.233790 0.060003
vt 0.190978 0.104958
vt 0.213863 0.244840
vt 0.247371 0.160384
vt 0.264523 0.252753
vt 0.641948 0.128744
vt 0.619582 0.210234
vt 0.590085 0.177448
vt 0.603957 0.143387
vt 0.279855 0.177186
vt 0.286806 0.218847
vt 0.298019 0.117042
vt 0.304327 0.074712
vt 0.368762 0.188185
vt 0.363103 0.291041
vt 0.366747 0.146821
vt 0.393221 0.046287
vt 0.416018 0.009766
vt 0.309969 0.022595
vt 0.257249 0.165886
vt 0.272219 0.009803
vt 0.216892 0.198186
vt 0.203742 0.031046
vt 0.619874 0.255637
vn -0.680763 0.179532 0.710162
vn 0.680763 0.179532 0.710162
vn 0.394553 0.758599 0.518513
vn -0.394553 0.758599 0.518513
vn 0.394554 0.220363 -0.892058
vn -0.394554 0.220363 -0.892058
vn 0.680764 -0.339181 -0.649244
vn -0.680764 -0.339181 -0.649244
vn -0.379555 -0.160548 -0.911132
vn 0.379555 -0.160548 -0.911132
vn 0.493237 -0.125689 0.860767
vn -0.493237 -0.125689 0.860767
vn 0.413341 -0.651392 -0.636268
vn -0.413341 -0.651392 -0.636268
vn 0.413341 -0.061962 0.908466
vn -0.413341 -0.061963 0.908466
vn -0.429165 -0.119627 -0.895269
vn 0.429165 -0.119627 -0.895269
vn 0.607647 -0.070678 -0.791056
vn -0.607647 -0.070678 -0.791056
vn 0.429166 0.507170 0.747392
vn 0.487042 0.099235 0.867723
vn -0.429166 0.507170 0.747392
vn -0.487042 0.099235 0.867723
s 1
g SM_tie_01 chara_props
usemtl aiStandardSurface7SG
f 1/1/1 2/2/2 4/3/3 3/4/4
f 3/4/4 4/3/3 6/5/5 5/26/6
f 5/6/6 6/25/5 8/23/7 7/8/8
s 2
f 17/9/9 18/10/10 19/11/11 20/12/12
s 1
f 2/2/2 8/7/7 6/5/5 4/3/3
f 7/24/8 1/1/1 3/4/4 5/26/6
f 7/8/8 8/23/7 10/13/13 9/14/14
f 8/7/7 2/2/2 11/15/15 10/13/13
f 2/2/2 1/1/1 12/16/16 11/15/15
f 1/1/1 7/24/8 9/22/14 12/16/16
s 2
f 9/14/17 10/13/18 14/17/19 13/18/20
f 10/13/18 11/15/21 15/19/22 14/17/19
f 11/15/21 12/16/23 16/20/24 15/19/22
f 12/16/23 9/22/17 13/21/20 16/20/24
f 13/18/20 14/17/19 18/10/10 17/27/9
f 14/17/19 15/19/22 19/11/11 18/10/10
f 15/19/22 16/20/24 20/12/12 19/11/11
f 16/20/24 13/21/20 17/9/9 20/12/12
