# This file uses centimeters as units for non-parametric coordinates.

mtllib SM_tie_04.mtl
g default
v -15.269907 90.479233 8.210848
v 11.535358 90.559288 6.257290
v -15.139695 94.907494 10.178994
v 11.665570 94.987549 8.225436
v -13.161289 100.026108 -8.684855
v 6.942660 100.086151 -10.150024
v -13.291500 95.597862 -10.653001
v 6.812449 95.657906 -12.118170
v -16.054050 93.398445 -2.428955
v -15.923840 97.826691 -0.460810
v -3.305350 100.785927 -12.077394
v -3.435562 96.357681 -14.045539
v 10.751215 93.478500 -4.382513
v 10.881427 97.906746 -2.414368
v -14.542624 100.614922 -9.918248
v -3.446752 101.636925 -13.982726
v 8.127049 100.682625 -11.570406
v 7.996835 96.254387 -13.538550
v -3.576964 97.208679 -15.950875
v -14.672832 96.186676 -11.886394
v 12.804111 93.651863 -4.908371
v 13.696701 90.565742 6.099772
v 12.934324 98.080109 -2.940222
v 13.826912 94.994003 8.067918
v -18.162491 93.559372 -2.651536
v -17.431250 90.472778 8.368366
v -17.301037 94.901031 10.336512
v -18.032282 97.987625 -0.683387
v -7.716813 95.477554 2.754723
v -11.052665 95.739151 0.573521
v -14.850592 94.688141 -0.078483
v -18.092947 92.606140 0.973406
v -19.910929 90.051041 3.447340
v -19.817421 87.707466 6.680430
v -17.837481 86.203369 9.806380
v -14.501629 85.941765 11.987576
v -10.703690 86.992783 12.639592
v -7.461334 89.074783 11.587694
v -5.643360 91.629883 9.113768
v -5.736861 93.973457 5.880664
v -9.969046 99.341125 6.296049
v -12.970576 99.576515 4.333457
v -16.387867 98.630829 3.746797
v -19.305256 96.757492 4.693258
v -20.941032 94.458473 6.919247
v -20.856909 92.349762 9.828309
v -19.075397 90.996414 12.640970
v -16.073872 90.761047 14.603559
v -12.656574 91.706718 15.190219
v -9.739183 93.580040 14.243754
v -8.103403 95.879074 12.017757
v -8.187542 97.987778 9.108696
v -12.777143 90.840462 6.280551
v -11.770782 97.690086 7.551422
v -13.584574 97.832321 6.365454
v -15.649611 97.260849 6.010933
v -17.412556 96.128822 6.582872
v -18.401045 94.739540 7.928018
v -18.350204 93.465279 9.685927
v -17.273653 92.647476 11.385593
v -15.459865 92.505241 12.571560
v -13.394834 93.076698 12.926074
v -11.631883 94.208725 12.354132
v -10.643397 95.598000 11.008989
v -10.694235 96.872269 9.251072
v -12.713549 97.987564 8.594698
v -14.131254 98.098732 7.667715
v -14.864141 96.016853 10.093138
v -15.745339 97.652061 7.390613
v -17.123301 96.767242 7.837656
v -17.895927 95.681351 8.889054
v -17.856190 94.685349 10.263080
v -17.014730 94.046127 11.591580
v -15.597029 93.934959 12.518561
v -13.982948 94.381622 12.795659
v -12.604982 95.266449 12.348615
v -11.832357 96.352341 11.297218
v -11.872094 97.348343 9.923186
v 7.587886 95.953300 3.803919
v 10.708207 94.594528 1.713155
v 13.667583 91.954536 1.237173
v 15.673063 88.740738 2.503502
v 16.187262 85.814278 5.172835
v 15.072418 83.959274 8.529927
v 12.627246 83.672783 11.675256
v 9.506923 85.031563 13.766014
v 6.547537 87.671555 14.242008
v 4.542062 90.885361 12.975668
v 4.027868 93.811821 10.306342
v 5.142709 95.666832 6.949237
v 11.292852 98.669418 7.185742
v 14.100451 97.446823 5.304524
v 16.763229 95.071411 4.876245
v 18.567707 92.179718 6.015655
v 19.030371 89.546547 8.417459
v 18.027266 87.877449 11.438096
v 15.827149 87.619675 14.268192
v 13.019559 88.842293 16.149406
v 10.356771 91.217682 16.577688
v 8.552291 94.109375 15.438274
v 8.089626 96.742554 13.036460
v 9.092743 98.411644 10.015824
v 10.107565 89.813057 7.739587
v 12.189983 96.483177 8.587040
v 13.886584 95.744370 7.450244
v 15.495678 94.308929 7.191431
v 16.586103 92.561508 7.879968
v 16.865688 90.970306 9.331357
v 16.259520 89.961700 11.156689
v 14.930016 89.805931 12.866891
v 13.233418 90.544746 14.003683
v 11.624328 91.980164 14.262492
v 10.533896 93.727585 13.573953
v 10.254312 95.318787 12.122566
v 10.860480 96.327400 10.297224
v 13.165615 96.406860 9.639677
v 14.491722 95.829391 8.751130
v 14.236455 93.797310 11.312294
v 15.749428 94.707420 8.548836
v 16.601730 93.341599 9.087012
v 16.820263 92.097870 10.221455
v 16.346466 91.309517 11.648179
v 15.307293 91.187767 12.984916
v 13.981190 91.765244 13.873461
v 12.723484 92.887199 14.075751
v 11.871178 94.253029 13.537573
v 11.652647 95.496750 12.403131
v 12.126443 96.285110 10.976401
vt 0.094741 0.530890
vt 0.093954 0.396135
vt 0.153839 0.396115
vt 0.152267 0.525556
vt 0.094650 0.261380
vt 0.152181 0.266674
vt 0.154192 0.017111
vt 0.153858 0.153431
vt 0.095974 0.145970
vt 0.094133 0.009766
vt 0.154026 0.638798
vt 0.096148 0.646300
vt 0.154459 0.775117
vt 0.094405 0.782505
vt 0.070667 0.396143
vt 0.177338 0.396109
vt 0.173669 0.267121
vt 0.073090 0.262001
vt 0.173755 0.525095
vt 0.073181 0.530284
vt 0.178730 0.154617
vt 0.071165 0.147232
vt 0.067664 0.011113
vt 0.180597 0.018054
vt 0.178898 0.637594
vt 0.071338 0.645056
vt 0.067936 0.781178
vt 0.010029 0.769919
vt 0.249964 0.595766
vt 0.226325 0.639594
vt 0.246109 0.454415
vt 0.265691 0.490277
vt 0.227410 0.690013
vt 0.247009 0.413708
vt 0.253359 0.733512
vt 0.268120 0.379060
vt 0.297493 0.758444
vt 0.303704 0.359745
vt 0.348176 0.758134
vt 0.344150 0.360927
vt 0.391994 0.732667
vt 0.378547 0.382288
vt 0.417398 0.688872
vt 0.397604 0.418111
vt 0.417856 0.638488
vt 0.396135 0.458805
vt 0.393693 0.595021
vt 0.374506 0.493474
vt 0.352139 0.570132
vt 0.338791 0.512824
vt 0.291233 0.570283
vt 0.300229 0.511672
vt 0.322241 0.664248
vt 0.297036 0.459552
vt 0.288798 0.443907
vt 0.321709 0.436291
vt 0.289386 0.426222
vt 0.298676 0.411237
vt 0.314173 0.402965
vt 0.331704 0.403620
vt 0.346543 0.413027
vt 0.354693 0.428665
vt 0.353966 0.446347
vt 0.344589 0.461335
vt 0.329149 0.469613
vt 0.311821 0.468960
vt 0.274507 0.447579
vt 0.286581 0.469976
vt 0.275133 0.422161
vt 0.288323 0.400534
vt 0.310522 0.388487
vt 0.335740 0.389244
vt 0.357178 0.402602
vt 0.369051 0.424983
vt 0.368156 0.450394
vt 0.354768 0.472029
vt 0.332634 0.484091
vt 0.307962 0.483339
vt 0.679858 0.537342
vt 0.670873 0.478722
vt 0.705411 0.457335
vt 0.721106 0.562871
vt 0.724998 0.421475
vt 0.744708 0.606713
vt 0.724101 0.380766
vt 0.743596 0.657124
vt 0.702992 0.346115
vt 0.717624 0.700605
vt 0.667407 0.326796
vt 0.673477 0.725510
vt 0.626960 0.327975
vt 0.622795 0.725171
vt 0.592561 0.349335
vt 0.578992 0.699681
vt 0.573502 0.385156
vt 0.553613 0.655872
vt 0.574969 0.425849
vt 0.553185 0.605488
vt 0.596597 0.460517
vt 0.577375 0.562035
vt 0.632311 0.479868
vt 0.618950 0.537169
vt 0.648780 0.631297
vt 0.659283 0.436007
vt 0.649398 0.403338
vt 0.674070 0.426602
vt 0.682310 0.410959
vt 0.681723 0.393274
vt 0.672434 0.378288
vt 0.656936 0.370014
vt 0.639405 0.370668
vt 0.624564 0.380074
vt 0.616414 0.395711
vt 0.617140 0.413392
vt 0.626515 0.428380
vt 0.641955 0.436659
vt 0.663139 0.450386
vt 0.684524 0.437028
vt 0.696600 0.414634
vt 0.695977 0.389216
vt 0.682788 0.367586
vt 0.660589 0.355537
vt 0.635369 0.356292
vt 0.613930 0.369648
vt 0.602056 0.392028
vt 0.602949 0.417439
vt 0.616335 0.439074
vt 0.638469 0.451136
vt 0.554070 0.501269
vt 0.516992 0.439113
vt 0.516368 0.367374
vt 0.551832 0.305264
vt 0.613628 0.269401
vt 0.685063 0.269381
vt 0.746888 0.305216
vt 0.782395 0.367328
vt 0.781809 0.439104
vt 0.744745 0.501332
vt 0.226349 0.534263
vt 0.417029 0.534226
vt 0.454111 0.472066
vt 0.454736 0.400326
vt 0.419274 0.338215
vt 0.357481 0.302351
vt 0.286049 0.302328
vt 0.224225 0.338157
vt 0.188716 0.400263
vt 0.189295 0.472034
vt 0.013592 0.157674
vt 0.009766 0.022413
vt 0.014144 0.266880
vt 0.013757 0.634655
vt 0.180863 0.774155
vt 0.014232 0.525448
vt 0.011576 0.396164
vn -0.697650 0.308009 -0.646850
vn -0.067607 0.406876 -0.910978
vn -0.072575 0.109563 -0.991327
vn -0.659668 0.036099 -0.750689
vn 0.594651 0.311869 -0.741032
vn 0.543631 0.039693 -0.838385
vn 0.921561 -0.348372 -0.171353
vn 0.904418 -0.242738 -0.350867
vn 0.967825 0.077884 -0.239267
vn 0.996843 0.005879 -0.079180
vn -0.944274 -0.248259 -0.216135
vn -0.992735 0.072028 -0.096383
vn -0.934581 -0.353916 -0.036077
vn -0.997807 -0.000078 0.066189
vn 0.067607 -0.406875 0.910979
vn 0.067607 -0.406875 0.910979
vn -0.553144 -0.324718 0.767196
vn -0.599181 -0.310387 0.737998
vn 0.660452 -0.321093 0.678751
vn 0.701684 -0.306501 0.643193
vn -0.966071 -0.080645 0.245362
vn -0.974752 -0.066127 0.213273
vn -0.997350 -0.002979 0.072686
vn -0.997350 -0.002979 0.072686
vn 0.991900 -0.074797 0.102666
vn 0.995750 -0.060242 0.069663
vn 0.997350 0.002979 -0.072687
vn 0.997350 0.002979 -0.072687
vn 0.071236 0.935528 0.345995
vn 0.025992 0.918622 0.394283
vn 0.025992 0.918622 0.394283
vn 0.071312 0.935652 0.345645
vn -0.025875 0.935238 0.353073
vn -0.026001 0.935361 0.352738
vn 0.025876 -0.935237 -0.353075
vn -0.025991 -0.918621 -0.394285
vn -0.071235 -0.935528 -0.345997
vn -0.002203 -0.963651 -0.267155
vn 0.018201 -0.959103 -0.282472
vn -0.018201 0.959103 0.282471
vn -0.017850 0.959187 0.282209
vn 0.002203 0.963651 0.267154
vn 0.002203 0.963652 0.267154
vn -0.053263 -0.959317 -0.277263
vn -0.030827 -0.963737 -0.265068
vn 0.030827 0.963737 0.265067
vn 0.053264 0.959317 0.277263
vn 0.052878 0.959398 0.277054
vn 0.030827 0.963737 0.265067
vn 0.607886 0.699225 -0.376244
vn 0.179564 0.732814 -0.656309
vn 0.179563 0.732814 -0.656309
vn 0.607886 0.699225 -0.376244
vn -0.308090 0.597864 -0.740027
vn -0.308090 0.597864 -0.740027
vn -0.724405 0.330537 -0.604965
vn -0.724405 0.330537 -0.604965
vn -0.957833 0.002462 -0.287313
vn -0.957834 0.002462 -0.287313
vn -0.945827 -0.298453 0.127813
vn -0.945827 -0.298454 0.127814
vn -0.691603 -0.491579 0.529183
vn -0.691603 -0.491579 0.529183
vn -0.263281 -0.525166 0.809249
vn -0.263281 -0.525166 0.809249
vn 0.224370 -0.390217 0.892966
vn 0.224370 -0.390217 0.892966
vn 0.640687 -0.122889 0.757904
vn 0.640686 -0.122890 0.757904
vn 0.874115 0.205186 0.440252
vn 0.874115 0.205186 0.440252
vn 0.862109 0.506100 0.025124
vn 0.862109 0.506100 0.025124
vn 0.308765 -0.765832 -0.564061
vn 0.308764 -0.765832 -0.564062
vn 0.308765 -0.765832 -0.564061
vn 0.308766 -0.765832 -0.564061
vn 0.308766 -0.765832 -0.564060
vn 0.308766 -0.765833 -0.564060
vn 0.308765 -0.765832 -0.564061
vn 0.308764 -0.765832 -0.564062
vn 0.308765 -0.765832 -0.564062
vn 0.308766 -0.765831 -0.564062
vn 0.308767 -0.765833 -0.564060
vn 0.308766 -0.765833 -0.564060
vn 0.308764 -0.765832 -0.564062
vn 0.047439 0.961064 0.272222
vn -0.161920 0.977480 0.135335
vn -0.308766 0.765833 0.564061
vn -0.400273 0.911519 0.094417
vn -0.603761 0.780855 0.160433
vn -0.717857 0.620498 0.315695
vn -0.711990 0.473415 0.518603
vn -0.587727 0.379019 0.714787
vn -0.378371 0.362604 0.851677
vn -0.140015 0.428564 0.892597
vn 0.063474 0.559226 0.826581
vn 0.177570 0.719583 0.671319
vn 0.171701 0.866667 0.468409
vn -0.308764 0.765831 0.564063
vn -0.308766 0.765831 0.564062
vn -0.308766 0.765831 0.564062
vn -0.308764 0.765831 0.564063
vn -0.308767 0.765830 0.564063
vn -0.308767 0.765830 0.564063
vn -0.308765 0.765831 0.564062
vn -0.308765 0.765831 0.564062
vn -0.308765 0.765832 0.564062
vn -0.308765 0.765832 0.564062
vn -0.308768 0.765833 0.564059
vn -0.308768 0.765833 0.564059
vn -0.308768 0.765833 0.564059
vn -0.308768 0.765832 0.564059
vn -0.308765 0.765831 0.564063
vn -0.308765 0.765831 0.564063
vn -0.308764 0.765832 0.564063
vn -0.308764 0.765832 0.564063
vn -0.308764 0.765832 0.564063
vn -0.308764 0.765832 0.564063
vn -0.308765 0.765832 0.564062
vn -0.308765 0.765832 0.564062
vn -0.308765 0.765831 0.564063
vn -0.308765 0.765831 0.564063
vn 0.308453 0.951210 0.007505
vn -0.024638 0.977329 -0.210290
vn -0.403863 0.872385 -0.275389
vn -0.727616 0.664496 -0.170356
vn -0.909144 0.409365 0.076669
vn -0.899807 0.175357 0.399496
vn -0.702108 0.025171 0.711626
vn -0.369017 -0.000950 0.929422
vn 0.010211 0.103995 0.994525
vn 0.333963 0.311884 0.889493
vn 0.515492 0.567013 0.642468
vn 0.506155 0.801023 0.319639
vn -0.240712 0.868320 -0.433680
vn -0.240711 0.868320 -0.433680
vn 0.159936 0.693852 -0.702132
vn 0.159936 0.693853 -0.702132
vn 0.539919 0.354880 -0.763248
vn 0.539919 0.354880 -0.763248
vn 0.797421 -0.057770 -0.600652
vn 0.797421 -0.057770 -0.600651
vn 0.863444 -0.433528 -0.257910
vn 0.863444 -0.433528 -0.257910
vn 0.720298 -0.671710 0.173137
vn 0.720298 -0.671710 0.173137
vn 0.406338 -0.708495 0.576995
vn 0.406339 -0.708495 0.576995
vn 0.005691 -0.534027 0.845448
vn 0.005692 -0.534027 0.845448
vn -0.374291 -0.195055 0.906565
vn -0.374291 -0.195055 0.906565
vn -0.631793 0.217596 0.743969
vn -0.631793 0.217597 0.743968
vn -0.697816 0.593355 0.401227
vn -0.697816 0.593355 0.401227
vn -0.554670 0.831536 -0.029822
vn -0.554670 0.831536 -0.029823
vn -0.610857 -0.589462 -0.528572
vn -0.610858 -0.589461 -0.528572
vn -0.610857 -0.589463 -0.528571
vn -0.610859 -0.589461 -0.528571
vn -0.610858 -0.589461 -0.528572
vn -0.610858 -0.589461 -0.528572
vn -0.610859 -0.589461 -0.528571
vn -0.610857 -0.589461 -0.528572
vn -0.610857 -0.589460 -0.528573
vn -0.610858 -0.589460 -0.528574
vn -0.610858 -0.589461 -0.528572
vn -0.610858 -0.589462 -0.528571
vn -0.610858 -0.589462 -0.528570
vn 0.376318 0.901090 0.215457
vn 0.610858 0.589461 0.528572
vn 0.572148 0.815812 0.084243
vn 0.757877 0.650129 0.054368
vn 0.883738 0.448433 0.133846
vn 0.916009 0.264769 0.301370
vn 0.846044 0.148351 0.512056
vn 0.692585 0.130372 0.709457
vn 0.496753 0.215649 0.840674
vn 0.311025 0.381331 0.870546
vn 0.185162 0.583028 0.791071
vn 0.152891 0.766691 0.623545
vn 0.222859 0.883111 0.412855
vn 0.610856 0.589461 0.528574
vn 0.610856 0.589461 0.528574
vn 0.610857 0.589459 0.528575
vn 0.610857 0.589459 0.528575
vn 0.610859 0.589459 0.528573
vn 0.610859 0.589459 0.528573
vn 0.610857 0.589460 0.528574
vn 0.610857 0.589460 0.528574
vn 0.610857 0.589461 0.528573
vn 0.610857 0.589461 0.528573
vn 0.610859 0.589462 0.528570
vn 0.610859 0.589462 0.528570
vn 0.610859 0.589461 0.528570
vn 0.610859 0.589461 0.528570
vn 0.610857 0.589461 0.528572
vn 0.610857 0.589461 0.528572
vn 0.610856 0.589462 0.528573
vn 0.610856 0.589462 0.528573
vn 0.610857 0.589462 0.528572
vn 0.610857 0.589462 0.528572
vn 0.610858 0.589460 0.528573
vn 0.610858 0.589460 0.528573
vn 0.610858 0.589460 0.528573
vn 0.610858 0.589460 0.528573
vn 0.137806 0.988873 -0.056035
vn 0.449376 0.853196 -0.264800
vn 0.744873 0.589589 -0.312328
vn 0.945121 0.268687 -0.185883
vn 0.996465 -0.023522 0.080651
vn 0.885147 -0.208747 0.415859
vn 0.640994 -0.237352 0.729925
vn 0.329423 -0.101675 0.938692
vn 0.033927 0.161929 0.986219
vn -0.166324 0.482831 0.859774
vn -0.217668 0.775041 0.593238
vn -0.106349 0.960266 0.258030
s 1
g SM_tie_04 chara_props
usemtl aiStandardSurface7SG
f 15/1/1 16/2/2 19/3/3 20/4/4
f 16/2/2 17/5/5 18/6/6 19/3/3
f 22/7/7 21/8/8 23/9/9 24/10/10
f 21/8/8 18/6/6 17/5/5 23/9/9
f 15/1/1 20/4/4 25/11/11 28/12/12
f 25/11/11 26/13/13 27/14/14 28/12/12
s 3
f 11/15/15 12/155/16 8/151/17 6/18/18
f 7/154/19 12/155/16 11/15/15 5/20/20
f 13/149/21 14/22/22 6/18/18 8/151/17
f 4/23/23 14/22/22 13/149/21 2/150/24
f 9/152/25 10/26/26 3/27/27 1/28/28
f 7/154/19 5/20/20 10/26/26 9/152/25
s 4
f 5/20/29 11/15/30 16/2/31 15/1/32
f 11/15/30 6/18/33 17/5/34 16/2/31
s 1
f 8/17/35 12/16/36 19/3/3 18/6/6
f 12/16/36 7/19/37 20/4/4 19/3/3
f 2/24/38 13/21/39 21/8/8 22/7/7
f 13/21/39 8/17/35 18/6/6 21/8/8
s 4
f 6/18/33 14/22/40 23/9/41 17/5/34
f 14/22/40 4/23/42 24/10/43 23/9/41
s 1
f 7/19/37 9/25/44 25/11/11 20/4/4
f 9/25/44 1/153/45 26/13/13 25/11/11
s 4
f 3/27/46 10/26/47 28/12/48 27/14/49
f 10/26/47 5/20/29 15/1/32 28/12/48
s 5
f 29/139/50 30/148/51 42/31/52 41/32/53
f 30/148/51 31/147/54 43/34/55 42/31/52
f 31/147/54 32/146/56 44/36/57 43/34/55
f 32/146/56 33/145/58 45/38/59 44/36/57
f 33/145/58 34/144/60 46/40/61 45/38/59
f 34/144/60 35/143/62 47/42/63 46/40/61
f 35/143/62 36/142/64 48/44/65 47/42/63
f 36/142/64 37/141/66 49/46/67 48/44/65
f 37/141/66 38/140/68 50/48/69 49/46/67
f 38/140/68 39/49/70 51/50/71 50/48/69
f 39/49/70 40/51/72 52/52/73 51/50/71
f 40/51/72 29/139/50 41/32/53 52/52/73
s 6
f 30/30/74 29/29/75 53/53/76
f 31/33/77 30/30/74 53/53/76
f 32/35/78 31/33/77 53/53/76
f 33/37/79 32/35/78 53/53/76
f 34/39/80 33/37/79 53/53/76
f 35/41/81 34/39/80 53/53/76
f 36/43/82 35/41/81 53/53/76
f 37/45/83 36/43/82 53/53/76
f 38/47/84 37/45/83 53/53/76
f 39/49/85 38/47/84 53/53/76
f 40/51/86 39/49/85 53/53/76
f 29/29/75 40/51/86 53/53/76
s 7
f 66/54/87 67/55/88 68/56/89
f 67/55/88 69/57/90 68/56/89
f 69/57/90 70/58/91 68/56/89
f 70/58/91 71/59/92 68/56/89
f 71/59/92 72/60/93 68/56/89
f 72/60/93 73/61/94 68/56/89
f 73/61/94 74/62/95 68/56/89
f 74/62/95 75/63/96 68/56/89
f 75/63/96 76/64/97 68/56/89
f 76/64/97 77/65/98 68/56/89
f 77/65/98 78/66/99 68/56/89
f 78/66/99 66/54/87 68/56/89
s 8
f 41/32/100 42/31/101 55/67/102 54/68/103
f 42/31/101 43/34/104 56/69/105 55/67/102
f 43/34/104 44/36/106 57/70/107 56/69/105
f 44/36/106 45/38/108 58/71/109 57/70/107
f 45/38/108 46/40/110 59/72/111 58/71/109
f 46/40/110 47/42/112 60/73/113 59/72/111
f 47/42/112 48/44/114 61/74/115 60/73/113
f 48/44/114 49/46/116 62/75/117 61/74/115
f 49/46/116 50/48/118 63/76/119 62/75/117
f 50/48/118 51/50/120 64/77/121 63/76/119
f 51/50/120 52/52/122 65/78/123 64/77/121
f 52/52/122 41/32/100 54/68/103 65/78/123
s 7
f 54/68/124 55/67/125 67/55/88 66/54/87
f 55/67/125 56/69/126 69/57/90 67/55/88
f 56/69/126 57/70/127 70/58/91 69/57/90
f 57/70/127 58/71/128 71/59/92 70/58/91
f 58/71/128 59/72/129 72/60/93 71/59/92
f 59/72/129 60/73/130 73/61/94 72/60/93
f 60/73/130 61/74/131 74/62/95 73/61/94
f 61/74/131 62/75/132 75/63/96 74/62/95
f 62/75/132 63/76/133 76/64/97 75/63/96
f 63/76/133 64/77/134 77/65/98 76/64/97
f 64/77/134 65/78/135 78/66/99 77/65/98
f 65/78/135 54/68/124 66/54/87 78/66/99
s 9
f 79/79/136 91/80/137 92/81/138 80/138/139
f 80/138/139 92/81/138 93/83/140 81/137/141
f 81/137/141 93/83/140 94/85/142 82/136/143
f 82/136/143 94/85/142 95/87/144 83/135/145
f 83/135/145 95/87/144 96/89/146 84/134/147
f 84/134/147 96/89/146 97/91/148 85/133/149
f 85/133/149 97/91/148 98/93/150 86/132/151
f 86/132/151 98/93/150 99/95/152 87/131/153
f 87/131/153 99/95/152 100/97/154 88/130/155
f 88/130/155 100/97/154 101/99/156 89/129/157
f 89/129/157 101/99/156 102/101/158 90/102/159
f 90/102/159 102/101/158 91/80/137 79/79/136
s 10
f 80/82/160 103/103/161 79/79/162
f 81/84/163 103/103/161 80/82/160
f 82/86/164 103/103/161 81/84/163
f 83/88/165 103/103/161 82/86/164
f 84/90/166 103/103/161 83/88/165
f 85/92/167 103/103/161 84/90/166
f 86/94/168 103/103/161 85/92/167
f 87/96/169 103/103/161 86/94/168
f 88/98/170 103/103/161 87/96/169
f 89/100/171 103/103/161 88/98/170
f 90/102/172 103/103/161 89/100/171
f 79/79/162 103/103/161 90/102/172
s 11
f 116/104/173 118/105/174 117/106/175
f 117/106/175 118/105/174 119/107/176
f 119/107/176 118/105/174 120/108/177
f 120/108/177 118/105/174 121/109/178
f 121/109/178 118/105/174 122/110/179
f 122/110/179 118/105/174 123/111/180
f 123/111/180 118/105/174 124/112/181
f 124/112/181 118/105/174 125/113/182
f 125/113/182 118/105/174 126/114/183
f 126/114/183 118/105/174 127/115/184
f 127/115/184 118/105/174 128/116/185
f 128/116/185 118/105/174 116/104/173
s 12
f 91/80/186 104/117/187 105/118/188 92/81/189
f 92/81/189 105/118/188 106/119/190 93/83/191
f 93/83/191 106/119/190 107/120/192 94/85/193
f 94/85/193 107/120/192 108/121/194 95/87/195
f 95/87/195 108/121/194 109/122/196 96/89/197
f 96/89/197 109/122/196 110/123/198 97/91/199
f 97/91/199 110/123/198 111/124/200 98/93/201
f 98/93/201 111/124/200 112/125/202 99/95/203
f 99/95/203 112/125/202 113/126/204 100/97/205
f 100/97/205 113/126/204 114/127/206 101/99/207
f 101/99/207 114/127/206 115/128/208 102/101/209
f 102/101/209 115/128/208 104/117/187 91/80/186
s 11
f 104/117/210 116/104/173 117/106/175 105/118/211
f 105/118/211 117/106/175 119/107/176 106/119/212
f 106/119/212 119/107/176 120/108/177 107/120/213
f 107/120/213 120/108/177 121/109/178 108/121/214
f 108/121/214 121/109/178 122/110/179 109/122/215
f 109/122/215 122/110/179 123/111/180 110/123/216
f 110/123/216 123/111/180 124/112/181 111/124/217
f 111/124/217 124/112/181 125/113/182 112/125/218
f 112/125/218 125/113/182 126/114/183 113/126/219
f 113/126/219 126/114/183 127/115/184 114/127/220
f 114/127/220 127/115/184 128/116/185 115/128/221
f 115/128/221 128/116/185 116/104/173 104/117/210
